<svg id="Layer_1" data-name="Layer 1" xmlns="http://www.w3.org/2000/svg" viewBox="0 0 215 170"><defs><style>.cls-1{fill:none;stroke:#818181;stroke-miterlimit:10;stroke-width:4px;}.cls-2{fill:#fff;}</style></defs><title>front10-logo</title><polygon class="cls-1" points="170.28 29.8 139.63 12.1 108.98 29.8 108.98 65.18 139.63 82.88 170.28 65.18 170.28 29.8"/><polygon class="cls-1" points="139.93 83.27 109.28 65.57 78.64 83.27 78.64 118.66 109.28 136.35 139.93 118.66 139.93 83.27"/><polygon class="cls-1" points="201.14 83.09 170.49 65.4 139.84 83.09 139.84 118.48 170.49 136.18 201.14 118.48 201.14 83.09"/><polygon class="cls-1" points="201.19 47.13 139.97 11.78 78.59 47.4 78.44 118.36 139.66 153.71 201.04 118.09 201.19 47.13"/><polygon class="cls-1" points="209.38 42.38 139.99 2.31 70.42 42.68 70.25 123.11 139.64 163.18 209.21 122.81 209.38 42.38"/></svg>
