<svg id="Layer_1" data-name="Layer 1" xmlns="http://www.w3.org/2000/svg" viewBox="0 0 251 251"><defs><style>.cls-1,.cls-6{fill:#f2f2f2;}.cls-1{stroke:#b3b3b3;}.cls-1,.cls-2{stroke-miterlimit:10;}.cls-2{fill:none;stroke:#333;stroke-width:1.5px;}.cls-3{fill:#333;}.cls-4{fill:#e0bb05;}.cls-5{fill:#fff;}</style></defs><title>backers</title><rect class="cls-1" x="0.5" y="0.5" width="250" height="250" rx="13.7" ry="13.7"/><circle class="cls-2" cx="126.5" cy="126.5" r="92.5"/><path class="cls-3" d="M164.42,182s-31.31,9.93-77.13,0l42.76-1.53Z" transform="translate(-1 -1)"/><path class="cls-3" d="M88.94,90.45a1,1,0,0,1,.49-.2c6.18-.69,8.6-5.91,12.16-9.88,7-7.78,15.48-12.65,26.29-12.57,1,0,2,.34,2.94-.36h1.53c5.56,1.92,11.29,3.29,16.34,6.61,6.55,4.3,11.2,10.14,14.93,16.85-.92,1.52-2.45,1.72-4,1.72-21.92,0-43.83.3-65.75-.15C92.2,91.91,89.7,93.3,88.94,90.45Z" transform="translate(-1 -1)"/><path class="cls-3" d="M137.69,182H94.93a3.59,3.59,0,0,1-1.11-3.11c1.23-9.83,4.66-18.62,12.24-25.4a4.86,4.86,0,0,1,2-1.08,3.07,3.07,0,0,1,1.17,0,6,6,0,0,1,2.8,1.86q12,11.91,23.89,23.92C136.91,179.16,138.34,180.13,137.69,182Z" transform="translate(-1 -1)"/><path class="cls-3" d="M156,157.62c5.47,7.2,9,15.07,8.4,24.36-3.06.77-9.17,2.29-11.46,2.29-3.38-1.41-7.92-6.52-10.34-9.06-3.37-3.57-7.43-6.5-10-10.78-.36-1.73.63-2.92,1.71-4,3.84-3.87,7.56-7.85,11.59-11.53,1.41-.43,2.53.21,3.62,1,1.33,1.16,2.73,2.23,4.14,3.29C154.74,154.48,156.69,155.35,156,157.62Z" transform="translate(-1 -1)"/><path class="cls-4" d="M133.17,164.39c6,5.68,14.28,13.7,19.79,19.88a87.67,87.67,0,0,1-12.21,1.53c-5.33-6.44-14.72-15.7-20.48-21.71-3.58-3.74-7.23-7.41-10.85-11.11-.89-3.81,2.8-3.67,4.5-5.26,2.09-.55,3.88.24,5.63,1.23,2.35,2.28,4.88,4.39,6.82,7.06C128.37,159,131.75,160.91,133.17,164.39Z" transform="translate(-1 -1)"/><path class="cls-3" d="M108.74,152.94c-9.42,7.39-13.11,17.51-13.81,29H87.29c1.27-2.35.5-5,1.06-7.45a39.63,39.63,0,0,1,8.1-16.93c-.63-2.26,1.32-3.15,2.38-4.51,1.53-1.26,3-2.6,4.58-3.77a3.8,3.8,0,0,1,2.28-.27C107.55,149.68,108.91,150.71,108.74,152.94Z" transform="translate(-1 -1)"/><path class="cls-3" d="M130.82,67.44c-2,1.59-4.41.43-6.59,1-10.23,2.71-19,7.71-24.72,16.78-2.54,4-5.33,6.12-10.08,5,5.24-10.91,13.9-17.73,25.33-21.3,1.54-.48,3.27-.41,4.6-1.51Z" transform="translate(-1 -1)"/><path class="cls-3" d="M166.79,114.21c-.24,6.5-3,12.08-6.3,17.48-.57.95-1.53,1.69-1.61,2.92-.87,3.1-3.41,4.85-5.59,6.89-3.25,2.48-6.84,4.41-10.26,6.62-3.05.62-5.94,1.92-9.07,2.22a10.77,10.77,0,0,0-4,.34,5.35,5.35,0,0,1-1.2,0c-8-.94-15.25-3.41-21.68-8.37C99,136.05,94.22,127.78,91.75,118c-.56-2.21-1.82-5.06.59-6.71s5.3-1.42,7.93.08c.94,1.51.09,2.94-.23,4.39a7.74,7.74,0,0,0,9.7,9.34,39.38,39.38,0,0,0,5-1.85,29.3,29.3,0,0,1,22.93,0c1.41.57,2.81,1.15,4.25,1.65,3,1,5.8.88,8.14-1.38a8,8,0,0,0,2.44-8.29c-.4-1.47-1.53-3.16.55-4.4,3.67-1.12,7.43-.67,11.14-.42C166.31,110.55,167.72,111.71,166.79,114.21Z" transform="translate(-1 -1)"/><path class="cls-4" d="M93.41,91.1,159.05,91c1.53,0,3-.09,4.57-.13,4.9,1.2,4.26,5.77,5.08,9.1.62,2.5,2.92,5.88-1.08,8-1.63,1.34-3.6,1-5.47,1q-27.72,0-55.43,0c-5-.12-10.06.25-15.08-.22a3.53,3.53,0,0,1-2.77-3.22C88.87,100.34,89.08,95.05,93.41,91.1Z" transform="translate(-1 -1)"/><path class="cls-4" d="M152.71,140.8c1.93-2.19,3.74-4.5,6.17-6.19l2.58,2.57c2.3.46,3.64,2.25,5.19,3.75a4.51,4.51,0,0,1,1.4,3c-1.13,3.09-3.07,5.3-6.46,5.95a5.19,5.19,0,0,1-3-1.49c-1.32-1.37-2.7-2.7-4.07-4C153.67,143.34,152.44,142.45,152.71,140.8Z" transform="translate(-1 -1)"/><path class="cls-3" d="M165.94,141.5l-4.48-4.32c3.83-2.16,6.34-5.78,9.46-8.72,1.9-1.79,3.81-2.92,6.46-2.1,1.6,2.47,0,4-1.6,5.57a6.85,6.85,0,0,0-3.24,3,4.78,4.78,0,0,1-2,1.47,3.19,3.19,0,0,0-2,2C168,139.67,167.44,141,165.94,141.5Z" transform="translate(-1 -1)"/><path class="cls-4" d="M161.22,149.22c3-.89,4.6-3.38,6.38-5.66,1.18-.08,1.58.79,2,1.64.82,1.32,3.26,2.08,2.42,3.85a10.39,10.39,0,0,1-5.22,5.19c-1.91.75-2.57-2.45-4.46-2.9A1.55,1.55,0,0,1,161.22,149.22Z" transform="translate(-1 -1)"/><path class="cls-3" d="M166.79,114.21c0-1.94-1-2.54-2.87-2.5-3.87.07-7.74,0-11.61,0-1.86-.27-3.65-.59-3-3.21a122.75,122.75,0,0,1,18,.1C167.4,110.5,167.81,112.43,166.79,114.21Z" transform="translate(-1 -1)"/><path class="cls-3" d="M161.22,149.22c.37.71.74,1.42,1.12,2.12L156,157.62l-3.12-3.72c.38-3.5,2.54-5.71,6.15-6.27Z" transform="translate(-1 -1)"/><path class="cls-4" d="M167.34,108.61c-4.89,0-9.79,0-14.69,0-1.21,0-2.54-.35-3.55.73-1.17,1-2.61.88-4,.89q-16.78,0-33.58,0c-1.65,0-3.33.06-4.78-1a1,1,0,0,1-.36-1.3l61.24.07A1.57,1.57,0,0,1,167.34,108.61Z" transform="translate(-1 -1)"/><path class="cls-3" d="M175.11,131.59c1-1.64,2.44-3.09,2.27-5.23,3.79,2.21,4.28,4.74,1.58,8.29C176.25,135.44,175.08,134.27,175.11,131.59Z" transform="translate(-1 -1)"/><path class="cls-5" d="M175.11,131.59c.95,1.44,1.94,2.83,3.85,3.06a14,14,0,0,1-3.83,3.85c-1.54-.88-2.81-2-3.07-3.86C171.76,132.3,172.78,131.29,175.11,131.59Z" transform="translate(-1 -1)"/><path class="cls-5" d="M167.49,137.68a2.21,2.21,0,0,1,2.27-2.27c2.1.6,4.24,1.15,4.62,3.83a9.55,9.55,0,0,1-3.07,3.06C168.58,142,168.1,139.77,167.49,137.68Z" transform="translate(-1 -1)"/><path class="cls-3" d="M167.49,137.68l3.82,4.62c-.53,1-1.68,1.62-1.71,2.9l-2-1.64-1.66-2.06C166.46,140.23,167,139,167.49,137.68Z" transform="translate(-1 -1)"/><path class="cls-3" d="M174.38,139.24l-4.62-3.83,2.3-.77c1.44,1,2.84,1.94,3.07,3.86Z" transform="translate(-1 -1)"/><path class="cls-3" d="M100.19,111.7c-9,.09-9,.09-6.52,8.84a40.29,40.29,0,0,0,33.93,28.65,6.54,6.54,0,0,1,1.7.71c-3.34,2.71-6.7,1.62-10.06,0a12,12,0,0,0-5.22-1.53c-1.73.66-3.21-.22-4.76-.73a94,94,0,0,1-9.87-5.58c-2-2.47-5-4.11-5.85-7.46-3.67-6.17-7.17-12.39-8.17-19.69a31.09,31.09,0,0,1-.26-6.39c1.88-1.85,3.91-1.28,6-.38,4.06.45,8.17-.4,12.21.47C103.62,111.07,102.47,112,100.19,111.7Z" transform="translate(-1 -1)"/><path class="cls-4" d="M91.1,108.47l-6,.1a4.24,4.24,0,0,1-2.29-5c.75-3.15,1.5-6.3,2.37-9.42a4.65,4.65,0,0,1,3.75-3.69c1.37,1,3,.28,4.47.65A62.54,62.54,0,0,0,90,103.42a5.34,5.34,0,0,0,1.09,4.46c.3.15.39.29.29.41A.43.43,0,0,1,91.1,108.47Z" transform="translate(-1 -1)"/><path class="cls-4" d="M93.54,134.65c2.23,2,4.77,3.74,6,6.63,0,1.36-.85,2.23-1.67,3.13-1.36,1.32-2.71,2.64-4,4a5.11,5.11,0,0,1-2.92,1.51c-3.41-.59-5.33-2.83-6.51-5.89a4.55,4.55,0,0,1,1.37-3.08c1.58-1.48,2.9-3.33,5.24-3.74Z" transform="translate(-1 -1)"/><path class="cls-3" d="M91,137.2l-4.49,4.33c-1.52-.53-2-1.86-2.59-3.17a3.23,3.23,0,0,0-2-1.94A4.75,4.75,0,0,1,80,135,6.33,6.33,0,0,0,77,132.13c-2-1.64-3.07-3.46-1.18-5.87,2.38-.63,4,.58,5.63,2.1C84.66,131.3,87.18,135,91,137.2Z" transform="translate(-1 -1)"/><path class="cls-4" d="M84.89,143.59c1.78,2.27,3.37,4.76,6.38,5.65a1.56,1.56,0,0,1-1.11,2.1c-.22.11-.46.21-.67.33-1.39.76-2.18,3.37-3.75,2.58a13.93,13.93,0,0,1-5.08-4.84c-1.3-2,1.44-2.78,2.23-4.19C83.28,144.34,83.7,143.49,84.89,143.59Z" transform="translate(-1 -1)"/><path class="cls-3" d="M90.16,151.34l1.11-2.1c.72-.54,1.45-1.07,2.18-1.6q5.44.95,6.11,6.24l-3.11,3.72Z" transform="translate(-1 -1)"/><path class="cls-3" d="M75.84,126.26c-.14,2.16,0,4.23,2.29,5.33.12,2.68-1.19,3.92-3.84,3.82C70.48,131.44,71.05,128.08,75.84,126.26Z" transform="translate(-1 -1)"/><path class="cls-5" d="M82.71,135.41A2.21,2.21,0,0,1,85,137.69c-.62,2.06-1.08,4.26-3.8,4.57a8.85,8.85,0,0,1-3.07-3C78.46,136.51,80.64,136,82.71,135.41Z" transform="translate(-1 -1)"/><path class="cls-5" d="M74.29,135.41a12.18,12.18,0,0,0,3.84-3.82c2.33-.16,2.36,1.4,2.29,3-.25,1.89-1.6,2.91-3.06,3.83A9,9,0,0,1,74.29,135.41Z" transform="translate(-1 -1)"/><path class="cls-3" d="M81.19,142.26l3.8-4.57,1.55,3.84-1.65,2.06-2,1.64C82.89,143.91,81.72,143.27,81.19,142.26Z" transform="translate(-1 -1)"/><path class="cls-3" d="M77.36,138.47c.23-1.91,1.62-2.89,3.06-3.83l2.29.77-4.59,3.81Z" transform="translate(-1 -1)"/><path class="cls-4" d="M109.63,146.94a7.79,7.79,0,0,1,4.39,1.48c-1,2-4,2.06-4.6,4.56l-.68,0-3.13-3.14C105.69,147.08,107.57,146.89,109.63,146.94Z" transform="translate(-1 -1)"/><path class="cls-4" d="M134,149.2c3.07-.11,5.67-2.68,8.94-1.75,1.78-.71,2.75,0,3.21,1.75-2.67,4.66-7.19,7.61-10.62,11.57-.95,1.09-2.53,1.79-2.39,3.62a36.45,36.45,0,0,1-7.66-7.68,24.85,24.85,0,0,1,7.08-6.89C133.06,149.58,133.57,149.45,134,149.2Z" transform="translate(-1 -1)"/><path class="cls-3" d="M149,150.59l6.39-6.69a13.2,13.2,0,0,1,3.68,3.73,27.93,27.93,0,0,0-6.15,6.27A13.28,13.28,0,0,1,149,150.59Z" transform="translate(-1 -1)"/><path class="cls-3" d="M133.26,149.94c-2.46,2.41-4.17,5.66-7.75,6.77L119.24,150l10.06,0h.75A3.18,3.18,0,0,1,133.26,149.94Z" transform="translate(-1 -1)"/><path class="cls-3" d="M97.13,143.92l6.1,6.08c-.19,2.26-2.37,2.65-3.67,3.88a28.48,28.48,0,0,0-6.11-6.24A12.43,12.43,0,0,1,97.13,143.92Z" transform="translate(-1 -1)"/><path class="cls-6" d="M100.19,111.7l3.15-2.35a2.21,2.21,0,0,1,3-.79l37.13.08a14.69,14.69,0,0,1,5.59.69l3.21,2.39c2.68,5,2.61,8.65-.25,12-3.05,3.52-6.77,4.37-12,1.91a30.68,30.68,0,0,0-27.46,0c-5.22,2.44-8.79,1.69-11.81-1.59S97.54,116.94,100.19,111.7Z" transform="translate(-1 -1)"/><path class="cls-3" d="M133.26,149.94l-3.21,0c1.17-1.15,2.62-.65,4-.7Z" transform="translate(-1 -1)"/><path class="cls-4" d="M106.38,108.56l-3,.79c-4-1.73-8.19-.18-12.24-.88l0-.59,15.25.06Z" transform="translate(-1 -1)"/><path class="cls-3" d="M139.18,116.19c0-1.62-.1-3.18,1.59-3.32s2,1.32,2,2.65,0,2.82-1.65,3S139.25,117.16,139.18,116.19Z" transform="translate(-1 -1)"/><path class="cls-3" d="M113.27,115.62c-.06,1.24.16,2.79-1.62,2.87s-1.86-1.46-1.86-2.71.11-2.82,1.74-2.9S113.27,114.32,113.27,115.62Z" transform="translate(-1 -1)"/></svg>