<svg id="Layer_1" data-name="Layer 1" xmlns="http://www.w3.org/2000/svg" viewBox="0 0 251 251"><defs><style>.cls-1{fill:#f2f2f2;stroke:#b3b3b3;}.cls-1,.cls-2{stroke-miterlimit:10;}.cls-2{fill:none;stroke:#333;stroke-width:1.5px;}.cls-3{fill:#e0bb05;}.cls-4{fill:#333;}</style></defs><title>social</title><rect class="cls-1" x="0.5" y="0.5" width="250" height="250" rx="13.7" ry="13.7"/><rect class="cls-2" x="33.5" y="35.5" width="185" height="182" rx="13.73" ry="13.73"/><path class="cls-3" d="M90,70.09a22,22,0,0,0-3.67,43.67V96.68H81V90.54h5.31V86c0-5.26,3.21-8.13,7.91-8.13a41.69,41.69,0,0,1,4.74.25v5.49H95.72c-2.55,0-3,1.22-3,3v3.92h6.08L98,96.68H92.68v17.23A22,22,0,0,0,90,70.09Zm0,0" transform="translate(-1 -1)"/><path class="cls-4" d="M161.86,169.44a4.58,4.58,0,1,0-3.71-7.25,4.65,4.65,0,0,0-.87,2.67,4.59,4.59,0,0,0,4.58,4.58Zm0,0" transform="translate(-1 -1)"/><path class="cls-4" d="M171.85,159.26v-4.41h-.57l-3.84,0,0,4.4Zm0,0" transform="translate(-1 -1)"/><path class="cls-4" d="M161.86,142a22.86,22.86,0,1,0,22.86,22.86A22.89,22.89,0,0,0,161.86,142Zm13,20.19v10.65a5,5,0,0,1-5,5h-16a5,5,0,0,1-5-5v-16a5,5,0,0,1,5-5h16a5,5,0,0,1,5,5Zm0,0" transform="translate(-1 -1)"/><path class="cls-4" d="M169,164.86a7.11,7.11,0,1,1-14.22,0,7.21,7.21,0,0,1,.52-2.67h-3.88v10.65a2.49,2.49,0,0,0,2.49,2.49h16a2.49,2.49,0,0,0,2.49-2.49V162.19h-3.88a7.21,7.21,0,0,1,.52,2.67Zm0,0" transform="translate(-1 -1)"/><path class="cls-4" d="M165.84,88.75a3.49,3.49,0,0,0-3.17,1.75V89h-3.52c0,1,0,10.61,0,10.61h3.52V93.69a2.46,2.46,0,0,1,.11-.86,1.93,1.93,0,0,1,1.81-1.29c1.28,0,1.79,1,1.79,2.39v5.68h3.52V93.52c0-3.25-1.74-4.77-4.06-4.77Zm-3.17,1.79h0s0,0,0,0Zm0,0" transform="translate(-1 -1)"/><rect class="cls-4" x="152.67" y="88" width="3.53" height="10.6"/><path class="cls-4" d="M161.86,70a21.86,21.86,0,1,0,21.86,21.86A21.89,21.89,0,0,0,161.86,70Zm11.6,31.75a1.71,1.71,0,0,1-1.73,1.68H151.85a1.7,1.7,0,0,1-1.73-1.68V81.64A1.71,1.71,0,0,1,151.85,80h19.88a1.72,1.72,0,0,1,1.73,1.69Zm0,0" transform="translate(-1 -1)"/><path class="cls-4" d="M155.45,83.89a1.84,1.84,0,1,0,0,3.67h0a1.84,1.84,0,1,0,0-3.67Zm0,0" transform="translate(-1 -1)"/><path class="cls-4" d="M90.86,142a22.86,22.86,0,1,0,22.86,22.86A22.89,22.89,0,0,0,90.86,142Zm10.2,17.63c0,.23,0,.45,0,.68a15,15,0,0,1-23,12.61,10.36,10.36,0,0,0,1.25.07,10.59,10.59,0,0,0,6.54-2.25,5.27,5.27,0,0,1-4.92-3.66,4.62,4.62,0,0,0,1,.1,4.91,4.91,0,0,0,1.39-.19,5.25,5.25,0,0,1-4.22-5.15v-.07a5.2,5.2,0,0,0,2.38.66,5.28,5.28,0,0,1-1.63-7,14.93,14.93,0,0,0,10.85,5.5,5.19,5.19,0,0,1-.14-1.2,5.26,5.26,0,0,1,9.1-3.6,10.3,10.3,0,0,0,3.35-1.28,5.28,5.28,0,0,1-2.32,2.92,10.47,10.47,0,0,0,3-.83,10.59,10.59,0,0,1-2.62,2.72Zm0,0" transform="translate(-1 -1)"/></svg>