<svg id="Layer_1" data-name="Layer 1" xmlns="http://www.w3.org/2000/svg" viewBox="0 0 251 251"><defs><style>.cls-1,.cls-5{fill:#f2f2f2;}.cls-1{stroke:#b3b3b3;}.cls-1,.cls-2,.cls-3{stroke-miterlimit:10;}.cls-2{fill:none;stroke-width:1.5px;}.cls-2,.cls-3{stroke:#333;}.cls-3{fill:#e0bb05;}.cls-4{fill:#333;}</style></defs><title>video</title><rect class="cls-1" x="0.5" y="0.5" width="250" height="250" rx="13.7" ry="13.7"/><rect class="cls-2" x="33.5" y="34.5" width="185" height="183" rx="13.73" ry="13.73"/><rect class="cls-3" x="56.14" y="82.5" width="139.71" height="88" rx="5" ry="5"/><circle class="cls-4" cx="125.5" cy="126.5" r="16"/><path class="cls-5" d="M133.84,127.47l-4.24,2.45c-2,1.14-3.95,2.26-5.91,3.42-.49.28-.71.4-.71-.36,0-3.71,0-7.43,0-11.15,0-.39,0-.75.54-.41,3.32,1.94,6.66,3.85,10,5.78A2.83,2.83,0,0,1,133.84,127.47Z" transform="translate(-1 -1)"/></svg>