<?xml version="1.0" encoding="iso-8859-1"?>
<!-- Generator: Adobe Illustrator 18.0.0, SVG Export Plug-In . SVG Version: 6.00 Build 0)  -->
<!DOCTYPE svg PUBLIC "-//W3C//DTD SVG 1.1//EN" "http://www.w3.org/Graphics/SVG/1.1/DTD/svg11.dtd">
<svg version="1.1" id="Capa_1" xmlns="http://www.w3.org/2000/svg" xmlns:xlink="http://www.w3.org/1999/xlink" x="0px" y="0px"
	 viewBox="0 0 49 49" style="enable-background:new 0 0 49 49;" xml:space="preserve">
<g>
	<rect x="6.8" y="18.688" style="fill:#FFFFFF;" width="35.375" height="14.5"/>
	<path style="fill:#FBD971;" d="M38.453,34c-1.321,0.133-2.642,0.272-3.944,0.533l-5.856,1.171
		c-0.945,0.189-1.828-0.534-1.828-1.498v-8.717c0-0.752,0.543-1.393,1.287-1.505c0,0,7.2-0.368,10.766-10.966
		C35.089,9.299,29.903,7,24.175,7C18.69,7,13.712,9.12,9.971,12.564c3.509,11.045,10.917,11.419,10.917,11.419
		c0.744,0.112,1.287,0.753,1.287,1.505v8.717c0,0.964-0.882,1.687-1.828,1.498l-5.856-1.171c-1.302-0.26-2.623-0.399-3.944-0.533
		c-4.378-0.442-6.512-3.235-7.319-7.04C3.211,27.307,3.175,27.649,3.175,28c0,11.598,9.402,21,21,21
		c11.216,0,20.351-8.8,20.943-19.868C44.015,31.798,41.947,33.647,38.453,34z"/>
	<path style="fill:#AF8066;" d="M35.175,39.025v6.155c0,0.302,0.312,0.503,0.583,0.369c1.727-0.859,6.825-4.821,8.935-12.602
		c0.19-0.701,0.048-0.589-0.518-0.134l-8.826,5.878C35.24,38.767,35.175,38.892,35.175,39.025z"/>
	<path style="fill:#AF8066;" d="M13.175,39.025v6.155c0,0.302-0.312,0.503-0.583,0.369c-1.727-0.859-6.825-4.821-8.935-12.602
		c-0.19-0.701-0.048-0.589,0.518-0.134l8.826,5.878C13.11,38.767,13.175,38.892,13.175,39.025z"/>
	<path style="fill:#F0C419;" d="M28.825,44h-8c-0.553,0-1-0.447-1-1s0.447-1,1-1h8c0.553,0,1,0.447,1,1S29.377,44,28.825,44z"/>
	<path style="fill:#F0C419;" d="M24.563,39.583c-0.004,0-0.008,0-0.012,0c-0.315-0.004-0.61-0.156-0.796-0.411l-2.612-3.583
		c-0.326-0.446-0.228-1.071,0.219-1.396c0.446-0.327,1.072-0.228,1.396,0.219l1.825,2.502l1.799-2.344
		c0.335-0.438,0.963-0.521,1.401-0.185c0.438,0.336,0.521,0.964,0.185,1.401l-2.612,3.405
		C25.167,39.438,24.873,39.583,24.563,39.583z"/>
	<path style="fill:#556080;" d="M20.888,23.983c0,0-12.338-0.608-12.713-23.983c0,0-13.491,32.4,2.372,34
		c1.321,0.133,2.642,0.272,3.944,0.533l5.856,1.171c0.945,0.189,1.828-0.534,1.828-1.498v-8.717
		C22.175,24.736,21.633,24.095,20.888,23.983z M18.15,29.698l-1.509,2.526l-7.604-6.759L19.175,28L18.15,29.698z"/>
	<path style="fill:#556080;" d="M40.825,0C40.45,23.375,28.112,23.983,28.112,23.983c-0.744,0.112-1.287,0.753-1.287,1.505v8.717
		c0,0.964,0.882,1.687,1.828,1.498l5.856-1.171c1.302-0.26,2.623-0.399,3.944-0.533C54.315,32.4,40.825,0,40.825,0z M32.359,32.224
		l-1.509-2.526L29.825,28l10.139-2.535L32.359,32.224z"/>
</g>
<g>
</g>
<g>
</g>
<g>
</g>
<g>
</g>
<g>
</g>
<g>
</g>
<g>
</g>
<g>
</g>
<g>
</g>
<g>
</g>
<g>
</g>
<g>
</g>
<g>
</g>
<g>
</g>
<g>
</g>
</svg>
