<svg id="Layer_1" data-name="Layer 1" xmlns="http://www.w3.org/2000/svg" viewBox="0 0 391.03 795.69"><defs><style>.cls-1{fill:#fff;}.cls-2{fill:#212428;}.cls-3{fill:none;stroke:#f7ce23;stroke-miterlimit:10;stroke-width:6px;}.cls-4{fill:#c1c1c1;}</style></defs><title>front10-iphone</title><path class="cls-1" d="M597,228.57h.86a1.5,1.5,0,0,0,1.5-1.5V171.21a1.5,1.5,0,0,0-1.5-1.5H597V41A40,40,0,0,0,557,1H250.71a40,40,0,0,0-40,40v60.44h-.87a1.49,1.49,0,0,0-1.49,1.51v29.16a1.5,1.5,0,0,0,1.49,1.51h.87v36.09h-.87a1.5,1.5,0,0,0-1.49,1.5v55.86a1.5,1.5,0,0,0,1.49,1.5h.87v13.34h-.87a1.49,1.49,0,0,0-1.49,1.49v55.86a1.5,1.5,0,0,0,1.49,1.5h.87V756.69a40,40,0,0,0,40,40H557a40,40,0,0,0,40-40V228.57Z" transform="translate(-208.35 -1)"/><rect class="cls-2" x="23.18" y="93.68" width="344.67" height="603.93" rx="4.13" ry="4.13"/><polygon class="cls-3" points="237.65 322.43 195.26 297.95 152.87 322.43 152.87 371.35 195.26 395.83 237.65 371.35 237.65 322.43"/><polygon class="cls-3" points="195.68 396.37 153.29 371.89 110.92 396.37 110.92 445.31 153.29 469.77 195.68 445.31 195.68 396.37"/><polygon class="cls-3" points="280.32 396.12 237.94 371.66 195.55 396.12 195.55 445.06 237.94 469.54 280.32 445.06 280.32 396.12"/><polygon class="cls-3" points="280.39 346.39 195.73 297.51 110.85 346.76 110.64 444.89 195.3 493.78 280.18 444.52 280.39 346.39"/><polygon class="cls-3" points="291.72 339.82 195.76 284.41 99.55 340.24 99.31 451.46 195.27 506.88 291.48 451.05 291.72 339.82"/><ellipse class="cls-4" cx="195.52" cy="747.23" rx="30.24" ry="30.16"/><ellipse class="cls-1" cx="195.52" cy="747.23" rx="26.75" ry="26.68"/><path class="cls-4" d="M342.07,63.58a6.28,6.28,0,1,0-6.29-6.28,6.29,6.29,0,0,0,6.29,6.28Z" transform="translate(-208.35 -1)"/><path class="cls-4" d="M403.86,36.11a3.92,3.92,0,1,0-3.93-3.92,3.93,3.93,0,0,0,3.93,3.92Z" transform="translate(-208.35 -1)"/><path class="cls-4" d="M375.53,54.16a3.14,3.14,0,1,0,0,6.28h56.66a3.14,3.14,0,0,0,0-6.28Z" transform="translate(-208.35 -1)"/></svg>