<svg id="Layer_1" data-name="Layer 1" xmlns="http://www.w3.org/2000/svg" viewBox="0 0 488 442"><defs><style>.cls-1{fill:#f2f2f2;}.cls-2{fill:#999;}.cls-3{fill:#fec810;}.cls-4{fill:gray;}</style></defs><title>analytics</title><rect class="cls-1" x="3" y="3" width="482" height="436" rx="33.16" ry="33.16"/><path class="cls-2" d="M537.84,25A30.19,30.19,0,0,1,568,55.16V424.84A30.19,30.19,0,0,1,537.84,455H122.16A30.19,30.19,0,0,1,92,424.84V55.16A30.19,30.19,0,0,1,122.16,25H537.84m0-6H122.16A36.16,36.16,0,0,0,86,55.16V424.84A36.16,36.16,0,0,0,122.16,461H537.84A36.16,36.16,0,0,0,574,424.84V55.16A36.16,36.16,0,0,0,537.84,19Z" transform="translate(-86 -19)"/><path class="cls-3" d="M92,170.66V420.44A35.41,35.41,0,0,0,127.27,456H532.73A35.41,35.41,0,0,0,568,420.44c-5-32.13-28.74-180-58.52-229-5.31-8.71-16.48-27.07-31.22-26.55-10.09.36-17.7,9.43-21.46,14.75-23.7,62.53-39.8,76.85-50.72,75.73-22.21-2.29-24.62-68.7-57.55-74.74-15.44-2.84-29.78,8.9-40,17.7-38.08,32.81-30,74.3-56.57,83.59-15.58,5.44-36.12-2.59-46.82-14.75-21.91-24.89,3.45-60.17-19.51-87.53-12.73-15.16-32.34-18.4-40-19.67C118.37,155.48,97.6,167.24,92,170.66Z" transform="translate(-86 -19)"/><path class="cls-4" d="M441.39,365.27h-14a6.17,6.17,0,0,1-4.09-1.33,8.87,8.87,0,0,1-2.48-3.46l-29.66-73H267.72l-29.48,73a7.73,7.73,0,0,1-2.49,3.37,6.58,6.58,0,0,1-4.26,1.42H217.64L320.46,114h18.11ZM273.22,274H385.81L334.49,147q-1.25-3-2.49-6.84c-.83-2.54-1.66-5.24-2.49-8.08-.83,2.84-1.66,5.54-2.48,8.08s-1.66,4.89-2.49,7Z" transform="translate(-86 -19)"/></svg>