<svg id="Layer_1" data-name="Layer 1" xmlns="http://www.w3.org/2000/svg" viewBox="0 0 423.96 384"><defs><style>.cls-1{fill:#f2f2f2;}.cls-2{fill:gray;}.cls-3{fill:#ccc;}</style></defs><title>analytics</title><rect class="cls-1" x="2.61" y="2.61" width="418.75" height="378.79" rx="28.81" ry="28.81"/><path class="cls-2" d="M424.57,34.21a26.24,26.24,0,0,1,26.2,26.21V381.58a26.24,26.24,0,0,1-26.2,26.21H63.43a26.24,26.24,0,0,1-26.2-26.21V60.42a26.24,26.24,0,0,1,26.2-26.21H424.57m0-5.21H63.43A31.41,31.41,0,0,0,32,60.42h0V381.58A31.41,31.41,0,0,0,63.43,413H424.57A31.41,31.41,0,0,0,456,381.58h0V60.42A31.41,31.41,0,0,0,424.57,29Z" transform="translate(-32.02 -29)"/><path class="cls-3" d="M37.23,160.76v217a30.77,30.77,0,0,0,30.63,30.9H420.13a30.77,30.77,0,0,0,30.64-30.89h0c-4.34-27.91-25-156.38-50.84-198.95-4.61-7.57-14.32-23.52-27.12-23.07-8.77.32-15.38,8.2-18.65,12.82-20.59,54.32-34.58,66.76-44.06,65.79-19.3-2-21.39-59.68-50-64.93-13.42-2.47-25.87,7.73-34.75,15.38-33.09,28.5-26.07,64.55-49.15,72.62-13.54,4.72-31.38-2.25-40.68-12.82-19-21.62,3-52.27-17-76-11.06-13.17-28.09-16-34.75-17.09C60.14,147.57,42.1,157.79,37.23,160.76Z" transform="translate(-32.02 -29)"/><path class="cls-2" d="M344.7,334.27H332a5.56,5.56,0,0,1-3.7-1.2,8,8,0,0,1-2.24-3.13l-26.83-66H187.62l-26.66,66a7.11,7.11,0,0,1-2.25,3.05,6,6,0,0,1-3.86,1.28H142.33l93-227.27h16.39ZM192.6,251.72H294.43L248,136.85q-1.12-2.72-2.25-6.19t-2.25-7.31q-1.12,3.86-2.24,7.31c-.74,2.3-1.5,4.42-2.25,6.33Z" transform="translate(-32.02 -29)"/></svg>