<svg id="Layer_1" data-name="Layer 1" xmlns="http://www.w3.org/2000/svg" viewBox="0 0 251 251"><defs><style>.cls-1{fill:#f2f2f2;stroke:#b3b3b3;}.cls-1,.cls-2,.cls-3,.cls-5,.cls-6{stroke-miterlimit:10;}.cls-2,.cls-3{fill:none;}.cls-2,.cls-3,.cls-5,.cls-6{stroke:#333;}.cls-2,.cls-3,.cls-5{stroke-width:1.5px;}.cls-3{stroke-dasharray:6;}.cls-4{fill:#333;}.cls-5,.cls-6{fill:#e0bb05;}</style></defs><title>analytic</title><rect class="cls-1" x="0.5" y="0.5" width="250" height="250" rx="13.7" ry="13.7"/><rect class="cls-2" x="33.5" y="35.5" width="185" height="182" rx="13.73" ry="13.73"/><line class="cls-3" x1="49.82" y1="36" x2="49.82" y2="217.34"/><line class="cls-2" x1="218" y1="201.41" x2="33.9" y2="201.41"/><path class="cls-4" d="M65.94,131.16H93.66a3,3,0,0,1,3,3v67.25a0,0,0,0,1,0,0H62.94a0,0,0,0,1,0,0V134.16A3,3,0,0,1,65.94,131.16Z"/><path class="cls-5" d="M99.66,68.4h27.72a3,3,0,0,1,3,3v130a0,0,0,0,1,0,0H96.66a0,0,0,0,1,0,0V71.4A3,3,0,0,1,99.66,68.4Z"/><path class="cls-4" d="M133.38,103.06H161.1a3,3,0,0,1,3,3v95.35a0,0,0,0,1,0,0H130.38a0,0,0,0,1,0,0V106.06A3,3,0,0,1,133.38,103.06Z"/><path class="cls-6" d="M167.1,114.3h27.72a3,3,0,0,1,3,3v84.11a0,0,0,0,1,0,0H164.1a0,0,0,0,1,0,0V117.3A3,3,0,0,1,167.1,114.3Z"/><path class="cls-4" d="M107.62,51.18V61.37H104.8V54.69a9.37,9.37,0,0,1-1.32.85,11.25,11.25,0,0,1-1.61.61V53.87a7,7,0,0,0,2.21-1.1,4.37,4.37,0,0,0,1.23-1.59Z" transform="translate(-1 -1)"/><path class="cls-4" d="M111.77,51.35h6.61v2.22h-4.47l-.24,1.51a4.24,4.24,0,0,1,.92-.33,3.94,3.94,0,0,1,.89-.11,3.32,3.32,0,0,1,2.44.91,3,3,0,0,1,.94,2.29,3.91,3.91,0,0,1-.48,1.87A3.27,3.27,0,0,1,117,61.07a4.71,4.71,0,0,1-2.26.47,7,7,0,0,1-1.7-.18,3.76,3.76,0,0,1-1.21-.56A3.38,3.38,0,0,1,111,60a4.72,4.72,0,0,1-.51-1.17l2.81-.31a1.75,1.75,0,0,0,.48,1,1.29,1.29,0,0,0,.9.35,1.21,1.21,0,0,0,1-.44,2,2,0,0,0,.38-1.32,1.92,1.92,0,0,0-.38-1.31,1.33,1.33,0,0,0-1-.42,1.68,1.68,0,0,0-.78.2,2.43,2.43,0,0,0-.62.52l-2.37-.34Z" transform="translate(-1 -1)"/><path class="cls-4" d="M120,56.32c0-1.9.35-3.24,1-4a4,4,0,0,1,3.14-1.14,4.64,4.64,0,0,1,1.66.25,3.17,3.17,0,0,1,1.06.65,3.75,3.75,0,0,1,.64.84,4,4,0,0,1,.38,1,9.49,9.49,0,0,1,.28,2.34,6.87,6.87,0,0,1-.92,4,3.7,3.7,0,0,1-3.18,1.26,4.43,4.43,0,0,1-2-.4A3.29,3.29,0,0,1,120.75,60a4.65,4.65,0,0,1-.57-1.52A10.61,10.61,0,0,1,120,56.32Zm2.76,0a6.87,6.87,0,0,0,.34,2.61,1.05,1.05,0,0,0,1.72.41,1.88,1.88,0,0,0,.46-.94,10.67,10.67,0,0,0,.14-2,6.89,6.89,0,0,0-.34-2.68,1.07,1.07,0,0,0-1-.69,1.05,1.05,0,0,0-1,.7A7.51,7.51,0,0,0,122.74,56.33Z" transform="translate(-1 -1)"/><path class="cls-4" d="M141.62,86.18V96.37H138.8V89.69a9.37,9.37,0,0,1-1.32.85,11.25,11.25,0,0,1-1.61.61V88.87a7,7,0,0,0,2.21-1.1,4.37,4.37,0,0,0,1.23-1.59Z" transform="translate(-1 -1)"/><path class="cls-4" d="M152.79,96.37h-8.35a5.31,5.31,0,0,1,.87-2.32A11.9,11.9,0,0,1,148,91.47a7.75,7.75,0,0,0,1.57-1.38,1.51,1.51,0,0,0,.34-.89,1,1,0,0,0-.34-.79,1.2,1.2,0,0,0-.85-.32,1.18,1.18,0,0,0-.87.33,2.07,2.07,0,0,0-.46,1.19l-2.79-.23a4.37,4.37,0,0,1,.61-1.84,2.81,2.81,0,0,1,1.23-1,5.68,5.68,0,0,1,2.2-.35,6.07,6.07,0,0,1,2.29.34,2.7,2.7,0,0,1,1.75,2.58,3.17,3.17,0,0,1-.53,1.75,7.28,7.28,0,0,1-1.95,1.83c-.56.39-.94.66-1.13.82a7.82,7.82,0,0,0-.66.6h4.34Z" transform="translate(-1 -1)"/><path class="cls-4" d="M155.11,86.35h6.61v2.22h-4.48L157,90.08a4.44,4.44,0,0,1,.92-.33,4.1,4.1,0,0,1,.9-.11,3.34,3.34,0,0,1,2.44.91,3,3,0,0,1,.94,2.29,3.91,3.91,0,0,1-.48,1.87,3.27,3.27,0,0,1-1.37,1.36,4.75,4.75,0,0,1-2.27.47,6.89,6.89,0,0,1-1.69-.18,3.66,3.66,0,0,1-1.21-.56,3.21,3.21,0,0,1-.8-.85,4.08,4.08,0,0,1-.51-1.17l2.81-.31a1.75,1.75,0,0,0,.48,1,1.29,1.29,0,0,0,.9.35,1.24,1.24,0,0,0,1-.44,2,2,0,0,0,.38-1.32,1.87,1.87,0,0,0-.39-1.31,1.29,1.29,0,0,0-1-.42,1.68,1.68,0,0,0-.78.2,2.27,2.27,0,0,0-.62.52l-2.37-.34Z" transform="translate(-1 -1)"/><path class="cls-4" d="M174.62,96.18v10.19H171.8V99.69a9.37,9.37,0,0,1-1.32.85,11.25,11.25,0,0,1-1.61.61V98.87a7,7,0,0,0,2.21-1.1,4.37,4.37,0,0,0,1.23-1.59Z" transform="translate(-1 -1)"/><path class="cls-4" d="M177.64,101.32c0-1.9.35-3.24,1-4a4,4,0,0,1,3.14-1.14,4.61,4.61,0,0,1,1.66.25,3.17,3.17,0,0,1,1.06.65,3.47,3.47,0,0,1,.64.84,4,4,0,0,1,.38,1,9.49,9.49,0,0,1,.28,2.34,6.79,6.79,0,0,1-.92,4,3.67,3.67,0,0,1-3.18,1.26,4.43,4.43,0,0,1-2-.4,3.29,3.29,0,0,1-1.28-1.18,4.44,4.44,0,0,1-.56-1.52A9.89,9.89,0,0,1,177.64,101.32Zm2.77,0a6.93,6.93,0,0,0,.33,2.61,1.07,1.07,0,0,0,1,.7,1.05,1.05,0,0,0,.73-.29,1.88,1.88,0,0,0,.46-.94,9.72,9.72,0,0,0,.15-2,7.09,7.09,0,0,0-.34-2.68,1.1,1.1,0,0,0-1-.69,1.05,1.05,0,0,0-1,.7A7.58,7.58,0,0,0,180.41,101.33Z" transform="translate(-1 -1)"/><path class="cls-4" d="M187,101.32c0-1.9.35-3.24,1-4a4,4,0,0,1,3.14-1.14,4.64,4.64,0,0,1,1.66.25,3.17,3.17,0,0,1,1.06.65,3.75,3.75,0,0,1,.64.84,4,4,0,0,1,.38,1,9.49,9.49,0,0,1,.28,2.34,6.87,6.87,0,0,1-.92,4,3.7,3.7,0,0,1-3.18,1.26,4.43,4.43,0,0,1-2-.4,3.29,3.29,0,0,1-1.28-1.18,4.65,4.65,0,0,1-.57-1.52A10.61,10.61,0,0,1,187,101.32Zm2.76,0a6.87,6.87,0,0,0,.34,2.61,1.05,1.05,0,0,0,1.72.41,1.88,1.88,0,0,0,.46-.94,10.67,10.67,0,0,0,.14-2,6.89,6.89,0,0,0-.34-2.68,1.07,1.07,0,0,0-1-.69,1.05,1.05,0,0,0-1,.7A7.51,7.51,0,0,0,189.74,101.33Z" transform="translate(-1 -1)"/><path class="cls-4" d="M72,114.35h8.13v1.88a10,10,0,0,0-1.77,2.07,12.2,12.2,0,0,0-1.36,3,14.46,14.46,0,0,0-.53,3.05H73.71a16.19,16.19,0,0,1,1-4.11A15.76,15.76,0,0,1,77,116.7H72Z" transform="translate(-1 -1)"/><path class="cls-4" d="M82.44,114.35h6.61v2.22H84.57l-.24,1.51a4.65,4.65,0,0,1,.92-.33,4.1,4.1,0,0,1,.9-.11,3.32,3.32,0,0,1,2.44.91,3,3,0,0,1,.94,2.29,3.91,3.91,0,0,1-.48,1.87,3.27,3.27,0,0,1-1.37,1.36,4.71,4.71,0,0,1-2.26.47,6.92,6.92,0,0,1-1.7-.18,3.66,3.66,0,0,1-1.21-.56,3.38,3.38,0,0,1-.8-.85,4.08,4.08,0,0,1-.51-1.17l2.81-.31a1.75,1.75,0,0,0,.48,1,1.29,1.29,0,0,0,.9.35,1.23,1.23,0,0,0,1-.44,2,2,0,0,0,.38-1.32,1.87,1.87,0,0,0-.39-1.31,1.29,1.29,0,0,0-1-.42,1.68,1.68,0,0,0-.78.2,2.27,2.27,0,0,0-.62.52l-2.37-.34Z" transform="translate(-1 -1)"/></svg>