<?xml version="1.0" encoding="utf-8"?>
<!-- Generator: Adobe Illustrator 22.0.0, SVG Export Plug-In . SVG Version: 6.00 Build 0)  -->
<svg version="1.1" id="Layer_1" xmlns="http://www.w3.org/2000/svg" xmlns:xlink="http://www.w3.org/1999/xlink" x="0px" y="0px"
	 viewBox="0 0 513 388" style="enable-background:new 0 0 513 388;" xml:space="preserve">
<style type="text/css">
	.st0{fill:#E0E0E0;}
	.st1{fill:#CCCCCC;}
	.st2{fill:#808080;}
</style>
<title>backers</title>
<path class="st0" d="M118.9,73.5h5.1c26.2,0,47.4,21.2,47.4,47.4v5.1c0,26.2-21.2,47.4-47.4,47.4h-5.1c-26.2,0-47.4-21.2-47.4-47.4
	v-5.1C71.5,94.7,92.7,73.5,118.9,73.5z"/>
<path class="st1" d="M124.1,76.5c24.5,0,44.4,19.9,44.4,44.4v5.1c0,24.5-19.9,44.4-44.4,44.4h-5.1c-24.5,0-44.4-19.9-44.4-44.4v-5.1
	c0-24.5,19.9-44.4,44.4-44.4H124.1 M124.1,70.5h-5.1c-27.9,0-50.4,22.6-50.4,50.4c0,0,0,0,0,0v5.1c0,27.9,22.6,50.4,50.4,50.4h0h5.1
	c27.9,0,50.4-22.6,50.4-50.4v0v-5.1C174.5,93.1,151.9,70.5,124.1,70.5C124.1,70.5,124.1,70.5,124.1,70.5z"/>
<path class="st0" d="M253.9,73.5h5.1c26.2,0,47.4,21.2,47.4,47.4v5.1c0,26.2-21.2,47.4-47.4,47.4h-5.1c-26.2,0-47.4-21.2-47.4-47.4
	v-5.1C206.5,94.7,227.7,73.5,253.9,73.5z"/>
<path class="st1" d="M259.1,76.5c24.5,0,44.4,19.9,44.4,44.4v5.1c0,24.5-19.9,44.4-44.4,44.4h-5.1c-24.5,0-44.4-19.9-44.4-44.4v-5.1
	c0-24.5,19.9-44.4,44.4-44.4H259.1 M259.1,70.5h-5.1c-27.9,0-50.4,22.6-50.4,50.4c0,0,0,0,0,0v5.1c0,27.9,22.6,50.4,50.4,50.4l0,0
	h5.1c27.9,0,50.4-22.6,50.4-50.4v0v-5.1C309.5,93.1,286.9,70.5,259.1,70.5C259.1,70.5,259.1,70.5,259.1,70.5z"/>
<path class="st2" d="M388.9,73.5h5.1c26.2,0,47.4,21.2,47.4,47.4v5.1c0,26.2-21.2,47.4-47.4,47.4h-5.1c-26.2,0-47.4-21.2-47.4-47.4
	v-5.1C341.5,94.7,362.7,73.5,388.9,73.5z"/>
<path class="st1" d="M394.1,76.5c24.5,0,44.4,19.9,44.4,44.4v5.1c0,24.5-19.9,44.4-44.4,44.4h-5.1c-24.5,0-44.4-19.9-44.4-44.4v-5.1
	c0-24.5,19.9-44.4,44.4-44.4H394.1 M394.1,70.5h-5.1c-27.9,0-50.4,22.6-50.4,50.4c0,0,0,0,0,0v5.1c0,27.9,22.6,50.4,50.4,50.4l0,0
	h5.1c27.9,0,50.4-22.6,50.4-50.4v0v-5.1C444.5,93.1,421.9,70.5,394.1,70.5L394.1,70.5z"/>
<path class="st2" d="M118.9,214.5h5.1c26.2,0,47.4,21.2,47.4,47.4v5.1c0,26.2-21.2,47.4-47.4,47.4h-5.1c-26.2,0-47.4-21.2-47.4-47.4
	v-5.1C71.5,235.7,92.7,214.5,118.9,214.5z"/>
<path class="st1" d="M124.1,217.5c24.5,0,44.4,19.9,44.4,44.4v5.1c0,24.5-19.9,44.4-44.4,44.4h-5.1c-24.5,0-44.4-19.9-44.4-44.4
	v-5.1c0-24.5,19.9-44.4,44.4-44.4H124.1 M124.1,211.5h-5.1c-27.9,0-50.4,22.6-50.4,50.4l0,0v5.1c0,27.9,22.6,50.4,50.4,50.4
	c0,0,0,0,0,0h5.1c27.9,0,50.4-22.6,50.4-50.4l0,0v-5.1C174.5,234.1,151.9,211.5,124.1,211.5C124.1,211.5,124.1,211.5,124.1,211.5z"
	/>
<path class="st2" d="M253.9,214.5h5.1c26.2,0,47.4,21.2,47.4,47.4v5.1c0,26.2-21.2,47.4-47.4,47.4h-5.1c-26.2,0-47.4-21.2-47.4-47.4
	v-5.1C206.5,235.7,227.7,214.5,253.9,214.5z"/>
<path class="st1" d="M259.1,217.5c24.5,0,44.4,19.9,44.4,44.4v5.1c0,24.5-19.9,44.4-44.4,44.4h-5.1c-24.5,0-44.4-19.9-44.4-44.4
	v-5.1c0-24.5,19.9-44.4,44.4-44.4H259.1 M259.1,211.5h-5.1c-27.9,0-50.4,22.6-50.4,50.4l0,0v5.1c0,27.9,22.6,50.4,50.4,50.4l0,0h5.1
	c27.9,0,50.4-22.6,50.4-50.4c0,0,0,0,0,0v-5.1C309.5,234.1,286.9,211.5,259.1,211.5C259.1,211.5,259.1,211.5,259.1,211.5z"/>
<path class="st0" d="M388.9,214.5h5.1c26.2,0,47.4,21.2,47.4,47.4v5.1c0,26.2-21.2,47.4-47.4,47.4h-5.1c-26.2,0-47.4-21.2-47.4-47.4
	v-5.1C341.5,235.7,362.7,214.5,388.9,214.5z"/>
<path class="st1" d="M394.1,217.5c24.5,0,44.4,19.9,44.4,44.4v5.1c0,24.5-19.9,44.4-44.4,44.4h-5.1c-24.5,0-44.4-19.9-44.4-44.4
	v-5.1c0-24.5,19.9-44.4,44.4-44.4H394.1 M394.1,211.5h-5.1c-27.9,0-50.4,22.6-50.4,50.4l0,0v5.1c0,27.9,22.6,50.4,50.4,50.4l0,0h5.1
	c27.9,0,50.4-22.6,50.4-50.4c0,0,0,0,0,0v-5.1C444.5,234.1,421.9,211.5,394.1,211.5L394.1,211.5z"/>
</svg>
