<svg id="Layer_1" data-name="Layer 1" xmlns="http://www.w3.org/2000/svg" viewBox="0 0 251 251"><defs><style>.cls-1,.cls-6{fill:#f2f2f2;}.cls-1{stroke:#b3b3b3;}.cls-1,.cls-2{stroke-miterlimit:10;}.cls-2{fill:none;stroke:#333;stroke-width:1.5px;}.cls-3{fill:#333;}.cls-4{fill:#e0bb05;}.cls-5{fill:#fff;}</style></defs><title>backersopencollective</title><rect class="cls-1" x="0.5" y="0.5" width="250" height="250" rx="13.7" ry="13.7"/><circle class="cls-2" cx="83.5" cy="85.5" r="29.5"/><path class="cls-3" d="M96.27,103.88s-10,3.16-24.59,0l13.63-.49Z" transform="translate(-1 -1)"/><path class="cls-3" d="M72.2,74.68a.44.44,0,0,1,.16-.06c2-.22,2.74-1.89,3.88-3.15a10.82,10.82,0,0,1,8.38-4c.31,0,.65.11.94-.12h.49a22.6,22.6,0,0,1,5.21,2.11A14.83,14.83,0,0,1,96,74.83a1.33,1.33,0,0,1-1.27.55c-7,0-14,.09-21,0C73.24,75.15,72.44,75.59,72.2,74.68Z" transform="translate(-1 -1)"/><path class="cls-3" d="M87.75,103.88H74.11a1.15,1.15,0,0,1-.35-1,12.44,12.44,0,0,1,3.9-8.1,1.53,1.53,0,0,1,.64-.34.92.92,0,0,1,.37,0,2,2,0,0,1,.89.59q3.82,3.8,7.62,7.63C87.5,103,88,103.28,87.75,103.88Z" transform="translate(-1 -1)"/><path class="cls-3" d="M93.6,96.1a11.37,11.37,0,0,1,2.67,7.78,24.49,24.49,0,0,1-3.65.73,13.63,13.63,0,0,1-3.3-2.9,22.13,22.13,0,0,1-3.2-3.43A1.36,1.36,0,0,1,86.67,97c1.22-1.23,2.41-2.5,3.69-3.67a1.29,1.29,0,0,1,1.16.3c.42.37.87.71,1.32,1.05S93.81,95.38,93.6,96.1Z" transform="translate(-1 -1)"/><path class="cls-4" d="M86.31,98.26c1.92,1.82,4.55,4.37,6.31,6.35a28.48,28.48,0,0,1-3.9.48c-1.69-2-4.69-5-6.52-6.92-1.15-1.19-2.31-2.36-3.47-3.55-.28-1.21.9-1.17,1.44-1.67a2.3,2.3,0,0,1,1.8.39,19.23,19.23,0,0,1,2.17,2.25C84.78,96.55,85.86,97.15,86.31,98.26Z" transform="translate(-1 -1)"/><path class="cls-3" d="M78.52,94.61c-3,2.36-4.18,5.59-4.41,9.27H71.68c.4-.75.15-1.59.34-2.38a12.54,12.54,0,0,1,2.58-5.4c-.2-.72.42-1,.76-1.44s1-.83,1.46-1.2a1.19,1.19,0,0,1,.72-.09C78.14,93.57,78.57,93.9,78.52,94.61Z" transform="translate(-1 -1)"/><path class="cls-3" d="M85.56,67.34c-.64.51-1.41.14-2.1.33A12.64,12.64,0,0,0,75.57,73c-.81,1.28-1.7,2-3.21,1.6a12.69,12.69,0,0,1,8.08-6.79,3.87,3.87,0,0,0,1.47-.49Z" transform="translate(-1 -1)"/><path class="cls-3" d="M97,82.26a11.53,11.53,0,0,1-2,5.57c-.18.31-.49.55-.51.94A5.12,5.12,0,0,1,92.72,91c-1,.78-2.18,1.4-3.27,2.1a25.92,25.92,0,0,1-2.89.71,3.58,3.58,0,0,0-1.26.11,1.61,1.61,0,0,1-.38,0A13.22,13.22,0,0,1,73.1,83.48c-.18-.7-.58-1.61.19-2.14a2.32,2.32,0,0,1,2.53,0c.3.48,0,.94-.08,1.4a2.47,2.47,0,0,0,3.1,3,13.89,13.89,0,0,0,1.59-.59,9.37,9.37,0,0,1,7.31,0c.45.19.9.37,1.36.53a2.35,2.35,0,0,0,2.59-.44,2.52,2.52,0,0,0,.78-2.64c-.13-.47-.49-1,.17-1.4a9.7,9.7,0,0,1,3.56-.14C96.88,81.09,97.33,81.47,97,82.26Z" transform="translate(-1 -1)"/><path class="cls-4" d="M73.63,74.89l20.93,0c.49,0,1,0,1.46,0,1.56.38,1.36,1.84,1.62,2.9.2.8.93,1.87-.35,2.55a2.47,2.47,0,0,1-1.74.33H77.87c-1.6,0-3.21.08-4.81-.07a1.14,1.14,0,0,1-.88-1C72.18,77.84,72.25,76.15,73.63,74.89Z" transform="translate(-1 -1)"/><path class="cls-4" d="M92.54,90.74a11.13,11.13,0,0,1,2-2c.27.27.55.54.82.82A3.47,3.47,0,0,1,97,90.78a1.48,1.48,0,0,1,.44,1,2.67,2.67,0,0,1-2.06,1.9,1.63,1.63,0,0,1-.94-.47c-.42-.44-.86-.87-1.3-1.29C92.85,91.55,92.45,91.27,92.54,90.74Z" transform="translate(-1 -1)"/><path class="cls-3" d="M96.76,91l-1.43-1.38a17.31,17.31,0,0,0,3-2.78,2,2,0,0,1,2.06-.68c.51.79,0,1.29-.51,1.78a2.2,2.2,0,0,0-1,1,1.46,1.46,0,0,1-.65.47,1,1,0,0,0-.63.63A1.5,1.5,0,0,1,96.76,91Z" transform="translate(-1 -1)"/><path class="cls-4" d="M95.25,93.43a4.28,4.28,0,0,0,2-1.81c.37,0,.5.25.64.53s1,.66.77,1.22A3.33,3.33,0,0,1,97,95c-.61.24-.82-.78-1.42-.93A.49.49,0,0,1,95.25,93.43Z" transform="translate(-1 -1)"/><path class="cls-3" d="M97,82.26c0-.62-.33-.81-.92-.8-1.23,0-2.46,0-3.7,0-.59-.09-1.16-.19-.94-1a39.28,39.28,0,0,1,5.74,0A3.1,3.1,0,0,1,97,82.26Z" transform="translate(-1 -1)"/><path class="cls-3" d="M95.25,93.43l.36.67-2,2-1-1.18a2.14,2.14,0,0,1,2-2Z" transform="translate(-1 -1)"/><path class="cls-4" d="M97.21,80.48c-1.56,0-3.13,0-4.69,0-.39,0-.81-.11-1.13.23a1.75,1.75,0,0,1-1.28.29H79.4a2.53,2.53,0,0,1-1.52-.31.33.33,0,0,1-.12-.42l19.53,0A.5.5,0,0,1,97.21,80.48Z" transform="translate(-1 -1)"/><path class="cls-3" d="M99.68,87.81c.32-.53.78-1,.73-1.68,1.21.71,1.36,1.52.5,2.65C100.05,89,99.68,88.66,99.68,87.81Z" transform="translate(-1 -1)"/><path class="cls-5" d="M99.68,87.81a1.78,1.78,0,0,0,1.23,1A4.61,4.61,0,0,1,99.69,90a1.71,1.71,0,0,1-1-1.23C98.61,88,98.94,87.71,99.68,87.81Z" transform="translate(-1 -1)"/><path class="cls-5" d="M97.25,89.75A.72.72,0,0,1,98,89c.67.19,1.35.37,1.47,1.22a3.06,3.06,0,0,1-1,1C97.6,91.11,97.45,90.41,97.25,89.75Z" transform="translate(-1 -1)"/><path class="cls-3" d="M97.25,89.75l1.22,1.47c-.17.32-.53.52-.54.93l-.64-.53c-.18-.22-.35-.44-.53-.65Z" transform="translate(-1 -1)"/><path class="cls-3" d="M99.45,90.24,98,89l.73-.24a1.75,1.75,0,0,1,1,1.23Z" transform="translate(-1 -1)"/><path class="cls-3" d="M75.79,81.46c-2.87,0-2.87,0-2.08,2.82a12.87,12.87,0,0,0,10.82,9.14,2.27,2.27,0,0,1,.54.22c-1.06.87-2.13.52-3.21,0a3.72,3.72,0,0,0-1.66-.49c-.55.21-1-.07-1.52-.23a28.5,28.5,0,0,1-3.14-1.78c-.63-.79-1.6-1.31-1.87-2.38a16.87,16.87,0,0,1-2.61-6.28,10.69,10.69,0,0,1-.08-2,1.54,1.54,0,0,1,1.9-.12,36.22,36.22,0,0,1,3.9.15C76.89,81.26,76.52,81.55,75.79,81.46Z" transform="translate(-1 -1)"/><path class="cls-4" d="M72.89,80.43l-1.91,0a1.34,1.34,0,0,1-.73-1.59c.24-1,.48-2,.76-3a1.49,1.49,0,0,1,1.19-1.18c.44.33,1,.09,1.43.21a19.54,19.54,0,0,0-1.08,3.93,1.71,1.71,0,0,0,.35,1.42c.1.05.13.09.09.13A.12.12,0,0,1,72.89,80.43Z" transform="translate(-1 -1)"/><path class="cls-4" d="M73.67,88.78a6.5,6.5,0,0,1,1.92,2.12,1.44,1.44,0,0,1-.53,1c-.44.42-.87.84-1.29,1.28a1.67,1.67,0,0,1-.93.48,2.67,2.67,0,0,1-2.08-1.88,1.44,1.44,0,0,1,.44-1c.5-.48.92-1.07,1.67-1.2Z" transform="translate(-1 -1)"/><path class="cls-3" d="M72.87,89.59,71.44,91c-.49-.16-.65-.59-.83-1a1,1,0,0,0-.62-.63,1.44,1.44,0,0,1-.65-.46,2,2,0,0,0-.94-.9c-.62-.53-1-1.11-.38-1.87a1.8,1.8,0,0,1,1.8.67A18.47,18.47,0,0,0,72.87,89.59Z" transform="translate(-1 -1)"/><path class="cls-4" d="M70.91,91.63a4.28,4.28,0,0,0,2,1.8.49.49,0,0,1-.35.67l-.21.11c-.44.24-.7,1.07-1.2.82a4.59,4.59,0,0,1-1.62-1.54c-.41-.65.46-.89.71-1.34C70.4,91.87,70.53,91.6,70.91,91.63Z" transform="translate(-1 -1)"/><path class="cls-3" d="M72.59,94.1c.12-.22.24-.44.35-.67l.7-.51a2.14,2.14,0,0,1,2,2l-1,1.19Z" transform="translate(-1 -1)"/><path class="cls-3" d="M68,86.11c0,.68,0,1.34.73,1.69,0,.86-.37,1.26-1.22,1.22C66.32,87.76,66.5,86.69,68,86.11Z" transform="translate(-1 -1)"/><path class="cls-5" d="M70.22,89a.71.71,0,0,1,.72.73c-.19.66-.34,1.36-1.21,1.46a2.84,2.84,0,0,1-1-1C68.86,89.37,69.55,89.22,70.22,89Z" transform="translate(-1 -1)"/><path class="cls-5" d="M67.53,89a3.74,3.74,0,0,0,1.22-1.22c.75,0,.76.45.73,1a1.7,1.7,0,0,1-1,1.22A2.87,2.87,0,0,1,67.53,89Z" transform="translate(-1 -1)"/><path class="cls-3" d="M69.73,91.21l1.21-1.46c.17.41.33.82.5,1.22l-.53.66-.64.52C70.27,91.73,69.9,91.53,69.73,91.21Z" transform="translate(-1 -1)"/><path class="cls-3" d="M68.51,90a1.74,1.74,0,0,1,1-1.22l.74.24-1.47,1.22Z" transform="translate(-1 -1)"/><path class="cls-4" d="M78.8,92.7a2.5,2.5,0,0,1,1.4.47c-.33.65-1.29.66-1.47,1.45h-.21c-.34-.33-.67-.66-1-1C77.54,92.75,78.14,92.68,78.8,92.7Z" transform="translate(-1 -1)"/><path class="cls-4" d="M86.58,93.42c1,0,1.81-.85,2.85-.56.57-.22.88,0,1,.56-.85,1.49-2.3,2.43-3.39,3.69-.3.35-.81.57-.76,1.15a11.29,11.29,0,0,1-2.44-2.44,7.73,7.73,0,0,1,2.25-2.2C86.27,93.54,86.44,93.5,86.58,93.42Z" transform="translate(-1 -1)"/><path class="cls-3" d="M91.35,93.86l2-2.13a4.28,4.28,0,0,1,1.17,1.19,8.86,8.86,0,0,0-2,2A4.38,4.38,0,0,1,91.35,93.86Z" transform="translate(-1 -1)"/><path class="cls-3" d="M86.34,93.66c-.79.76-1.33,1.8-2.47,2.16l-2-2.16,3.21,0h.24A1,1,0,0,1,86.34,93.66Z" transform="translate(-1 -1)"/><path class="cls-3" d="M74.82,91.74l1.94,1.93c-.06.73-.76.85-1.17,1.24a9,9,0,0,0-2-2A3.91,3.91,0,0,1,74.82,91.74Z" transform="translate(-1 -1)"/><path class="cls-6" d="M75.79,81.46l1-.75a.71.71,0,0,1,1-.25l11.85,0a4.9,4.9,0,0,1,1.78.22l1,.77c.86,1.6.83,2.76-.08,3.81s-2.16,1.4-3.84.61a9.76,9.76,0,0,0-8.75,0c-1.67.78-2.81.54-3.77-.51S75,83.13,75.79,81.46Z" transform="translate(-1 -1)"/><path class="cls-3" d="M86.34,93.66l-1,0c.37-.36.84-.2,1.27-.22Z" transform="translate(-1 -1)"/><path class="cls-4" d="M77.76,80.46l-1,.25c-1.26-.55-2.61-.06-3.9-.28,0-.06,0-.12,0-.19l4.86,0Z" transform="translate(-1 -1)"/><path class="cls-3" d="M88.23,82.89c0-.51,0-1,.5-1.06s.63.43.63.85,0,.9-.52.95S88.25,83.2,88.23,82.89Z" transform="translate(-1 -1)"/><path class="cls-3" d="M80,82.71c0,.4.05.89-.51.92s-.6-.47-.6-.87,0-.9.56-.92S80,82.3,80,82.71Z" transform="translate(-1 -1)"/><circle class="cls-2" cx="170.5" cy="85.5" r="29.5"/><path class="cls-3" d="M183.27,103.88s-10,3.16-24.59,0l13.63-.49Z" transform="translate(-1 -1)"/><path class="cls-3" d="M159.2,74.68a.44.44,0,0,1,.16-.06c2-.22,2.74-1.89,3.88-3.15a10.82,10.82,0,0,1,8.38-4c.31,0,.65.11.94-.12h.49a22.6,22.6,0,0,1,5.21,2.11A14.83,14.83,0,0,1,183,74.83a1.33,1.33,0,0,1-1.27.55c-7,0-14,.09-21,0C160.24,75.15,159.44,75.59,159.2,74.68Z" transform="translate(-1 -1)"/><path class="cls-3" d="M174.75,103.88H161.11a1.15,1.15,0,0,1-.35-1,12.44,12.44,0,0,1,3.9-8.1,1.53,1.53,0,0,1,.64-.34.92.92,0,0,1,.37,0,2,2,0,0,1,.89.59q3.83,3.8,7.62,7.63C174.5,103,175,103.28,174.75,103.88Z" transform="translate(-1 -1)"/><path class="cls-3" d="M180.6,96.1a11.37,11.37,0,0,1,2.67,7.78,24.49,24.49,0,0,1-3.65.73,13.63,13.63,0,0,1-3.3-2.9,22.13,22.13,0,0,1-3.2-3.43,1.36,1.36,0,0,1,.55-1.28c1.22-1.23,2.41-2.5,3.69-3.67a1.29,1.29,0,0,1,1.16.3c.42.37.87.71,1.32,1.05S180.81,95.38,180.6,96.1Z" transform="translate(-1 -1)"/><path class="cls-4" d="M173.31,98.26c1.92,1.82,4.55,4.37,6.31,6.35a28.48,28.48,0,0,1-3.9.48c-1.69-2-4.69-5-6.52-6.92-1.15-1.19-2.31-2.36-3.47-3.55-.28-1.21.9-1.17,1.44-1.67a2.3,2.3,0,0,1,1.8.39,19.23,19.23,0,0,1,2.17,2.25C171.78,96.55,172.86,97.15,173.31,98.26Z" transform="translate(-1 -1)"/><path class="cls-3" d="M165.52,94.61c-3,2.36-4.18,5.59-4.41,9.27h-2.43c.4-.75.15-1.59.34-2.38a12.54,12.54,0,0,1,2.58-5.4c-.2-.72.42-1,.76-1.44s.95-.83,1.46-1.2a1.19,1.19,0,0,1,.72-.09C165.14,93.57,165.57,93.9,165.52,94.61Z" transform="translate(-1 -1)"/><path class="cls-3" d="M172.56,67.34c-.64.51-1.41.14-2.1.33A12.64,12.64,0,0,0,162.57,73c-.81,1.28-1.7,2-3.21,1.6a12.69,12.69,0,0,1,8.08-6.79,3.87,3.87,0,0,0,1.47-.49Z" transform="translate(-1 -1)"/><path class="cls-3" d="M184,82.26a11.53,11.53,0,0,1-2,5.57c-.18.31-.49.55-.51.94a5.12,5.12,0,0,1-1.79,2.2c-1,.78-2.18,1.4-3.27,2.1a25.92,25.92,0,0,1-2.89.71,3.58,3.58,0,0,0-1.26.11,1.61,1.61,0,0,1-.38,0A13.22,13.22,0,0,1,160.1,83.48c-.18-.7-.58-1.61.19-2.14a2.32,2.32,0,0,1,2.53,0c.3.48,0,.94-.08,1.4a2.47,2.47,0,0,0,3.1,3,13.89,13.89,0,0,0,1.59-.59,9.37,9.37,0,0,1,7.31,0c.45.19.9.37,1.36.53a2.35,2.35,0,0,0,2.59-.44,2.52,2.52,0,0,0,.78-2.64c-.13-.47-.49-1,.17-1.4a9.7,9.7,0,0,1,3.56-.14C183.88,81.09,184.33,81.47,184,82.26Z" transform="translate(-1 -1)"/><path class="cls-4" d="M160.63,74.89l20.93,0c.49,0,1,0,1.46,0,1.56.38,1.36,1.84,1.62,2.9.2.8.93,1.87-.35,2.55a2.47,2.47,0,0,1-1.74.33H164.87c-1.6,0-3.21.08-4.81-.07a1.14,1.14,0,0,1-.88-1C159.18,77.84,159.25,76.15,160.63,74.89Z" transform="translate(-1 -1)"/><path class="cls-4" d="M179.54,90.74a11.13,11.13,0,0,1,2-2l.82.82A3.47,3.47,0,0,1,184,90.78a1.48,1.48,0,0,1,.44,1,2.67,2.67,0,0,1-2.06,1.9,1.63,1.63,0,0,1-.94-.47c-.42-.44-.86-.87-1.3-1.29C179.85,91.55,179.45,91.27,179.54,90.74Z" transform="translate(-1 -1)"/><path class="cls-3" d="M183.76,91l-1.43-1.38a17.31,17.31,0,0,0,3-2.78,2,2,0,0,1,2.06-.68c.51.79,0,1.29-.51,1.78a2.2,2.2,0,0,0-1,1,1.46,1.46,0,0,1-.65.47,1,1,0,0,0-.63.63A1.5,1.5,0,0,1,183.76,91Z" transform="translate(-1 -1)"/><path class="cls-4" d="M182.25,93.43a4.28,4.28,0,0,0,2-1.81c.37,0,.5.25.64.53s1,.66.77,1.22A3.33,3.33,0,0,1,184,95c-.61.24-.82-.78-1.42-.93A.49.49,0,0,1,182.25,93.43Z" transform="translate(-1 -1)"/><path class="cls-3" d="M184,82.26c0-.62-.33-.81-.92-.8-1.23,0-2.46,0-3.7,0-.59-.09-1.16-.19-.94-1a39.28,39.28,0,0,1,5.74,0A3.1,3.1,0,0,1,184,82.26Z" transform="translate(-1 -1)"/><path class="cls-3" d="M182.25,93.43l.36.67-2,2-1-1.18a2.14,2.14,0,0,1,2-2Z" transform="translate(-1 -1)"/><path class="cls-4" d="M184.21,80.48c-1.56,0-3.13,0-4.69,0-.39,0-.81-.11-1.13.23a1.75,1.75,0,0,1-1.28.29H166.4a2.53,2.53,0,0,1-1.52-.31.33.33,0,0,1-.12-.42l19.53,0A.5.5,0,0,1,184.21,80.48Z" transform="translate(-1 -1)"/><path class="cls-3" d="M186.68,87.81c.32-.53.78-1,.73-1.68,1.21.71,1.36,1.52.5,2.65C187.05,89,186.68,88.66,186.68,87.81Z" transform="translate(-1 -1)"/><path class="cls-5" d="M186.68,87.81a1.78,1.78,0,0,0,1.23,1A4.61,4.61,0,0,1,186.69,90a1.71,1.71,0,0,1-1-1.23C185.61,88,185.94,87.71,186.68,87.81Z" transform="translate(-1 -1)"/><path class="cls-5" d="M184.25,89.75A.72.72,0,0,1,185,89c.67.19,1.35.37,1.47,1.22a3.06,3.06,0,0,1-1,1C184.6,91.11,184.45,90.41,184.25,89.75Z" transform="translate(-1 -1)"/><path class="cls-3" d="M184.25,89.75l1.22,1.47c-.17.32-.53.52-.54.93l-.64-.53c-.18-.22-.35-.44-.53-.65Z" transform="translate(-1 -1)"/><path class="cls-3" d="M186.45,90.24,185,89l.73-.24a1.75,1.75,0,0,1,1,1.23Z" transform="translate(-1 -1)"/><path class="cls-3" d="M162.79,81.46c-2.87,0-2.87,0-2.08,2.82a12.87,12.87,0,0,0,10.82,9.14,2.27,2.27,0,0,1,.54.22c-1.06.87-2.13.52-3.21,0a3.72,3.72,0,0,0-1.66-.49c-.55.21-1-.07-1.52-.23a28.5,28.5,0,0,1-3.14-1.78c-.63-.79-1.6-1.31-1.87-2.38a16.87,16.87,0,0,1-2.61-6.28,10.69,10.69,0,0,1-.08-2,1.54,1.54,0,0,1,1.9-.12,36.22,36.22,0,0,1,3.9.15C163.89,81.26,163.52,81.55,162.79,81.46Z" transform="translate(-1 -1)"/><path class="cls-4" d="M159.89,80.43l-1.91,0a1.34,1.34,0,0,1-.73-1.59c.24-1,.48-2,.76-3a1.49,1.49,0,0,1,1.19-1.18c.44.33,1,.09,1.43.21a19.54,19.54,0,0,0-1.08,3.93,1.71,1.71,0,0,0,.35,1.42c.1.05.13.09.09.13A.12.12,0,0,1,159.89,80.43Z" transform="translate(-1 -1)"/><path class="cls-4" d="M160.67,88.78a6.5,6.5,0,0,1,1.92,2.12,1.44,1.44,0,0,1-.53,1c-.44.42-.87.84-1.29,1.28a1.67,1.67,0,0,1-.93.48,2.67,2.67,0,0,1-2.08-1.88,1.44,1.44,0,0,1,.44-1c.5-.48.92-1.07,1.67-1.2Z" transform="translate(-1 -1)"/><path class="cls-3" d="M159.87,89.59,158.44,91c-.49-.16-.65-.59-.83-1a1,1,0,0,0-.62-.63,1.44,1.44,0,0,1-.65-.46,2,2,0,0,0-.94-.9c-.62-.53-1-1.11-.38-1.87a1.8,1.8,0,0,1,1.8.67A18.47,18.47,0,0,0,159.87,89.59Z" transform="translate(-1 -1)"/><path class="cls-4" d="M157.91,91.63a4.28,4.28,0,0,0,2,1.8.49.49,0,0,1-.35.67l-.21.11c-.44.24-.7,1.07-1.2.82a4.59,4.59,0,0,1-1.62-1.54c-.41-.65.46-.89.71-1.34C157.4,91.87,157.53,91.6,157.91,91.63Z" transform="translate(-1 -1)"/><path class="cls-3" d="M159.59,94.1c.12-.22.24-.44.35-.67l.7-.51a2.14,2.14,0,0,1,2,2l-1,1.19Z" transform="translate(-1 -1)"/><path class="cls-3" d="M155,86.11c0,.68,0,1.34.73,1.69,0,.86-.37,1.26-1.22,1.22C153.32,87.76,153.5,86.69,155,86.11Z" transform="translate(-1 -1)"/><path class="cls-5" d="M157.22,89a.71.71,0,0,1,.72.73c-.19.66-.34,1.36-1.21,1.46a2.84,2.84,0,0,1-1-1C155.86,89.37,156.55,89.22,157.22,89Z" transform="translate(-1 -1)"/><path class="cls-5" d="M154.53,89a3.74,3.74,0,0,0,1.22-1.22c.75,0,.76.45.73,1a1.7,1.7,0,0,1-1,1.22A2.87,2.87,0,0,1,154.53,89Z" transform="translate(-1 -1)"/><path class="cls-3" d="M156.73,91.21l1.21-1.46c.17.41.33.82.5,1.22l-.53.66-.64.52C157.27,91.73,156.9,91.53,156.73,91.21Z" transform="translate(-1 -1)"/><path class="cls-3" d="M155.51,90a1.74,1.74,0,0,1,1-1.22l.74.24-1.47,1.22Z" transform="translate(-1 -1)"/><path class="cls-4" d="M165.8,92.7a2.5,2.5,0,0,1,1.4.47c-.33.65-1.29.66-1.47,1.45h-.21c-.34-.33-.67-.66-1-1C164.54,92.75,165.14,92.68,165.8,92.7Z" transform="translate(-1 -1)"/><path class="cls-4" d="M173.58,93.42c1,0,1.81-.85,2.85-.56.57-.22.88,0,1,.56-.85,1.49-2.3,2.43-3.39,3.69-.3.35-.81.57-.76,1.15a11.29,11.29,0,0,1-2.44-2.44,7.73,7.73,0,0,1,2.25-2.2C173.27,93.54,173.44,93.5,173.58,93.42Z" transform="translate(-1 -1)"/><path class="cls-3" d="M178.35,93.86l2-2.13a4.28,4.28,0,0,1,1.17,1.19,8.86,8.86,0,0,0-2,2A4.38,4.38,0,0,1,178.35,93.86Z" transform="translate(-1 -1)"/><path class="cls-3" d="M173.34,93.66c-.79.76-1.33,1.8-2.47,2.16l-2-2.16,3.21,0h.24A1,1,0,0,1,173.34,93.66Z" transform="translate(-1 -1)"/><path class="cls-3" d="M161.82,91.74l1.94,1.93c-.06.73-.76.85-1.17,1.24a9,9,0,0,0-2-2A3.91,3.91,0,0,1,161.82,91.74Z" transform="translate(-1 -1)"/><path class="cls-6" d="M162.79,81.46l1-.75a.71.71,0,0,1,1-.25l11.85,0a4.9,4.9,0,0,1,1.78.22l1,.77c.86,1.6.83,2.76-.08,3.81s-2.16,1.4-3.84.61a9.76,9.76,0,0,0-8.75,0c-1.67.78-2.81.54-3.77-.51S162,83.13,162.79,81.46Z" transform="translate(-1 -1)"/><path class="cls-3" d="M173.34,93.66l-1,0c.37-.36.84-.2,1.27-.22Z" transform="translate(-1 -1)"/><path class="cls-4" d="M164.76,80.46l-1,.25c-1.26-.55-2.61-.06-3.9-.28,0-.06,0-.12,0-.19l4.86,0Z" transform="translate(-1 -1)"/><path class="cls-3" d="M175.23,82.89c0-.51,0-1,.5-1.06s.63.43.63.85,0,.9-.52.95S175.25,83.2,175.23,82.89Z" transform="translate(-1 -1)"/><path class="cls-3" d="M167,82.71c0,.4,0,.89-.51.92s-.6-.47-.6-.87,0-.9.56-.92S167,82.3,167,82.71Z" transform="translate(-1 -1)"/><circle class="cls-2" cx="83.5" cy="170.5" r="29.5"/><path class="cls-3" d="M96.27,188.88s-10,3.16-24.59,0l13.63-.49Z" transform="translate(-1 -1)"/><path class="cls-3" d="M72.2,159.68a.44.44,0,0,1,.16-.06c2-.22,2.74-1.89,3.88-3.15a10.82,10.82,0,0,1,8.38-4c.31,0,.65.11.94-.12h.49a22.6,22.6,0,0,1,5.21,2.11A14.83,14.83,0,0,1,96,159.83a1.33,1.33,0,0,1-1.27.55c-7,0-14,.09-21,0C73.24,160.15,72.44,160.59,72.2,159.68Z" transform="translate(-1 -1)"/><path class="cls-3" d="M87.75,188.88H74.11a1.15,1.15,0,0,1-.35-1,12.44,12.44,0,0,1,3.9-8.1,1.53,1.53,0,0,1,.64-.34.92.92,0,0,1,.37,0,2,2,0,0,1,.89.59q3.82,3.79,7.62,7.63C87.5,188,88,188.28,87.75,188.88Z" transform="translate(-1 -1)"/><path class="cls-3" d="M93.6,181.1a11.37,11.37,0,0,1,2.67,7.78,24.49,24.49,0,0,1-3.65.73,13.63,13.63,0,0,1-3.3-2.9,22.13,22.13,0,0,1-3.2-3.43,1.36,1.36,0,0,1,.55-1.28c1.22-1.23,2.41-2.5,3.69-3.67a1.29,1.29,0,0,1,1.16.3c.42.37.87.71,1.32,1.05S93.81,180.38,93.6,181.1Z" transform="translate(-1 -1)"/><path class="cls-4" d="M86.31,183.26c1.92,1.82,4.55,4.37,6.31,6.35a28.48,28.48,0,0,1-3.9.48c-1.69-2.05-4.69-5-6.52-6.92-1.15-1.19-2.31-2.36-3.47-3.55-.28-1.21.9-1.17,1.44-1.67a2.3,2.3,0,0,1,1.8.39,19.23,19.23,0,0,1,2.17,2.25C84.78,181.55,85.86,182.15,86.31,183.26Z" transform="translate(-1 -1)"/><path class="cls-3" d="M78.52,179.61c-3,2.36-4.18,5.59-4.41,9.27H71.68c.4-.75.15-1.59.34-2.38a12.54,12.54,0,0,1,2.58-5.4c-.2-.72.42-1,.76-1.44s1-.83,1.46-1.2a1.19,1.19,0,0,1,.72-.09C78.14,178.57,78.57,178.9,78.52,179.61Z" transform="translate(-1 -1)"/><path class="cls-3" d="M85.56,152.34c-.64.51-1.41.14-2.1.33A12.64,12.64,0,0,0,75.57,158c-.81,1.28-1.7,1.95-3.21,1.6a12.69,12.69,0,0,1,8.08-6.79,3.87,3.87,0,0,0,1.47-.49Z" transform="translate(-1 -1)"/><path class="cls-3" d="M97,167.26a11.53,11.53,0,0,1-2,5.57c-.18.31-.49.55-.51.94a5.12,5.12,0,0,1-1.79,2.2c-1,.78-2.18,1.4-3.27,2.1a25.92,25.92,0,0,1-2.89.71,3.58,3.58,0,0,0-1.26.11,1.61,1.61,0,0,1-.38,0A13.22,13.22,0,0,1,73.1,168.48c-.18-.7-.58-1.61.19-2.14a2.32,2.32,0,0,1,2.53,0c.3.48,0,.94-.08,1.4a2.47,2.47,0,0,0,3.1,3,13.89,13.89,0,0,0,1.59-.59,9.37,9.37,0,0,1,7.31,0c.45.19.9.37,1.36.53a2.35,2.35,0,0,0,2.59-.44,2.52,2.52,0,0,0,.78-2.64c-.13-.47-.49-1,.17-1.4a9.7,9.7,0,0,1,3.56-.14C96.88,166.09,97.33,166.47,97,167.26Z" transform="translate(-1 -1)"/><path class="cls-4" d="M73.63,159.89l20.93,0c.49,0,1,0,1.46,0,1.56.38,1.36,1.84,1.62,2.9.2.8.93,1.87-.35,2.55a2.47,2.47,0,0,1-1.74.33H77.87c-1.6,0-3.21.08-4.81-.07a1.14,1.14,0,0,1-.88-1C72.18,162.84,72.25,161.15,73.63,159.89Z" transform="translate(-1 -1)"/><path class="cls-4" d="M92.54,175.74a11.13,11.13,0,0,1,2-2l.82.82A3.47,3.47,0,0,1,97,175.78a1.48,1.48,0,0,1,.44,1,2.67,2.67,0,0,1-2.06,1.9,1.63,1.63,0,0,1-.94-.47c-.42-.44-.86-.87-1.3-1.29C92.85,176.55,92.45,176.27,92.54,175.74Z" transform="translate(-1 -1)"/><path class="cls-3" d="M96.76,176l-1.43-1.38a17.31,17.31,0,0,0,3-2.78,2,2,0,0,1,2.06-.68c.51.79,0,1.29-.51,1.78a2.2,2.2,0,0,0-1,1,1.46,1.46,0,0,1-.65.47,1,1,0,0,0-.63.63A1.5,1.5,0,0,1,96.76,176Z" transform="translate(-1 -1)"/><path class="cls-4" d="M95.25,178.43a4.28,4.28,0,0,0,2-1.81c.37,0,.5.25.64.53s1,.66.77,1.22A3.33,3.33,0,0,1,97,180c-.61.24-.82-.78-1.42-.93A.49.49,0,0,1,95.25,178.43Z" transform="translate(-1 -1)"/><path class="cls-3" d="M97,167.26c0-.62-.33-.81-.92-.8-1.23,0-2.46,0-3.7,0-.59-.09-1.16-.19-.94-1a39.28,39.28,0,0,1,5.74,0A3.1,3.1,0,0,1,97,167.26Z" transform="translate(-1 -1)"/><path class="cls-3" d="M95.25,178.43l.36.67-2,2-1-1.18a2.14,2.14,0,0,1,2-2Z" transform="translate(-1 -1)"/><path class="cls-4" d="M97.21,165.48c-1.56,0-3.13,0-4.69,0-.39,0-.81-.11-1.13.23a1.75,1.75,0,0,1-1.28.29H79.4a2.53,2.53,0,0,1-1.52-.31.33.33,0,0,1-.12-.42l19.53,0A.5.5,0,0,1,97.21,165.48Z" transform="translate(-1 -1)"/><path class="cls-3" d="M99.68,172.81c.32-.53.78-1,.73-1.68,1.21.71,1.36,1.52.5,2.65C100.05,174,99.68,173.66,99.68,172.81Z" transform="translate(-1 -1)"/><path class="cls-5" d="M99.68,172.81a1.78,1.78,0,0,0,1.23,1A4.61,4.61,0,0,1,99.69,175a1.71,1.71,0,0,1-1-1.23C98.61,173,98.94,172.71,99.68,172.81Z" transform="translate(-1 -1)"/><path class="cls-5" d="M97.25,174.75A.72.72,0,0,1,98,174c.67.19,1.35.37,1.47,1.22a3.06,3.06,0,0,1-1,1C97.6,176.11,97.45,175.41,97.25,174.75Z" transform="translate(-1 -1)"/><path class="cls-3" d="M97.25,174.75l1.22,1.47c-.17.32-.53.52-.54.93l-.64-.53c-.18-.22-.35-.44-.53-.65Z" transform="translate(-1 -1)"/><path class="cls-3" d="M99.45,175.24,98,174l.73-.24a1.75,1.75,0,0,1,1,1.23Z" transform="translate(-1 -1)"/><path class="cls-3" d="M75.79,166.46c-2.87,0-2.87,0-2.08,2.82a12.87,12.87,0,0,0,10.82,9.14,2.27,2.27,0,0,1,.54.22c-1.06.87-2.13.52-3.21,0a3.72,3.72,0,0,0-1.66-.49c-.55.21-1-.07-1.52-.23a28.5,28.5,0,0,1-3.14-1.78c-.63-.79-1.6-1.31-1.87-2.38a16.87,16.87,0,0,1-2.61-6.28,10.69,10.69,0,0,1-.08-2,1.54,1.54,0,0,1,1.9-.12,36.22,36.22,0,0,1,3.9.15C76.89,166.26,76.52,166.55,75.79,166.46Z" transform="translate(-1 -1)"/><path class="cls-4" d="M72.89,165.43l-1.91,0a1.34,1.34,0,0,1-.73-1.59c.24-1,.48-2,.76-3a1.49,1.49,0,0,1,1.19-1.18c.44.33,1,.09,1.43.21a19.54,19.54,0,0,0-1.08,3.93,1.71,1.71,0,0,0,.35,1.42c.1,0,.13.09.09.13A.12.12,0,0,1,72.89,165.43Z" transform="translate(-1 -1)"/><path class="cls-4" d="M73.67,173.78a6.5,6.5,0,0,1,1.92,2.12,1.44,1.44,0,0,1-.53,1c-.44.42-.87.84-1.29,1.28a1.67,1.67,0,0,1-.93.48,2.67,2.67,0,0,1-2.08-1.88,1.44,1.44,0,0,1,.44-1c.5-.48.92-1.07,1.67-1.2Z" transform="translate(-1 -1)"/><path class="cls-3" d="M72.87,174.59,71.44,176c-.49-.16-.65-.59-.83-1a1,1,0,0,0-.62-.63,1.44,1.44,0,0,1-.65-.46,2,2,0,0,0-.94-.9c-.62-.53-1-1.11-.38-1.87a1.8,1.8,0,0,1,1.8.67A18.47,18.47,0,0,0,72.87,174.59Z" transform="translate(-1 -1)"/><path class="cls-4" d="M70.91,176.63a4.28,4.28,0,0,0,2,1.8.49.49,0,0,1-.35.67l-.21.11c-.44.24-.7,1.07-1.2.82a4.59,4.59,0,0,1-1.62-1.54c-.41-.65.46-.89.71-1.34C70.4,176.87,70.53,176.6,70.91,176.63Z" transform="translate(-1 -1)"/><path class="cls-3" d="M72.59,179.1c.12-.22.24-.44.35-.67l.7-.51a2.14,2.14,0,0,1,2,2l-1,1.19Z" transform="translate(-1 -1)"/><path class="cls-3" d="M68,171.11c0,.68,0,1.34.73,1.69,0,.86-.37,1.26-1.22,1.22C66.32,172.76,66.5,171.69,68,171.11Z" transform="translate(-1 -1)"/><path class="cls-5" d="M70.22,174a.71.71,0,0,1,.72.73c-.19.66-.34,1.36-1.21,1.46a2.84,2.84,0,0,1-1-1C68.86,174.37,69.55,174.22,70.22,174Z" transform="translate(-1 -1)"/><path class="cls-5" d="M67.53,174a3.74,3.74,0,0,0,1.22-1.22c.75-.05.76.45.73,1a1.7,1.7,0,0,1-1,1.22A2.87,2.87,0,0,1,67.53,174Z" transform="translate(-1 -1)"/><path class="cls-3" d="M69.73,176.21l1.21-1.46c.17.41.33.82.5,1.22l-.53.66-.64.52C70.27,176.73,69.9,176.53,69.73,176.21Z" transform="translate(-1 -1)"/><path class="cls-3" d="M68.51,175a1.74,1.74,0,0,1,1-1.22l.74.24-1.47,1.22Z" transform="translate(-1 -1)"/><path class="cls-4" d="M78.8,177.7a2.5,2.5,0,0,1,1.4.47c-.33.65-1.29.66-1.47,1.45h-.21l-1-1C77.54,177.75,78.14,177.68,78.8,177.7Z" transform="translate(-1 -1)"/><path class="cls-4" d="M86.58,178.42c1,0,1.81-.85,2.85-.56.57-.22.88,0,1,.56-.85,1.49-2.3,2.43-3.39,3.69-.3.35-.81.57-.76,1.15a11.29,11.29,0,0,1-2.44-2.44,7.73,7.73,0,0,1,2.25-2.2C86.27,178.54,86.44,178.5,86.58,178.42Z" transform="translate(-1 -1)"/><path class="cls-3" d="M91.35,178.86l2-2.13a4.28,4.28,0,0,1,1.17,1.19,8.86,8.86,0,0,0-2,2A4.38,4.38,0,0,1,91.35,178.86Z" transform="translate(-1 -1)"/><path class="cls-3" d="M86.34,178.66c-.79.76-1.33,1.8-2.47,2.16l-2-2.16,3.21,0h.24A1,1,0,0,1,86.34,178.66Z" transform="translate(-1 -1)"/><path class="cls-3" d="M74.82,176.74l1.94,1.93c-.06.73-.76.85-1.17,1.24a9,9,0,0,0-2-2A3.91,3.91,0,0,1,74.82,176.74Z" transform="translate(-1 -1)"/><path class="cls-6" d="M75.79,166.46l1-.75a.71.71,0,0,1,1-.25l11.85,0a4.9,4.9,0,0,1,1.78.22l1,.77c.86,1.6.83,2.76-.08,3.81s-2.16,1.4-3.84.61a9.76,9.76,0,0,0-8.75,0c-1.67.78-2.81.54-3.77-.51S75,168.13,75.79,166.46Z" transform="translate(-1 -1)"/><path class="cls-3" d="M86.34,178.66l-1,0c.37-.36.84-.2,1.27-.22Z" transform="translate(-1 -1)"/><path class="cls-4" d="M77.76,165.46l-1,.25c-1.26-.55-2.61-.06-3.9-.28,0-.06,0-.12,0-.19l4.86,0Z" transform="translate(-1 -1)"/><path class="cls-3" d="M88.23,167.89c0-.51,0-1,.5-1.06s.63.43.63.85,0,.9-.52.95S88.25,168.2,88.23,167.89Z" transform="translate(-1 -1)"/><path class="cls-3" d="M80,167.71c0,.4.05.89-.51.92s-.6-.47-.6-.87,0-.9.56-.92S80,167.3,80,167.71Z" transform="translate(-1 -1)"/><circle class="cls-2" cx="170.5" cy="170.5" r="29.5"/><path class="cls-3" d="M183.27,188.88s-10,3.16-24.59,0l13.63-.49Z" transform="translate(-1 -1)"/><path class="cls-3" d="M159.2,159.68a.44.44,0,0,1,.16-.06c2-.22,2.74-1.89,3.88-3.15a10.82,10.82,0,0,1,8.38-4c.31,0,.65.11.94-.12h.49a22.6,22.6,0,0,1,5.21,2.11,14.83,14.83,0,0,1,4.76,5.38,1.33,1.33,0,0,1-1.27.55c-7,0-14,.09-21,0C160.24,160.15,159.44,160.59,159.2,159.68Z" transform="translate(-1 -1)"/><path class="cls-3" d="M174.75,188.88H161.11a1.15,1.15,0,0,1-.35-1,12.44,12.44,0,0,1,3.9-8.1,1.53,1.53,0,0,1,.64-.34.92.92,0,0,1,.37,0,2,2,0,0,1,.89.59q3.83,3.79,7.62,7.63C174.5,188,175,188.28,174.75,188.88Z" transform="translate(-1 -1)"/><path class="cls-3" d="M180.6,181.1a11.37,11.37,0,0,1,2.67,7.78,24.49,24.49,0,0,1-3.65.73,13.63,13.63,0,0,1-3.3-2.9,22.13,22.13,0,0,1-3.2-3.43,1.36,1.36,0,0,1,.55-1.28c1.22-1.23,2.41-2.5,3.69-3.67a1.29,1.29,0,0,1,1.16.3c.42.37.87.71,1.32,1.05S180.81,180.38,180.6,181.1Z" transform="translate(-1 -1)"/><path class="cls-4" d="M173.31,183.26c1.92,1.82,4.55,4.37,6.31,6.35a28.48,28.48,0,0,1-3.9.48c-1.69-2.05-4.69-5-6.52-6.92-1.15-1.19-2.31-2.36-3.47-3.55-.28-1.21.9-1.17,1.44-1.67a2.3,2.3,0,0,1,1.8.39,19.23,19.23,0,0,1,2.17,2.25C171.78,181.55,172.86,182.15,173.31,183.26Z" transform="translate(-1 -1)"/><path class="cls-3" d="M165.52,179.61c-3,2.36-4.18,5.59-4.41,9.27h-2.43c.4-.75.15-1.59.34-2.38a12.54,12.54,0,0,1,2.58-5.4c-.2-.72.42-1,.76-1.44s.95-.83,1.46-1.2a1.19,1.19,0,0,1,.72-.09C165.14,178.57,165.57,178.9,165.52,179.61Z" transform="translate(-1 -1)"/><path class="cls-3" d="M172.56,152.34c-.64.51-1.41.14-2.1.33a12.64,12.64,0,0,0-7.89,5.35c-.81,1.28-1.7,1.95-3.21,1.6a12.69,12.69,0,0,1,8.08-6.79,3.87,3.87,0,0,0,1.47-.49Z" transform="translate(-1 -1)"/><path class="cls-3" d="M184,167.26a11.53,11.53,0,0,1-2,5.57c-.18.31-.49.55-.51.94a5.12,5.12,0,0,1-1.79,2.2c-1,.78-2.18,1.4-3.27,2.1a25.92,25.92,0,0,1-2.89.71,3.58,3.58,0,0,0-1.26.11,1.61,1.61,0,0,1-.38,0,13.22,13.22,0,0,1-11.82-10.41c-.18-.7-.58-1.61.19-2.14a2.32,2.32,0,0,1,2.53,0c.3.48,0,.94-.08,1.4a2.47,2.47,0,0,0,3.1,3,13.89,13.89,0,0,0,1.59-.59,9.37,9.37,0,0,1,7.31,0c.45.19.9.37,1.36.53a2.35,2.35,0,0,0,2.59-.44,2.52,2.52,0,0,0,.78-2.64c-.13-.47-.49-1,.17-1.4a9.7,9.7,0,0,1,3.56-.14C183.88,166.09,184.33,166.47,184,167.26Z" transform="translate(-1 -1)"/><path class="cls-4" d="M160.63,159.89l20.93,0c.49,0,1,0,1.46,0,1.56.38,1.36,1.84,1.62,2.9.2.8.93,1.87-.35,2.55a2.47,2.47,0,0,1-1.74.33H164.87c-1.6,0-3.21.08-4.81-.07a1.14,1.14,0,0,1-.88-1C159.18,162.84,159.25,161.15,160.63,159.89Z" transform="translate(-1 -1)"/><path class="cls-4" d="M179.54,175.74a11.13,11.13,0,0,1,2-2l.82.82a3.47,3.47,0,0,1,1.66,1.19,1.48,1.48,0,0,1,.44,1,2.67,2.67,0,0,1-2.06,1.9,1.63,1.63,0,0,1-.94-.47c-.42-.44-.86-.87-1.3-1.29C179.85,176.55,179.45,176.27,179.54,175.74Z" transform="translate(-1 -1)"/><path class="cls-3" d="M183.76,176l-1.43-1.38a17.31,17.31,0,0,0,3-2.78,2,2,0,0,1,2.06-.68c.51.79,0,1.29-.51,1.78a2.2,2.2,0,0,0-1,1,1.46,1.46,0,0,1-.65.47,1,1,0,0,0-.63.63A1.5,1.5,0,0,1,183.76,176Z" transform="translate(-1 -1)"/><path class="cls-4" d="M182.25,178.43a4.28,4.28,0,0,0,2-1.81c.37,0,.5.25.64.53s1,.66.77,1.22A3.33,3.33,0,0,1,184,180c-.61.24-.82-.78-1.42-.93A.49.49,0,0,1,182.25,178.43Z" transform="translate(-1 -1)"/><path class="cls-3" d="M184,167.26c0-.62-.33-.81-.92-.8-1.23,0-2.46,0-3.7,0-.59-.09-1.16-.19-.94-1a39.28,39.28,0,0,1,5.74,0A3.1,3.1,0,0,1,184,167.26Z" transform="translate(-1 -1)"/><path class="cls-3" d="M182.25,178.43l.36.67-2,2-1-1.18a2.14,2.14,0,0,1,2-2Z" transform="translate(-1 -1)"/><path class="cls-4" d="M184.21,165.48c-1.56,0-3.13,0-4.69,0-.39,0-.81-.11-1.13.23a1.75,1.75,0,0,1-1.28.29H166.4a2.53,2.53,0,0,1-1.52-.31.33.33,0,0,1-.12-.42l19.53,0A.5.5,0,0,1,184.21,165.48Z" transform="translate(-1 -1)"/><path class="cls-3" d="M186.68,172.81c.32-.53.78-1,.73-1.68,1.21.71,1.36,1.52.5,2.65C187.05,174,186.68,173.66,186.68,172.81Z" transform="translate(-1 -1)"/><path class="cls-5" d="M186.68,172.81a1.78,1.78,0,0,0,1.23,1,4.61,4.61,0,0,1-1.22,1.23,1.71,1.71,0,0,1-1-1.23C185.61,173,185.94,172.71,186.68,172.81Z" transform="translate(-1 -1)"/><path class="cls-5" d="M184.25,174.75A.72.72,0,0,1,185,174c.67.19,1.35.37,1.47,1.22a3.06,3.06,0,0,1-1,1C184.6,176.11,184.45,175.41,184.25,174.75Z" transform="translate(-1 -1)"/><path class="cls-3" d="M184.25,174.75l1.22,1.47c-.17.32-.53.52-.54.93l-.64-.53c-.18-.22-.35-.44-.53-.65Z" transform="translate(-1 -1)"/><path class="cls-3" d="M186.45,175.24,185,174l.73-.24a1.75,1.75,0,0,1,1,1.23Z" transform="translate(-1 -1)"/><path class="cls-3" d="M162.79,166.46c-2.87,0-2.87,0-2.08,2.82a12.87,12.87,0,0,0,10.82,9.14,2.27,2.27,0,0,1,.54.22c-1.06.87-2.13.52-3.21,0a3.72,3.72,0,0,0-1.66-.49c-.55.21-1-.07-1.52-.23a28.5,28.5,0,0,1-3.14-1.78c-.63-.79-1.6-1.31-1.87-2.38a16.87,16.87,0,0,1-2.61-6.28,10.69,10.69,0,0,1-.08-2,1.54,1.54,0,0,1,1.9-.12,36.22,36.22,0,0,1,3.9.15C163.89,166.26,163.52,166.55,162.79,166.46Z" transform="translate(-1 -1)"/><path class="cls-4" d="M159.89,165.43l-1.91,0a1.34,1.34,0,0,1-.73-1.59c.24-1,.48-2,.76-3a1.49,1.49,0,0,1,1.19-1.18c.44.33,1,.09,1.43.21a19.54,19.54,0,0,0-1.08,3.93,1.71,1.71,0,0,0,.35,1.42c.1,0,.13.09.09.13A.12.12,0,0,1,159.89,165.43Z" transform="translate(-1 -1)"/><path class="cls-4" d="M160.67,173.78a6.5,6.5,0,0,1,1.92,2.12,1.44,1.44,0,0,1-.53,1c-.44.42-.87.84-1.29,1.28a1.67,1.67,0,0,1-.93.48,2.67,2.67,0,0,1-2.08-1.88,1.44,1.44,0,0,1,.44-1c.5-.48.92-1.07,1.67-1.2Z" transform="translate(-1 -1)"/><path class="cls-3" d="M159.87,174.59,158.44,176c-.49-.16-.65-.59-.83-1a1,1,0,0,0-.62-.63,1.44,1.44,0,0,1-.65-.46,2,2,0,0,0-.94-.9c-.62-.53-1-1.11-.38-1.87a1.8,1.8,0,0,1,1.8.67A18.47,18.47,0,0,0,159.87,174.59Z" transform="translate(-1 -1)"/><path class="cls-4" d="M157.91,176.63a4.28,4.28,0,0,0,2,1.8.49.49,0,0,1-.35.67l-.21.11c-.44.24-.7,1.07-1.2.82a4.59,4.59,0,0,1-1.62-1.54c-.41-.65.46-.89.71-1.34C157.4,176.87,157.53,176.6,157.91,176.63Z" transform="translate(-1 -1)"/><path class="cls-3" d="M159.59,179.1c.12-.22.24-.44.35-.67l.7-.51a2.14,2.14,0,0,1,2,2l-1,1.19Z" transform="translate(-1 -1)"/><path class="cls-3" d="M155,171.11c0,.68,0,1.34.73,1.69,0,.86-.37,1.26-1.22,1.22C153.32,172.76,153.5,171.69,155,171.11Z" transform="translate(-1 -1)"/><path class="cls-5" d="M157.22,174a.71.71,0,0,1,.72.73c-.19.66-.34,1.36-1.21,1.46a2.84,2.84,0,0,1-1-1C155.86,174.37,156.55,174.22,157.22,174Z" transform="translate(-1 -1)"/><path class="cls-5" d="M154.53,174a3.74,3.74,0,0,0,1.22-1.22c.75-.05.76.45.73,1a1.7,1.7,0,0,1-1,1.22A2.87,2.87,0,0,1,154.53,174Z" transform="translate(-1 -1)"/><path class="cls-3" d="M156.73,176.21l1.21-1.46c.17.41.33.82.5,1.22l-.53.66-.64.52C157.27,176.73,156.9,176.53,156.73,176.21Z" transform="translate(-1 -1)"/><path class="cls-3" d="M155.51,175a1.74,1.74,0,0,1,1-1.22l.74.24-1.47,1.22Z" transform="translate(-1 -1)"/><path class="cls-4" d="M165.8,177.7a2.5,2.5,0,0,1,1.4.47c-.33.65-1.29.66-1.47,1.45h-.21l-1-1C164.54,177.75,165.14,177.68,165.8,177.7Z" transform="translate(-1 -1)"/><path class="cls-4" d="M173.58,178.42c1,0,1.81-.85,2.85-.56.57-.22.88,0,1,.56-.85,1.49-2.3,2.43-3.39,3.69-.3.35-.81.57-.76,1.15a11.29,11.29,0,0,1-2.44-2.44,7.73,7.73,0,0,1,2.25-2.2C173.27,178.54,173.44,178.5,173.58,178.42Z" transform="translate(-1 -1)"/><path class="cls-3" d="M178.35,178.86l2-2.13a4.28,4.28,0,0,1,1.17,1.19,8.86,8.86,0,0,0-2,2A4.38,4.38,0,0,1,178.35,178.86Z" transform="translate(-1 -1)"/><path class="cls-3" d="M173.34,178.66c-.79.76-1.33,1.8-2.47,2.16l-2-2.16,3.21,0h.24A1,1,0,0,1,173.34,178.66Z" transform="translate(-1 -1)"/><path class="cls-3" d="M161.82,176.74l1.94,1.93c-.06.73-.76.85-1.17,1.24a9,9,0,0,0-2-2A3.91,3.91,0,0,1,161.82,176.74Z" transform="translate(-1 -1)"/><path class="cls-6" d="M162.79,166.46l1-.75a.71.71,0,0,1,1-.25l11.85,0a4.9,4.9,0,0,1,1.78.22l1,.77c.86,1.6.83,2.76-.08,3.81s-2.16,1.4-3.84.61a9.76,9.76,0,0,0-8.75,0c-1.67.78-2.81.54-3.77-.51S162,168.13,162.79,166.46Z" transform="translate(-1 -1)"/><path class="cls-3" d="M173.34,178.66l-1,0c.37-.36.84-.2,1.27-.22Z" transform="translate(-1 -1)"/><path class="cls-4" d="M164.76,165.46l-1,.25c-1.26-.55-2.61-.06-3.9-.28,0-.06,0-.12,0-.19l4.86,0Z" transform="translate(-1 -1)"/><path class="cls-3" d="M175.23,167.89c0-.51,0-1,.5-1.06s.63.43.63.85,0,.9-.52.95S175.25,168.2,175.23,167.89Z" transform="translate(-1 -1)"/><path class="cls-3" d="M167,167.71c0,.4,0,.89-.51.92s-.6-.47-.6-.87,0-.9.56-.92S167,167.3,167,167.71Z" transform="translate(-1 -1)"/></svg>