<svg id="Layer_1" data-name="Layer 1" xmlns="http://www.w3.org/2000/svg" viewBox="0 0 513 388"><defs><style>.cls-1{fill:#fec810;}.cls-2{fill:#ccc;}.cls-3{fill:gray;}.cls-4{fill:#b3b3b3;}</style></defs><title>backers</title><rect class="cls-1" x="3" y="3" width="100" height="100" rx="47.44" ry="47.44"/><path class="cls-2" d="M113.56,43A44.5,44.5,0,0,1,158,87.44v5.12A44.5,44.5,0,0,1,113.56,137h-5.12A44.5,44.5,0,0,1,64,92.56V87.44A44.5,44.5,0,0,1,108.44,43h5.12m0-6h-5.12A50.44,50.44,0,0,0,58,87.44v5.12A50.44,50.44,0,0,0,108.44,143h5.12A50.44,50.44,0,0,0,164,92.56V87.44A50.44,50.44,0,0,0,113.56,37Z" transform="translate(-58 -37)"/><rect class="cls-1" x="138" y="3" width="100" height="100" rx="47.44" ry="47.44"/><path class="cls-2" d="M248.56,43A44.5,44.5,0,0,1,293,87.44v5.12A44.5,44.5,0,0,1,248.56,137h-5.12A44.5,44.5,0,0,1,199,92.56V87.44A44.5,44.5,0,0,1,243.44,43h5.12m0-6h-5.12A50.44,50.44,0,0,0,193,87.44v5.12A50.44,50.44,0,0,0,243.44,143h5.12A50.44,50.44,0,0,0,299,92.56V87.44A50.44,50.44,0,0,0,248.56,37Z" transform="translate(-58 -37)"/><rect class="cls-3" x="273" y="3" width="100" height="100" rx="47.44" ry="47.44"/><path class="cls-2" d="M383.56,43A44.5,44.5,0,0,1,428,87.44v5.12A44.5,44.5,0,0,1,383.56,137h-5.12A44.5,44.5,0,0,1,334,92.56V87.44A44.5,44.5,0,0,1,378.44,43h5.12m0-6h-5.12A50.44,50.44,0,0,0,328,87.44v5.12A50.44,50.44,0,0,0,378.44,143h5.12A50.44,50.44,0,0,0,434,92.56V87.44A50.44,50.44,0,0,0,383.56,37Z" transform="translate(-58 -37)"/><rect class="cls-1" x="408" y="3" width="100" height="100" rx="47.44" ry="47.44"/><path class="cls-2" d="M518.56,43A44.5,44.5,0,0,1,563,87.44v5.12A44.5,44.5,0,0,1,518.56,137h-5.12A44.5,44.5,0,0,1,469,92.56V87.44A44.5,44.5,0,0,1,513.44,43h5.12m0-6h-5.12A50.44,50.44,0,0,0,463,87.44v5.12A50.44,50.44,0,0,0,513.44,143h5.12A50.44,50.44,0,0,0,569,92.56V87.44A50.44,50.44,0,0,0,518.56,37Z" transform="translate(-58 -37)"/><rect class="cls-3" x="3" y="144" width="100" height="100" rx="47.44" ry="47.44"/><path class="cls-2" d="M113.56,184A44.5,44.5,0,0,1,158,228.44v5.12A44.5,44.5,0,0,1,113.56,278h-5.12A44.5,44.5,0,0,1,64,233.56v-5.12A44.5,44.5,0,0,1,108.44,184h5.12m0-6h-5.12A50.44,50.44,0,0,0,58,228.44v5.12A50.44,50.44,0,0,0,108.44,284h5.12A50.44,50.44,0,0,0,164,233.56v-5.12A50.44,50.44,0,0,0,113.56,178Z" transform="translate(-58 -37)"/><rect class="cls-3" x="138" y="144" width="100" height="100" rx="47.44" ry="47.44"/><path class="cls-2" d="M248.56,184A44.5,44.5,0,0,1,293,228.44v5.12A44.5,44.5,0,0,1,248.56,278h-5.12A44.5,44.5,0,0,1,199,233.56v-5.12A44.5,44.5,0,0,1,243.44,184h5.12m0-6h-5.12A50.44,50.44,0,0,0,193,228.44v5.12A50.44,50.44,0,0,0,243.44,284h5.12A50.44,50.44,0,0,0,299,233.56v-5.12A50.44,50.44,0,0,0,248.56,178Z" transform="translate(-58 -37)"/><rect class="cls-1" x="273" y="144" width="100" height="100" rx="47.44" ry="47.44"/><path class="cls-2" d="M383.56,184A44.5,44.5,0,0,1,428,228.44v5.12A44.5,44.5,0,0,1,383.56,278h-5.12A44.5,44.5,0,0,1,334,233.56v-5.12A44.5,44.5,0,0,1,378.44,184h5.12m0-6h-5.12A50.44,50.44,0,0,0,328,228.44v5.12A50.44,50.44,0,0,0,378.44,284h5.12A50.44,50.44,0,0,0,434,233.56v-5.12A50.44,50.44,0,0,0,383.56,178Z" transform="translate(-58 -37)"/><rect class="cls-4" x="408" y="144" width="100" height="100" rx="47.44" ry="47.44"/><path class="cls-2" d="M518.56,184A44.5,44.5,0,0,1,563,228.44v5.12A44.5,44.5,0,0,1,518.56,278h-5.12A44.5,44.5,0,0,1,469,233.56v-5.12A44.5,44.5,0,0,1,513.44,184h5.12m0-6h-5.12A50.44,50.44,0,0,0,463,228.44v5.12A50.44,50.44,0,0,0,513.44,284h5.12A50.44,50.44,0,0,0,569,233.56v-5.12A50.44,50.44,0,0,0,518.56,178Z" transform="translate(-58 -37)"/><rect class="cls-3" x="5" y="285" width="100" height="100" rx="47.44" ry="47.44"/><path class="cls-2" d="M115.56,325A44.5,44.5,0,0,1,160,369.44v5.12A44.5,44.5,0,0,1,115.56,419h-5.12A44.5,44.5,0,0,1,66,374.56v-5.12A44.5,44.5,0,0,1,110.44,325h5.12m0-6h-5.12A50.44,50.44,0,0,0,60,369.44v5.12A50.44,50.44,0,0,0,110.44,425h5.12A50.44,50.44,0,0,0,166,374.56v-5.12A50.44,50.44,0,0,0,115.56,319Z" transform="translate(-58 -37)"/><rect class="cls-1" x="140" y="285" width="100" height="100" rx="47.44" ry="47.44"/><path class="cls-2" d="M250.56,325A44.5,44.5,0,0,1,295,369.44v5.12A44.5,44.5,0,0,1,250.56,419h-5.12A44.5,44.5,0,0,1,201,374.56v-5.12A44.5,44.5,0,0,1,245.44,325h5.12m0-6h-5.12A50.44,50.44,0,0,0,195,369.44v5.12A50.44,50.44,0,0,0,245.44,425h5.12A50.44,50.44,0,0,0,301,374.56v-5.12A50.44,50.44,0,0,0,250.56,319Z" transform="translate(-58 -37)"/><rect class="cls-4" x="275" y="285" width="100" height="100" rx="47.44" ry="47.44"/><path class="cls-2" d="M385.56,325A44.5,44.5,0,0,1,430,369.44v5.12A44.5,44.5,0,0,1,385.56,419h-5.12A44.5,44.5,0,0,1,336,374.56v-5.12A44.5,44.5,0,0,1,380.44,325h5.12m0-6h-5.12A50.44,50.44,0,0,0,330,369.44v5.12A50.44,50.44,0,0,0,380.44,425h5.12A50.44,50.44,0,0,0,436,374.56v-5.12A50.44,50.44,0,0,0,385.56,319Z" transform="translate(-58 -37)"/><rect class="cls-1" x="410" y="285" width="100" height="100" rx="47.44" ry="47.44"/><path class="cls-2" d="M520.56,325A44.5,44.5,0,0,1,565,369.44v5.12A44.5,44.5,0,0,1,520.56,419h-5.12A44.5,44.5,0,0,1,471,374.56v-5.12A44.5,44.5,0,0,1,515.44,325h5.12m0-6h-5.12A50.44,50.44,0,0,0,465,369.44v5.12A50.44,50.44,0,0,0,515.44,425h5.12A50.44,50.44,0,0,0,571,374.56v-5.12A50.44,50.44,0,0,0,520.56,319Z" transform="translate(-58 -37)"/></svg>