<svg id="Layer_1" data-name="Layer 1" xmlns="http://www.w3.org/2000/svg" viewBox="0 0 312.43 277.5"><defs><style>.cls-1{fill:#fff;}.cls-2{fill:#ccc;}.cls-3{fill:gray;}.cls-4{fill:#e0e0e0;}</style></defs><title>browserSupport</title><circle class="cls-1" cx="63.47" cy="63.47" r="63.47"/><circle class="cls-2" cx="63.47" cy="63.47" r="57.47"/><path class="cls-3" d="M161.88,78.26l-46.65,33.16,13.84,13.74,32.81-46.9" transform="translate(-58.41 -54.77)"/><path class="cls-1" d="M115.28,111.32l13.84,13.74L82.47,158.22Z" transform="translate(-58.41 -54.77)"/><path class="cls-3" d="M370.48,272.41a55.33,55.33,0,0,0-7-27c19-42.89-20.28-36.61-22.46-36.18a99.35,99.35,0,0,0-23.1,7.55c-1-.06-2.1-.09-3.16-.09A55.74,55.74,0,0,0,260.48,260c14-15.65,23.72-22,29.57-24.5-.93.83-1.85,1.67-2.75,2.53l-.88.85c-.6.57-1.18,1.14-1.77,1.72l-1,1-1.57,1.55L281,244.23c-.46.5-.93,1-1.38,1.5s-.71.78-1,1.18c-.79.88-1.56,1.77-2.33,2.67-.4.47-.79.94-1.18,1.42s-.7.83-1,1.25L273,253.6l-1,1.31-.95,1.25-1.06,1.4-.73,1q-3.15,4.29-6,8.78h0c-.47.73-.94,1.46-1.39,2.2l-.08.12-1.32,2.16v.08c-1.09,1.81-2.14,3.64-3.17,5.49a122.48,122.48,0,0,0-7.7,15.84c-15.85,56.66,33.61,32.73,40.51,29.16a55.75,55.75,0,0,0,77.16-31.32H338a25.76,25.76,0,0,1-22.26,12.27c-14,0-25.42-10.63-25.42-23.75H370A57.44,57.44,0,0,0,370.48,272.41Zm-10.41-54.83c4.8,3.23,8.65,8.32,2,25.45a55.9,55.9,0,0,0-27.17-22.59C340.05,218,352.82,212.68,360.07,217.58Zm-102,104.7c-3.91-4-4.6-13.77,4-31.56a55.91,55.91,0,0,0,24.27,29.65c-5.59,3.08-20.41,10-28.29,1.91Zm32.1-57.93c.45-12.75,11.55-23,25.18-23s24.74,10.22,25.18,23Z" transform="translate(-58.41 -54.77)"/><path class="cls-2" d="M121.76,206s37-1.67,56.67,35.64H118.56s-11.3-.39-21,13.36c-2.78,5.75-5.76,11.7-2.41,23.36C90.38,270.19,69.62,234,69.62,234S84.26,207.53,121.76,206Z" transform="translate(-58.41 -54.77)"/><path class="cls-2" d="M176.51,300.64s-17.11,33-59.18,31.32l29.94-51.85s6-9.6-1.07-24.82c-3.59-5.25-7.22-10.81-19-13.76,9.48-.09,51.16,0,51.16,0S194,267.47,176.51,300.64Z" transform="translate(-58.41 -54.77)"/><path class="cls-2" d="M67.17,300.9s-20-31.28,2.48-66.91c5.18,9,29.93,51.85,29.93,51.85s5.34,10,22,11.48c6.36-.47,13-.87,21.44-9.59C138.35,296,117.44,332,117.44,332s-30.3.55-50.3-31.13Z" transform="translate(-58.41 -54.77)"/><path class="cls-4" d="M117.31,332.27l8.45-35.14a28.2,28.2,0,0,0,17-9.24c-4.78,8.47-25.44,44.38-25.44,44.38Z" transform="translate(-58.41 -54.77)"/><path class="cls-1" d="M93.5,269.55a28.06,28.06,0,1,1,28.06,28.06A28.06,28.06,0,0,1,93.5,269.55Z" transform="translate(-58.41 -54.77)"/><path class="cls-3" d="M98.2,269.55a23.36,23.36,0,1,1,23.36,23.36h0A23.36,23.36,0,0,1,98.2,269.55Z" transform="translate(-58.41 -54.77)"/><path class="cls-4" d="M178.31,241.55,143.63,251.7a28.18,28.18,0,0,0-16.48-10.15C136.91,241.5,178.31,241.55,178.31,241.55Z" transform="translate(-58.41 -54.77)"/><path class="cls-4" d="M94.52,277c-4.87-8.44-24.9-43-24.9-43L95.3,259.45a25.31,25.31,0,0,0-1.64,13.19Z" transform="translate(-58.41 -54.77)"/><circle class="cls-3" cx="250.61" cy="62.8" r="59.24"/><path class="cls-2" d="M370.66,101.14l-1.45,9.26s-2.07-17.16-4.6-23.56C360.73,77,359,77.1,359,77.11c2.6,6.6,2.13,10.15,2.13,10.15s-4.61-12.54-16.79-16.53c-13.5-4.42-20.8-3.21-21.64-3h-.08c.06.07,14.91,2.59,17.55,6.21a51.59,51.59,0,0,0-12.59,1.81c-.29.08,23.11,2.91,27.89,26.25,0,0-2.57-5.34-5.74-6.25,2.09,6.34,1.55,18.36-.43,24.33-.26.77-.52-3.32-4.43-5.08,1.25,9-.08,23.19-6.31,27.1-.48.31,3.91-14,.89-8.49-17.4,26.64-38,12.29-47.22,6,4.74,1,13.74-.16,17.72-3.12h0c4.33-3,6.89-5.11,9.19-4.6s3.83-1.79,2-3.84a11.92,11.92,0,0,0-12-3.33c-4.14,1.09-9.28,5.67-17.12,1-6-3.48-6.56-6.48-6.61-8.48a15.19,15.19,0,0,1,.56-2c.69-1.93,2.79-2.52,4-3a18.26,18.26,0,0,1,5.48,1.88v-2.29a5.82,5.82,0,0,0-.21-2.62,19.22,19.22,0,0,0-.82-3.74h0a.06.06,0,0,0,0-.06c.13-.56,1.47-1.64,3.14-2.81,1.5-1,3.26-2.15,4.64-3s2.16-1.33,2.36-1.47l.26-.2.06-.05h0a4.93,4.93,0,0,0,2-3.72h0V94a.29.29,0,0,0,0-.13v-.36h0v-.63a1.93,1.93,0,0,0,0-.34h0v-.05h0V92.4h0c-.22-.5-1-.69-4.32-.75h-5.43c-4,0-6.29-4-7-5.5a16.24,16.24,0,0,1,8.34-11.91c.09,0,.07-.09,0-.12.91-.55-11,0-16.48,6.94a27,27,0,0,0-12.75-.27,14.43,14.43,0,0,1-2.62-.32c-2.43-2.2-5.91-6.26-6.09-11.1h0v-.14s-7.4,5.69-6.3,21.17v.72a19.5,19.5,0,0,0-3.07,5.49c-1.78,3.61-3.58,9-5,17.29A40.77,40.77,0,0,1,249.2,107c-1.51,4.63-2.7,11.82-2,22.62,0,0,.19-2.39.84-5.84.51,6.7,2.75,15,8.4,24.69,10.7,18.63,27.4,28.06,45.8,29.5a63.31,63.31,0,0,0,9.93,0l.92-.07a70.36,70.36,0,0,0,11.37-1.75c51.84-12.52,46.2-75,46.2-75" transform="translate(-58.41 -54.77)"/></svg>