<svg id="Layer_1" data-name="Layer 1" xmlns="http://www.w3.org/2000/svg" viewBox="0 0 251 251"><defs><style>.cls-1{fill:#f2f2f2;stroke:#b3b3b3;}.cls-1,.cls-4{stroke-miterlimit:10;}.cls-2{fill:#333;}.cls-3{fill:#e0bb05;}.cls-4{fill:none;stroke:#333;stroke-width:1.5px;}</style></defs><title>browsersupport</title><rect class="cls-1" x="0.5" y="0.5" width="250" height="250" rx="13.7" ry="13.7"/><path class="cls-2" d="M179.56,148.43a21.39,21.39,0,0,0-31.36,0,24.06,24.06,0,0,0,0,32.81,21.41,21.41,0,0,0,31.36,0,24,24,0,0,0,0-32.81Zm-7.4,29.12c-2.15,3.64-5.09,5.65-8.28,5.65s-6.12-2-8.28-5.65a27.41,27.41,0,0,1,0-25.44c2.16-3.64,5.1-5.65,8.28-5.65s6.13,2,8.28,5.65a27.41,27.41,0,0,1,0,25.44Zm0,0" transform="translate(-1 -1)"/><path class="cls-2" d="M92.83,144.39a22.58,22.58,0,0,0-2.33.12,1.83,1.83,0,0,0,.25-1.36,2.29,2.29,0,0,0-2.43-1.6,4.11,4.11,0,0,0-.77.08,3.28,3.28,0,0,0-1.79,1,1.92,1.92,0,0,0-.52,1.71,1.85,1.85,0,0,0,.81,1.15,21.88,21.88,0,0,0-10.45,7.44,21.68,21.68,0,1,0,17.23-8.52ZM88.32,143c.57,0,1,.22,1,.44a.53.53,0,0,1-.18.42,1.88,1.88,0,0,0-1.15-.13,1.8,1.8,0,0,0-1,.58.53.53,0,0,1-.34-.31.61.61,0,0,1,.24-.49,1.89,1.89,0,0,1,.94-.46,1.93,1.93,0,0,1,.47,0Zm9.21,38.11-1.73-2.8a.36.36,0,0,0-.4-.17.37.37,0,0,0-.29.32l-.44,3.26a16.21,16.21,0,0,1-1.84.1,15.68,15.68,0,0,1-10.9-4.37l.09-.05,8.55-6.51a5.24,5.24,0,0,0,1.82.49L94.56,176a.37.37,0,0,0,.42.21.38.38,0,0,0,.3-.36l.13-5a4.94,4.94,0,0,0,1.28-1l2.57.91a.37.37,0,0,0,.44-.15.38.38,0,0,0,0-.47l-1.87-2a5.7,5.7,0,0,0,.38-1.58l4.55-2.17a.38.38,0,0,0,.21-.42.39.39,0,0,0-.36-.3l-4.66-.12,6.27-8.25a.41.41,0,0,0,0-.09,15.84,15.84,0,0,1,3.67,6.21l-2.81,1.73a.39.39,0,0,0-.17.4.4.4,0,0,0,.32.3l3.26.43a16.22,16.22,0,0,1,.11,1.84,15.79,15.79,0,0,1-11.08,15.06ZM80.74,168.64a.37.37,0,0,0-.32-.3l-3.26-.44a16,16,0,0,1-.1-1.83A15.8,15.8,0,0,1,88.13,151l1.73,2.81a.4.4,0,0,0,.4.17.37.37,0,0,0,.3-.32L91,150.4a16,16,0,0,1,1.83-.11,15.7,15.7,0,0,1,10.91,4.38l-.09.05-8.56,6.5a5.46,5.46,0,0,0-1.81-.48l-2.17-4.56a.39.39,0,0,0-.42-.21.38.38,0,0,0-.3.36l-.13,5a5.16,5.16,0,0,0-1.29,1l-2.56-.91a.38.38,0,0,0-.45.15.39.39,0,0,0,.05.47l1.87,2a5,5,0,0,0-.38,1.57L83,167.79a.38.38,0,0,0-.21.42.36.36,0,0,0,.36.3l4.66.12-6.27,8.26a.14.14,0,0,0,0,.08,15.61,15.61,0,0,1-3.67-6.2l2.8-1.73a.36.36,0,0,0,.17-.4Zm14.12.74a4.16,4.16,0,0,1-1.22.49,4.22,4.22,0,0,1-1.28,0h0a1.86,1.86,0,0,1-.34-.06l2.6-2a.27.27,0,0,0,.07-.08l2-2.6v.06a3.89,3.89,0,0,1-1.77,4.12ZM92,162.27a3.65,3.65,0,0,1,.81-.08,3.87,3.87,0,0,1,.48,0h0l.34.06-2.6,2-.07.07-2,2.6a.11.11,0,0,1,0-.05,3.88,3.88,0,0,1,3-4.61Zm0,0" transform="translate(-1 -1)"/><path class="cls-3" d="M81.76,89.54,75.66,79a21.33,21.33,0,0,1,35,2.43H93.28c-.31,0-.63,0-1,0a10.94,10.94,0,0,0-10.57,8.19ZM100,84.47H112.2A21.35,21.35,0,0,1,92.58,113.6l8.72-15.12a10.89,10.89,0,0,0-1.33-14Zm-15.39,7.8A7.75,7.75,0,1,1,92.33,100a7.76,7.76,0,0,1-7.75-7.75Zm10.68,10.51-6.11,10.58A21.33,21.33,0,0,1,73.74,81.81l8.71,15.08a10.91,10.91,0,0,0,12.81,5.89Zm0,0" transform="translate(-1 -1)"/><path class="cls-2" d="M187.79,83.92l-.56,3.56s-.79-6.6-1.77-9.07c-1.49-3.78-2.16-3.75-2.16-3.75a8.81,8.81,0,0,1,.82,3.91s-1.77-4.83-6.46-6.37c-5.19-1.7-8-1.23-8.32-1.14h0s5.73,1,6.75,2.39a20.05,20.05,0,0,0-4.85.69c-.11,0,8.89,1.13,10.73,10.12,0,0-1-2.06-2.21-2.41a18.91,18.91,0,0,1-.17,9.37c-.09.3-.19-1.28-1.7-2,.48,3.46,0,8.93-2.42,10.44-.19.12,1.5-5.41.34-3.27-6.69,10.26-14.6,4.73-18.16,2.3,1.82.4,5.28-.06,6.81-1.2h0c1.66-1.14,2.65-2,3.53-1.77s1.48-.69.79-1.48A4.59,4.59,0,0,0,164.14,93c-1.6.42-3.57,2.19-6.59.4C155.24,92,155,90.89,155,90.1a5.51,5.51,0,0,1,.22-.78c.26-.74,1.07-1,1.52-1.14a6.94,6.94,0,0,1,2.11.72c0-.23,0-.54,0-.88a2.44,2.44,0,0,0-.08-1,6.84,6.84,0,0,0-.32-1.44h0a0,0,0,0,0,0,0c.05-.22.56-.63,1.21-1.08s1.25-.83,1.78-1.16l.91-.57.1-.08h0a1.86,1.86,0,0,0,.71-1.39h0V81h0a2.18,2.18,0,0,0,0-.25.57.57,0,0,0,0-.13h0v0h0v0h0c-.08-.19-.39-.26-1.66-.29h-2.09c-1.56,0-2.42-1.52-2.7-2.12A6.25,6.25,0,0,1,160,73.54s0,0,0-.05c.35-.21-4.23,0-6.34,2.67a10.35,10.35,0,0,0-4.9-.1,6.31,6.31,0,0,1-1-.12,6.58,6.58,0,0,1-2.34-4.28h0v0s-2.84,2.18-2.42,8.15V80a7.8,7.8,0,0,0-1.19,2.12,25.38,25.38,0,0,0-1.93,6.66A15.85,15.85,0,0,1,141,86.15a23.43,23.43,0,0,0-.77,8.71s.07-.92.32-2.25a22.44,22.44,0,0,0,3.23,9.51,21.89,21.89,0,0,0,17.67,11.38,25.49,25.49,0,0,0,3.81,0l.36,0a26.57,26.57,0,0,0,4.37-.67C190,108,187.79,83.92,187.79,83.92Zm0,0" transform="translate(-1 -1)"/><rect class="cls-4" x="34.5" y="34.5" width="185" height="183" rx="13.73" ry="13.73"/></svg>