<svg id="Layer_1" data-name="Layer 1" xmlns="http://www.w3.org/2000/svg" viewBox="0 0 251 251"><defs><style>.cls-1,.cls-4{fill:#f2f2f2;}.cls-1{stroke:#b3b3b3;stroke-miterlimit:10;}.cls-2{fill:#e0bb05;}.cls-3{fill:#333;}.cls-5{fill:#666;}.cls-6{fill:#ccc;}.cls-7{fill:#dde1f2;}.cls-8{fill:#eaeaea;}</style></defs><title>buildwith</title><rect class="cls-1" x="0.5" y="0.5" width="250" height="250" rx="13.7" ry="13.7"/><path class="cls-2" d="M114.73,159.6c-3.43.26-6.45-.42-8.3-3.67a13.66,13.66,0,0,1-1.54-5.86,26.26,26.26,0,0,1,.91-9.28c.3-1-.06-1.55-1.16-1.9-4.36-1.39-8.41-3.34-11.57-6.81s-3.13-6.79-.24-10.16c3-3.53,7.17-5.36,11.46-6.68,1.62-.5,1.73-1.1,1.45-2.44-.92-4.43-1.37-8.81.07-13.3s5.3-5.82,9.32-4.74a25.77,25.77,0,0,1,11,6.51c.68.64,1.13,1.07,2.15.22,2.44-2.06,4.87-4.2,7.83-5.52a16.21,16.21,0,0,1,5.86-1.6c3.71-.19,5.86,2,6.89,4.92a22.22,22.22,0,0,1,.56,11.28c-.21,1.19-.31,2.41-.62,3.58-.23.86.39.58.71.71,3.24,1.22,6.54,2.3,9.38,4.37a14.2,14.2,0,0,1,4.07,4.1c2.35,4,.42,7.66-2.82,10.35a30.18,30.18,0,0,1-10.1,5.14c-1.17.38-1.12.86-1,1.6a31.26,31.26,0,0,1,.94,8.77,17.79,17.79,0,0,1-1.68,6.67c-1.23,2.6-3.5,3.52-6.15,3.77a24.5,24.5,0,0,1-2.71,0c-4.13-.43-7.3-2.7-10.31-5.3-1.53-1.33-1.62-1.28-3.23,0a61,61,0,0,1-5.26,3.66C118.85,159.17,116.76,159.26,114.73,159.6Zm18-21a2,2,0,0,0,1.9-1,96.65,96.65,0,0,0,5.68-10.07,1.41,1.41,0,0,0-.07-1.38c-1.56-3.42-3.67-6.53-5.52-9.78a1.72,1.72,0,0,0-1.34-.88,57.52,57.52,0,0,0-9.09-.3c-2.21,0-4.17.4-5.27,2.9a78.87,78.87,0,0,1-4.24,7.46,2.45,2.45,0,0,0-.08,2.52,92.14,92.14,0,0,0,5.49,9.42,2.29,2.29,0,0,0,2.19,1.14c1.7,0,3.39,0,5.09,0S131,138.57,132.71,138.59Zm-22.44-12.24c-1-2.55-2-5.09-3-7.66-.29-.75-.54-.79-1.34-.55a25,25,0,0,0-9.5,4.81c-3,2.6-3.24,4.57-.79,7.23s5.64,4,8.87,5.32c2.31.92,2.33.85,3.16-1.55.2-.57.44-1.13.66-1.69l1.94-4.94A5.42,5.42,0,0,0,110.27,126.35Zm-1.7,26.29c.71,2.69,2.76,4.14,5.24,3.55,4.1-1,7.37-3.37,10.52-6,.73-.6.63-1.08,0-1.82a69.78,69.78,0,0,1-4.72-6,1.67,1.67,0,0,0-1.23-.77c-2.77-.48-5.59-.6-8.33-1.31-.61-.15-1.07.14-1.16.88-.29,2.31-1,4.59-.71,6.38A24,24,0,0,0,108.57,152.64Zm37.07-52.53a3.61,3.61,0,0,0-4.08-2.6,24.4,24.4,0,0,0-11,6.38c-.71.66-.65,1.16,0,1.81a36,36,0,0,1,4,4.91,3.63,3.63,0,0,0,3,1.9,22.76,22.76,0,0,1,6.5,1.09c1.51.49,1.71-.34,1.85-1.2.36-2.13.55-4.29.78-6.22A20,20,0,0,0,145.64,100.11ZM109,112.64c.1.8.37,1.31,1.56.93,1.6-.52,3.41-.39,5-.86,1.43-.41,3.2.31,4.28-1.45a26.75,26.75,0,0,1,4.61-5.68c.67-.62.53-1.14-.09-1.68-2.93-2.54-6-5-9.79-5.94-3.42-.88-5-.2-6,3.57a21.51,21.51,0,0,0-.33,4.85C107.92,108.17,108.67,110.38,109,112.64Zm37.28,29.76c-.11-1.12-.31-2.59-2.18-2.11a35.48,35.48,0,0,1-6.72,1.05,2.56,2.56,0,0,0-2,.95,48.9,48.9,0,0,1-4.94,6.26c-.53.55-.27.83.12,1.24a23.87,23.87,0,0,0,10.15,6.35c2.34.73,4-.1,5-2.39a11.69,11.69,0,0,0,1-6.11C147,145.94,146.4,144.18,146.24,142.4Zm13.23-18.33c-3-3.26-7-4.68-11-6.17-.55-.2-.65.18-.83.69a67.43,67.43,0,0,1-2.89,7.19,2.41,2.41,0,0,0,.07,2.3,37.77,37.77,0,0,1,2.73,6.88c.3,1,.69,1,1.54.74a26.34,26.34,0,0,0,8.27-4c1.59-1.25,3.29-2.59,3.55-5A6.64,6.64,0,0,0,159.47,124.07Zm-15.56,13c.5-.08.88-.39.59-1.08a40.38,40.38,0,0,0-2.11-5.1c-1.32,2.32-2.6,4.54-4,7A30.17,30.17,0,0,0,143.91,137Zm-33.59-.78c-.12.36-.21.92.53,1,1.8.1,3.53.85,5.54.62L112.47,131A29.49,29.49,0,0,0,110.32,136.26ZM131.62,112l-4.14-5a25.12,25.12,0,0,0-3.9,5C126.19,111.58,128.77,112.3,131.62,112Zm10.82,11.06,2.05-5.28c.24-.61.1-.85-.62-1-1.77-.25-3.52-.62-5.58-1ZM111,116.83c-.45.07-.87.14-.68.66a33.33,33.33,0,0,0,2.09,5.42l4.13-7.11C114.54,116.18,112.77,116.53,111,116.83Zm16.26,29.72c.24.23.55.26.72,0,.93-1.57,2.62-2.62,3.23-4.52h-7.67A21.16,21.16,0,0,0,127.26,146.55Zm0-13.07c4.14-.07,6.73-2.86,6.76-6.63a6.46,6.46,0,0,0-6.45-6.6,6.62,6.62,0,0,0-.31,13.23Z" transform="translate(-1 -1)"/><path class="cls-3" d="M77.2,149.27H88.08c1,0,1.06,0,.73,1-1.41,4-2.8,8.08-4.22,12.11-.23.66-.22,1,.57,1.33a4.9,4.9,0,0,1,2.38,6.7,1,1,0,0,0-.06.86,7.24,7.24,0,0,1-5.31,10.06c-1.87.45-3.79.56-5.64,1.07a36.59,36.59,0,0,0-6.68,2.88,23.09,23.09,0,0,1-6.46,2.35,7.82,7.82,0,0,1-9.14-6.06,13.3,13.3,0,0,1,1.62-8.7c.37-.72.55-1.26-.07-1.92-1.41-1.53-.92-5.16.89-6.54a5,5,0,1,1,5.73,8.17c-.42.24-1.08.24-1.15.89a3.28,3.28,0,0,0,.55,2.47c.77,1,1,1,2.07.47A15.31,15.31,0,0,0,68.07,173c.53-.56.3-.81-.17-1.37-2.46-2.95-1.57-6.2,1.46-7.95.65-.38.62-.62.44-1.16-1.4-4.11-2.77-8.23-4.21-12.33-.31-.88-.09-1,.73-1C70,149.29,73.57,149.27,77.2,149.27Zm-20.81,30.8a5.26,5.26,0,0,0,5.34,5.35,13.31,13.31,0,0,0,5.79-1.53c2.26-1,4.45-2.26,6.79-3.15s4.8-1,7.18-1.58c2.76-.65,4.8-2.7,4.25-5.9-.12-.68-.35-.71-.88-.47a4.92,4.92,0,0,1-6.45-2.7c-.27-.63-.62-.61-1.1-.63s-1,0-1.24.64a4.61,4.61,0,0,1-4.55,3,1.56,1.56,0,0,0-1.33.77,15.29,15.29,0,0,1-7,5.26,1.32,1.32,0,0,1-1.24-.16,5.8,5.8,0,0,1-3-5.41c0-.3,0-.51-.33-.58s-.37.16-.48.36a11.55,11.55,0,0,0-1.73,6.11C56.39,179.68,56.4,179.88,56.39,180.07ZM77.8,156c1.11,2.27,2.22,4.55,3.34,6.82.12.23.17.62.55.57s.29-.36.38-.6q1.8-5.21,3.64-10.39c.22-.61.13-.82-.57-.82q-7.92,0-15.83,0c-.66,0-.82.12-.59.8,1.19,3.4,2.32,6.82,3.49,10.23.09.28.09.7.52.71s.43-.43.56-.68c1-1.88,1.9-3.78,2.86-5.67a10.3,10.3,0,0,1,1.12-2C77.46,155.32,77.64,155.65,77.8,156ZM83,171a2.94,2.94,0,0,0,2.86-2.83,3,3,0,0,0-2.76-2.79A2.81,2.81,0,0,0,83,171ZM59.86,165.4A2.92,2.92,0,0,0,57,168.24,3,3,0,0,0,59.89,171a2.8,2.8,0,0,0,2.72-2.79A2.74,2.74,0,0,0,59.86,165.4ZM71.54,171a2.82,2.82,0,0,0,0-5.63c-1.25,0-3,1.35-2.69,2.78C68.49,169.77,70.36,171,71.54,171Zm4.09-8a2,2,0,0,0,.3,2.77,1.37,1.37,0,0,1,.28.71c.13.59.56.6,1,.59s1,.06,1.07-.54A3.53,3.53,0,0,1,79.2,165a.64.64,0,0,0,.11-.84c-.69-1.34-1.35-2.68-2.14-4.24C76.59,161.14,76.15,162.13,75.63,163.07Z" transform="translate(-1 -1)"/><path class="cls-3" d="M56.25,106.85a5.16,5.16,0,0,1-3.59-3.91q-.09-12.78,0-25.55A5.57,5.57,0,0,1,58,73c7.78,0,15.56,0,23.34,0a5.55,5.55,0,0,1,5.35,5.39q0,11.75,0,23.47a5.31,5.31,0,0,1-3.61,5,10.7,10.7,0,0,1-2.39.23H58.39A7,7,0,0,1,56.25,106.85ZM73.1,89.42a4.62,4.62,0,0,0,2.13-5.76,5,5,0,0,0-4.8-3.11c-3.17,0-6.33,0-9.49,0-.77,0-1,.19-1,1q0,9,0,18c0,.83.28,1,1,1,2.67,0,5.35,0,8,0a11.57,11.57,0,0,0,4.31-.85,5.2,5.2,0,0,0,3.17-4.92c-.28-2.29-1-4.29-3.64-5C73,89.55,73,89.46,73.1,89.42ZM67,97.59c1,0,2,0,3,0A2.76,2.76,0,0,0,72.83,95c.13-2.07-.56-3-2.29-3.52A18.45,18.45,0,0,0,66,91.27c-2.64,0-2.66,0-2.62,2.64,0,1.19-.54,2.8.25,3.47s2.23.12,3.4.12Zm2.38-8.77a2.35,2.35,0,0,0,2.47-2c.3-2-.14-2.87-1.67-3.38s-3-.18-4.55-.22c-2.3-.06-2.32,0-2.29,2.24,0,1.07-.47,2.47.22,3.14s2.07.12,3,.21C67.6,88.83,68.49,88.84,69.38,88.82Z" transform="translate(-1 -1)"/><path class="cls-3" d="M193.17,75.89c.74-.28,1.15-.94,1.82-1.06s.92,1,1.77,1c0-1.27,0-2.52,0-3.77,0-.68.24-.88.89-.87a20.47,20.47,0,0,0,2.05-.17c.36,0,.52.11.49.48,0,.19,0,.38,0,.57v36c0,.72.09,1.1-1,1-2-.12-3.95-.23-5.93-.27-3-.07-6.08-.29-9.13-.4-2.41-.09-4.81-.35-7.23-.35a18.16,18.16,0,0,0-2.33-.2c-.3,0-.33-.16-.37-.41a9.84,9.84,0,0,1-.19-2c0-3.43-.32-6.84-.41-10.27-.06-2.5-.26-5-.37-7.51-.13-2.69-.21-5.39-.4-8.08a56.25,56.25,0,0,0-.33-5.81c-.11-.63.16-.87.84-.9,3-.15,6-.32,9-.57,2.62-.23,5.24-.4,7.86-.59.93-.06,1.87-.13,2.81-.16.55,0,.64.21.52.68C193.19,73.44,193.47,74.68,193.17,75.89Z" transform="translate(-1 -1)"/><path class="cls-3" d="M172.46,85.9c.12,2.83.33,6,.42,9.16.07,2.38.19,4.76.4,7.13.15,1.68-.11,3.38.3,5a.44.44,0,0,1-.53.59c-.46-.07-1.13.35-1.33-.47a.88.88,0,0,1,0-.28c.06-2.58-.17-5.16-.23-7.74-.09-3.58-.23-7.16-.39-10.73-.08-1.73,0-3.46-.15-5.18-.23-3.17-.38-6.33-.37-9.5,0-.51-.11-1.06.71-1s.6.57.61,1c.08,3,.37,6.07.42,9.12C172.33,83.87,172.47,84.72,172.46,85.9Z" transform="translate(-1 -1)"/><path class="cls-4" d="M182,93.83c.7,0,1.39,0,2.09,0s.86.26.86.85A7.08,7.08,0,0,0,185,95.8a1.71,1.71,0,0,0,1.21,1.55,1.61,1.61,0,0,0,1.75-.42,1.87,1.87,0,0,0,.19-2.06A4.94,4.94,0,0,0,186,92.79,38.56,38.56,0,0,1,182,90.16a7,7,0,0,1-2.38-7.82c.8-2.59,3-4.2,6.1-4.47a10.69,10.69,0,0,1,4.13.41c2.78.86,4.95,4.4,4.36,7.13-.09.37-.34.41-.64.42l-4.07.15c-.59,0-.87-.21-.87-.82a3.88,3.88,0,0,0-.2-1.12,1.64,1.64,0,0,0-2.28-1,1.67,1.67,0,0,0-.76,2.25,3.29,3.29,0,0,0,1.36,1.54c1,.62,2,1.2,3,1.79a8.91,8.91,0,0,1,4.15,4.14c1.9,4.63-.72,8.86-5.71,9.19a11.65,11.65,0,0,1-5.69-.7,6.45,6.45,0,0,1-3.39-6.9c.11-.41.38-.47.71-.47.73,0,1.45,0,2.18,0Z" transform="translate(-1 -1)"/><path class="cls-3" d="M167.86,154.32a3.46,3.46,0,0,1,2.45.94.26.26,0,0,0,.38.05q3.87-2.25,7.76-4.48a.27.27,0,0,0,.15-.35,3.53,3.53,0,1,1,6.93-1.29,3.21,3.21,0,0,1-.05,1.31c0,.16,0,.24.14.33q3.9,2.23,7.78,4.49a.24.24,0,0,0,.34,0,3.53,3.53,0,0,1,5.9,2,3.5,3.5,0,0,1-2.4,3.93c-.21.07-.27.15-.27.36,0,3,0,5.91,0,8.87,0,.21.07.29.27.36a3.53,3.53,0,1,1-3.57,5.87c-.14-.14-.22-.13-.38,0l-7.68,4.43c-.18.1-.19.19-.15.38a3.53,3.53,0,1,1-6.87,1.62,3.21,3.21,0,0,1,0-1.54.25.25,0,0,0-.15-.33l-7.78-4.49a.24.24,0,0,0-.33,0,3.54,3.54,0,0,1-5.91-2.06,3.51,3.51,0,0,1,2.4-3.87c.23-.07.27-.17.27-.38q0-4.42,0-8.84a.32.32,0,0,0-.27-.37,3.53,3.53,0,0,1,.55-6.85C167.57,154.33,167.74,154.33,167.86,154.32Zm24.59,19a.28.28,0,0,0,.33-.24,3,3,0,0,1,.79-1.35.23.23,0,0,0,0-.33l-10.46-18.12a.25.25,0,0,0-.33-.14,3.13,3.13,0,0,1-1.52,0c-.19,0-.27,0-.37.16q-1.39,2.44-2.81,4.88-3.81,6.59-7.61,13.16a.29.29,0,0,0,.05.42,3,3,0,0,1,.73,1.27c.06.23.18.28.41.28h20.76ZM171.6,175c-.09,0-.22-.05-.25.08s.11.13.18.17l7.75,4.48a.26.26,0,0,0,.38,0,3.5,3.5,0,0,1,4.82.06.28.28,0,0,0,.4,0l5.52-3.19,2.16-1.26c.1,0,.23-.07.18-.24s-.18-.1-.28-.11H171.6Zm-2.82-4.5c0,.08,0,.19.06.23s.15-.1.19-.17c.25-.42.48-.84.73-1.26q4.85-8.4,9.7-16.81c0-.08.18-.17.08-.27s-.2,0-.28.08l-7.73,4.46c-.15.09-.2.16-.16.34a3.49,3.49,0,0,1-2.37,4.11c-.18.06-.22.14-.22.32,0,1.49,0,3,0,4.48Zm26.52-9a.27.27,0,0,0-.22-.31,3.49,3.49,0,0,1-2.38-4.08.28.28,0,0,0-.18-.38l-7.73-4.46-.14-.08a.08.08,0,0,0-.12,0,.11.11,0,0,0,0,.12l.08.13,10.44,18.09c0,.07,0,.2.16.17s.08-.15.08-.24c0-1.49,0-3,0-4.48S195.29,163,195.3,161.52Z" transform="translate(-1 -1)"/><path class="cls-3" d="M130.05,206.54h-.15a33.83,33.83,0,0,1-4.08-1c-2-.54-4-1.11-6-1.67-.56-.16-.54-.1-.58-.67-.09-1-.18-2.06-.28-3.09s-.2-2.31-.31-3.47c-.09-1-.17-2-.26-2.92l-.27-2.95c-.08-1-.18-2-.26-3-.06-.79-.14-1.57-.21-2.36s-.15-1.63-.22-2.44-.13-1.53-.2-2.29-.11-1.66-.15-2.49a4.07,4.07,0,0,0,0-.61v-.48a.3.3,0,0,1,.25-.11h25.48a.26.26,0,0,1,.27.16v.19a14.89,14.89,0,0,0-.1,1.64c0,.63-.09,1.26-.14,1.89-.06.82-.14,1.64-.21,2.45-.1,1-.18,2-.27,3l-.21,2.36-.27,3c-.09,1-.17,2-.26,2.93s-.18,2-.26,2.95-.19,2-.27,3q-.09,1.16-.21,2.31c0,.15,0,.31,0,.47a.48.48,0,0,1-.41.48l-2.56.71-6.51,1.81C130.88,206.42,130.46,206.47,130.05,206.54Z" transform="translate(-1 -1)"/><path class="cls-5" d="M130,182.49v-2.94c0-.22.06-.3.3-.3h10c.3,0,.31,0,.28.32l-.21,2.42c-.07.79-.15,1.58-.22,2.37l-.21,2.38c-.07.81-.15,1.63-.22,2.44l-.21,2.38c-.07.81-.15,1.63-.22,2.44l-.21,2.35c-.07.83-.15,1.66-.22,2.5l-.21,2.35c0,.18,0,.36-.05.54s-.12.19-.24.23l-3.75,1-4.3,1.19c-.3.08-.31.08-.31-.23v-2.73a.69.69,0,0,0,0-.32v0a.18.18,0,0,1,.07,0,.85.85,0,0,1,.35-.15l5.68-1.58c.43-.12.47-.18.51-.63.11-1.15.21-2.31.31-3.47.09-1,.18-2,.26-3s.18-1.9.26-2.85.19-2,.27-3c.06-.78.14-1.55.21-2.33,0-.31.06-.62.07-.93,0-.09,0-.18-.11-.21a7.36,7.36,0,0,0-1-.12h-6.48C130.22,182.57,130.09,182.61,130,182.49Z" transform="translate(-1 -1)"/><path class="cls-6" d="M130,200.92q-3.18-.9-6.37-1.77c-.19-.06-.29-.12-.31-.35-.12-1.53-.26-3.05-.4-4.57,0-.2,0-.27.24-.27h2.79c.16,0,.22,0,.23.2,0,.71.13,1.42.18,2.12,0,.19.06.29.27.34l3.27.89a.19.19,0,0,1,.16.22c0,1,0,2,0,3a.23.23,0,0,1-.07.19Z" transform="translate(-1 -1)"/><path class="cls-6" d="M122.12,185.74c-.08-1-.17-1.91-.25-2.87v-.16c-.05-.13,0-.2.14-.19h7.71c.3,0,.3,0,.3.31v2.65a.37.37,0,0,1-.05.27.49.49,0,0,1-.24,0h-7.38C122.27,185.77,122.19,185.8,122.12,185.74Z" transform="translate(-1 -1)"/><path class="cls-6" d="M122.73,192.3a9.89,9.89,0,0,1-.13-1.22c-.06-.58-.11-1.17-.16-1.75,0-.16,0-.26.19-.26h7.19a.34.34,0,0,1,.14,0c.08.07.06.17.06.27,0,.89,0,1.78,0,2.67,0,.28,0,.29-.3.29H123A.45.45,0,0,1,122.73,192.3Z" transform="translate(-1 -1)"/><path class="cls-5" d="M130,197.5v-5.15c0-.07.12-.07.19-.07,1.25,0,2.51,0,3.76,0,.16.08.14.23.13.36-.05.59-.1,1.17-.16,1.76s-.12,1.28-.17,1.92a.38.38,0,0,1-.31.41l-3.16.85a.27.27,0,0,1-.23,0A.18.18,0,0,1,130,197.5Z" transform="translate(-1 -1)"/><path class="cls-5" d="M130,189.1h-7.27c-.2,0-.28,0-.24.24-.06-.25,0-.28.24-.28h4.58c.82,0,1.63,0,2.44,0,.23,0,.31-.07.3-.3,0-.88,0-1.75,0-2.63,0-.31,0-.32-.32-.32h-7.21a.54.54,0,0,1-.35-.06H130l.08-.05a.8.8,0,0,1,.37-.06h3.77c.46,0,.52.07.48.52l-.24,2.71c0,.28-.1.34-.38.35h-3.75a.53.53,0,0,1-.25-.05Z" transform="translate(-1 -1)"/><path class="cls-7" d="M130,185.74H130v-2.86c0-.32,0-.33-.31-.33h-7.45c-.13,0-.28,0-.32.16-.1-.22,0-.21.19-.21h15.82c.08,0,.18-.05.24.05l-.07.06a1.06,1.06,0,0,1-.5,0h-6.81c-.57,0-.62.05-.62.62v2.08C130.11,185.51,130.13,185.65,130,185.74Z" transform="translate(-1 -1)"/><path class="cls-7" d="M130,189.1H130c.13.09.12.24.12.37v2.08c0,.58,0,.63.62.63,1,0,1.92,0,2.89,0,.12,0,.3-.07.34.15H123c-.09,0-.19,0-.27,0h6.81c.41,0,.41,0,.41-.43Z" transform="translate(-1 -1)"/><path class="cls-7" d="M130,197.5l.05,0a.42.42,0,0,1,.06.27c0,.94,0,1.87,0,2.81a.35.35,0,0,1-.11.3H130v-3a.39.39,0,0,0-.09-.33Z" transform="translate(-1 -1)"/><path class="cls-4" d="M130,200.9v-3.08a.61.61,0,0,1,.05-.3l3.36-.91c.11,0,.2-.05.22-.2.11-1.32.23-2.65.34-4v-.1a.62.62,0,0,0-.33,0h-3.31c-.32,0-.33,0-.33-.34V189.1h4c.24,0,.32-.05.34-.3.07-.94.15-1.87.24-2.8,0-.2,0-.24-.22-.24H130c0-1,0-1.92,0-2.89,0-.22.05-.31.29-.31h7.79a.48.48,0,0,1,0,.29c-.09,1-.17,2.09-.26,3.14-.14,1.52-.28,3-.41,4.56-.15,1.71-.31,3.41-.46,5.12-.1,1.07-.2,2.15-.29,3.23a.22.22,0,0,1-.18.23l-6.41,1.77Z" transform="translate(-1 -1)"/><path class="cls-8" d="M138.08,182.84v-.29h0A.7.7,0,0,1,138.08,182.84Z" transform="translate(-1 -1)"/><path class="cls-3" d="M125.79,82c-.91-.32-1.85-.54-2.78-.8-2.22-.62-4.45-1.24-6.68-1.84A.42.42,0,0,1,116,79c-.32-3.72-.66-7.44-1-11.16q-.43-5.07-.89-10.14c-.08-.9-.16-1.81-.25-2.72,0-.26,0-.37.32-.36h23.52c.28,0,.33.08.31.34-.37,4-.72,8-1.08,12.06s-.71,8-1,12a.37.37,0,0,1-.33.38c-3,.83-6.1,1.68-9.15,2.52-.11,0-.25,0-.33.13Z" transform="translate(-1 -1)"/><path class="cls-5" d="M125.92,59.6c0-.86,0-1.73,0-2.6,0-.31.11-.4.41-.4h9.07c.38,0,.43.06.4.44-.12,1.34-.26,2.67-.38,4-.1,1.11-.19,2.23-.29,3.35s-.21,2.19-.31,3.28-.19,2.12-.28,3.18-.22,2.35-.32,3.52c-.09,1-.19,2-.28,3.05a.37.37,0,0,1-.31.36l-7.36,2c-.3.09-.35,0-.35-.28,0-.78,0-1.56,0-2.34a.51.51,0,0,0-.14-.43.18.18,0,0,1,.13-.11c1.14-.41,2.32-.67,3.48-1,.68-.2,1.37-.37,2-.57.46-.13.54-.27.58-.73.13-1.43.26-2.85.38-4.28.11-1.22.23-2.45.32-3.68a.36.36,0,0,0-.13-.35,4.19,4.19,0,0,0-1.21-.19h-5.06a.65.65,0,0,1-.45-.08.68.68,0,0,1-.11-.44c0-.74,0-1.48,0-2.23a.75.75,0,0,1,.1-.44c.13-.12.3-.08.45-.08h5.36a5.25,5.25,0,0,0,1.25-.19c.24-.16.2-.43.22-.66.06-.46.09-.92.14-1.38,0-.18,0-.36-.15-.47a5,5,0,0,0-1.15-.17h-5.63C126.21,59.7,126,59.75,125.92,59.6Z" transform="translate(-1 -1)"/><path class="cls-6" d="M125.92,65.74h6.63c.13,0,.27,0,.38.06-.16.2-.38.16-.59.17h-5.26c-1,0-1,0-1,1,0,.35,0,.71,0,1.06s.13.56.57.56H129a2,2,0,0,1,.43,0c.12,0,.25,0,.21.23a.58.58,0,0,1-.47.14h-2.78a.54.54,0,0,1-.49-.17l-.39,0c-2,0-4,0-6,0-.26,0-.36-.05-.38-.34-.23-2.63-.47-5.27-.71-7.9,0-.24,0-.49-.06-.73s0-.21.18-.2a1.76,1.76,0,0,0,.23,0h6.77l.4,0,6.57,0a2.93,2.93,0,0,1,1,.05c-.16.21-.4.16-.61.17H127c-.86,0-.89,0-.89.91v1.06c0,.52.12.63.64.63h5.63a4.87,4.87,0,0,1,.54,0c.12,0,.25,0,.3.16s-.23.05-.34.05h-6.94c-.15.18-.35.16-.55.16h-2.9c-.55,0-.61.07-.59.62s.1,1.11.15,1.66c0,.34.18.45.57.46h2.77C125.56,65.59,125.77,65.56,125.92,65.74Z" transform="translate(-1 -1)"/><path class="cls-6" d="M125.93,76.76h-.14L120,75.16a.36.36,0,0,1-.32-.38q-.17-2.06-.36-4.11c0-.27,0-.38.32-.37q1.19,0,2.37,0c.26,0,.33.08.35.33,0,.62.11,1.24.17,1.86,0,.12,0,.24.16.28,1.08.27,2.15.61,3.25.84l0,0a.59.59,0,0,1,.1.41q0,1.13,0,2.25A.52.52,0,0,1,125.93,76.76Z" transform="translate(-1 -1)"/><path class="cls-5" d="M125.92,68.81c1.25,0,2.49,0,3.73,0,.13.06.13.16.12.28-.06,1.15-.2,2.29-.29,3.44,0,.27-.21.35-.42.41-.61.18-1.22.33-1.83.49-.3.08-.59.18-.9.24a.43.43,0,0,1-.41,0v0C125.93,72,125.93,70.41,125.92,68.81Z" transform="translate(-1 -1)"/><path class="cls-4" d="M125.92,73.64c1-.27,2-.56,3-.81.3-.07.37-.21.39-.49.1-1.17.22-2.34.32-3.51-.11-.12-.27-.09-.41-.09h-2.83c-.48,0-.48,0-.49-.5V66.37c0-.55,0-.55.58-.55h6.43c0,1-.15,1.88-.23,2.82-.15,1.9-.34,3.8-.5,5.71-.06.72,0,.72-.73.91l-5.29,1.47-.25,0C125.92,75.72,125.92,74.68,125.92,73.64Z" transform="translate(-1 -1)"/><path class="cls-4" d="M133.2,62.62h-6.76c-.51,0-.52,0-.52-.52,0-.67,0-1.33,0-2,0-.32.1-.42.42-.42h7.13A24.32,24.32,0,0,1,133.2,62.62Z" transform="translate(-1 -1)"/><path class="cls-3" d="M125.92,65.74l-3.79,0c-.16,0-.22-.05-.23-.2l-.24-2.66c0-.16,0-.24.2-.24l4.06,0Z" transform="translate(-1 -1)"/></svg>