<svg id="Layer_1" data-name="Layer 1" xmlns="http://www.w3.org/2000/svg" viewBox="0 0 251 251"><defs><style>.cls-1,.cls-2,.cls-4{fill:#f2f2f2;}.cls-1{stroke:#b3b3b3;}.cls-1,.cls-2,.cls-3{stroke-miterlimit:10;}.cls-2,.cls-3{stroke:#333;}.cls-2{stroke-width:1.5px;}.cls-3{fill:#e0bb05;}</style></defs><title>button</title><rect class="cls-1" x="0.5" y="0.5" width="250" height="250" rx="13.7" ry="13.7"/><rect class="cls-2" x="35" y="88.86" width="168.99" height="52.74" rx="5.49" ry="5.49"/><rect class="cls-3" x="47.92" y="101.77" width="168.99" height="52.74" rx="5.49" ry="5.49"/><path class="cls-4" d="M202.73,147.67l-1.36.68-.68,2.71V165.3L196,161.23l-2-.67-1.35.67V164l4.06,4.06,7.46,6.11,4.75.68s4.07.67,4.07,0,3.39-3.39,3.39-3.39l2-4.75-.68-4.07L217,159.2l-1.36-.68-2-.68-1.36-2-1.36.68-1.35.68-2-1.36h-2v-7.46Z" transform="translate(-1 -1)"/><path d="M206.35,155.11a3.12,3.12,0,0,1,3.15.62,3.1,3.1,0,0,1,3-.68,3.17,3.17,0,0,1,2.16,2.19l.2-.05a3.15,3.15,0,0,1,4.13,3c0,2.18,0,4.36,0,6.55a9.49,9.49,0,0,1-9.86,9.25A13.13,13.13,0,0,1,200,172q-3.73-3.72-7.45-7.45a3,3,0,0,1-.77-3.36,3,3,0,0,1,2.75-2.06,2.92,2.92,0,0,1,2.37.85c1,.94,1.91,1.9,2.86,2.85l.24.22v-.35q0-6.5,0-13a3.16,3.16,0,1,1,6.32-.06c0,1.69,0,3.39,0,5.08Zm-4.2,13c-.1-.1-.15-.13-.19-.18L197,163.06l-1.5-1.5a1,1,0,0,0-1.8.59,1.1,1.1,0,0,0,.4,1l7.46,7.45a10.94,10.94,0,0,0,4.36,2.7,9.81,9.81,0,0,0,5.26.38,7.29,7.29,0,0,0,5.61-6.37c.09-1.05,0-2.11.05-3.16,0-1.31,0-2.63,0-3.94a1,1,0,0,0-1.29-1,1,1,0,0,0-.8,1c0,.34,0,.68,0,1h-2.11v-.4c0-.9,0-1.8,0-2.7a1,1,0,0,0-.68-1,1,1,0,0,0-1.42,1c0,.91,0,1.81,0,2.72v.38h-2.1V160c0-.62,0-1.23,0-1.84a1,1,0,0,0-.6-1,1,1,0,0,0-1.49.93c0,.93,0,1.87,0,2.8v.36h-2.11v-7.51c0-1.37,0-2.73,0-4.09a1,1,0,0,0-.93-1,1,1,0,0,0-1.12.76,2,2,0,0,0,0,.49v18.3Z" transform="translate(-1 -1)"/></svg>