<?xml version="1.0" encoding="utf-8"?>
<!-- Generator: Adobe Illustrator 22.0.0, SVG Export Plug-In . SVG Version: 6.00 Build 0)  -->
<svg version="1.1" id="Layer_1" xmlns="http://www.w3.org/2000/svg" xmlns:xlink="http://www.w3.org/1999/xlink" x="0px" y="0px"
	 viewBox="0 0 488 442" style="enable-background:new 0 0 488 442;" xml:space="preserve">
<style type="text/css">
	.st0{fill:#F2F2F2;}
	.st1{fill:#999999;}
	.st2{fill:#808080;}
	.st3{fill:#E0E0E0;}
	.st4{fill:#CCCCCC;}
</style>
<title>card</title>
<path class="st0" d="M107.2,32.6H379c12,0,21.7,12.7,21.7,28.4v317c0,15.7-9.7,28.4-21.7,28.4H107.2c-12,0-21.7-12.7-21.7-28.4V61
	C85.5,45.3,95.3,32.6,107.2,32.6z"/>
<path class="st1" d="M379,35.1c10.9,0,19.7,11.6,19.7,25.9v317c0,14.3-8.8,25.8-19.7,25.9H107.2c-10.9,0-19.7-11.6-19.7-25.9V61
	c0-14.3,8.8-25.8,19.7-25.9H379 M379,30H107.2c-13.1,0-23.6,13.9-23.6,31l0,0v317c0,17.1,10.6,31,23.6,31c0,0,0,0,0,0H379
	c13.1,0,23.6-13.9,23.6-31V61C402.6,43.9,392,30,379,30z"/>
<circle class="st2" cx="243.1" cy="140.6" r="50"/>
<path class="st3" d="M180,228.6h126.2c3,0,5.4,2.4,5.4,5.4l0,0c0,3-2.4,5.4-5.4,5.4H180c-3,0-5.4-2.4-5.4-5.4l0,0
	C174.6,231,177,228.6,180,228.6z"/>
<path class="st4" d="M163,323.6h160.1c6.6,0,11.9,5.3,11.9,11.9v15.1c0,6.6-5.3,11.9-11.9,11.9H163c-6.6,0-11.9-5.3-11.9-11.9v-15.1
	C151.2,328.9,156.5,323.6,163,323.6z"/>
<path class="st3" d="M180,249.6h126.2c3,0,5.4,2.4,5.4,5.4l0,0c0,3-2.4,5.4-5.4,5.4H180c-3,0-5.4-2.4-5.4-5.4l0,0
	C174.6,252,177,249.6,180,249.6z"/>
<path class="st3" d="M180,270.6h126.2c3,0,5.4,2.4,5.4,5.4l0,0c0,3-2.4,5.4-5.4,5.4H180c-3,0-5.4-2.4-5.4-5.4l0,0
	C174.6,273.1,177,270.6,180,270.6z"/>
</svg>
