<svg id="Layer_1" data-name="Layer 1" xmlns="http://www.w3.org/2000/svg" viewBox="0 0 251 251"><defs><style>.cls-1,.cls-5{fill:#f2f2f2;}.cls-1{stroke:#b3b3b3;}.cls-1,.cls-6{stroke-miterlimit:10;}.cls-2{fill:#e0bb05;}.cls-3{fill:#333;}.cls-4{fill:#fff;}.cls-6{fill:none;stroke:#333;stroke-width:1.5px;}</style></defs><title>card</title><rect class="cls-1" x="0.5" y="0.5" width="250" height="250" rx="13.7" ry="13.7"/><path class="cls-2" d="M99.41,111.78h2.66v6.48h4.14v2.11h-6.8Z" transform="translate(-1 -1)"/><path class="cls-2" d="M114.17,117.85h-4.79a1.63,1.63,0,0,0,.31.86,1.14,1.14,0,0,0,.91.4,1.41,1.41,0,0,0,.66-.17,1.69,1.69,0,0,0,.42-.4l2.35.22a3.39,3.39,0,0,1-1.3,1.35,4.78,4.78,0,0,1-2.19.4,4.5,4.5,0,0,1-1.94-.34,3,3,0,0,1-1.18-1.11,3.36,3.36,0,0,1-.46-1.79,3.14,3.14,0,0,1,.93-2.36,3.59,3.59,0,0,1,2.58-.9,4.58,4.58,0,0,1,2.11.4,2.69,2.69,0,0,1,1.18,1.18,4.23,4.23,0,0,1,.41,2Zm-2.43-1.14a1.62,1.62,0,0,0-.37-1,1.09,1.09,0,0,0-.8-.3,1.06,1.06,0,0,0-.9.45,1.63,1.63,0,0,0-.28.84Z" transform="translate(-1 -1)"/><path class="cls-2" d="M115,117.28a3.13,3.13,0,0,1,1-2.35,4.18,4.18,0,0,1,5.42.16,3.17,3.17,0,0,1,.77,2.15,3.12,3.12,0,0,1-1,2.36,3.63,3.63,0,0,1-2.63.91,3.7,3.7,0,0,1-2.43-.76A3.07,3.07,0,0,1,115,117.28Zm2.39,0a1.83,1.83,0,0,0,.34,1.23,1,1,0,0,0,.84.4,1.06,1.06,0,0,0,.85-.39,1.94,1.94,0,0,0,.33-1.26,1.83,1.83,0,0,0-.33-1.2,1,1,0,0,0-.83-.4,1.06,1.06,0,0,0-.86.4A1.85,1.85,0,0,0,117.36,117.27Z" transform="translate(-1 -1)"/><path class="cls-2" d="M123.26,114.15h2.23v1a3.18,3.18,0,0,1,1-.88,2.65,2.65,0,0,1,1.25-.27,2.06,2.06,0,0,1,1.55.59,2.57,2.57,0,0,1,.55,1.82v4h-2.39V117a1.21,1.21,0,0,0-.22-.83.78.78,0,0,0-.61-.24.86.86,0,0,0-.7.33,1.9,1.9,0,0,0-.27,1.17v3h-2.39Z" transform="translate(-1 -1)"/><path class="cls-2" d="M133.44,116.17l-2.28-.24a2.42,2.42,0,0,1,.38-.94,2,2,0,0,1,.7-.6,2.9,2.9,0,0,1,.9-.28,6.85,6.85,0,0,1,1.24-.1,9.86,9.86,0,0,1,1.72.12,2.25,2.25,0,0,1,1.09.5,1.87,1.87,0,0,1,.48.75,2.86,2.86,0,0,1,.17.92v2.75a3.14,3.14,0,0,0,.06.69,3.5,3.5,0,0,0,.24.63H135.9a1.75,1.75,0,0,1-.17-.36,2,2,0,0,1-.08-.4,3.26,3.26,0,0,1-.94.65,3.9,3.9,0,0,1-1.47.25,2.49,2.49,0,0,1-1.69-.51,1.78,1.78,0,0,1-.16-2.44,2.87,2.87,0,0,1,1.54-.68c.89-.18,1.47-.3,1.74-.38a7.5,7.5,0,0,0,.84-.28.87.87,0,0,0-.18-.62.94.94,0,0,0-.64-.17,1.62,1.62,0,0,0-.88.19A1,1,0,0,0,133.44,116.17Zm2.07,1.25c-.33.12-.67.22-1,.31a2.36,2.36,0,0,0-.92.38.58.58,0,0,0-.2.44.59.59,0,0,0,.19.46.84.84,0,0,0,.58.18,1.46,1.46,0,0,0,.74-.19,1.19,1.19,0,0,0,.49-.48,1.62,1.62,0,0,0,.14-.72Z" transform="translate(-1 -1)"/><path class="cls-2" d="M139.3,114.15h2.23v1a2.32,2.32,0,0,1,.66-.91A1.38,1.38,0,0,1,143,114a2.47,2.47,0,0,1,1.15.33l-.73,1.7a1.91,1.91,0,0,0-.67-.18.83.83,0,0,0-.73.39,4,4,0,0,0-.37,2v2.08H139.3Z" transform="translate(-1 -1)"/><path class="cls-2" d="M151.45,111.78v8.59h-2.23v-.92a3,3,0,0,1-.86.79,2.44,2.44,0,0,1-1.15.27,2.22,2.22,0,0,1-1.94-1,4,4,0,0,1-.67-2.35,3.45,3.45,0,0,1,.74-2.37,2.41,2.41,0,0,1,1.88-.82,2.53,2.53,0,0,1,1,.19,2.15,2.15,0,0,1,.81.56v-3Zm-2.39,5.46a1.69,1.69,0,0,0-.31-1.09,1,1,0,0,0-.79-.36.88.88,0,0,0-.7.35,1.89,1.89,0,0,0-.28,1.16,1.76,1.76,0,0,0,.29,1.11.91.91,0,0,0,.72.36.94.94,0,0,0,.76-.36A1.76,1.76,0,0,0,149.06,117.24Z" transform="translate(-1 -1)"/><path class="cls-2" d="M152.61,117.28a3.13,3.13,0,0,1,1-2.35,3.62,3.62,0,0,1,2.6-.92,3.58,3.58,0,0,1,2.82,1.08,3.17,3.17,0,0,1,.77,2.15,3.12,3.12,0,0,1-1,2.36,4.24,4.24,0,0,1-5.05.15A3.05,3.05,0,0,1,152.61,117.28Zm2.39,0a1.83,1.83,0,0,0,.34,1.23,1,1,0,0,0,.84.4,1.06,1.06,0,0,0,.85-.39,1.94,1.94,0,0,0,.33-1.26,1.83,1.83,0,0,0-.33-1.2,1,1,0,0,0-.83-.4,1.07,1.07,0,0,0-.86.4A1.85,1.85,0,0,0,155,117.27Z" transform="translate(-1 -1)"/><path class="cls-3" d="M148.16,102.83s-15.41,4.89-38,0l21.05-.75Z" transform="translate(-1 -1)"/><path class="cls-3" d="M111,57.76a.5.5,0,0,1,.24-.09c3-.34,4.24-2.91,6-4.87,3.44-3.83,7.62-6.22,12.94-6.18.48,0,1,.16,1.45-.18h.75c2.74.94,5.56,1.62,8,3.25a22.83,22.83,0,0,1,7.35,8.3,2,2,0,0,1-2,.85c-10.79,0-21.58.14-32.37-.08C112.6,58.49,111.37,59.17,111,57.76Z" transform="translate(-1 -1)"/><path class="cls-3" d="M135,102.83H114a1.78,1.78,0,0,1-.55-1.53c.61-4.84,2.3-9.17,6-12.51a2.4,2.4,0,0,1,1-.53,1.56,1.56,0,0,1,.57,0,3.09,3.09,0,0,1,1.38.92q5.89,5.86,11.76,11.78C134.62,101.44,135.32,101.92,135,102.83Z" transform="translate(-1 -1)"/><path class="cls-3" d="M144,90.83c2.69,3.55,4.43,7.42,4.13,12a38,38,0,0,1-5.64,1.13c-1.67-.7-3.9-3.21-5.09-4.47-1.66-1.75-3.66-3.2-5-5.3a2.14,2.14,0,0,1,.85-2c1.89-1.91,3.72-3.87,5.7-5.68a2,2,0,0,1,1.79.48c.65.57,1.34,1.1,2,1.62C143.39,89.29,144.35,89.72,144,90.83Z" transform="translate(-1 -1)"/><path class="cls-2" d="M132.78,94.17c3,2.79,7,6.74,9.74,9.79a43.46,43.46,0,0,1-6,.75c-2.61-3.17-7.24-7.73-10.07-10.69-1.77-1.84-3.56-3.65-5.35-5.47-.43-1.87,1.38-1.81,2.22-2.59a3.59,3.59,0,0,1,2.77.61A28.24,28.24,0,0,1,129.43,90C130.41,91.52,132.08,92.45,132.78,94.17Z" transform="translate(-1 -1)"/><path class="cls-3" d="M120.75,88.53c-4.64,3.64-6.45,8.62-6.8,14.3h-3.76c.62-1.16.24-2.46.52-3.67a19.53,19.53,0,0,1,4-8.34c-.31-1.11.65-1.55,1.17-2.22.75-.61,1.46-1.28,2.25-1.85a1.9,1.9,0,0,1,1.13-.13C120.16,86.93,120.83,87.43,120.75,88.53Z" transform="translate(-1 -1)"/><path class="cls-3" d="M131.62,46.44c-1,.78-2.17.21-3.25.5-5,1.33-9.34,3.79-12.16,8.26-1.25,2-2.63,3-5,2.47a19.62,19.62,0,0,1,12.47-10.49,6.07,6.07,0,0,0,2.27-.74Z" transform="translate(-1 -1)"/><path class="cls-3" d="M149.33,69.47c-.12,3.19-1.49,5.94-3.1,8.6-.29.46-.76.83-.8,1.43-.43,1.53-1.68,2.39-2.75,3.4-1.6,1.22-3.37,2.17-5.05,3.26a44.81,44.81,0,0,1-4.47,1.09,5.29,5.29,0,0,0-1.94.17,2.91,2.91,0,0,1-.59,0,20.4,20.4,0,0,1-18.24-16.06c-.28-1.09-.9-2.49.28-3.31a3.58,3.58,0,0,1,3.91,0c.46.74,0,1.44-.11,2.16a3.82,3.82,0,0,0,4.77,4.6,19,19,0,0,0,2.45-.92,14.46,14.46,0,0,1,11.29,0c.7.29,1.39.57,2.1.82a3.65,3.65,0,0,0,4-.68,4,4,0,0,0,1.2-4.09c-.2-.72-.76-1.55.27-2.16a15.08,15.08,0,0,1,5.48-.21C149.09,67.66,149.78,68.23,149.33,69.47Z" transform="translate(-1 -1)"/><path class="cls-2" d="M113.2,58.08l32.32,0c.75,0,1.5,0,2.25-.06,2.41.59,2.09,2.84,2.5,4.48.3,1.23,1.43,2.89-.54,3.94a3.89,3.89,0,0,1-2.69.51q-13.64,0-27.29,0c-2.47-.06-5,.13-7.42-.1A1.77,1.77,0,0,1,111,65.23C111,62.64,111.07,60,113.2,58.08Z" transform="translate(-1 -1)"/><path class="cls-2" d="M142.39,82.55a17.85,17.85,0,0,1,3-3l1.27,1.26a5.4,5.4,0,0,1,2.56,1.85,2.24,2.24,0,0,1,.69,1.49A4.1,4.1,0,0,1,146.77,87a2.55,2.55,0,0,1-1.46-.73c-.65-.68-1.33-1.33-2-2C142.87,83.8,142.26,83.37,142.39,82.55Z" transform="translate(-1 -1)"/><path class="cls-3" d="M148.91,82.9l-2.21-2.13c1.89-1.06,3.12-2.84,4.66-4.29a3.05,3.05,0,0,1,3.18-1c.79,1.22,0,2-.79,2.75a3.31,3.31,0,0,0-1.59,1.48,2.33,2.33,0,0,1-1,.72,1.56,1.56,0,0,0-1,1C149.91,82,149.65,82.65,148.91,82.9Z" transform="translate(-1 -1)"/><path class="cls-2" d="M146.59,86.7c1.48-.44,2.26-1.66,3.13-2.79.59,0,.79.39,1,.81.4.65,1.6,1,1.19,1.9a5.11,5.11,0,0,1-2.57,2.55c-.94.37-1.26-1.21-2.19-1.43A.75.75,0,0,1,146.59,86.7Z" transform="translate(-1 -1)"/><path class="cls-3" d="M149.33,69.47c0-1-.52-1.26-1.42-1.24-1.9,0-3.81,0-5.71,0-.92-.13-1.8-.29-1.46-1.58a59.55,59.55,0,0,1,8.86,0A4.92,4.92,0,0,1,149.33,69.47Z" transform="translate(-1 -1)"/><path class="cls-3" d="M146.59,86.7l.54,1L144,90.83,142.49,89a3.29,3.29,0,0,1,3-3.08Z" transform="translate(-1 -1)"/><path class="cls-2" d="M149.6,66.71c-2.41,0-4.82,0-7.23,0-.6,0-1.25-.17-1.75.36a2.76,2.76,0,0,1-2,.44c-5.51,0-11,0-16.53,0a3.91,3.91,0,0,1-2.35-.48.48.48,0,0,1-.18-.64l30.14,0A.81.81,0,0,1,149.6,66.71Z" transform="translate(-1 -1)"/><path class="cls-3" d="M153.42,78c.49-.81,1.2-1.52,1.12-2.58,1.87,1.09,2.1,2.34.78,4.09C154,79.92,153.41,79.34,153.42,78Z" transform="translate(-1 -1)"/><path class="cls-4" d="M153.42,78a2.74,2.74,0,0,0,1.9,1.51,7.08,7.08,0,0,1-1.89,1.89,2.59,2.59,0,0,1-1.51-1.9Q151.7,77.8,153.42,78Z" transform="translate(-1 -1)"/><path class="cls-4" d="M149.67,81a1.08,1.08,0,0,1,1.12-1.12c1,.29,2.09.57,2.28,1.89a4.84,4.84,0,0,1-1.52,1.5C150.21,83.13,150,82.05,149.67,81Z" transform="translate(-1 -1)"/><path class="cls-3" d="M149.67,81l1.88,2.27c-.26.49-.82.8-.84,1.43l-1-.81-.81-1C149.16,82.27,149.42,81.65,149.67,81Z" transform="translate(-1 -1)"/><path class="cls-3" d="M153.07,81.79l-2.28-1.89,1.13-.38a2.72,2.72,0,0,1,1.51,1.9Z" transform="translate(-1 -1)"/><path class="cls-3" d="M116.54,68.23c-4.44,0-4.44,0-3.21,4.35A19.85,19.85,0,0,0,130,86.69a3.16,3.16,0,0,1,.84.34c-1.64,1.34-3.3.8-5,0a5.71,5.71,0,0,0-2.57-.75A3.43,3.43,0,0,1,121,86a47.24,47.24,0,0,1-4.85-2.75c-1-1.22-2.47-2-2.88-3.67-1.81-3-3.53-6.1-4-9.7a16.51,16.51,0,0,1-.13-3.14c.93-.91,1.93-.63,2.94-.19,2,.22,4-.2,6,.23C118.23,67.92,117.66,68.36,116.54,68.23Z" transform="translate(-1 -1)"/><path class="cls-2" d="M112.07,66.64l-3,0A2.1,2.1,0,0,1,108,64.22c.37-1.55.74-3.1,1.17-4.64A2.29,2.29,0,0,1,111,57.76c.68.51,1.48.14,2.2.32a30.79,30.79,0,0,0-1.66,6.07,2.65,2.65,0,0,0,.54,2.2c.15.07.19.14.14.2A.2.2,0,0,1,112.07,66.64Z" transform="translate(-1 -1)"/><path class="cls-2" d="M113.27,79.53a10.16,10.16,0,0,1,3,3.26,2.21,2.21,0,0,1-.82,1.54c-.67.65-1.34,1.3-2,2A2.54,2.54,0,0,1,112,87a4.09,4.09,0,0,1-3.2-2.9,2.24,2.24,0,0,1,.67-1.52c.78-.73,1.43-1.64,2.58-1.84Z" transform="translate(-1 -1)"/><path class="cls-3" d="M112,80.78l-2.21,2.13c-.75-.26-1-.91-1.28-1.56a1.57,1.57,0,0,0-1-.95,2.32,2.32,0,0,1-1-.72,3.1,3.1,0,0,0-1.44-1.4c-1-.8-1.51-1.7-.58-2.88a2.81,2.81,0,0,1,2.77,1C108.89,77.88,110.13,79.69,112,80.78Z" transform="translate(-1 -1)"/><path class="cls-2" d="M109,83.93c.88,1.12,1.66,2.34,3.14,2.78a.77.77,0,0,1-.55,1l-.33.16c-.68.38-1.07,1.67-1.85,1.27a6.86,6.86,0,0,1-2.5-2.38c-.64-1,.71-1.37,1.1-2.06C108.22,84.3,108.42,83.88,109,83.93Z" transform="translate(-1 -1)"/><path class="cls-3" d="M111.6,87.74c.18-.34.36-.69.55-1l1.07-.79a3.31,3.31,0,0,1,3,3.07l-1.53,1.83Z" transform="translate(-1 -1)"/><path class="cls-3" d="M104.55,75.4c-.07,1.06,0,2.08,1.13,2.62.06,1.32-.59,1.93-1.89,1.88C101.91,77.94,102.19,76.29,104.55,75.4Z" transform="translate(-1 -1)"/><path class="cls-4" d="M107.93,79.9A1.08,1.08,0,0,1,109.05,81c-.3,1-.52,2.1-1.87,2.25a4.39,4.39,0,0,1-1.51-1.49C105.84,80.44,106.91,80.2,107.93,79.9Z" transform="translate(-1 -1)"/><path class="cls-4" d="M103.79,79.9A6,6,0,0,0,105.68,78c1.15-.08,1.16.69,1.12,1.5a2.69,2.69,0,0,1-1.5,1.89A4.37,4.37,0,0,1,103.79,79.9Z" transform="translate(-1 -1)"/><path class="cls-3" d="M107.18,83.27,109.05,81l.77,1.89-.81,1-1,.8C108,84.09,107.44,83.77,107.18,83.27Z" transform="translate(-1 -1)"/><path class="cls-3" d="M105.3,81.41a2.71,2.71,0,0,1,1.5-1.89l1.13.38-2.26,1.88Z" transform="translate(-1 -1)"/><path class="cls-2" d="M121.18,85.58a3.77,3.77,0,0,1,2.17.73c-.51,1-2,1-2.27,2.24l-.33,0L119.21,87C119.25,85.65,120.17,85.55,121.18,85.58Z" transform="translate(-1 -1)"/><path class="cls-2" d="M133.2,86.69c1.51-.06,2.79-1.32,4.4-.86.87-.35,1.36,0,1.58.86-1.31,2.29-3.54,3.74-5.23,5.69-.47.54-1.25.89-1.17,1.79A18.06,18.06,0,0,1,129,90.39,12.12,12.12,0,0,1,132.49,87C132.72,86.88,133,86.81,133.2,86.69Z" transform="translate(-1 -1)"/><path class="cls-3" d="M140.56,87.37c1.05-1.09,2.09-2.19,3.14-3.29a6.38,6.38,0,0,1,1.82,1.84,13.62,13.62,0,0,0-3,3.08A6.31,6.31,0,0,1,140.56,87.37Z" transform="translate(-1 -1)"/><path class="cls-3" d="M132.82,87.05c-1.21,1.19-2,2.79-3.82,3.34l-3.08-3.33,5,0h.37A1.59,1.59,0,0,1,132.82,87.05Z" transform="translate(-1 -1)"/><path class="cls-3" d="M115,84.09l3,3c-.1,1.12-1.17,1.31-1.81,1.91a14.36,14.36,0,0,0-3-3.07A6.19,6.19,0,0,1,115,84.09Z" transform="translate(-1 -1)"/><path class="cls-5" d="M116.54,68.23l1.55-1.16a1.1,1.1,0,0,1,1.5-.39l18.28,0a7.33,7.33,0,0,1,2.75.34l1.58,1.18c1.32,2.47,1.28,4.26-.13,5.88s-3.33,2.16-5.92.94a15.13,15.13,0,0,0-13.52,0c-2.57,1.2-4.33.83-5.82-.78S115.24,70.81,116.54,68.23Z" transform="translate(-1 -1)"/><path class="cls-3" d="M132.82,87.05l-1.58,0c.57-.56,1.29-.32,2-.34Z" transform="translate(-1 -1)"/><path class="cls-2" d="M119.59,66.68l-1.5.39c-2-.85-4-.09-6-.43,0-.1,0-.19,0-.29l7.51,0Z" transform="translate(-1 -1)"/><path class="cls-3" d="M135.74,70.44c0-.8-.06-1.57.78-1.64s1,.65,1,1.31,0,1.39-.81,1.46S135.77,70.91,135.74,70.44Z" transform="translate(-1 -1)"/><path class="cls-3" d="M123,70.16c0,.61.08,1.37-.8,1.41s-.91-.72-.91-1.33,0-1.39.85-1.43S123,69.52,123,70.16Z" transform="translate(-1 -1)"/><rect class="cls-6" x="60.43" y="33.5" width="135.85" height="184" rx="16.96" ry="16.96"/><path class="cls-3" d="M111.76,182.71a11.89,11.89,0,0,0-2,23.62v-9.24H106.9v-3.32h2.87v-2.46a4,4,0,0,1,4.28-4.39,23.49,23.49,0,0,1,2.56.13v3h-1.76c-1.38,0-1.64.66-1.64,1.62v2.12h3.29l-.43,3.33h-2.86v9.32a11.89,11.89,0,0,0-1.45-23.7Zm0,0" transform="translate(-1 -1)"/><path class="cls-3" d="M149.19,192.8a1.9,1.9,0,0,0-1.72.95v-.81h-1.91c0,.54,0,5.73,0,5.73h1.91v-3.2a1.28,1.28,0,0,1,.06-.46,1,1,0,0,1,1-.7c.69,0,1,.52,1,1.29v3.07h1.9v-3.29c0-1.76-.94-2.58-2.19-2.58Zm-1.72,1h0s0,0,0,0Zm0,0" transform="translate(-1 -1)"/><rect class="cls-3" x="141.6" y="191.94" width="1.91" height="5.74"/><path class="cls-3" d="M147,182.66a11.83,11.83,0,1,0,11.83,11.82A11.83,11.83,0,0,0,147,182.66Zm6.27,17.17a.92.92,0,0,1-.93.91H141.62a.93.93,0,0,1-.94-.91V189a.93.93,0,0,1,.94-.91h10.75a.92.92,0,0,1,.93.91Zm0,0" transform="translate(-1 -1)"/><path class="cls-3" d="M143.57,190.17a1,1,0,1,0,0,2h0a1,1,0,1,0,0-2Zm0,0" transform="translate(-1 -1)"/><rect class="cls-3" x="96.1" y="143.95" width="66.51" height="2.67" rx="1.33" ry="1.33" transform="translate(257.72 289.56) rotate(180)"/><rect class="cls-3" x="96.1" y="156.95" width="66.51" height="2.67" rx="1.33" ry="1.33" transform="translate(257.72 315.56) rotate(180)"/><rect class="cls-3" x="96.1" y="168.95" width="66.51" height="2.67" rx="1.33" ry="1.33" transform="translate(257.72 339.56) rotate(180)"/><rect class="cls-3" x="110.62" y="126.94" width="37.49" height="5.51" rx="2.76" ry="2.76" transform="matrix(-1, 0, 0, -1, 257.72, 258.38)"/></svg>