<svg id="Layer_1" data-name="Layer 1" xmlns="http://www.w3.org/2000/svg" viewBox="0 0 488 442"><defs><style>.cls-1{fill:#f2f2f2;}.cls-2{fill:#999;}.cls-3{fill:#fec810;}.cls-4{fill:#b3b3b3;}.cls-5{fill:gray;}</style></defs><title>card</title><rect class="cls-1" x="3" y="3" width="482" height="436" rx="33.16" ry="33.16"/><path class="cls-2" d="M537.84,25A30.19,30.19,0,0,1,568,55.16V424.84A30.19,30.19,0,0,1,537.84,455H122.16A30.19,30.19,0,0,1,92,424.84V55.16A30.19,30.19,0,0,1,122.16,25H537.84m0-6H122.16A36.16,36.16,0,0,0,86,55.16V424.84A36.16,36.16,0,0,0,122.16,461H537.84A36.16,36.16,0,0,0,574,424.84V55.16A36.16,36.16,0,0,0,537.84,19Z" transform="translate(-86 -19)"/><circle class="cls-3" cx="244" cy="91" r="50"/><rect class="cls-4" x="175.16" y="179" width="137.03" height="10.84" rx="5.42" ry="5.42"/><rect class="cls-5" x="152.16" y="345" width="183.84" height="38.84" rx="11.88" ry="11.88"/><rect class="cls-4" x="175.8" y="200.03" width="137.03" height="10.84" rx="5.42" ry="5.42"/><rect class="cls-4" x="175.8" y="221.07" width="137.03" height="10.84" rx="5.42" ry="5.42"/><rect class="cls-4" x="175.16" y="242.1" width="137.03" height="10.84" rx="5.42" ry="5.42"/><rect class="cls-4" x="175.16" y="263.13" width="137.03" height="10.84" rx="5.42" ry="5.42"/><rect class="cls-4" x="175.8" y="284.16" width="137.03" height="10.84" rx="5.42" ry="5.42"/></svg>