<svg id="Layer_1" data-name="Layer 1" xmlns="http://www.w3.org/2000/svg" viewBox="0 0 251 251"><defs><style>.cls-1,.cls-3{fill:#f2f2f2;}.cls-1{stroke:#b3b3b3;}.cls-1,.cls-2{stroke-miterlimit:10;}.cls-2{fill:#333;stroke:#e0bb05;stroke-width:1.5px;}.cls-4{fill:#e0bb05;}</style></defs><title>code</title><rect class="cls-1" x="0.5" y="0.5" width="250" height="250" rx="13.7" ry="13.7"/><rect class="cls-2" x="33.5" y="34.5" width="185" height="183" rx="13.73" ry="13.73"/><path class="cls-3" d="M55.34,62.93V62l5.22-2.2v1l-4.14,1.69,4.14,1.72v1Z" transform="translate(-1 -1)"/><path class="cls-3" d="M67.63,63.61l1,.27a3.5,3.5,0,0,1-1.18,1.95,3.23,3.23,0,0,1-2.08.68A3.78,3.78,0,0,1,63.34,66a3.24,3.24,0,0,1-1.21-1.5,5.33,5.33,0,0,1-.42-2.11,4.7,4.7,0,0,1,.47-2.15,3.21,3.21,0,0,1,1.34-1.39,3.87,3.87,0,0,1,1.91-.48,3.25,3.25,0,0,1,2,.61,3.13,3.13,0,0,1,1.12,1.69l-1,.24a2.46,2.46,0,0,0-.79-1.25,2.14,2.14,0,0,0-1.31-.39,2.55,2.55,0,0,0-1.52.43A2.31,2.31,0,0,0,63,60.86a4.82,4.82,0,0,0-.24,1.51,4.74,4.74,0,0,0,.29,1.76A2.17,2.17,0,0,0,64,65.25a2.62,2.62,0,0,0,1.34.37,2.24,2.24,0,0,0,1.48-.51A2.61,2.61,0,0,0,67.63,63.61Z" transform="translate(-1 -1)"/><path class="cls-3" d="M69.47,63.52a3,3,0,0,1,.88-2.35,2.67,2.67,0,0,1,1.8-.63,2.58,2.58,0,0,1,1.92.77,2.91,2.91,0,0,1,.75,2.13,3.78,3.78,0,0,1-.33,1.73,2.29,2.29,0,0,1-1,1,2.71,2.71,0,0,1-1.37.35,2.54,2.54,0,0,1-1.94-.77A3.07,3.07,0,0,1,69.47,63.52Zm1,0a2.47,2.47,0,0,0,.47,1.64,1.58,1.58,0,0,0,2.4,0,2.48,2.48,0,0,0,.48-1.67,2.34,2.34,0,0,0-.48-1.6,1.51,1.51,0,0,0-1.19-.55,1.54,1.54,0,0,0-1.21.54A2.47,2.47,0,0,0,70.47,63.52Z" transform="translate(-1 -1)"/><path class="cls-3" d="M79.65,66.37v-.72a1.76,1.76,0,0,1-1.59.85,2.24,2.24,0,0,1-1.26-.37,2.4,2.4,0,0,1-.88-1,3.64,3.64,0,0,1-.32-1.55A4,4,0,0,1,75.89,62,2.22,2.22,0,0,1,78,60.54a1.84,1.84,0,0,1,.92.22,1.9,1.9,0,0,1,.66.56V58.5h1v7.87Zm-3.06-2.84a2.44,2.44,0,0,0,.47,1.63,1.36,1.36,0,0,0,2.16,0,2.36,2.36,0,0,0,.45-1.58,2.68,2.68,0,0,0-.45-1.72,1.4,1.4,0,0,0-1.12-.55,1.32,1.32,0,0,0-1.07.53A2.58,2.58,0,0,0,76.59,63.53Z" transform="translate(-1 -1)"/><path class="cls-3" d="M86,64.54l1,.12A2.48,2.48,0,0,1,86.1,66a2.66,2.66,0,0,1-1.64.48,2.58,2.58,0,0,1-2-.77,3,3,0,0,1-.73-2.16,3.14,3.14,0,0,1,.74-2.24,2.52,2.52,0,0,1,1.92-.79,2.45,2.45,0,0,1,1.87.78A3.11,3.11,0,0,1,87,63.51v.26H82.74a2.24,2.24,0,0,0,.54,1.44,1.57,1.57,0,0,0,1.19.5,1.54,1.54,0,0,0,.91-.28A1.86,1.86,0,0,0,86,64.54ZM82.8,63H86a1.92,1.92,0,0,0-.36-1.08,1.5,1.5,0,0,0-1.2-.56,1.53,1.53,0,0,0-1.12.45A1.78,1.78,0,0,0,82.8,63Z" transform="translate(-1 -1)"/><path class="cls-3" d="M65.3,77.48l1,.13a2.45,2.45,0,0,1-.8,1.54,2.31,2.31,0,0,1-1.57.55A2.46,2.46,0,0,1,62,78.94a3.13,3.13,0,0,1-.71-2.2,3.85,3.85,0,0,1,.31-1.61,2.06,2.06,0,0,1,.93-1,2.78,2.78,0,0,1,1.36-.35,2.38,2.38,0,0,1,1.52.47,2.17,2.17,0,0,1,.76,1.33l-.94.15a1.54,1.54,0,0,0-.48-.86,1.18,1.18,0,0,0-.82-.29,1.5,1.5,0,0,0-1.19.52,2.51,2.51,0,0,0-.46,1.66,2.55,2.55,0,0,0,.45,1.67,1.43,1.43,0,0,0,1.14.52,1.4,1.4,0,0,0,1-.35A1.76,1.76,0,0,0,65.3,77.48Z" transform="translate(-1 -1)"/><path class="cls-3" d="M66.72,76.72a3,3,0,0,1,.88-2.35,2.66,2.66,0,0,1,1.79-.63,2.55,2.55,0,0,1,1.92.77,2.91,2.91,0,0,1,.75,2.13,3.78,3.78,0,0,1-.33,1.73,2.33,2.33,0,0,1-1,1,2.72,2.72,0,0,1-1.38.35,2.52,2.52,0,0,1-1.93-.77A3,3,0,0,1,66.72,76.72Zm1,0a2.41,2.41,0,0,0,.48,1.64,1.52,1.52,0,0,0,1.2.55,1.55,1.55,0,0,0,1.2-.55,2.48,2.48,0,0,0,.48-1.67,2.34,2.34,0,0,0-.48-1.6,1.52,1.52,0,0,0-1.2-.55,1.54,1.54,0,0,0-1.2.54A2.41,2.41,0,0,0,67.71,76.72Z" transform="translate(-1 -1)"/><path class="cls-3" d="M76.9,79.57v-.72a1.79,1.79,0,0,1-1.6.85,2.23,2.23,0,0,1-1.25-.37,2.42,2.42,0,0,1-.89-1,3.64,3.64,0,0,1-.31-1.55,4,4,0,0,1,.28-1.55A2.23,2.23,0,0,1,74,74.11a2.28,2.28,0,0,1,1.28-.37,1.87,1.87,0,0,1,.92.22,2,2,0,0,1,.65.56V71.7h1v7.87Zm-3.06-2.84a2.44,2.44,0,0,0,.46,1.63,1.38,1.38,0,0,0,1.09.55,1.4,1.4,0,0,0,1.08-.52,2.42,2.42,0,0,0,.44-1.58,2.68,2.68,0,0,0-.45-1.72,1.37,1.37,0,0,0-1.11-.55,1.35,1.35,0,0,0-1.08.53A2.58,2.58,0,0,0,73.84,76.73Z" transform="translate(-1 -1)"/><path class="cls-3" d="M83.22,77.74l1,.12a2.44,2.44,0,0,1-.88,1.36,2.65,2.65,0,0,1-1.63.48,2.59,2.59,0,0,1-2-.77A3,3,0,0,1,79,76.77a3.14,3.14,0,0,1,.74-2.23,2.53,2.53,0,0,1,1.92-.8,2.42,2.42,0,0,1,1.87.78,3.07,3.07,0,0,1,.73,2.19c0,.06,0,.14,0,.26H80a2.18,2.18,0,0,0,.53,1.44,1.6,1.6,0,0,0,1.19.5,1.51,1.51,0,0,0,.91-.28A1.94,1.94,0,0,0,83.22,77.74ZM80,76.17h3.19a2,2,0,0,0-.37-1.08,1.48,1.48,0,0,0-1.2-.55,1.54,1.54,0,0,0-1.12.44A1.78,1.78,0,0,0,80,76.17Z" transform="translate(-1 -1)"/><path class="cls-4" d="M90.52,74.94h-5.2V74h5.2Zm0,2.39h-5.2v-.9h5.2Z" transform="translate(-1 -1)"/><path class="cls-4" d="M91.9,74.49,91.63,73V71.7h1.1V73l-.24,1.5Zm1.78,0L93.42,73V71.7h1.1V73l-.26,1.5Z" transform="translate(-1 -1)"/><path class="cls-4" d="M95.63,76.13v-.9l5.22-2.2v1l-4.14,1.69,4.14,1.72v1Z" transform="translate(-1 -1)"/><path class="cls-4" d="M107.92,76.81l1,.27a3.56,3.56,0,0,1-1.18,2,3.25,3.25,0,0,1-2.08.68,3.84,3.84,0,0,1-2.08-.52,3.3,3.3,0,0,1-1.21-1.5,5.33,5.33,0,0,1-.42-2.11,4.7,4.7,0,0,1,.47-2.15A3.27,3.27,0,0,1,103.81,72a3.9,3.9,0,0,1,1.91-.48,3.25,3.25,0,0,1,2,.61,3.08,3.08,0,0,1,1.12,1.69l-1,.24a2.47,2.47,0,0,0-.8-1.25,2.12,2.12,0,0,0-1.31-.39,2.57,2.57,0,0,0-1.52.43,2.29,2.29,0,0,0-.85,1.17,4.56,4.56,0,0,0-.25,1.51,5,5,0,0,0,.29,1.76,2.22,2.22,0,0,0,.91,1.12,2.62,2.62,0,0,0,1.34.37,2.22,2.22,0,0,0,1.48-.51A2.53,2.53,0,0,0,107.92,76.81Z" transform="translate(-1 -1)"/><path class="cls-4" d="M109.77,76.72a3,3,0,0,1,.88-2.35,2.66,2.66,0,0,1,1.79-.63,2.55,2.55,0,0,1,1.92.77,2.91,2.91,0,0,1,.75,2.13,3.78,3.78,0,0,1-.33,1.73,2.33,2.33,0,0,1-1,1,2.72,2.72,0,0,1-1.38.35,2.55,2.55,0,0,1-1.94-.77A3.07,3.07,0,0,1,109.77,76.72Zm1,0a2.41,2.41,0,0,0,.48,1.64,1.52,1.52,0,0,0,1.2.55,1.55,1.55,0,0,0,1.2-.55,2.48,2.48,0,0,0,.48-1.67,2.34,2.34,0,0,0-.48-1.6,1.52,1.52,0,0,0-1.2-.55,1.54,1.54,0,0,0-1.2.54A2.41,2.41,0,0,0,110.76,76.72Z" transform="translate(-1 -1)"/><path class="cls-4" d="M119.94,79.57v-.72a1.76,1.76,0,0,1-1.59.85,2.26,2.26,0,0,1-1.26-.37,2.46,2.46,0,0,1-.88-1,3.64,3.64,0,0,1-.32-1.55,4,4,0,0,1,.29-1.55,2.23,2.23,0,0,1,.85-1.07,2.28,2.28,0,0,1,1.28-.37,1.8,1.8,0,0,1,.91.22,1.9,1.9,0,0,1,.66.56V71.7h1v7.87Zm-3-2.84a2.44,2.44,0,0,0,.46,1.63,1.38,1.38,0,0,0,1.09.55,1.4,1.4,0,0,0,1.08-.52,2.42,2.42,0,0,0,.44-1.58,2.68,2.68,0,0,0-.45-1.72,1.37,1.37,0,0,0-1.11-.55,1.35,1.35,0,0,0-1.08.53A2.58,2.58,0,0,0,116.89,76.73Z" transform="translate(-1 -1)"/><path class="cls-4" d="M126.27,77.74l1,.12a2.44,2.44,0,0,1-.88,1.36,2.65,2.65,0,0,1-1.63.48,2.59,2.59,0,0,1-2-.77,3,3,0,0,1-.73-2.16,3.14,3.14,0,0,1,.74-2.23,2.51,2.51,0,0,1,1.92-.8,2.42,2.42,0,0,1,1.87.78,3.07,3.07,0,0,1,.73,2.19c0,.06,0,.14,0,.26H123a2.18,2.18,0,0,0,.53,1.44,1.6,1.6,0,0,0,1.19.5,1.51,1.51,0,0,0,.91-.28A1.94,1.94,0,0,0,126.27,77.74Zm-3.18-1.57h3.19a2,2,0,0,0-.37-1.08,1.49,1.49,0,0,0-1.2-.55,1.54,1.54,0,0,0-1.12.44A1.78,1.78,0,0,0,123.09,76.17Z" transform="translate(-1 -1)"/><path class="cls-3" d="M71.41,90.68l1,.13a2.45,2.45,0,0,1-.8,1.54A2.3,2.3,0,0,1,70,92.9a2.43,2.43,0,0,1-1.88-.76,3.09,3.09,0,0,1-.72-2.2,4,4,0,0,1,.31-1.61,2.06,2.06,0,0,1,.93-1A2.78,2.78,0,0,1,70,86.94a2.38,2.38,0,0,1,1.52.47,2.12,2.12,0,0,1,.76,1.33l-.94.15a1.66,1.66,0,0,0-.47-.87,1.27,1.27,0,0,0-.83-.29,1.51,1.51,0,0,0-1.19.53,2.51,2.51,0,0,0-.45,1.66,2.55,2.55,0,0,0,.44,1.67,1.44,1.44,0,0,0,1.15.52,1.38,1.38,0,0,0,1-.35A1.78,1.78,0,0,0,71.41,90.68Z" transform="translate(-1 -1)"/><path class="cls-3" d="M72.83,89.92a2.93,2.93,0,0,1,.88-2.35,2.66,2.66,0,0,1,1.79-.63,2.58,2.58,0,0,1,1.93.77,3,3,0,0,1,.74,2.13,3.78,3.78,0,0,1-.33,1.73,2.33,2.33,0,0,1-1,1,2.72,2.72,0,0,1-1.38.35,2.53,2.53,0,0,1-1.93-.77A3.07,3.07,0,0,1,72.83,89.92Zm1,0a2.41,2.41,0,0,0,.48,1.64,1.52,1.52,0,0,0,1.2.55,1.55,1.55,0,0,0,1.2-.55,2.48,2.48,0,0,0,.48-1.67,2.34,2.34,0,0,0-.48-1.6,1.52,1.52,0,0,0-1.2-.55,1.54,1.54,0,0,0-1.2.54A2.41,2.41,0,0,0,73.82,89.92Z" transform="translate(-1 -1)"/><path class="cls-3" d="M83,92.77v-.72a1.77,1.77,0,0,1-1.6.85,2.23,2.23,0,0,1-1.25-.37,2.49,2.49,0,0,1-.89-1A3.64,3.64,0,0,1,79,89.93a4,4,0,0,1,.28-1.55,2.24,2.24,0,0,1,2.13-1.44,1.91,1.91,0,0,1,1.57.78V84.9h1v7.87ZM80,89.93a2.44,2.44,0,0,0,.46,1.63,1.37,1.37,0,0,0,2.17,0A2.37,2.37,0,0,0,83,90a2.68,2.68,0,0,0-.45-1.72,1.37,1.37,0,0,0-1.11-.55,1.35,1.35,0,0,0-1.08.53A2.64,2.64,0,0,0,80,89.93Z" transform="translate(-1 -1)"/><path class="cls-3" d="M89.33,90.94l1,.12a2.44,2.44,0,0,1-.88,1.36,3,3,0,0,1-3.62-.29A3,3,0,0,1,85.1,90a3.18,3.18,0,0,1,.74-2.24,2.56,2.56,0,0,1,1.93-.79,2.45,2.45,0,0,1,1.87.78,3.11,3.11,0,0,1,.72,2.19c0,.06,0,.14,0,.26H86.1a2.24,2.24,0,0,0,.53,1.44,1.61,1.61,0,0,0,1.2.5,1.51,1.51,0,0,0,.9-.28A1.94,1.94,0,0,0,89.33,90.94Zm-3.18-1.57h3.19A1.84,1.84,0,0,0,89,88.29a1.46,1.46,0,0,0-1.19-.56,1.52,1.52,0,0,0-1.12.45A1.79,1.79,0,0,0,86.15,89.37Z" transform="translate(-1 -1)"/><path class="cls-4" d="M96.63,88.14h-5.2v-.9h5.2Zm0,2.39h-5.2v-.9h5.2Z" transform="translate(-1 -1)"/><path class="cls-4" d="M102.47,91.84a3.26,3.26,0,0,1-1,.8,2.75,2.75,0,0,1-1.21.27,2.39,2.39,0,0,1-1.92-.82,2.19,2.19,0,0,1-.58-1.49,2.11,2.11,0,0,1,.47-1.32,4,4,0,0,1,1.41-1,4.75,4.75,0,0,1-.71-1,1.75,1.75,0,0,1-.18-.74,1.65,1.65,0,0,1,.56-1.23,2,2,0,0,1,1.4-.53,1.85,1.85,0,0,1,1.32.5,1.59,1.59,0,0,1,.51,1.19c0,.74-.5,1.38-1.49,1.91l1.41,1.8a4.49,4.49,0,0,0,.38-1.09l1,.21a5.47,5.47,0,0,1-.69,1.7,5.64,5.64,0,0,0,1.23,1.21l-.65.77A5.57,5.57,0,0,1,102.47,91.84Zm-.61-.76-1.77-2.2a3.36,3.36,0,0,0-1.06.87,1.42,1.42,0,0,0-.27.79,1.67,1.67,0,0,0,.38,1,1.26,1.26,0,0,0,1.08.51,1.79,1.79,0,0,0,.9-.27A2.16,2.16,0,0,0,101.86,91.08Zm-1.36-3.34a2.48,2.48,0,0,0,.81-.65,1.06,1.06,0,0,0,.19-.62.87.87,0,0,0-.89-.91.88.88,0,0,0-.65.25.82.82,0,0,0-.26.62.92.92,0,0,0,.09.38,2,2,0,0,0,.28.43Z" transform="translate(-1 -1)"/><path class="cls-4" d="M108.94,95V92.17a1.73,1.73,0,0,1-.63.52,1.85,1.85,0,0,1-.86.21,2.28,2.28,0,0,1-1.75-.81,3.18,3.18,0,0,1-.74-2.22,3.74,3.74,0,0,1,.3-1.54,2.25,2.25,0,0,1,.87-1,2.32,2.32,0,0,1,1.24-.35,1.93,1.93,0,0,1,1.67.89v-.76h.87V95Zm-3-5.06a2.53,2.53,0,0,0,.46,1.66,1.43,1.43,0,0,0,1.11.55,1.36,1.36,0,0,0,1.06-.53A2.39,2.39,0,0,0,109,90a2.66,2.66,0,0,0-.47-1.71,1.4,1.4,0,0,0-1.11-.58,1.31,1.31,0,0,0-1.06.54A2.54,2.54,0,0,0,106,89.9Z" transform="translate(-1 -1)"/><path class="cls-4" d="M115.16,92.77v-.83a2.1,2.1,0,0,1-1.81,1,2.26,2.26,0,0,1-.94-.19,1.47,1.47,0,0,1-.65-.49,1.7,1.7,0,0,1-.3-.71,5,5,0,0,1-.06-.91V87.07h1v3.16a7,7,0,0,0,0,1,1,1,0,0,0,.39.6,1.17,1.17,0,0,0,.73.22,1.6,1.6,0,0,0,.82-.22,1.28,1.28,0,0,0,.54-.61,3.18,3.18,0,0,0,.16-1.11V87.07h1v5.7Z" transform="translate(-1 -1)"/><path class="cls-4" d="M117.18,89.92a2.93,2.93,0,0,1,.88-2.35,2.66,2.66,0,0,1,1.79-.63,2.58,2.58,0,0,1,1.93.77,3,3,0,0,1,.74,2.13,3.78,3.78,0,0,1-.33,1.73,2.33,2.33,0,0,1-1,1,2.72,2.72,0,0,1-1.38.35,2.52,2.52,0,0,1-1.93-.77A3,3,0,0,1,117.18,89.92Zm1,0a2.41,2.41,0,0,0,.48,1.64,1.52,1.52,0,0,0,1.2.55,1.55,1.55,0,0,0,1.2-.55,2.48,2.48,0,0,0,.48-1.67,2.34,2.34,0,0,0-.48-1.6,1.52,1.52,0,0,0-1.2-.55,1.54,1.54,0,0,0-1.2.54A2.41,2.41,0,0,0,118.17,89.92Z" transform="translate(-1 -1)"/><path class="cls-4" d="M125.77,91.91l.14.85a3.53,3.53,0,0,1-.73.09,1.64,1.64,0,0,1-.82-.17,1,1,0,0,1-.41-.44,3.4,3.4,0,0,1-.12-1.14V87.82h-.71v-.75h.71V85.66l1-.58v2h1v.75h-1v3.34a1.46,1.46,0,0,0,.06.53.42.42,0,0,0,.16.19.74.74,0,0,0,.33.07C125.45,92,125.59,91.93,125.77,91.91Z" transform="translate(-1 -1)"/><path class="cls-4" d="M127,92.77v-1.1h1.11v1.1a2,2,0,0,1-.22,1,1.41,1.41,0,0,1-.68.58l-.27-.41a.93.93,0,0,0,.45-.4,1.61,1.61,0,0,0,.16-.75Zm0-4.6v-1.1h1.11v1.1Z" transform="translate(-1 -1)"/><path class="cls-4" d="M129.64,89.33v-.9l5.22-2.2v1l-4.14,1.69,4.14,1.72v1Z" transform="translate(-1 -1)"/><path class="cls-4" d="M139.89,92.77v-.72a1.76,1.76,0,0,1-1.59.85,2.24,2.24,0,0,1-1.26-.37,2.46,2.46,0,0,1-.88-1,3.64,3.64,0,0,1-.32-1.55,4,4,0,0,1,.29-1.55,2.23,2.23,0,0,1,.85-1.07,2.27,2.27,0,0,1,1.27-.37,1.84,1.84,0,0,1,.92.22,1.9,1.9,0,0,1,.66.56V84.9h1v7.87Zm-3-2.84a2.44,2.44,0,0,0,.46,1.63,1.38,1.38,0,0,0,1.09.55,1.4,1.4,0,0,0,1.08-.52,2.42,2.42,0,0,0,.44-1.58,2.68,2.68,0,0,0-.45-1.72,1.37,1.37,0,0,0-1.11-.55,1.35,1.35,0,0,0-1.08.53A2.58,2.58,0,0,0,136.84,89.93Z" transform="translate(-1 -1)"/><path class="cls-4" d="M142.31,86V84.9h1V86Zm0,6.76v-5.7h1v5.7Z" transform="translate(-1 -1)"/><path class="cls-4" d="M146.34,92.77l-2.17-5.7h1l1.22,3.41c.14.37.26.76.37,1.15a11.3,11.3,0,0,1,.36-1.08l1.27-3.48h1l-2.16,5.7Z" transform="translate(-1 -1)"/><path class="cls-4" d="M152.58,92.91l2.29-8.15h.77l-2.28,8.15Z" transform="translate(-1 -1)"/><path class="cls-4" d="M161.46,89.33l-5.22,2.23v-1l4.13-1.72-4.13-1.69v-1l5.22,2.2Z" transform="translate(-1 -1)"/><path class="cls-4" d="M167.29,91.84a3.34,3.34,0,0,1-1,.8,2.79,2.79,0,0,1-1.22.27,2.39,2.39,0,0,1-1.92-.82,2.23,2.23,0,0,1-.57-1.49,2.05,2.05,0,0,1,.47-1.32,4,4,0,0,1,1.4-1,5.16,5.16,0,0,1-.71-1,1.73,1.73,0,0,1-.17-.74,1.64,1.64,0,0,1,.55-1.23,2,2,0,0,1,1.4-.53,1.82,1.82,0,0,1,1.32.5,1.59,1.59,0,0,1,.51,1.19c0,.74-.49,1.38-1.49,1.91l1.42,1.8a4.5,4.5,0,0,0,.37-1.09l1,.21a5.47,5.47,0,0,1-.7,1.7,5.64,5.64,0,0,0,1.23,1.21l-.65.77A5.81,5.81,0,0,1,167.29,91.84Zm-.61-.76-1.77-2.2a3.62,3.62,0,0,0-1.06.87,1.42,1.42,0,0,0-.27.79,1.74,1.74,0,0,0,.38,1,1.26,1.26,0,0,0,1.08.51,1.79,1.79,0,0,0,.9-.27A2.07,2.07,0,0,0,166.68,91.08Zm-1.36-3.34a2.67,2.67,0,0,0,.82-.65,1.12,1.12,0,0,0,.18-.62.89.89,0,0,0-.25-.66.86.86,0,0,0-.64-.25.88.88,0,0,0-.65.25.85.85,0,0,0-.26.62.92.92,0,0,0,.09.38,2,2,0,0,0,.29.43Z" transform="translate(-1 -1)"/><path class="cls-4" d="M173.76,95V92.17a1.73,1.73,0,0,1-.63.52,1.85,1.85,0,0,1-.86.21,2.28,2.28,0,0,1-1.75-.81,3.18,3.18,0,0,1-.73-2.22,3.74,3.74,0,0,1,.3-1.54,2.23,2.23,0,0,1,.86-1,2.35,2.35,0,0,1,1.24-.35,1.93,1.93,0,0,1,1.67.89v-.76h.87V95Zm-3-5.06a2.59,2.59,0,0,0,.46,1.66,1.43,1.43,0,0,0,1.11.55,1.34,1.34,0,0,0,1.06-.53,2.39,2.39,0,0,0,.45-1.59,2.66,2.66,0,0,0-.47-1.71,1.37,1.37,0,0,0-1.1-.58,1.33,1.33,0,0,0-1.07.54A2.59,2.59,0,0,0,170.78,89.9Z" transform="translate(-1 -1)"/><path class="cls-4" d="M180,92.77v-.83a2.08,2.08,0,0,1-1.81,1,2.29,2.29,0,0,1-.94-.19,1.53,1.53,0,0,1-.65-.49,1.84,1.84,0,0,1-.3-.71,5,5,0,0,1-.06-.91V87.07h1v3.16a5.47,5.47,0,0,0,.06,1,1,1,0,0,0,.39.6,1.15,1.15,0,0,0,.73.22,1.54,1.54,0,0,0,.81-.22,1.18,1.18,0,0,0,.54-.61,3,3,0,0,0,.16-1.11V87.07h1v5.7Z" transform="translate(-1 -1)"/><path class="cls-4" d="M182,89.92a3,3,0,0,1,.88-2.35,2.67,2.67,0,0,1,1.8-.63,2.58,2.58,0,0,1,1.92.77,2.91,2.91,0,0,1,.75,2.13,3.78,3.78,0,0,1-.33,1.73,2.29,2.29,0,0,1-1,1,2.71,2.71,0,0,1-1.37.35,2.54,2.54,0,0,1-1.94-.77A3.07,3.07,0,0,1,182,89.92Zm1,0a2.41,2.41,0,0,0,.47,1.64,1.58,1.58,0,0,0,2.4,0,2.48,2.48,0,0,0,.48-1.67,2.34,2.34,0,0,0-.48-1.6,1.51,1.51,0,0,0-1.19-.55,1.54,1.54,0,0,0-1.21.54A2.41,2.41,0,0,0,183,89.92Z" transform="translate(-1 -1)"/><path class="cls-4" d="M190.59,91.91l.14.85a3.45,3.45,0,0,1-.73.09,1.7,1.7,0,0,1-.82-.17,1,1,0,0,1-.41-.44,3.8,3.8,0,0,1-.11-1.14V87.82H188v-.75h.71V85.66l1-.58v2h1v.75h-1v3.34a1.85,1.85,0,0,0,0,.53.39.39,0,0,0,.17.19.68.68,0,0,0,.33.07Z" transform="translate(-1 -1)"/><path class="cls-4" d="M191.79,92.77v-1.1h1.1v1.1a1.87,1.87,0,0,1-.22,1,1.41,1.41,0,0,1-.68.58l-.27-.41a.85.85,0,0,0,.45-.4,1.6,1.6,0,0,0,.17-.75Zm0-4.6v-1.1h1.1v1.1Z" transform="translate(-1 -1)"/><path class="cls-3" d="M71.41,103.88l1,.13a2.45,2.45,0,0,1-.8,1.54,2.3,2.3,0,0,1-1.57.55,2.43,2.43,0,0,1-1.88-.76,3.09,3.09,0,0,1-.72-2.2,4,4,0,0,1,.31-1.61,2.06,2.06,0,0,1,.93-1,2.78,2.78,0,0,1,1.36-.35,2.38,2.38,0,0,1,1.52.47,2.12,2.12,0,0,1,.76,1.33l-.94.15a1.59,1.59,0,0,0-.47-.86,1.22,1.22,0,0,0-.83-.29,1.5,1.5,0,0,0-1.19.52,2.51,2.51,0,0,0-.45,1.66,2.55,2.55,0,0,0,.44,1.67,1.44,1.44,0,0,0,1.15.52,1.38,1.38,0,0,0,1-.35A1.76,1.76,0,0,0,71.41,103.88Z" transform="translate(-1 -1)"/><path class="cls-3" d="M72.83,103.12a2.93,2.93,0,0,1,.88-2.35,2.66,2.66,0,0,1,1.79-.63,2.58,2.58,0,0,1,1.93.77,3,3,0,0,1,.74,2.13,3.78,3.78,0,0,1-.33,1.73,2.33,2.33,0,0,1-1,1,2.72,2.72,0,0,1-1.38.35,2.53,2.53,0,0,1-1.93-.77A3.07,3.07,0,0,1,72.83,103.12Zm1,0a2.41,2.41,0,0,0,.48,1.64,1.52,1.52,0,0,0,1.2.55,1.55,1.55,0,0,0,1.2-.55,2.48,2.48,0,0,0,.48-1.67,2.34,2.34,0,0,0-.48-1.6,1.52,1.52,0,0,0-1.2-.55,1.54,1.54,0,0,0-1.2.54A2.41,2.41,0,0,0,73.82,103.12Z" transform="translate(-1 -1)"/><path class="cls-3" d="M83,106v-.72a1.77,1.77,0,0,1-1.6.85,2.23,2.23,0,0,1-1.25-.37,2.49,2.49,0,0,1-.89-1,3.64,3.64,0,0,1-.31-1.55,4,4,0,0,1,.28-1.55,2.24,2.24,0,0,1,2.13-1.44,1.91,1.91,0,0,1,1.57.78V98.1h1V106ZM80,103.13a2.44,2.44,0,0,0,.46,1.63,1.37,1.37,0,0,0,2.17,0,2.37,2.37,0,0,0,.44-1.58,2.68,2.68,0,0,0-.45-1.72,1.37,1.37,0,0,0-1.11-.55,1.35,1.35,0,0,0-1.08.53A2.64,2.64,0,0,0,80,103.13Z" transform="translate(-1 -1)"/><path class="cls-3" d="M89.33,104.14l1,.12a2.44,2.44,0,0,1-.88,1.36,3,3,0,0,1-3.62-.29,3,3,0,0,1-.73-2.16,3.14,3.14,0,0,1,.74-2.23,2.53,2.53,0,0,1,1.93-.8,2.45,2.45,0,0,1,1.87.78,3.11,3.11,0,0,1,.72,2.19c0,.06,0,.14,0,.26H86.1a2.24,2.24,0,0,0,.53,1.44,1.61,1.61,0,0,0,1.2.5,1.51,1.51,0,0,0,.9-.28A1.94,1.94,0,0,0,89.33,104.14Zm-3.18-1.57h3.19a1.84,1.84,0,0,0-.37-1.08,1.46,1.46,0,0,0-1.19-.55,1.51,1.51,0,0,0-1.12.44A1.79,1.79,0,0,0,86.15,102.57Z" transform="translate(-1 -1)"/><path class="cls-3" d="M91.62,106V98.1h1V105h3.88V106Z" transform="translate(-1 -1)"/><path class="cls-3" d="M97.67,99.21V98.1h1v1.11Zm0,6.76v-5.7h1V106Z" transform="translate(-1 -1)"/><path class="cls-3" d="M100.1,106v-5.7H101v.81a2.05,2.05,0,0,1,1.82-.94,2.3,2.3,0,0,1,.95.19,1.41,1.41,0,0,1,.64.48,1.81,1.81,0,0,1,.31.72,6.37,6.37,0,0,1,0,.94V106h-1V102.5a2.73,2.73,0,0,0-.11-.88,1,1,0,0,0-.4-.47,1.34,1.34,0,0,0-.68-.17,1.56,1.56,0,0,0-1.06.39,1.93,1.93,0,0,0-.45,1.49V106Z" transform="translate(-1 -1)"/><path class="cls-3" d="M106.23,106V98.1h1v4.49l2.29-2.32h1.25l-2.18,2.12L111,106h-1.19l-1.88-2.91-.69.65V106Z" transform="translate(-1 -1)"/><path class="cls-4" d="M116.81,101.34h-5.2v-.9h5.2Zm0,2.39h-5.2v-.9h5.2Z" transform="translate(-1 -1)"/><path class="cls-4" d="M118.15,106v-5.7H119v.8a2.07,2.07,0,0,1,.71-.67,2,2,0,0,1,1-.26,1.93,1.93,0,0,1,1,.26,1.41,1.41,0,0,1,.57.74,2,2,0,0,1,1.76-1,1.76,1.76,0,0,1,1.31.47,2,2,0,0,1,.45,1.45V106h-1v-3.59a2.78,2.78,0,0,0-.09-.84.84.84,0,0,0-.34-.41,1.11,1.11,0,0,0-.58-.15,1.33,1.33,0,0,0-1,.4,1.74,1.74,0,0,0-.4,1.28V106h-1v-3.7a1.64,1.64,0,0,0-.23-1,.92.92,0,0,0-.78-.32,1.42,1.42,0,0,0-.75.21,1.26,1.26,0,0,0-.5.63,3.37,3.37,0,0,0-.16,1.19v3Z" transform="translate(-1 -1)"/><path class="cls-4" d="M126.08,108.19l.18-.83a2,2,0,0,0,.46.08.53.53,0,0,0,.44-.2,2.09,2.09,0,0,0,.14-1v-6h1v6a2.84,2.84,0,0,1-.27,1.47,1.28,1.28,0,0,1-1.16.54A3.1,3.1,0,0,1,126.08,108.19Zm1.22-9V98.1h1v1.12Z" transform="translate(-1 -1)"/><path class="cls-4" d="M131.34,106l-2.17-5.7h1l1.22,3.42c.13.36.26.75.37,1.14a11.3,11.3,0,0,1,.36-1.08l1.26-3.48h1l-2.16,5.7Z" transform="translate(-1 -1)"/><path class="cls-4" d="M135.26,106V98.1h1v4.49l2.29-2.32h1.25l-2.18,2.12L140,106h-1.19l-1.88-2.91-.69.65V106Z" transform="translate(-1 -1)"/><path class="cls-4" d="M140.48,103.91l1-.09a1.81,1.81,0,0,0,.52,1.12,1.43,1.43,0,0,0,1,.37,1.53,1.53,0,0,0,1.18-.52,2,2,0,0,0,.49-1.4,1.81,1.81,0,0,0-.47-1.31,1.64,1.64,0,0,0-1.21-.47,1.73,1.73,0,0,0-.85.21,1.64,1.64,0,0,0-.59.55l-.9-.12.76-4h3.91v.92h-3.14l-.42,2.12a2.56,2.56,0,0,1,1.48-.5,2.38,2.38,0,0,1,1.75.72,2.49,2.49,0,0,1,.7,1.83,2.83,2.83,0,0,1-.62,1.85,2.48,2.48,0,0,1-2.07,1,2.55,2.55,0,0,1-1.75-.6A2.42,2.42,0,0,1,140.48,103.91Z" transform="translate(-1 -1)"/><path class="cls-4" d="M147.92,106l-1.74-5.7h1l.9,3.29.34,1.23c0-.06.11-.46.3-1.18l.91-3.34h1l.85,3.31.29,1.09.32-1.1,1-3.3H154l-1.78,5.7h-1l-.9-3.41-.22-1L148.93,106Z" transform="translate(-1 -1)"/><path class="cls-4" d="M154.79,106V98.1h1V106Z" transform="translate(-1 -1)"/><path class="cls-4" d="M162.07,105V106h-5.2a1.72,1.72,0,0,1,.11-.67,3.66,3.66,0,0,1,.63-1,11,11,0,0,1,1.27-1.19,10.35,10.35,0,0,0,1.73-1.67,1.93,1.93,0,0,0,.46-1.16,1.28,1.28,0,0,0-.42-1,1.48,1.48,0,0,0-1.07-.39,1.5,1.5,0,0,0-1.11.42,1.56,1.56,0,0,0-.43,1.16l-1-.11a2.42,2.42,0,0,1,.77-1.69,2.6,2.6,0,0,1,1.78-.58,2.5,2.5,0,0,1,1.8.63,2,2,0,0,1,.66,1.55,2.49,2.49,0,0,1-.19.93,3.46,3.46,0,0,1-.65,1,14.94,14.94,0,0,1-1.49,1.39q-.87.73-1.11,1a3.11,3.11,0,0,0-.41.52Z" transform="translate(-1 -1)"/><path class="cls-4" d="M163.17,99.13V98.2h5.1V99a11.06,11.06,0,0,0-1.49,2.13,12.44,12.44,0,0,0-1.14,2.73,9.54,9.54,0,0,0-.37,2.16h-1a9.26,9.26,0,0,1,.37-2.24,11.28,11.28,0,0,1,1-2.54A10.87,10.87,0,0,1,167,99.13Z" transform="translate(-1 -1)"/><path class="cls-4" d="M174,105a3.23,3.23,0,0,1-1,.8,2.76,2.76,0,0,1-1.22.27,2.42,2.42,0,0,1-1.92-.82,2.23,2.23,0,0,1-.57-1.49,2.11,2.11,0,0,1,.47-1.32,4,4,0,0,1,1.4-1,4.62,4.62,0,0,1-.7-1,1.75,1.75,0,0,1-.18-.74,1.64,1.64,0,0,1,.55-1.23,2,2,0,0,1,1.4-.53,1.82,1.82,0,0,1,1.32.5,1.6,1.6,0,0,1,.52,1.19c0,.74-.5,1.38-1.49,1.91l1.41,1.8a4.49,4.49,0,0,0,.38-1.09l1,.21a5.24,5.24,0,0,1-.7,1.7,5.64,5.64,0,0,0,1.23,1.21l-.65.77A5.81,5.81,0,0,1,174,105Zm-.6-.76-1.78-2.2a3.57,3.57,0,0,0-1.05.87,1.36,1.36,0,0,0-.28.79,1.74,1.74,0,0,0,.38,1,1.28,1.28,0,0,0,1.08.51,1.79,1.79,0,0,0,.9-.27A2.19,2.19,0,0,0,173.39,104.28ZM172,100.94a2.48,2.48,0,0,0,.81-.65,1.13,1.13,0,0,0,.19-.62.87.87,0,0,0-.26-.65.82.82,0,0,0-.63-.26.91.91,0,0,0-.66.25.85.85,0,0,0-.26.62.8.8,0,0,0,.1.38,1.65,1.65,0,0,0,.28.43Z" transform="translate(-1 -1)"/><path class="cls-4" d="M180.47,108.16v-2.79a1.76,1.76,0,0,1-.64.52,1.82,1.82,0,0,1-.86.21,2.3,2.3,0,0,1-1.75-.81,3.23,3.23,0,0,1-.73-2.22,3.74,3.74,0,0,1,.3-1.54,2.29,2.29,0,0,1,.86-1,2.38,2.38,0,0,1,1.25-.35,1.91,1.91,0,0,1,1.66.89v-.76h.87v7.89Zm-3-5.06a2.53,2.53,0,0,0,.47,1.66,1.4,1.4,0,0,0,1.1.55,1.38,1.38,0,0,0,1.07-.53,2.45,2.45,0,0,0,.44-1.59,2.6,2.6,0,0,0-.47-1.71,1.37,1.37,0,0,0-1.1-.58,1.33,1.33,0,0,0-1.07.54A2.59,2.59,0,0,0,177.48,103.1Z" transform="translate(-1 -1)"/><path class="cls-4" d="M186.69,106v-.83a2.1,2.1,0,0,1-1.81,1,2.3,2.3,0,0,1-.95-.19,1.53,1.53,0,0,1-.65-.49,1.84,1.84,0,0,1-.3-.71,6.38,6.38,0,0,1,0-.91v-3.53h1v3.16a5.47,5.47,0,0,0,.06,1,1,1,0,0,0,.39.6,1.17,1.17,0,0,0,.73.22,1.6,1.6,0,0,0,.82-.22,1.28,1.28,0,0,0,.54-.61,3.22,3.22,0,0,0,.15-1.11v-3.06h1V106Z" transform="translate(-1 -1)"/><path class="cls-4" d="M188.71,103.12a2.93,2.93,0,0,1,.88-2.35,2.64,2.64,0,0,1,1.79-.63,2.56,2.56,0,0,1,1.92.77,2.91,2.91,0,0,1,.75,2.13,3.78,3.78,0,0,1-.33,1.73,2.33,2.33,0,0,1-1,1,2.72,2.72,0,0,1-1.38.35,2.55,2.55,0,0,1-1.94-.77A3.07,3.07,0,0,1,188.71,103.12Zm1,0a2.41,2.41,0,0,0,.48,1.64,1.52,1.52,0,0,0,1.2.55,1.55,1.55,0,0,0,1.2-.55,2.48,2.48,0,0,0,.48-1.67,2.34,2.34,0,0,0-.48-1.6,1.59,1.59,0,0,0-2.4,0A2.41,2.41,0,0,0,189.7,103.12Z" transform="translate(-1 -1)"/><path class="cls-4" d="M197.29,105.11l.14.85a3.37,3.37,0,0,1-.73.09,1.63,1.63,0,0,1-.81-.17.87.87,0,0,1-.41-.44,3.4,3.4,0,0,1-.12-1.14V101h-.71v-.75h.71V98.86l1-.58v2h1V101h-1v3.34a1.85,1.85,0,0,0,.05.53.44.44,0,0,0,.17.19.74.74,0,0,0,.33.07A4.12,4.12,0,0,0,197.29,105.11Z" transform="translate(-1 -1)"/><path class="cls-4" d="M198.49,106v-1.1h1.1V106a2,2,0,0,1-.21,1,1.45,1.45,0,0,1-.68.58l-.27-.41a.93.93,0,0,0,.45-.4A1.75,1.75,0,0,0,199,106Zm0-4.6v-1.1h1.1v1.1Z" transform="translate(-1 -1)"/><path class="cls-4" d="M71.41,117.08l1,.13a2.45,2.45,0,0,1-.8,1.54,2.3,2.3,0,0,1-1.57.55,2.43,2.43,0,0,1-1.88-.76,3.1,3.1,0,0,1-.72-2.2,4,4,0,0,1,.31-1.61,2.06,2.06,0,0,1,.93-1,2.78,2.78,0,0,1,1.36-.35,2.38,2.38,0,0,1,1.52.47,2.12,2.12,0,0,1,.76,1.33l-.94.15a1.66,1.66,0,0,0-.47-.87,1.27,1.27,0,0,0-.83-.29,1.51,1.51,0,0,0-1.19.53,2.51,2.51,0,0,0-.45,1.66,2.55,2.55,0,0,0,.44,1.67,1.44,1.44,0,0,0,1.15.52,1.38,1.38,0,0,0,1-.35A1.78,1.78,0,0,0,71.41,117.08Z" transform="translate(-1 -1)"/><path class="cls-4" d="M72.83,116.32a2.93,2.93,0,0,1,.88-2.35,2.66,2.66,0,0,1,1.79-.63,2.58,2.58,0,0,1,1.93.77,3,3,0,0,1,.74,2.13,3.78,3.78,0,0,1-.33,1.73,2.33,2.33,0,0,1-1,1,2.72,2.72,0,0,1-1.38.35,2.53,2.53,0,0,1-1.93-.77A3.07,3.07,0,0,1,72.83,116.32Zm1,0A2.41,2.41,0,0,0,74.3,118a1.52,1.52,0,0,0,1.2.55,1.55,1.55,0,0,0,1.2-.55,2.48,2.48,0,0,0,.48-1.67,2.34,2.34,0,0,0-.48-1.6,1.52,1.52,0,0,0-1.2-.55,1.54,1.54,0,0,0-1.2.54A2.41,2.41,0,0,0,73.82,116.32Z" transform="translate(-1 -1)"/><path class="cls-4" d="M79.29,119.17V111.3h1v7.87Z" transform="translate(-1 -1)"/><path class="cls-4" d="M81.73,119.17V111.3h1v7.87Z" transform="translate(-1 -1)"/><path class="cls-4" d="M87.92,118.47a3.62,3.62,0,0,1-1,.64,2.85,2.85,0,0,1-1.06.19,2.07,2.07,0,0,1-1.45-.46,1.51,1.51,0,0,1-.5-1.17,1.54,1.54,0,0,1,.19-.77,1.47,1.47,0,0,1,.5-.55,2.19,2.19,0,0,1,.69-.32,6.11,6.11,0,0,1,.86-.14,9.3,9.3,0,0,0,1.73-.34v-.25a1.07,1.07,0,0,0-.27-.83,1.62,1.62,0,0,0-1.1-.33,1.71,1.71,0,0,0-1,.24,1.42,1.42,0,0,0-.48.85l-1-.13a2.28,2.28,0,0,1,.43-1,1.86,1.86,0,0,1,.85-.58,4,4,0,0,1,1.3-.2,3.51,3.51,0,0,1,1.18.17,1.58,1.58,0,0,1,.67.43,1.55,1.55,0,0,1,.31.66,6.06,6.06,0,0,1,0,.89v1.29a11.65,11.65,0,0,0,.07,1.71,2.13,2.13,0,0,0,.24.68h-1A2.05,2.05,0,0,1,87.92,118.47Zm-.08-2.16a7.39,7.39,0,0,1-1.58.37,3.51,3.51,0,0,0-.85.19.83.83,0,0,0-.38.31.82.82,0,0,0-.13.46.86.86,0,0,0,.29.65,1.28,1.28,0,0,0,.86.25,2,2,0,0,0,1-.24,1.53,1.53,0,0,0,.64-.67,2.4,2.4,0,0,0,.16-1Z" transform="translate(-1 -1)"/><path class="cls-4" d="M90.31,121.36v-7.89h.88v.74a2.16,2.16,0,0,1,.71-.65,1.86,1.86,0,0,1,.95-.22A2.23,2.23,0,0,1,95,114.78a3.82,3.82,0,0,1,.28,1.5,3.76,3.76,0,0,1-.31,1.57,2.37,2.37,0,0,1-.91,1.08,2.34,2.34,0,0,1-1.26.37,1.86,1.86,0,0,1-1.5-.72v2.78Zm.88-5a2.52,2.52,0,0,0,.44,1.63,1.38,1.38,0,0,0,1.08.53,1.4,1.4,0,0,0,1.11-.55,2.6,2.6,0,0,0,.46-1.69,2.52,2.52,0,0,0-.45-1.63,1.36,1.36,0,0,0-1.07-.54,1.4,1.4,0,0,0-1.1.57A2.65,2.65,0,0,0,91.19,116.35Z" transform="translate(-1 -1)"/><path class="cls-4" d="M96,117.47l1-.15a1.3,1.3,0,0,0,.45.88,1.58,1.58,0,0,0,1,.31,1.49,1.49,0,0,0,1-.27.83.83,0,0,0,.33-.64.6.6,0,0,0-.29-.52,4.41,4.41,0,0,0-1-.32,8.8,8.8,0,0,1-1.47-.47,1.43,1.43,0,0,1-.62-.54,1.38,1.38,0,0,1-.22-.77,1.4,1.4,0,0,1,.18-.7,1.53,1.53,0,0,1,.47-.54,1.89,1.89,0,0,1,.62-.28,2.82,2.82,0,0,1,.83-.12,3.25,3.25,0,0,1,1.18.19,1.61,1.61,0,0,1,.75.53,2.16,2.16,0,0,1,.34.88l-.95.13a1.07,1.07,0,0,0-.37-.69,1.42,1.42,0,0,0-.88-.25,1.64,1.64,0,0,0-1,.22.64.64,0,0,0-.28.52.52.52,0,0,0,.12.34.9.9,0,0,0,.37.26l.85.24a14.39,14.39,0,0,1,1.43.45,1.49,1.49,0,0,1,.64.51,1.45,1.45,0,0,1,.23.83,1.62,1.62,0,0,1-.28.91,1.88,1.88,0,0,1-.82.66,3,3,0,0,1-1.2.23,2.66,2.66,0,0,1-1.69-.46A2.15,2.15,0,0,1,96,117.47Z" transform="translate(-1 -1)"/><path class="cls-4" d="M101.94,112.41V111.3h1v1.11Zm0,6.76v-5.7h1v5.7Z" transform="translate(-1 -1)"/><path class="cls-4" d="M105.27,119.17h-.9V111.3h1v2.81a1.93,1.93,0,0,1,1.57-.77,2.38,2.38,0,0,1,1,.21,2,2,0,0,1,.78.6,2.75,2.75,0,0,1,.47.92,3.7,3.7,0,0,1,.17,1.16,3.27,3.27,0,0,1-.72,2.27,2.24,2.24,0,0,1-1.74.8,1.81,1.81,0,0,1-1.58-.84Zm0-2.89a3,3,0,0,0,.28,1.48,1.38,1.38,0,0,0,2.33.2,3.17,3.17,0,0,0,0-3.29,1.33,1.33,0,0,0-1.07-.54,1.37,1.37,0,0,0-1.09.56A2.38,2.38,0,0,0,105.25,116.28Z" transform="translate(-1 -1)"/><path class="cls-4" d="M110.47,119.17V111.3h1v7.87Z" transform="translate(-1 -1)"/><path class="cls-4" d="M116.84,117.34l1,.12a2.44,2.44,0,0,1-.88,1.36,3,3,0,0,1-3.61-.29,3,3,0,0,1-.74-2.16,3.18,3.18,0,0,1,.74-2.24,2.53,2.53,0,0,1,1.93-.79,2.45,2.45,0,0,1,1.87.78,3.11,3.11,0,0,1,.72,2.19v.26h-4.26a2.24,2.24,0,0,0,.53,1.44,1.61,1.61,0,0,0,1.2.5,1.51,1.51,0,0,0,.9-.28A1.94,1.94,0,0,0,116.84,117.34Zm-3.17-1.57h3.18a1.92,1.92,0,0,0-.36-1.08,1.5,1.5,0,0,0-1.2-.56,1.52,1.52,0,0,0-1.12.45A1.78,1.78,0,0,0,113.67,115.77Z" transform="translate(-1 -1)"/><path class="cls-3" d="M67.67,132.37V124.5h1v7.87Z" transform="translate(-1 -1)"/><path class="cls-3" d="M73.85,131.67a3.45,3.45,0,0,1-1,.64,2.9,2.9,0,0,1-1.07.19,2.06,2.06,0,0,1-1.44-.46,1.48,1.48,0,0,1-.5-1.17,1.54,1.54,0,0,1,.19-.77,1.47,1.47,0,0,1,.5-.55,2.19,2.19,0,0,1,.69-.32,6.11,6.11,0,0,1,.86-.14,9,9,0,0,0,1.72-.34c0-.13,0-.21,0-.25a1.07,1.07,0,0,0-.27-.83,1.64,1.64,0,0,0-1.11-.33,1.67,1.67,0,0,0-1,.24,1.42,1.42,0,0,0-.48.85l-1-.13a2.28,2.28,0,0,1,.43-1,1.86,1.86,0,0,1,.85-.58,3.88,3.88,0,0,1,1.29-.2,3.53,3.53,0,0,1,1.19.17,1.58,1.58,0,0,1,.67.43,1.43,1.43,0,0,1,.3.66,4.64,4.64,0,0,1,0,.89V130a14.19,14.19,0,0,0,.06,1.71,2.15,2.15,0,0,0,.25.68h-1A2.05,2.05,0,0,1,73.85,131.67Zm-.08-2.16a7.13,7.13,0,0,1-1.57.37,3.51,3.51,0,0,0-.85.19.9.9,0,0,0-.38.31.88.88,0,0,0,.16,1.11,1.26,1.26,0,0,0,.86.25,2,2,0,0,0,1-.24,1.53,1.53,0,0,0,.64-.67,2.43,2.43,0,0,0,.15-1Z" transform="translate(-1 -1)"/><path class="cls-3" d="M76.25,132.37v-5.7h.87v.81a2,2,0,0,1,1.82-.94,2.23,2.23,0,0,1,.94.19,1.44,1.44,0,0,1,.65.48,2,2,0,0,1,.3.72,4.88,4.88,0,0,1,.06.94v3.5h-1V128.9a2.73,2.73,0,0,0-.11-.88,1,1,0,0,0-.4-.47,1.37,1.37,0,0,0-.68-.17,1.54,1.54,0,0,0-1.06.39,1.93,1.93,0,0,0-.45,1.49v3.11Z" transform="translate(-1 -1)"/><path class="cls-3" d="M82.19,132.85l.94.14a.88.88,0,0,0,.33.63,1.61,1.61,0,0,0,1,.27,1.74,1.74,0,0,0,1-.27,1.31,1.31,0,0,0,.49-.75,5.72,5.72,0,0,0,.07-1.24,2,2,0,0,1-1.58.74,2.15,2.15,0,0,1-1.82-.85,3.24,3.24,0,0,1-.64-2,3.91,3.91,0,0,1,.29-1.51,2.4,2.4,0,0,1,.86-1.06,2.3,2.3,0,0,1,1.32-.38,2,2,0,0,1,1.66.82v-.69H87v4.93a4.7,4.7,0,0,1-.27,1.89,2,2,0,0,1-.86.88,3,3,0,0,1-1.44.32,2.71,2.71,0,0,1-1.65-.46A1.57,1.57,0,0,1,82.19,132.85Zm.8-3.43a2.47,2.47,0,0,0,.45,1.64,1.41,1.41,0,0,0,1.11.51,1.43,1.43,0,0,0,1.12-.51,2.4,2.4,0,0,0,.45-1.61,2.35,2.35,0,0,0-.46-1.58,1.45,1.45,0,0,0-1.12-.53,1.4,1.4,0,0,0-1.1.52A2.34,2.34,0,0,0,83,129.42Z" transform="translate(-1 -1)"/><path class="cls-3" d="M92.22,132.37v-.83a2.08,2.08,0,0,1-1.81,1,2.29,2.29,0,0,1-.94-.19,1.53,1.53,0,0,1-.65-.49,1.84,1.84,0,0,1-.3-.71,5,5,0,0,1-.06-.91v-3.53h1v3.16a5.47,5.47,0,0,0,.06,1,1,1,0,0,0,.39.6,1.15,1.15,0,0,0,.73.22,1.54,1.54,0,0,0,.81-.22,1.18,1.18,0,0,0,.54-.61,3,3,0,0,0,.16-1.11v-3.06h1v5.7Z" transform="translate(-1 -1)"/><path class="cls-3" d="M98.33,131.67a3.62,3.62,0,0,1-1,.64,2.89,2.89,0,0,1-1.06.19,2.07,2.07,0,0,1-1.45-.46,1.48,1.48,0,0,1-.5-1.17,1.54,1.54,0,0,1,.19-.77,1.47,1.47,0,0,1,.5-.55,2.19,2.19,0,0,1,.69-.32,6.11,6.11,0,0,1,.86-.14,9.3,9.3,0,0,0,1.73-.34v-.25a1.07,1.07,0,0,0-.27-.83,1.62,1.62,0,0,0-1.1-.33,1.69,1.69,0,0,0-1,.24,1.42,1.42,0,0,0-.48.85l-1-.13a2.28,2.28,0,0,1,.43-1,1.86,1.86,0,0,1,.85-.58,3.9,3.9,0,0,1,1.3-.2,3.51,3.51,0,0,1,1.18.17,1.58,1.58,0,0,1,.67.43,1.43,1.43,0,0,1,.3.66,4.64,4.64,0,0,1,0,.89V130a14.19,14.19,0,0,0,.06,1.71,2.42,2.42,0,0,0,.25.68h-1A1.85,1.85,0,0,1,98.33,131.67Zm-.08-2.16a7.39,7.39,0,0,1-1.58.37,3.51,3.51,0,0,0-.85.19.9.9,0,0,0-.38.31.88.88,0,0,0,.16,1.11,1.26,1.26,0,0,0,.86.25,2,2,0,0,0,1-.24,1.53,1.53,0,0,0,.64-.67,2.4,2.4,0,0,0,.16-1Z" transform="translate(-1 -1)"/><path class="cls-3" d="M100.54,132.85l.94.14a.88.88,0,0,0,.33.63,1.61,1.61,0,0,0,1,.27,1.72,1.72,0,0,0,1-.27,1.37,1.37,0,0,0,.5-.75,6.49,6.49,0,0,0,.07-1.24,2,2,0,0,1-1.58.74,2.12,2.12,0,0,1-1.82-.85,3.24,3.24,0,0,1-.65-2,3.73,3.73,0,0,1,.3-1.51,2.31,2.31,0,0,1,.85-1.06,2.35,2.35,0,0,1,1.32-.38,2.05,2.05,0,0,1,1.67.82v-.69h.89v4.93a4.7,4.7,0,0,1-.27,1.89,2,2,0,0,1-.86.88,3,3,0,0,1-1.45.32,2.71,2.71,0,0,1-1.65-.46A1.57,1.57,0,0,1,100.54,132.85Zm.8-3.43a2.47,2.47,0,0,0,.45,1.64,1.47,1.47,0,0,0,2.23,0,3,3,0,0,0,0-3.19,1.45,1.45,0,0,0-1.12-.53,1.38,1.38,0,0,0-1.09.52A2.29,2.29,0,0,0,101.34,129.42Z" transform="translate(-1 -1)"/><path class="cls-3" d="M110.74,130.54l1,.12a2.48,2.48,0,0,1-.87,1.36,2.66,2.66,0,0,1-1.64.48,2.58,2.58,0,0,1-2-.77,3,3,0,0,1-.73-2.16,3.14,3.14,0,0,1,.74-2.24,2.52,2.52,0,0,1,1.92-.79,2.44,2.44,0,0,1,1.87.78,3.11,3.11,0,0,1,.72,2.19v.26h-4.25a2.18,2.18,0,0,0,.53,1.44,1.58,1.58,0,0,0,1.19.5,1.54,1.54,0,0,0,.91-.28A1.86,1.86,0,0,0,110.74,130.54ZM107.57,129h3.18a1.92,1.92,0,0,0-.36-1.08,1.5,1.5,0,0,0-1.2-.56,1.53,1.53,0,0,0-1.12.45A1.78,1.78,0,0,0,107.57,129Z" transform="translate(-1 -1)"/><path class="cls-3" d="M118.7,129.61l1,.27a3.5,3.5,0,0,1-1.18,2,3.25,3.25,0,0,1-2.08.68,3.78,3.78,0,0,1-2.07-.52,3.24,3.24,0,0,1-1.21-1.5,5.33,5.33,0,0,1-.42-2.11,4.7,4.7,0,0,1,.47-2.15,3.21,3.21,0,0,1,1.34-1.39,3.87,3.87,0,0,1,1.91-.48,3.22,3.22,0,0,1,2,.61,3.15,3.15,0,0,1,1.13,1.69l-1,.24a2.46,2.46,0,0,0-.79-1.25,2.15,2.15,0,0,0-1.32-.39,2.52,2.52,0,0,0-1.51.43,2.31,2.31,0,0,0-.86,1.17,4.83,4.83,0,0,0-.25,1.51,4.73,4.73,0,0,0,.3,1.76,2.17,2.17,0,0,0,.91,1.12,2.59,2.59,0,0,0,1.33.37,2.25,2.25,0,0,0,1.49-.51A2.61,2.61,0,0,0,118.7,129.61Z" transform="translate(-1 -1)"/><path class="cls-3" d="M120.54,129.52a2.93,2.93,0,0,1,.88-2.35,2.67,2.67,0,0,1,1.8-.63,2.58,2.58,0,0,1,1.92.77,2.91,2.91,0,0,1,.74,2.13,3.78,3.78,0,0,1-.33,1.73,2.33,2.33,0,0,1-1,1,2.71,2.71,0,0,1-1.37.35,2.54,2.54,0,0,1-1.94-.77A3.07,3.07,0,0,1,120.54,129.52Zm1,0a2.41,2.41,0,0,0,.48,1.64,1.58,1.58,0,0,0,2.4,0,2.48,2.48,0,0,0,.48-1.67,2.34,2.34,0,0,0-.48-1.6,1.51,1.51,0,0,0-1.19-.55,1.54,1.54,0,0,0-1.21.54A2.41,2.41,0,0,0,121.53,129.52Z" transform="translate(-1 -1)"/><path class="cls-3" d="M130.72,132.37v-.72a1.76,1.76,0,0,1-1.6.85,2.23,2.23,0,0,1-1.25-.37,2.49,2.49,0,0,1-.89-1,3.64,3.64,0,0,1-.31-1.55A4,4,0,0,1,127,128a2.24,2.24,0,0,1,2.13-1.44,1.87,1.87,0,0,1,.92.22,1.78,1.78,0,0,1,.65.56V124.5h1v7.87Zm-3.06-2.84a2.5,2.5,0,0,0,.46,1.63,1.39,1.39,0,0,0,1.09.55,1.37,1.37,0,0,0,1.08-.52,2.37,2.37,0,0,0,.44-1.58,2.68,2.68,0,0,0-.45-1.72,1.37,1.37,0,0,0-1.11-.55,1.35,1.35,0,0,0-1.08.53A2.64,2.64,0,0,0,127.66,129.53Z" transform="translate(-1 -1)"/><path class="cls-3" d="M137,130.54l1,.12a2.44,2.44,0,0,1-.88,1.36,2.63,2.63,0,0,1-1.63.48,2.58,2.58,0,0,1-2-.77,3,3,0,0,1-.74-2.16,3.18,3.18,0,0,1,.74-2.24,2.56,2.56,0,0,1,1.93-.79,2.45,2.45,0,0,1,1.87.78,3.11,3.11,0,0,1,.72,2.19v.26h-4.26a2.29,2.29,0,0,0,.53,1.44,1.61,1.61,0,0,0,1.2.5,1.51,1.51,0,0,0,.9-.28A1.94,1.94,0,0,0,137,130.54ZM133.87,129h3.18a1.92,1.92,0,0,0-.36-1.08,1.5,1.5,0,0,0-1.2-.56,1.52,1.52,0,0,0-1.12.45A1.78,1.78,0,0,0,133.87,129Z" transform="translate(-1 -1)"/><path class="cls-4" d="M144.34,127.74h-5.2v-.9h5.2Zm0,2.39h-5.2v-.9h5.2Z" transform="translate(-1 -1)"/><path class="cls-4" d="M145.29,130.67l1-.15a1.3,1.3,0,0,0,.45.88,1.55,1.55,0,0,0,1,.31,1.5,1.5,0,0,0,1-.27.82.82,0,0,0,.32-.64.59.59,0,0,0-.28-.52,4.41,4.41,0,0,0-1-.32,8.8,8.8,0,0,1-1.47-.47,1.39,1.39,0,0,1-.84-1.31,1.4,1.4,0,0,1,.18-.7,1.44,1.44,0,0,1,.47-.54,1.89,1.89,0,0,1,.62-.28,2.78,2.78,0,0,1,.83-.12,3.28,3.28,0,0,1,1.18.19,1.61,1.61,0,0,1,.75.53,2,2,0,0,1,.33.88l-.94.13a1.08,1.08,0,0,0-.38-.69,1.37,1.37,0,0,0-.87-.25,1.56,1.56,0,0,0-1,.23.61.61,0,0,0-.28.51.58.58,0,0,0,.11.34.94.94,0,0,0,.38.26c.09,0,.38.12.85.24.68.19,1.16.34,1.43.45a1.55,1.55,0,0,1,.64.51,1.45,1.45,0,0,1,.23.83,1.7,1.7,0,0,1-.28.91,1.88,1.88,0,0,1-.82.66,3,3,0,0,1-1.2.23A2.69,2.69,0,0,1,146,132,2.19,2.19,0,0,1,145.29,130.67Z" transform="translate(-1 -1)"/><path class="cls-4" d="M150.53,132.37l2.09-3-1.93-2.74h1.21l.87,1.34c.17.25.3.46.4.64.16-.24.3-.45.43-.63l1-1.35h1.15l-2,2.68,2.12,3h-1.19l-1.17-1.77-.31-.48-1.5,2.25Z" transform="translate(-1 -1)"/><path class="cls-4" d="M161.18,131.44a3.34,3.34,0,0,1-1,.8,2.82,2.82,0,0,1-1.22.27,2.39,2.39,0,0,1-1.92-.82,2.24,2.24,0,0,1-.58-1.49,2.11,2.11,0,0,1,.47-1.32,4.09,4.09,0,0,1,1.41-1,4.75,4.75,0,0,1-.71-1,1.75,1.75,0,0,1-.18-.74,1.65,1.65,0,0,1,.56-1.23,2,2,0,0,1,1.4-.53,1.84,1.84,0,0,1,1.32.5,1.59,1.59,0,0,1,.51,1.19c0,.74-.5,1.38-1.49,1.91l1.41,1.8a4.11,4.11,0,0,0,.38-1.09l1,.21a5.47,5.47,0,0,1-.69,1.7,5.64,5.64,0,0,0,1.23,1.21l-.65.77A5.57,5.57,0,0,1,161.18,131.44Zm-.61-.76-1.77-2.2a3.48,3.48,0,0,0-1.06.87,1.42,1.42,0,0,0-.27.79,1.67,1.67,0,0,0,.38,1,1.26,1.26,0,0,0,1.08.51,1.79,1.79,0,0,0,.9-.27A2.07,2.07,0,0,0,160.57,130.68Zm-1.36-3.34a2.67,2.67,0,0,0,.82-.65,1.12,1.12,0,0,0,.18-.62.87.87,0,0,0-.89-.91.88.88,0,0,0-.65.25.82.82,0,0,0-.26.62.92.92,0,0,0,.09.38,2,2,0,0,0,.28.43Z" transform="translate(-1 -1)"/><path class="cls-4" d="M167.65,134.56v-2.79a1.73,1.73,0,0,1-.63.52,1.85,1.85,0,0,1-.86.21,2.28,2.28,0,0,1-1.75-.81,3.18,3.18,0,0,1-.73-2.22,3.92,3.92,0,0,1,.29-1.54,2.25,2.25,0,0,1,.87-1,2.35,2.35,0,0,1,1.24-.35,1.93,1.93,0,0,1,1.67.89v-.76h.87v7.89Zm-3-5.06a2.53,2.53,0,0,0,.46,1.66,1.43,1.43,0,0,0,1.11.55,1.36,1.36,0,0,0,1.06-.53,2.39,2.39,0,0,0,.45-1.59,2.66,2.66,0,0,0-.47-1.71,1.39,1.39,0,0,0-1.11-.58,1.31,1.31,0,0,0-1.06.54A2.59,2.59,0,0,0,164.67,129.5Z" transform="translate(-1 -1)"/><path class="cls-4" d="M173.87,132.37v-.83a2.09,2.09,0,0,1-1.81,1,2.26,2.26,0,0,1-.94-.19,1.53,1.53,0,0,1-.65-.49,1.84,1.84,0,0,1-.3-.71,5,5,0,0,1-.06-.91v-3.53h1v3.16a5.47,5.47,0,0,0,.06,1,1,1,0,0,0,.38.6,1.17,1.17,0,0,0,.73.22,1.58,1.58,0,0,0,.82-.22,1.28,1.28,0,0,0,.54-.61,3,3,0,0,0,.16-1.11v-3.06h1v5.7Z" transform="translate(-1 -1)"/><path class="cls-4" d="M175.89,129.52a2.93,2.93,0,0,1,.88-2.35,2.66,2.66,0,0,1,1.79-.63,2.58,2.58,0,0,1,1.93.77,3,3,0,0,1,.74,2.13,3.78,3.78,0,0,1-.33,1.73,2.33,2.33,0,0,1-1,1,2.72,2.72,0,0,1-1.38.35,2.53,2.53,0,0,1-1.93-.77A3.07,3.07,0,0,1,175.89,129.52Zm1,0a2.41,2.41,0,0,0,.48,1.64,1.52,1.52,0,0,0,1.2.55,1.55,1.55,0,0,0,1.2-.55,2.48,2.48,0,0,0,.48-1.67,2.34,2.34,0,0,0-.48-1.6,1.52,1.52,0,0,0-1.2-.55,1.54,1.54,0,0,0-1.2.54A2.41,2.41,0,0,0,176.88,129.52Z" transform="translate(-1 -1)"/><path class="cls-4" d="M184.48,131.51l.14.85a3.45,3.45,0,0,1-.73.09,1.67,1.67,0,0,1-.82-.17,1,1,0,0,1-.41-.44,3.4,3.4,0,0,1-.12-1.14v-3.28h-.7v-.75h.7v-1.41l1-.58v2h1v.75h-1v3.34a1.54,1.54,0,0,0,.05.53.42.42,0,0,0,.16.19.74.74,0,0,0,.33.07C184.16,131.55,184.3,131.53,184.48,131.51Z" transform="translate(-1 -1)"/><path class="cls-4" d="M185.68,132.37v-1.1h1.1v1.1a1.87,1.87,0,0,1-.22,1,1.41,1.41,0,0,1-.68.58l-.27-.41a.85.85,0,0,0,.45-.4,1.61,1.61,0,0,0,.16-.75Zm0-4.6v-1.1h1.1v1.1Z" transform="translate(-1 -1)"/><path class="cls-4" d="M54.74,145.71,57,137.56h.78l-2.28,8.15Z" transform="translate(-1 -1)"/><path class="cls-4" d="M63.61,142.13l-5.21,2.23v-1l4.13-1.72L58.4,140v-1l5.21,2.2Z" transform="translate(-1 -1)"/><path class="cls-4" d="M65,140.49l-.27-1.5V137.7h1.11V139l-.25,1.5Zm1.78,0-.26-1.5V137.7h1.1V139l-.26,1.5Z" transform="translate(-1 -1)"/><path class="cls-3" d="M61.56,158.77V150.9h1v7.87Z" transform="translate(-1 -1)"/><path class="cls-3" d="M67.74,158.07a3.58,3.58,0,0,1-1,.64,2.9,2.9,0,0,1-1.07.19,2,2,0,0,1-1.44-.46,1.49,1.49,0,0,1-.51-1.17,1.57,1.57,0,0,1,.69-1.32,2.35,2.35,0,0,1,.7-.32,5.86,5.86,0,0,1,.86-.14,9.16,9.16,0,0,0,1.72-.34c0-.13,0-.21,0-.25a1,1,0,0,0-.28-.83,1.59,1.59,0,0,0-1.1-.33,1.67,1.67,0,0,0-1,.24,1.48,1.48,0,0,0-.49.85l-.94-.13a2.4,2.4,0,0,1,.42-1,2,2,0,0,1,.86-.58,3.88,3.88,0,0,1,1.29-.2,3.57,3.57,0,0,1,1.19.17,1.65,1.65,0,0,1,.67.43,1.67,1.67,0,0,1,.3.66,5.68,5.68,0,0,1,0,.89v1.29a14.19,14.19,0,0,0,.06,1.71,1.93,1.93,0,0,0,.25.68h-1A2.05,2.05,0,0,1,67.74,158.07Zm-.08-2.16a7.24,7.24,0,0,1-1.58.37,3.4,3.4,0,0,0-.84.19.9.9,0,0,0-.38.31.84.84,0,0,0,.16,1.11,1.25,1.25,0,0,0,.85.25,2,2,0,0,0,1-.24,1.53,1.53,0,0,0,.64-.67,2.43,2.43,0,0,0,.15-1Z" transform="translate(-1 -1)"/><path class="cls-3" d="M70.14,158.77v-5.7H71v.81a2,2,0,0,1,1.81-.94,2.27,2.27,0,0,1,1,.19,1.44,1.44,0,0,1,.65.48,2,2,0,0,1,.3.72,5.14,5.14,0,0,1,0,.94v3.5h-1V155.3a2.43,2.43,0,0,0-.12-.88.87.87,0,0,0-.4-.47,1.31,1.31,0,0,0-.67-.17,1.59,1.59,0,0,0-1.07.39,1.93,1.93,0,0,0-.45,1.49v3.11Z" transform="translate(-1 -1)"/><path class="cls-3" d="M76.08,159.25l.94.14a.88.88,0,0,0,.33.63,1.58,1.58,0,0,0,1,.27,1.74,1.74,0,0,0,1-.27,1.36,1.36,0,0,0,.49-.75,6.49,6.49,0,0,0,.07-1.24,2,2,0,0,1-1.58.74,2.15,2.15,0,0,1-1.82-.85,3.24,3.24,0,0,1-.64-2,3.73,3.73,0,0,1,.29-1.51,2.33,2.33,0,0,1,.86-1.06,2.3,2.3,0,0,1,1.32-.38,2,2,0,0,1,1.66.82v-.69h.89V158a4.7,4.7,0,0,1-.27,1.89,2,2,0,0,1-.86.88,3,3,0,0,1-1.45.32,2.66,2.66,0,0,1-1.64-.46A1.54,1.54,0,0,1,76.08,159.25Zm.8-3.43a2.53,2.53,0,0,0,.44,1.64,1.48,1.48,0,0,0,2.24,0,2.4,2.4,0,0,0,.45-1.61,2.35,2.35,0,0,0-.46-1.58,1.46,1.46,0,0,0-1.12-.53,1.4,1.4,0,0,0-1.1.52A2.34,2.34,0,0,0,76.88,155.82Z" transform="translate(-1 -1)"/><path class="cls-3" d="M86.11,158.77v-.83a2.09,2.09,0,0,1-1.81,1,2.29,2.29,0,0,1-.94-.19,1.53,1.53,0,0,1-.65-.49,1.84,1.84,0,0,1-.3-.71,5,5,0,0,1-.06-.91v-3.53h1v3.16a5.47,5.47,0,0,0,.06,1,1,1,0,0,0,.38.6,1.2,1.2,0,0,0,.74.22,1.54,1.54,0,0,0,.81-.22,1.18,1.18,0,0,0,.54-.61,3,3,0,0,0,.16-1.11v-3.06h1v5.7Z" transform="translate(-1 -1)"/><path class="cls-3" d="M92.21,158.07a3.45,3.45,0,0,1-1,.64,2.9,2.9,0,0,1-1.07.19,2,2,0,0,1-1.44-.46,1.49,1.49,0,0,1-.51-1.17,1.57,1.57,0,0,1,.69-1.32,2.35,2.35,0,0,1,.7-.32,6.11,6.11,0,0,1,.86-.14,9.16,9.16,0,0,0,1.72-.34c0-.13,0-.21,0-.25a1,1,0,0,0-.28-.83,1.59,1.59,0,0,0-1.1-.33,1.67,1.67,0,0,0-1,.24,1.42,1.42,0,0,0-.48.85l-1-.13a2.4,2.4,0,0,1,.42-1,2,2,0,0,1,.86-.58,3.88,3.88,0,0,1,1.29-.2,3.53,3.53,0,0,1,1.19.17,1.65,1.65,0,0,1,.67.43,1.67,1.67,0,0,1,.3.66,5.68,5.68,0,0,1,0,.89v1.29a14.19,14.19,0,0,0,.06,1.71,1.93,1.93,0,0,0,.25.68h-1A2.05,2.05,0,0,1,92.21,158.07Zm-.08-2.16a7.1,7.1,0,0,1-1.58.37,3.53,3.53,0,0,0-.84.19.9.9,0,0,0-.38.31.84.84,0,0,0,.16,1.11,1.25,1.25,0,0,0,.85.25,2,2,0,0,0,1-.24,1.53,1.53,0,0,0,.64-.67,2.43,2.43,0,0,0,.15-1Z" transform="translate(-1 -1)"/><path class="cls-3" d="M94.43,159.25l.94.14a.88.88,0,0,0,.33.63,1.61,1.61,0,0,0,1,.27,1.72,1.72,0,0,0,1-.27,1.31,1.31,0,0,0,.49-.75,5.72,5.72,0,0,0,.07-1.24,2,2,0,0,1-1.58.74,2.15,2.15,0,0,1-1.82-.85,3.24,3.24,0,0,1-.64-2,3.91,3.91,0,0,1,.29-1.51,2.4,2.4,0,0,1,.86-1.06,2.3,2.3,0,0,1,1.32-.38,2,2,0,0,1,1.66.82v-.69h.9V158a4.49,4.49,0,0,1-.28,1.89,2,2,0,0,1-.86.88,3,3,0,0,1-1.44.32,2.71,2.71,0,0,1-1.65-.46A1.57,1.57,0,0,1,94.43,159.25Zm.8-3.43a2.47,2.47,0,0,0,.45,1.64,1.47,1.47,0,0,0,2.23,0,2.4,2.4,0,0,0,.45-1.61,2.35,2.35,0,0,0-.46-1.58,1.45,1.45,0,0,0-1.12-.53,1.4,1.4,0,0,0-1.1.52A2.34,2.34,0,0,0,95.23,155.82Z" transform="translate(-1 -1)"/><path class="cls-3" d="M104.63,156.94l1,.12a2.44,2.44,0,0,1-.88,1.36,2.63,2.63,0,0,1-1.63.48,2.58,2.58,0,0,1-2-.77,3,3,0,0,1-.74-2.16,3.14,3.14,0,0,1,.75-2.24,2.52,2.52,0,0,1,1.92-.79,2.45,2.45,0,0,1,1.87.78,3.11,3.11,0,0,1,.72,2.19v.26H101.4a2.24,2.24,0,0,0,.54,1.44,1.65,1.65,0,0,0,2.1.22A1.93,1.93,0,0,0,104.63,156.94Zm-3.17-1.57h3.18a1.92,1.92,0,0,0-.36-1.08,1.5,1.5,0,0,0-1.2-.56,1.53,1.53,0,0,0-1.12.45A1.78,1.78,0,0,0,101.46,155.37Z" transform="translate(-1 -1)"/><path class="cls-3" d="M112.59,156l1,.27a3.5,3.5,0,0,1-1.18,1.95,3.25,3.25,0,0,1-2.08.68,3.78,3.78,0,0,1-2.07-.52,3.32,3.32,0,0,1-1.22-1.5,5.51,5.51,0,0,1-.41-2.11,4.57,4.57,0,0,1,.47-2.15,3.25,3.25,0,0,1,1.33-1.39,3.9,3.9,0,0,1,1.91-.48,3.25,3.25,0,0,1,2,.61,3.08,3.08,0,0,1,1.12,1.69l-1,.24a2.41,2.41,0,0,0-.8-1.25,2.1,2.1,0,0,0-1.31-.39,2.57,2.57,0,0,0-1.52.43,2.29,2.29,0,0,0-.85,1.17,4.56,4.56,0,0,0-.25,1.51,4.86,4.86,0,0,0,.29,1.75,2.25,2.25,0,0,0,.91,1.13,2.65,2.65,0,0,0,1.34.37,2.2,2.2,0,0,0,1.48-.51A2.62,2.62,0,0,0,112.59,156Z" transform="translate(-1 -1)"/><path class="cls-3" d="M114.43,155.92a2.93,2.93,0,0,1,.88-2.35,2.66,2.66,0,0,1,1.79-.63,2.58,2.58,0,0,1,1.93.77,3,3,0,0,1,.74,2.13,3.78,3.78,0,0,1-.33,1.73,2.33,2.33,0,0,1-1,1,2.72,2.72,0,0,1-1.38.35,2.52,2.52,0,0,1-1.93-.77A3,3,0,0,1,114.43,155.92Zm1,0a2.41,2.41,0,0,0,.48,1.64,1.52,1.52,0,0,0,1.2.55,1.55,1.55,0,0,0,1.2-.55,2.48,2.48,0,0,0,.48-1.67,2.34,2.34,0,0,0-.48-1.6,1.52,1.52,0,0,0-1.2-.55,1.54,1.54,0,0,0-1.2.54A2.41,2.41,0,0,0,115.42,155.92Z" transform="translate(-1 -1)"/><path class="cls-3" d="M124.61,158.77v-.72a1.79,1.79,0,0,1-1.6.85,2.23,2.23,0,0,1-1.25-.37,2.49,2.49,0,0,1-.89-1.05,3.64,3.64,0,0,1-.31-1.55,4,4,0,0,1,.28-1.55,2.25,2.25,0,0,1,.86-1.07,2.23,2.23,0,0,1,1.27-.37,1.91,1.91,0,0,1,1.57.78V150.9h1v7.87Zm-3.06-2.84a2.44,2.44,0,0,0,.46,1.63,1.38,1.38,0,0,0,1.09.55,1.4,1.4,0,0,0,1.08-.52,2.42,2.42,0,0,0,.44-1.58,2.68,2.68,0,0,0-.45-1.72,1.37,1.37,0,0,0-1.11-.55,1.35,1.35,0,0,0-1.08.53A2.58,2.58,0,0,0,121.55,155.93Z" transform="translate(-1 -1)"/><path class="cls-3" d="M130.93,156.94l1,.12a2.44,2.44,0,0,1-.88,1.36,2.63,2.63,0,0,1-1.63.48,2.59,2.59,0,0,1-2-.77,3,3,0,0,1-.73-2.16,3.18,3.18,0,0,1,.74-2.24,2.56,2.56,0,0,1,1.93-.79,2.42,2.42,0,0,1,1.86.78,3.07,3.07,0,0,1,.73,2.19c0,.06,0,.14,0,.26H127.7a2.24,2.24,0,0,0,.53,1.44,1.6,1.6,0,0,0,1.19.5,1.51,1.51,0,0,0,.91-.28A1.94,1.94,0,0,0,130.93,156.94Zm-3.18-1.57h3.19a1.91,1.91,0,0,0-.37-1.08,1.46,1.46,0,0,0-1.19-.56,1.52,1.52,0,0,0-1.12.45A1.79,1.79,0,0,0,127.75,155.37Z" transform="translate(-1 -1)"/><path class="cls-4" d="M138.23,154.14H133v-.9h5.2Zm0,2.39H133v-.9h5.2Z" transform="translate(-1 -1)"/><path class="cls-4" d="M139.61,153.69l-.27-1.5V150.9h1.11v1.29l-.25,1.5Zm1.78,0-.26-1.5V150.9h1.1v1.29l-.26,1.5Z" transform="translate(-1 -1)"/><path class="cls-4" d="M142.24,161l.18-.83a2.1,2.1,0,0,0,.46.08.52.52,0,0,0,.44-.2,2,2,0,0,0,.14-1v-6h1v6a2.86,2.86,0,0,1-.27,1.47,1.28,1.28,0,0,1-1.16.54A3.17,3.17,0,0,1,142.24,161Zm1.22-9V150.9h1V152Z" transform="translate(-1 -1)"/><path class="cls-4" d="M145.53,157.07l.95-.15a1.39,1.39,0,0,0,.45.88,1.6,1.6,0,0,0,1,.31,1.54,1.54,0,0,0,1-.27.85.85,0,0,0,.32-.64.59.59,0,0,0-.28-.52,4.84,4.84,0,0,0-1-.32,9.35,9.35,0,0,1-1.48-.47,1.43,1.43,0,0,1-.62-.54,1.46,1.46,0,0,1-.21-.77,1.51,1.51,0,0,1,.17-.7,1.56,1.56,0,0,1,.48-.54,1.83,1.83,0,0,1,.61-.28,2.84,2.84,0,0,1,.84-.12,3.28,3.28,0,0,1,1.18.19,1.61,1.61,0,0,1,.75.53,2,2,0,0,1,.33.88l-1,.13a1,1,0,0,0-.37-.69,1.41,1.41,0,0,0-.87-.25,1.54,1.54,0,0,0-1,.23.62.62,0,0,0-.29.51.52.52,0,0,0,.12.34.9.9,0,0,0,.37.26c.1,0,.38.12.86.24.68.19,1.16.34,1.43.45a1.46,1.46,0,0,1,.63.51,1.38,1.38,0,0,1,.23.83,1.62,1.62,0,0,1-.28.91,1.91,1.91,0,0,1-.81.66,3.09,3.09,0,0,1-1.2.23,2.67,2.67,0,0,1-1.7-.46A2.1,2.1,0,0,1,145.53,157.07Z" transform="translate(-1 -1)"/><path class="cls-4" d="M150.77,158.77l2.08-3-1.93-2.74h1.21l.88,1.34c.16.25.3.46.4.64.15-.24.3-.45.43-.63l1-1.35H156l-2,2.68,2.12,3h-1.19L153.75,157l-.31-.48-1.5,2.25Z" transform="translate(-1 -1)"/><path class="cls-4" d="M157,153.69l-.27-1.5V150.9h1.1v1.29l-.24,1.5Zm1.78,0-.26-1.5V150.9h1.1v1.29l-.26,1.5Z" transform="translate(-1 -1)"/><path class="cls-3" d="M65.3,169.88l1,.13a2.45,2.45,0,0,1-.8,1.54,2.31,2.31,0,0,1-1.57.55,2.46,2.46,0,0,1-1.89-.76,3.13,3.13,0,0,1-.71-2.2,3.85,3.85,0,0,1,.31-1.61,2.06,2.06,0,0,1,.93-1,2.78,2.78,0,0,1,1.36-.35,2.38,2.38,0,0,1,1.52.47,2.17,2.17,0,0,1,.76,1.33l-.94.15a1.54,1.54,0,0,0-.48-.86,1.18,1.18,0,0,0-.82-.29,1.5,1.5,0,0,0-1.19.52,2.51,2.51,0,0,0-.46,1.66,2.55,2.55,0,0,0,.45,1.67,1.43,1.43,0,0,0,1.14.52,1.4,1.4,0,0,0,1-.35A1.76,1.76,0,0,0,65.3,169.88Z" transform="translate(-1 -1)"/><path class="cls-3" d="M66.72,169.12a2.93,2.93,0,0,1,.88-2.35,2.66,2.66,0,0,1,1.79-.63,2.55,2.55,0,0,1,1.92.77,2.91,2.91,0,0,1,.75,2.13,3.78,3.78,0,0,1-.33,1.73,2.33,2.33,0,0,1-1,1,2.72,2.72,0,0,1-1.38.35,2.52,2.52,0,0,1-1.93-.77A3,3,0,0,1,66.72,169.12Zm1,0a2.41,2.41,0,0,0,.48,1.64,1.52,1.52,0,0,0,1.2.55,1.55,1.55,0,0,0,1.2-.55,2.48,2.48,0,0,0,.48-1.67,2.34,2.34,0,0,0-.48-1.6,1.52,1.52,0,0,0-1.2-.55,1.54,1.54,0,0,0-1.2.54A2.41,2.41,0,0,0,67.71,169.12Z" transform="translate(-1 -1)"/><path class="cls-3" d="M73.17,172V164.1h1V172Z" transform="translate(-1 -1)"/><path class="cls-3" d="M75.62,172V164.1h1V172Z" transform="translate(-1 -1)"/><path class="cls-3" d="M81.8,171.27a3.45,3.45,0,0,1-1,.64,2.9,2.9,0,0,1-1.07.19,2.06,2.06,0,0,1-1.44-.46,1.49,1.49,0,0,1-.51-1.17,1.69,1.69,0,0,1,.19-.77,1.66,1.66,0,0,1,.5-.55,2.35,2.35,0,0,1,.7-.32,6.11,6.11,0,0,1,.86-.14,9.16,9.16,0,0,0,1.72-.34c0-.13,0-.21,0-.25a1.07,1.07,0,0,0-.27-.83,1.64,1.64,0,0,0-1.11-.33,1.67,1.67,0,0,0-1,.24,1.42,1.42,0,0,0-.48.85l-1-.13a2.33,2.33,0,0,1,.43-1,1.86,1.86,0,0,1,.85-.58,3.88,3.88,0,0,1,1.29-.2,3.53,3.53,0,0,1,1.19.17,1.65,1.65,0,0,1,.67.43,1.43,1.43,0,0,1,.3.66,4.64,4.64,0,0,1,0,.89v1.29a14.19,14.19,0,0,0,.06,1.71A2.15,2.15,0,0,0,83,172H82A2.05,2.05,0,0,1,81.8,171.27Zm-.08-2.16a7.1,7.1,0,0,1-1.58.37,3.53,3.53,0,0,0-.84.19.9.9,0,0,0-.38.31.82.82,0,0,0-.13.46.81.81,0,0,0,.29.65,1.26,1.26,0,0,0,.86.25,2,2,0,0,0,1-.24,1.53,1.53,0,0,0,.64-.67,2.43,2.43,0,0,0,.15-1Z" transform="translate(-1 -1)"/><path class="cls-3" d="M84.2,174.16v-7.89h.88V167a2.13,2.13,0,0,1,.7-.65,1.91,1.91,0,0,1,1-.22,2.26,2.26,0,0,1,2.14,1.44,3.82,3.82,0,0,1,.28,1.5,3.76,3.76,0,0,1-.31,1.57,2.39,2.39,0,0,1-.92,1.08,2.28,2.28,0,0,1-1.25.37,1.86,1.86,0,0,1-.87-.2,1.91,1.91,0,0,1-.63-.52v2.78Zm.88-5a2.46,2.46,0,0,0,.44,1.63,1.38,1.38,0,0,0,1.08.53,1.37,1.37,0,0,0,1.1-.55,2.55,2.55,0,0,0,.46-1.69,2.52,2.52,0,0,0-.45-1.63,1.33,1.33,0,0,0-1.07-.54,1.38,1.38,0,0,0-1.09.58A2.54,2.54,0,0,0,85.08,169.15Z" transform="translate(-1 -1)"/><path class="cls-3" d="M89.93,170.27l1-.15a1.3,1.3,0,0,0,.45.88,1.89,1.89,0,0,0,2,0,.82.82,0,0,0,.32-.64.59.59,0,0,0-.28-.52,4.41,4.41,0,0,0-1-.32,8.8,8.8,0,0,1-1.47-.47,1.39,1.39,0,0,1-.84-1.31,1.4,1.4,0,0,1,.18-.7,1.44,1.44,0,0,1,.47-.54,1.89,1.89,0,0,1,.62-.28,2.78,2.78,0,0,1,.83-.12,3.28,3.28,0,0,1,1.18.19,1.61,1.61,0,0,1,.75.53,2,2,0,0,1,.33.88l-.94.13a1.08,1.08,0,0,0-.38-.69,1.37,1.37,0,0,0-.87-.24,1.56,1.56,0,0,0-1,.22.61.61,0,0,0-.28.51.58.58,0,0,0,.11.34.94.94,0,0,0,.38.26c.09,0,.38.12.85.24.68.19,1.16.34,1.43.45a1.55,1.55,0,0,1,.64.51,1.45,1.45,0,0,1,.23.83,1.7,1.7,0,0,1-.28.91,1.88,1.88,0,0,1-.82.66,3,3,0,0,1-1.2.23,2.69,2.69,0,0,1-1.7-.46A2.19,2.19,0,0,1,89.93,170.27Z" transform="translate(-1 -1)"/><path class="cls-3" d="M95.82,165.21V164.1h1v1.11Zm0,6.76v-5.7h1V172Z" transform="translate(-1 -1)"/><path class="cls-3" d="M99.15,172h-.89V164.1h1v2.81a1.93,1.93,0,0,1,1.57-.77,2.38,2.38,0,0,1,1,.21,2,2,0,0,1,.78.6,2.71,2.71,0,0,1,.47.93,3.62,3.62,0,0,1,.17,1.16,3.26,3.26,0,0,1-.72,2.26,2.27,2.27,0,0,1-1.74.8,1.83,1.83,0,0,1-1.59-.84Zm0-2.89a3,3,0,0,0,.28,1.48,1.38,1.38,0,0,0,2.33.2,3.23,3.23,0,0,0,0-3.29,1.32,1.32,0,0,0-1.07-.53,1.4,1.4,0,0,0-1.1.55A2.43,2.43,0,0,0,99.14,169.08Z" transform="translate(-1 -1)"/><path class="cls-3" d="M104.36,172V164.1h1V172Z" transform="translate(-1 -1)"/><path class="cls-3" d="M110.73,170.14l1,.12a2.44,2.44,0,0,1-.88,1.36,2.65,2.65,0,0,1-1.63.48,2.59,2.59,0,0,1-2-.77,3,3,0,0,1-.73-2.16,3.14,3.14,0,0,1,.74-2.23,2.53,2.53,0,0,1,1.92-.8,2.42,2.42,0,0,1,1.87.78,3.07,3.07,0,0,1,.73,2.19c0,.06,0,.14,0,.26H107.5a2.24,2.24,0,0,0,.53,1.44,1.6,1.6,0,0,0,1.19.5,1.51,1.51,0,0,0,.91-.28A1.94,1.94,0,0,0,110.73,170.14Zm-3.18-1.57h3.19a1.91,1.91,0,0,0-.37-1.08,1.47,1.47,0,0,0-1.19-.55,1.51,1.51,0,0,0-1.12.44A1.79,1.79,0,0,0,107.55,168.57Z" transform="translate(-1 -1)"/><path class="cls-3" d="M65.3,183.08l1,.13a2.45,2.45,0,0,1-.8,1.54,2.31,2.31,0,0,1-1.57.55,2.46,2.46,0,0,1-1.89-.76,3.15,3.15,0,0,1-.71-2.2,3.85,3.85,0,0,1,.31-1.61,2.06,2.06,0,0,1,.93-1,2.78,2.78,0,0,1,1.36-.35,2.38,2.38,0,0,1,1.52.47,2.17,2.17,0,0,1,.76,1.33l-.94.15a1.6,1.6,0,0,0-.48-.87,1.23,1.23,0,0,0-.82-.29,1.51,1.51,0,0,0-1.19.53,2.51,2.51,0,0,0-.46,1.66,2.55,2.55,0,0,0,.45,1.67,1.43,1.43,0,0,0,1.14.52,1.4,1.4,0,0,0,1-.35A1.78,1.78,0,0,0,65.3,183.08Z" transform="translate(-1 -1)"/><path class="cls-3" d="M66.72,182.32A2.93,2.93,0,0,1,67.6,180a2.66,2.66,0,0,1,1.79-.63,2.55,2.55,0,0,1,1.92.77,2.91,2.91,0,0,1,.75,2.13,3.78,3.78,0,0,1-.33,1.73,2.33,2.33,0,0,1-1,1,2.72,2.72,0,0,1-1.38.35,2.52,2.52,0,0,1-1.93-.77A3,3,0,0,1,66.72,182.32Zm1,0a2.41,2.41,0,0,0,.48,1.64,1.52,1.52,0,0,0,1.2.55,1.55,1.55,0,0,0,1.2-.55,2.48,2.48,0,0,0,.48-1.67,2.34,2.34,0,0,0-.48-1.6,1.52,1.52,0,0,0-1.2-.55,1.54,1.54,0,0,0-1.2.54A2.41,2.41,0,0,0,67.71,182.32Z" transform="translate(-1 -1)"/><path class="cls-3" d="M76.9,185.17v-.72a1.79,1.79,0,0,1-1.6.85,2.23,2.23,0,0,1-1.25-.37,2.42,2.42,0,0,1-.89-1.05,3.64,3.64,0,0,1-.31-1.55,4,4,0,0,1,.28-1.55,2.23,2.23,0,0,1,.85-1.07,2.28,2.28,0,0,1,1.28-.37,1.87,1.87,0,0,1,.92.22,2,2,0,0,1,.65.56V177.3h1v7.87Zm-3.06-2.84A2.44,2.44,0,0,0,74.3,184a1.38,1.38,0,0,0,1.09.55,1.4,1.4,0,0,0,1.08-.52,2.42,2.42,0,0,0,.44-1.58,2.68,2.68,0,0,0-.45-1.72,1.37,1.37,0,0,0-1.11-.55,1.35,1.35,0,0,0-1.08.53A2.58,2.58,0,0,0,73.84,182.33Z" transform="translate(-1 -1)"/><path class="cls-3" d="M83.22,183.34l1,.12a2.44,2.44,0,0,1-.88,1.36,3,3,0,0,1-3.62-.29,3,3,0,0,1-.73-2.16,3.18,3.18,0,0,1,.74-2.24,2.52,2.52,0,0,1,1.92-.79,2.42,2.42,0,0,1,1.87.78,3.07,3.07,0,0,1,.73,2.19c0,.06,0,.14,0,.26H80a2.18,2.18,0,0,0,.53,1.44,1.6,1.6,0,0,0,1.19.5,1.51,1.51,0,0,0,.91-.28A1.94,1.94,0,0,0,83.22,183.34ZM80,181.77h3.19a2,2,0,0,0-.37-1.08,1.48,1.48,0,0,0-1.2-.56,1.55,1.55,0,0,0-1.12.45A1.78,1.78,0,0,0,80,181.77Z" transform="translate(-1 -1)"/><path class="cls-3" d="M85.51,185.17V177.3h1v6.94h3.88v.93Z" transform="translate(-1 -1)"/><path class="cls-3" d="M91.55,178.41V177.3h1v1.11Zm0,6.76v-5.7h1v5.7Z" transform="translate(-1 -1)"/><path class="cls-3" d="M94,185.17v-5.7h.87v.81a2.05,2.05,0,0,1,1.82-.94,2.23,2.23,0,0,1,.94.19,1.44,1.44,0,0,1,.65.48,1.67,1.67,0,0,1,.3.72,4.88,4.88,0,0,1,.06.94v3.5h-1V181.7a2.73,2.73,0,0,0-.11-.88,1,1,0,0,0-.4-.47,1.34,1.34,0,0,0-.68-.17,1.56,1.56,0,0,0-1.06.39,1.93,1.93,0,0,0-.45,1.49v3.11Z" transform="translate(-1 -1)"/><path class="cls-3" d="M100.11,185.17V177.3h1v4.49l2.29-2.32h1.25l-2.18,2.11,2.4,3.59h-1.19l-1.89-2.91-.68.65v2.26Z" transform="translate(-1 -1)"/><path class="cls-4" d="M110.7,180.54h-5.2v-.9h5.2Zm0,2.39h-5.2V182h5.2Z" transform="translate(-1 -1)"/><path class="cls-4" d="M112.08,180.09l-.27-1.5V177.3h1.1v1.29l-.24,1.5Zm1.78,0-.26-1.5V177.3h1.1v1.29l-.26,1.5Z" transform="translate(-1 -1)"/><path class="cls-4" d="M115.94,187.36v-7.89h.88v.74a2.13,2.13,0,0,1,.7-.65,1.88,1.88,0,0,1,1-.22,2.23,2.23,0,0,1,2.13,1.44,3.82,3.82,0,0,1,.29,1.5,3.93,3.93,0,0,1-.31,1.57,2.39,2.39,0,0,1-.92,1.08,2.34,2.34,0,0,1-1.26.37,1.85,1.85,0,0,1-.86-.2,2.06,2.06,0,0,1-.64-.52v2.78Zm.87-5a2.46,2.46,0,0,0,.45,1.63,1.38,1.38,0,0,0,1.08.53,1.37,1.37,0,0,0,1.1-.55,2.55,2.55,0,0,0,.46-1.69,2.52,2.52,0,0,0-.45-1.63,1.34,1.34,0,0,0-1.07-.54,1.39,1.39,0,0,0-1.09.57A2.59,2.59,0,0,0,116.81,182.35Z" transform="translate(-1 -1)"/><path class="cls-4" d="M122.06,185.17v-5.7h.86v.8a2.2,2.2,0,0,1,.71-.68,2,2,0,0,1,1-.25,1.93,1.93,0,0,1,1,.26,1.41,1.41,0,0,1,.57.74,2,2,0,0,1,1.76-1,1.76,1.76,0,0,1,1.31.47,2,2,0,0,1,.45,1.45v3.91h-1v-3.59a2.78,2.78,0,0,0-.09-.84.84.84,0,0,0-.34-.41,1.11,1.11,0,0,0-.58-.15,1.33,1.33,0,0,0-1,.4,1.72,1.72,0,0,0-.4,1.28v3.31h-1v-3.7a1.62,1.62,0,0,0-.23-1,.92.92,0,0,0-.78-.32,1.42,1.42,0,0,0-.75.21,1.26,1.26,0,0,0-.5.63,3.37,3.37,0,0,0-.16,1.19v3Z" transform="translate(-1 -1)"/><path class="cls-4" d="M130,187.39l.18-.83a2,2,0,0,0,.46.08.53.53,0,0,0,.44-.2,2.09,2.09,0,0,0,.14-1v-6h1v6a2.86,2.86,0,0,1-.27,1.47,1.28,1.28,0,0,1-1.16.54A3.1,3.1,0,0,1,130,187.39Zm1.22-9V177.3h1v1.12Z" transform="translate(-1 -1)"/><path class="cls-4" d="M135.25,185.17l-2.17-5.7h1l1.22,3.41c.13.37.26.76.37,1.15a11.3,11.3,0,0,1,.36-1.08l1.26-3.48h1l-2.16,5.7Z" transform="translate(-1 -1)"/><path class="cls-4" d="M139.17,185.17V177.3h1v4.49l2.29-2.32h1.25l-2.18,2.11,2.4,3.59H142.7l-1.88-2.91-.69.65v2.26Z" transform="translate(-1 -1)"/><path class="cls-4" d="M144.39,183.11l1-.09a1.81,1.81,0,0,0,.52,1.12,1.43,1.43,0,0,0,1,.37,1.53,1.53,0,0,0,1.18-.52,2,2,0,0,0,.49-1.4,1.81,1.81,0,0,0-.47-1.31,1.64,1.64,0,0,0-1.21-.47,1.73,1.73,0,0,0-.85.21,1.64,1.64,0,0,0-.59.55l-.9-.12.76-4h3.91v.92H146.1l-.42,2.12a2.56,2.56,0,0,1,1.49-.5,2.37,2.37,0,0,1,1.74.72,2.47,2.47,0,0,1,.7,1.83,2.83,2.83,0,0,1-.62,1.85,2.48,2.48,0,0,1-2.07,1,2.55,2.55,0,0,1-1.75-.6A2.42,2.42,0,0,1,144.39,183.11Z" transform="translate(-1 -1)"/><path class="cls-4" d="M151.83,185.17l-1.74-5.7h1l.9,3.29.34,1.23c0-.07.11-.46.3-1.18l.91-3.34h1l.85,3.31.29,1.09.33-1.1,1-3.3h.94l-1.78,5.7h-1l-.91-3.41-.22-1-1.16,4.39Z" transform="translate(-1 -1)"/><path class="cls-4" d="M158.7,185.17V177.3h1v7.87Z" transform="translate(-1 -1)"/><path class="cls-4" d="M166,184.24v.93h-5.2a1.72,1.72,0,0,1,.11-.67,3.66,3.66,0,0,1,.63-1.05,11,11,0,0,1,1.27-1.19,10.35,10.35,0,0,0,1.73-1.67,1.93,1.93,0,0,0,.46-1.16,1.28,1.28,0,0,0-.42-1,1.48,1.48,0,0,0-1.07-.39,1.5,1.5,0,0,0-1.11.42,1.6,1.6,0,0,0-.43,1.16l-1-.11a2.42,2.42,0,0,1,.77-1.69,2.6,2.6,0,0,1,1.78-.58,2.5,2.5,0,0,1,1.8.63,2,2,0,0,1,.66,1.55,2.49,2.49,0,0,1-.19.93,3.46,3.46,0,0,1-.65,1,14.94,14.94,0,0,1-1.49,1.39q-.87.74-1.11,1a3.11,3.11,0,0,0-.41.52Z" transform="translate(-1 -1)"/><path class="cls-4" d="M167.08,178.33v-.93h5.1v.75a11.06,11.06,0,0,0-1.49,2.13,12.44,12.44,0,0,0-1.14,2.73,9.54,9.54,0,0,0-.37,2.16h-1a9.26,9.26,0,0,1,.37-2.24,11.28,11.28,0,0,1,1-2.54,10.87,10.87,0,0,1,1.39-2.06Z" transform="translate(-1 -1)"/><path class="cls-4" d="M173.45,180.09l-.27-1.5V177.3h1.1v1.29l-.24,1.5Zm1.78,0-.26-1.5V177.3h1.1v1.29l-.26,1.5Z" transform="translate(-1 -1)"/><path class="cls-3" d="M54.74,198.51,57,190.36h.78l-2.28,8.15Z" transform="translate(-1 -1)"/><path class="cls-3" d="M63.61,194.93l-5.21,2.23v-1l4.13-1.72-4.13-1.69v-1l5.21,2.2Z" transform="translate(-1 -1)"/></svg>