<svg id="Layer_1" data-name="Layer 1" xmlns="http://www.w3.org/2000/svg" viewBox="0 0 419.75 380.89"><defs><style>.cls-1{fill:#f2f2f2;stroke:#ccc;stroke-miterlimit:10;}.cls-2{fill:#e0e0e0;}.cls-3{fill:#ccc;}.cls-4{fill:gray;}</style></defs><title>code</title><rect class="cls-1" x="0.5" y="0.5" width="418.75" height="378.79" rx="28.81" ry="28.81"/><path class="cls-2" d="M3.66,57.05v-28a25.53,25.53,0,0,1,25.5-25.5H394.82a25.53,25.53,0,0,1,25.5,25.5v28Z" transform="translate(-2.11 -2.11)"/><path class="cls-3" d="M394.82,4.09a25,25,0,0,1,25,25V56.55H4.16V29.09a25,25,0,0,1,25-25H394.82m0-1H29.16a26,26,0,0,0-26,26V57.55H420.82V29.09a26,26,0,0,0-26-26Z" transform="translate(-2.11 -2.11)"/><rect class="cls-2" x="1.55" y="54.94" width="21.11" height="325.45"/><path class="cls-3" d="M24.28,57.55V382H4.16V57.55H24.28m1-1H3.16V383H25.28V56.55Z" transform="translate(-2.11 -2.11)"/><rect class="cls-4" x="357.74" y="18.4" width="20.66" height="20.66" rx="10.33" ry="10.33"/><rect class="cls-4" x="328.99" y="18.4" width="20.66" height="20.66" rx="10.33" ry="10.33"/><rect class="cls-4" x="42.65" y="80.51" width="144.43" height="20.66" rx="10.33" ry="10.33"/><rect class="cls-4" x="233.97" y="80.51" width="144.43" height="20.66" rx="10.33" ry="10.33"/><rect class="cls-4" x="146.06" y="114.38" width="144.43" height="20.66" rx="10.33" ry="10.33"/><rect class="cls-4" x="195.14" y="80.51" width="31.46" height="20.66" rx="10.33" ry="10.33"/><rect class="cls-4" x="43" y="151.66" width="144.43" height="20.66" rx="10.33" ry="10.33"/><rect class="cls-4" x="234.32" y="151.66" width="144.43" height="20.66" rx="10.33" ry="10.33"/><rect class="cls-4" x="43" y="114.38" width="96.3" height="20.66" rx="10.33" ry="10.33"/><rect class="cls-4" x="301.4" y="114.38" width="75.74" height="20.66" rx="10.33" ry="10.33"/><rect class="cls-4" x="195.49" y="151.66" width="31.46" height="20.66" rx="10.33" ry="10.33"/><rect class="cls-4" x="146.4" y="188.94" width="144.43" height="20.66" rx="10.33" ry="10.33"/><rect class="cls-4" x="43.34" y="226.22" width="144.43" height="20.66" rx="10.33" ry="10.33"/><rect class="cls-4" x="234.67" y="226.22" width="144.43" height="20.66" rx="10.33" ry="10.33"/><rect class="cls-4" x="43.34" y="188.94" width="96.3" height="20.66" rx="10.33" ry="10.33"/><rect class="cls-4" x="301.74" y="188.94" width="75.74" height="20.66" rx="10.33" ry="10.33"/><rect class="cls-4" x="195.84" y="226.22" width="31.46" height="20.66" rx="10.33" ry="10.33"/><rect class="cls-4" x="146.75" y="263.49" width="144.43" height="20.66" rx="10.33" ry="10.33"/><rect class="cls-4" x="43.69" y="300.77" width="144.43" height="20.66" rx="10.33" ry="10.33"/><rect class="cls-4" x="235.01" y="300.77" width="144.43" height="20.66" rx="10.33" ry="10.33"/><rect class="cls-4" x="43.69" y="263.49" width="96.3" height="20.66" rx="10.33" ry="10.33"/><rect class="cls-4" x="302.09" y="263.49" width="75.74" height="20.66" rx="10.33" ry="10.33"/><rect class="cls-4" x="196.18" y="300.77" width="31.46" height="20.66" rx="10.33" ry="10.33"/></svg>