<svg id="Layer_1" data-name="Layer 1" xmlns="http://www.w3.org/2000/svg" viewBox="0 0 251 251"><defs><style>.cls-1{fill:#f2f2f2;stroke:#b3b3b3;}.cls-1,.cls-2,.cls-4{stroke-miterlimit:10;}.cls-2{fill:none;stroke-width:1.5px;}.cls-2,.cls-4{stroke:#333;}.cls-3{fill:#333;}.cls-4{fill:#e0bb05;}</style></defs><title>contactus</title><rect class="cls-1" x="0.5" y="0.5" width="250" height="250" rx="13.7" ry="13.7"/><rect class="cls-2" x="34" y="36.8" width="185" height="29.01" rx="5" ry="5"/><rect class="cls-2" x="34" y="84.82" width="185" height="29.01" rx="5" ry="5"/><rect class="cls-2" x="34" y="132.83" width="185" height="29.01" rx="5" ry="5"/><path class="cls-3" d="M47.78,56.18v-10h2l4.1,6.69V46.16h1.88v10h-2l-4-6.53v6.53Z" transform="translate(-1 -1)"/><path class="cls-3" d="M59.29,51.14l-1.74-.32a2.7,2.7,0,0,1,1-1.56,3.76,3.76,0,0,1,2.13-.5,4.68,4.68,0,0,1,1.92.3,1.93,1.93,0,0,1,.88.77,4,4,0,0,1,.26,1.72l0,2.25a8.07,8.07,0,0,0,.09,1.41,4.52,4.52,0,0,0,.34,1h-1.9q-.07-.2-.18-.57c0-.11-.06-.19-.07-.22a3.52,3.52,0,0,1-1,.72,3,3,0,0,1-1.2.24A2.52,2.52,0,0,1,58,55.74a2,2,0,0,1-.64-1.54,2.12,2.12,0,0,1,.29-1.1,1.93,1.93,0,0,1,.83-.74A6.13,6.13,0,0,1,60,51.92a10.15,10.15,0,0,0,1.87-.48v-.19a1,1,0,0,0-.27-.79,1.73,1.73,0,0,0-1-.23,1.36,1.36,0,0,0-.8.2A1.39,1.39,0,0,0,59.29,51.14Zm2.57,1.55a9.42,9.42,0,0,1-1.17.3,3.36,3.36,0,0,0-1,.33.82.82,0,0,0-.38.68,1,1,0,0,0,.3.7,1.08,1.08,0,0,0,.77.29,1.67,1.67,0,0,0,1-.34,1.26,1.26,0,0,0,.46-.64,3.8,3.8,0,0,0,.07-.93Z" transform="translate(-1 -1)"/><path class="cls-3" d="M65.5,48.92h1.77v1a2.84,2.84,0,0,1,2.26-1.15,2.43,2.43,0,0,1,1.21.28,2.34,2.34,0,0,1,.84.87,3.59,3.59,0,0,1,1-.87,2.57,2.57,0,0,1,1.19-.28,2.7,2.7,0,0,1,1.35.32A2.06,2.06,0,0,1,76,50a4.21,4.21,0,0,1,.19,1.5v4.64H74.25V52a3.13,3.13,0,0,0-.19-1.39.91.91,0,0,0-.82-.41,1.32,1.32,0,0,0-.76.24,1.44,1.44,0,0,0-.52.72,5.46,5.46,0,0,0-.15,1.5v3.49H69.89v-4a5.25,5.25,0,0,0-.11-1.36.88.88,0,0,0-.31-.46,1,1,0,0,0-.59-.15,1.4,1.4,0,0,0-.8.24,1.29,1.29,0,0,0-.51.69,5.23,5.23,0,0,0-.15,1.49v3.53H65.5Z" transform="translate(-1 -1)"/><path class="cls-3" d="M82.29,53.87l1.92.32A3.14,3.14,0,0,1,83,55.79a3.39,3.39,0,0,1-2,.56,3.25,3.25,0,0,1-2.8-1.24,4.15,4.15,0,0,1-.72-2.5,4,4,0,0,1,.94-2.83,3.12,3.12,0,0,1,2.39-1,3.18,3.18,0,0,1,2.55,1.07,4.67,4.67,0,0,1,.9,3.27H79.5A1.94,1.94,0,0,0,80,54.43a1.46,1.46,0,0,0,1.11.48,1.16,1.16,0,0,0,.76-.25A1.47,1.47,0,0,0,82.29,53.87Zm.11-1.94A1.8,1.8,0,0,0,82,50.66a1.3,1.3,0,0,0-1-.43,1.33,1.33,0,0,0-1,.46,1.8,1.8,0,0,0-.4,1.24Z" transform="translate(-1 -1)"/><path class="cls-3" d="M47.76,105.2v-10h7.43v1.69H49.78v2.22h5v1.69h-5v2.73h5.6v1.69Z" transform="translate(-1 -1)"/><path class="cls-3" d="M56.94,97.94h1.77v1A2.85,2.85,0,0,1,61,97.77a2.43,2.43,0,0,1,1.21.29,2.2,2.2,0,0,1,.84.87,3.42,3.42,0,0,1,1-.87,2.76,2.76,0,0,1,2.54,0,1.94,1.94,0,0,1,.83,1,4.19,4.19,0,0,1,.2,1.51v4.64H65.7v-4.15a3.14,3.14,0,0,0-.2-1.4.92.92,0,0,0-.82-.41,1.33,1.33,0,0,0-.76.25,1.29,1.29,0,0,0-.51.72,5,5,0,0,0-.16,1.5v3.49H61.33v-4a5.34,5.34,0,0,0-.11-1.37.86.86,0,0,0-.31-.46,1,1,0,0,0-.59-.15,1.42,1.42,0,0,0-.8.24,1.4,1.4,0,0,0-.51.69,5.26,5.26,0,0,0-.15,1.5v3.53H56.94Z" transform="translate(-1 -1)"/><path class="cls-3" d="M71,100.15l-1.75-.31a2.8,2.8,0,0,1,1-1.56,3.69,3.69,0,0,1,2.14-.51,4.63,4.63,0,0,1,1.91.31,1.91,1.91,0,0,1,.89.77,4,4,0,0,1,.25,1.72l0,2.24a7.92,7.92,0,0,0,.09,1.41,4.48,4.48,0,0,0,.35,1h-1.9c0-.13-.11-.32-.19-.57l-.06-.23a3.44,3.44,0,0,1-1.06.72,3,3,0,0,1-1.19.24,2.46,2.46,0,0,1-1.77-.61,2.14,2.14,0,0,1-.35-2.63,1.9,1.9,0,0,1,.82-.74,6.64,6.64,0,0,1,1.53-.45,10.36,10.36,0,0,0,1.87-.47v-.19a1,1,0,0,0-.28-.79,1.6,1.6,0,0,0-1-.24,1.41,1.41,0,0,0-.8.2A1.37,1.37,0,0,0,71,100.15Zm2.57,1.56c-.25.08-.64.18-1.17.29a3.68,3.68,0,0,0-1.05.34A.8.8,0,0,0,71,103a.92.92,0,0,0,.3.69,1,1,0,0,0,.76.3,1.69,1.69,0,0,0,1-.34,1.19,1.19,0,0,0,.46-.64,3.74,3.74,0,0,0,.08-.94Z" transform="translate(-1 -1)"/><path class="cls-3" d="M77.32,97V95.18h1.92V97Zm0,8.25V97.94h1.92v7.26Z" transform="translate(-1 -1)"/><path class="cls-3" d="M81.21,105.2v-10h1.92v10Z" transform="translate(-1 -1)"/><path class="cls-3" d="M47.76,153.21v-10H51a11.76,11.76,0,0,1,2.41.15,2.59,2.59,0,0,1,1.44,1,3.13,3.13,0,0,1,.58,2,3.32,3.32,0,0,1-.33,1.55,2.64,2.64,0,0,1-.85,1,3.07,3.07,0,0,1-1,.48,11.2,11.2,0,0,1-2.1.14H49.78v3.78Zm2-8.32v2.84h1.11a5,5,0,0,0,1.6-.16,1.24,1.24,0,0,0,.63-.49,1.35,1.35,0,0,0,.23-.78,1.32,1.32,0,0,0-.32-.9,1.41,1.41,0,0,0-.82-.44,9,9,0,0,0-1.45-.07Z" transform="translate(-1 -1)"/><path class="cls-3" d="M59,143.19v3.69a2.82,2.82,0,0,1,2.22-1.09,2.7,2.7,0,0,1,1.19.25,1.88,1.88,0,0,1,.81.63,2.27,2.27,0,0,1,.37.84,8.14,8.14,0,0,1,.1,1.45v4.25H61.76v-3.83a6,6,0,0,0-.1-1.45,1,1,0,0,0-.39-.49,1.27,1.27,0,0,0-.69-.18,1.65,1.65,0,0,0-.86.23,1.39,1.39,0,0,0-.55.7,4.14,4.14,0,0,0-.17,1.39v3.63H57.08v-10Z" transform="translate(-1 -1)"/><path class="cls-3" d="M65.19,149.48a4,4,0,0,1,.47-1.85A3.28,3.28,0,0,1,67,146.26a4,4,0,0,1,1.93-.47,3.63,3.63,0,0,1,2.7,1.07,3.69,3.69,0,0,1,1.05,2.7,3.72,3.72,0,0,1-1.06,2.73,3.57,3.57,0,0,1-2.68,1.09,4.21,4.21,0,0,1-1.9-.45,3.06,3.06,0,0,1-1.38-1.33A4.43,4.43,0,0,1,65.19,149.48Zm2,.1a2.42,2.42,0,0,0,.51,1.66,1.69,1.69,0,0,0,2.53,0,2.44,2.44,0,0,0,.51-1.67,2.39,2.39,0,0,0-.51-1.64,1.69,1.69,0,0,0-2.53,0A2.4,2.4,0,0,0,67.16,149.58Z" transform="translate(-1 -1)"/><path class="cls-3" d="M80.79,153.21H78.87v-3.7a5.88,5.88,0,0,0-.12-1.52,1.17,1.17,0,0,0-.4-.54,1.15,1.15,0,0,0-.67-.19,1.59,1.59,0,0,0-.9.27,1.45,1.45,0,0,0-.54.73,6.11,6.11,0,0,0-.15,1.67v3.28H74.17V146H76V147a3,3,0,0,1,3.55-1,2,2,0,0,1,.8.58,2.14,2.14,0,0,1,.37.81,6,6,0,0,1,.11,1.29Z" transform="translate(-1 -1)"/><path class="cls-3" d="M86.94,150.9l1.92.32a3.17,3.17,0,0,1-1.17,1.61,3.48,3.48,0,0,1-2,.55,3.26,3.26,0,0,1-2.81-1.24,4.2,4.2,0,0,1-.71-2.5,4,4,0,0,1,.94-2.83,3.11,3.11,0,0,1,2.39-1,3.21,3.21,0,0,1,2.55,1.07,4.7,4.7,0,0,1,.9,3.28H84.15a1.91,1.91,0,0,0,.46,1.33,1.49,1.49,0,0,0,1.11.47,1.21,1.21,0,0,0,.76-.24A1.54,1.54,0,0,0,86.94,150.9Zm.11-1.94a1.87,1.87,0,0,0-.43-1.27,1.32,1.32,0,0,0-1-.43,1.33,1.33,0,0,0-1,.46,1.8,1.8,0,0,0-.4,1.24Z" transform="translate(-1 -1)"/><rect class="cls-4" x="89.43" y="191" width="73.41" height="26.25" rx="5" ry="5"/><path class="cls-3" d="M109.46,205.42a6.32,6.32,0,0,1,.46-2.57,4.68,4.68,0,0,1,.93-1.37,3.78,3.78,0,0,1,1.29-.9,5.44,5.44,0,0,1,2.16-.4,4.74,4.74,0,0,1,3.55,1.37,6.14,6.14,0,0,1,0,7.62,5.27,5.27,0,0,1-7.08,0A5.18,5.18,0,0,1,109.46,205.42Zm2.08-.06a3.79,3.79,0,0,0,.79,2.58,2.57,2.57,0,0,0,2,.87,2.54,2.54,0,0,0,2-.87,4.74,4.74,0,0,0,0-5.18,2.53,2.53,0,0,0-2-.85,2.58,2.58,0,0,0-2,.86A3.78,3.78,0,0,0,111.54,205.36Z" transform="translate(-1 -1)"/><path class="cls-3" d="M120.69,203.11h1.79v1.07a2.68,2.68,0,0,1,.94-.89,2.6,2.6,0,0,1,1.32-.34,2.77,2.77,0,0,1,2.15,1,4,4,0,0,1,.88,2.76,4.11,4.11,0,0,1-.89,2.83,2.77,2.77,0,0,1-2.15,1,2.42,2.42,0,0,1-1.09-.24,3.76,3.76,0,0,1-1-.82v3.65h-1.92Zm1.9,3.51a2.76,2.76,0,0,0,.49,1.81,1.46,1.46,0,0,0,1.18.58,1.4,1.4,0,0,0,1.11-.53,2.75,2.75,0,0,0,.45-1.76,2.65,2.65,0,0,0-.46-1.7,1.43,1.43,0,0,0-1.14-.55,1.48,1.48,0,0,0-1.17.54A2.42,2.42,0,0,0,122.59,206.62Z" transform="translate(-1 -1)"/><path class="cls-3" d="M133.5,208.06l1.91.32a3.1,3.1,0,0,1-1.16,1.61,3.48,3.48,0,0,1-2,.55,3.27,3.27,0,0,1-2.81-1.24,4.13,4.13,0,0,1-.71-2.5,4,4,0,0,1,.94-2.83,3.1,3.1,0,0,1,2.38-1,3.23,3.23,0,0,1,2.56,1.07,4.73,4.73,0,0,1,.9,3.28H130.7a2,2,0,0,0,.47,1.33,1.47,1.47,0,0,0,1.11.47,1.21,1.21,0,0,0,.76-.24A1.54,1.54,0,0,0,133.5,208.06Zm.11-1.94a1.85,1.85,0,0,0-.43-1.27,1.32,1.32,0,0,0-1-.43,1.33,1.33,0,0,0-1,.46,1.75,1.75,0,0,0-.4,1.24Z" transform="translate(-1 -1)"/><path class="cls-3" d="M143.69,210.37h-1.93v-3.7a5.82,5.82,0,0,0-.12-1.52,1,1,0,0,0-.4-.54,1.12,1.12,0,0,0-.66-.19,1.54,1.54,0,0,0-.9.27,1.36,1.36,0,0,0-.54.73,6.07,6.07,0,0,0-.15,1.66v3.29h-1.92v-7.26h1.78v1.07a3,3,0,0,1,3.56-1,2,2,0,0,1,.79.58,2.16,2.16,0,0,1,.38.81,6,6,0,0,1,.11,1.29Z" transform="translate(-1 -1)"/></svg>