<svg id="Layer_1" data-name="Layer 1" xmlns="http://www.w3.org/2000/svg" viewBox="0 0 251 251"><defs><style>.cls-1{fill:#f2f2f2;stroke:#b3b3b3;}.cls-1,.cls-2{stroke-miterlimit:10;}.cls-2{fill:none;stroke:#333;}.cls-3{fill:#e0bb05;}.cls-4{fill:#333;}</style></defs><title>contactinfo</title><rect class="cls-1" x="0.5" y="0.5" width="250" height="250" rx="13.7" ry="13.7"/><rect class="cls-2" x="32.5" y="35.5" width="185" height="182" rx="13.73" ry="13.73"/><rect class="cls-3" x="106" y="81.41" width="93" height="3.73" rx="1.87" ry="1.87" transform="translate(304 165.56) rotate(180)"/><rect class="cls-3" x="106" y="89.41" width="75" height="3.73" rx="1.87" ry="1.87" transform="translate(286 181.56) rotate(180)"/><rect class="cls-4" x="106" y="170.41" width="83" height="3.73" rx="1.87" ry="1.87" transform="translate(294 343.56) rotate(180)"/><rect class="cls-4" x="106" y="178.41" width="75" height="3.73" rx="1.87" ry="1.87" transform="translate(286 359.56) rotate(180)"/><rect class="cls-4" x="106" y="133.41" width="84" height="3.73" rx="1.87" ry="1.87" transform="translate(295 269.56) rotate(-180)"/><rect class="cls-4" x="106" y="125.41" width="75" height="3.73" rx="1.87" ry="1.87" transform="translate(286 253.56) rotate(-180)"/><path class="cls-4" d="M84.4,184.31a1.36,1.36,0,0,1-.41,1.18l-3.9,3.87a2.45,2.45,0,0,1-.69.5,3.05,3.05,0,0,1-.83.26h-.18l-.38,0A13.09,13.09,0,0,1,76.2,190a13.92,13.92,0,0,1-3-.94,26.58,26.58,0,0,1-4.09-2.24,30.92,30.92,0,0,1-4.87-4.11,32.24,32.24,0,0,1-3.4-3.87,27.4,27.4,0,0,1-2.17-3.42,17.93,17.93,0,0,1-1.23-2.84,15.12,15.12,0,0,1-.56-2.2,7.16,7.16,0,0,1-.12-1.46c0-.35,0-.54,0-.58a2.74,2.74,0,0,1,.27-.84,2.25,2.25,0,0,1,.49-.69l3.91-3.9a1.28,1.28,0,0,1,.93-.41,1.09,1.09,0,0,1,.68.22,2.35,2.35,0,0,1,.5.54l3.14,6a1.43,1.43,0,0,1,.14,1,1.8,1.8,0,0,1-.5.94l-1.43,1.44a.48.48,0,0,0-.11.19,1.15,1.15,0,0,0,0,.22,5.2,5.2,0,0,0,.53,1.41,11.93,11.93,0,0,0,1.08,1.71,18.85,18.85,0,0,0,2.09,2.34,19.71,19.71,0,0,0,2.34,2.09,13.23,13.23,0,0,0,1.72,1.1,4.51,4.51,0,0,0,1,.43l.37.07a.63.63,0,0,0,.19,0,.48.48,0,0,0,.19-.11l1.67-1.7a1.84,1.84,0,0,1,1.24-.47A1.52,1.52,0,0,1,78,180h0l5.66,3.34a1.5,1.5,0,0,1,.73,1Zm0,0" transform="translate(-1 -1)"/><path class="cls-4" d="M56.18,126.13l4,2.79,5.14,3.59.84.6c.42.31.78.55,1.06.74s.62.41,1,.64a5.16,5.16,0,0,0,1.13.53,3,3,0,0,0,1,.18h0a3,3,0,0,0,1-.18,5.16,5.16,0,0,0,1.13-.53c.4-.23.74-.45,1-.64s.64-.43,1.06-.74l.84-.6,9.19-6.39a9.17,9.17,0,0,0,2.4-2.41,5.19,5.19,0,0,0,1-3,3,3,0,0,0-.93-2.22,3.07,3.07,0,0,0-2.21-.92H55.94a2.8,2.8,0,0,0-2.32,1,3.93,3.93,0,0,0-.82,2.56,4.62,4.62,0,0,0,1.08,2.68,9.85,9.85,0,0,0,2.3,2.27Z" transform="translate(-1 -1)"/><path class="cls-4" d="M86,128.23q-6.45,4.35-9.79,6.77c-.74.55-1.35,1-1.81,1.29a11.37,11.37,0,0,1-1.86.94,5.65,5.65,0,0,1-2.16.48h0a5.65,5.65,0,0,1-2.16-.48,11.37,11.37,0,0,1-1.86-.94c-.46-.31-1.07-.74-1.81-1.29q-2.65-1.94-9.77-6.77a10.88,10.88,0,0,1-2-1.71v15.59a3.16,3.16,0,0,0,3.14,3.15H84.86A3.16,3.16,0,0,0,88,142.11V126.52a10.84,10.84,0,0,1-2,1.71Z" transform="translate(-1 -1)"/><path class="cls-3" d="M70.15,66.59A12.34,12.34,0,0,0,57.82,78.92c0,8.43,11,20.82,11.5,21.34a1.11,1.11,0,0,0,1.65,0c.47-.52,11.51-12.91,11.51-21.34A12.34,12.34,0,0,0,70.15,66.59Zm0,18.53a6.21,6.21,0,1,1,6.2-6.2A6.21,6.21,0,0,1,70.15,85.12Z" transform="translate(-1 -1)"/></svg>