<svg id="Layer_1" data-name="Layer 1" xmlns="http://www.w3.org/2000/svg" viewBox="0 0 251 251"><defs><style>.cls-1{fill:#f2f2f2;stroke:#b3b3b3;stroke-miterlimit:10;}.cls-2{fill:#333;}.cls-3{fill:#e0bb05;}</style></defs><title>copyright</title><rect class="cls-1" x="0.5" y="0.5" width="250" height="250" rx="13.7" ry="13.7"/><path class="cls-2" d="M58.44,125.64,62.83,127a8.17,8.17,0,0,1-1.39,3.08,6,6,0,0,1-2.36,1.87,8.85,8.85,0,0,1-3.59.63,10.39,10.39,0,0,1-4.31-.77,6.8,6.8,0,0,1-2.89-2.7,9.17,9.17,0,0,1-1.22-5A8.4,8.4,0,0,1,49.21,118a8.17,8.17,0,0,1,6-2.15A8.25,8.25,0,0,1,60.07,117a7.27,7.27,0,0,1,2.6,3.8l-4.42,1a3.66,3.66,0,0,0-.48-1.09,2.9,2.9,0,0,0-1-.88,3,3,0,0,0-1.36-.31,3,3,0,0,0-2.61,1.37,5.89,5.89,0,0,0-.68,3.19c0,1.8.27,3,.82,3.69a3.22,3.22,0,0,0,4.47.19A4.9,4.9,0,0,0,58.44,125.64Z" transform="translate(-1 -1)"/><path class="cls-2" d="M64.41,126.44A5.87,5.87,0,0,1,66.22,122a6.78,6.78,0,0,1,4.9-1.74,6.72,6.72,0,0,1,5.32,2,6.39,6.39,0,0,1-.35,8.5,6.85,6.85,0,0,1-5,1.73,7,7,0,0,1-4.58-1.44A5.76,5.76,0,0,1,64.41,126.44Zm4.51,0a3.57,3.57,0,0,0,.63,2.32,2.09,2.09,0,0,0,3.2,0,3.73,3.73,0,0,0,.62-2.38,3.46,3.46,0,0,0-.63-2.27,2,2,0,0,0-1.56-.75,2.06,2.06,0,0,0-1.62.76A3.5,3.5,0,0,0,68.92,126.43Z" transform="translate(-1 -1)"/><path class="cls-2" d="M80.08,136.74v-16.2h4.21v1.73a5.53,5.53,0,0,1,1.6-1.48,4.56,4.56,0,0,1,2.18-.52,4.21,4.21,0,0,1,3.64,1.8A7.45,7.45,0,0,1,93,126.52a6.37,6.37,0,0,1-1.4,4.47A4.59,4.59,0,0,1,88,132.54a4.82,4.82,0,0,1-1.89-.36,4.37,4.37,0,0,1-1.53-1.05v5.61Zm4.51-10.3a3.09,3.09,0,0,0,.58,2.06,1.89,1.89,0,0,0,1.48.68,1.65,1.65,0,0,0,1.32-.65,3.51,3.51,0,0,0,.53-2.19,3.27,3.27,0,0,0-.56-2.1,1.68,1.68,0,0,0-1.34-.67,1.81,1.81,0,0,0-1.44.68A3.38,3.38,0,0,0,84.59,126.44Z" transform="translate(-1 -1)"/><path class="cls-2" d="M93.47,120.54h4.75l2.42,7.81,2.24-7.81h4.44l-4.66,12.53A7.65,7.65,0,0,1,101,136,5.16,5.16,0,0,1,97.47,137a24.93,24.93,0,0,1-3-.26l-.35-3.14a7,7,0,0,0,2.16.31,2.08,2.08,0,0,0,1.29-.37,2.63,2.63,0,0,0,.83-1.3Z" transform="translate(-1 -1)"/><path class="cls-2" d="M108.63,120.54h4.21v1.92a4.65,4.65,0,0,1,1.25-1.72,2.7,2.7,0,0,1,1.6-.47,4.81,4.81,0,0,1,2.18.62l-1.39,3.2a3.54,3.54,0,0,0-1.26-.33,1.56,1.56,0,0,0-1.37.73,7.37,7.37,0,0,0-.7,3.85v3.93h-4.52Z" transform="translate(-1 -1)"/><path class="cls-2" d="M118.8,116.07h4.49v3.06H118.8Zm0,4.47h4.49v11.73H118.8Z" transform="translate(-1 -1)"/><path class="cls-2" d="M134.33,120.54h4.21v11.6a4.74,4.74,0,0,1-.47,2.1,4.35,4.35,0,0,1-1.25,1.62,4.92,4.92,0,0,1-2,.9,12.62,12.62,0,0,1-2.75.27c-2.36,0-4-.35-4.86-1.06a3.44,3.44,0,0,1-1.32-2.84c0-.14,0-.34,0-.59l4.36.49a1.38,1.38,0,0,0,.51.84,2.14,2.14,0,0,0,1.25.35,1.9,1.9,0,0,0,1.45-.52,2.68,2.68,0,0,0,.48-1.82v-1.77a4.58,4.58,0,0,1-1.32,1.13,4.72,4.72,0,0,1-2.25.56,4.46,4.46,0,0,1-3.8-2.06,6.61,6.61,0,0,1-1-3.86,6,6,0,0,1,1.33-4.17,4.49,4.49,0,0,1,3.47-1.44,4.23,4.23,0,0,1,3.92,2Zm-4.23,5.69a2.79,2.79,0,0,0,.54,1.88,1.94,1.94,0,0,0,2.84,0,2.84,2.84,0,0,0,.56-1.92,2.87,2.87,0,0,0-.59-2,1.89,1.89,0,0,0-1.46-.68,1.73,1.73,0,0,0-1.38.62A3.32,3.32,0,0,0,130.1,126.23Z" transform="translate(-1 -1)"/><path class="cls-2" d="M141.26,116.07h4.5v6a6.11,6.11,0,0,1,1.82-1.36,5.24,5.24,0,0,1,2.14-.41,3.75,3.75,0,0,1,2.89,1.12,4.78,4.78,0,0,1,1.06,3.42v7.46h-4.52v-6.45a2.38,2.38,0,0,0-.41-1.57,1.46,1.46,0,0,0-1.15-.45,1.62,1.62,0,0,0-1.32.61,3.63,3.63,0,0,0-.51,2.23v5.63h-4.5Z" transform="translate(-1 -1)"/><path class="cls-2" d="M161.78,116.07v4.47h2.48v3.29h-2.48V128a2.32,2.32,0,0,0,.14,1,.83.83,0,0,0,.78.37,4.94,4.94,0,0,0,1.39-.28l.33,3.1a14.84,14.84,0,0,1-3.11.37,5.54,5.54,0,0,1-2.48-.43,2.7,2.7,0,0,1-1.18-1.31,7.79,7.79,0,0,1-.38-2.84v-4.13h-1.66v-3.29h1.66v-2.16Z" transform="translate(-1 -1)"/><path class="cls-3" d="M209,126.05a14.08,14.08,0,0,1-.28,3.23,15.78,15.78,0,0,1-.8,2.78,15.57,15.57,0,0,1-1.65,3.16A13.45,13.45,0,0,1,204.9,137c-.41.44-.81.89-1.24,1.3a18.09,18.09,0,0,1-3,2.3,15.89,15.89,0,0,1-3.34,1.5,16.73,16.73,0,0,1-4.09.73,18.1,18.1,0,0,1-4.53-.3,14.64,14.64,0,0,1-3.49-1.11,18,18,0,0,1-2.4-1.32,16,16,0,0,1-1.72-1.35c-.35-.31-.71-.62-1-1a19,19,0,0,1-1.88-2.23,15.83,15.83,0,0,1-2.25-4.57,15.52,15.52,0,0,1-.69-4.11,20.13,20.13,0,0,1,.18-3.72,16.25,16.25,0,0,1,.93-3.41,16.64,16.64,0,0,1,1.6-3,15.92,15.92,0,0,1,1.06-1.39c.32-.37.64-.75,1-1.1a22.19,22.19,0,0,1,2.62-2.21,16.33,16.33,0,0,1,3-1.66,15,15,0,0,1,2.86-.88,18.21,18.21,0,0,1,2.84-.35,16.93,16.93,0,0,1,4.15.29,14.77,14.77,0,0,1,3.76,1.22,15.19,15.19,0,0,1,2.28,1.32,13.1,13.1,0,0,1,1.72,1.35c.36.35.75.67,1.1,1a17.67,17.67,0,0,1,1.74,2.12,15.42,15.42,0,0,1,1.34,2.24,16,16,0,0,1,1.39,4.44A15.44,15.44,0,0,1,209,126.05Zm-20.77-12.82a11.3,11.3,0,0,0-2.48,1.06,14,14,0,0,0-3,2.29,13.57,13.57,0,0,0-1,1.06,13.28,13.28,0,0,0-1.62,2.51,12,12,0,0,0-1.21,4.22,14.66,14.66,0,0,0,0,3.31,12.6,12.6,0,0,0,1.54,4.73,13.68,13.68,0,0,0,2.17,2.85,12.3,12.3,0,0,0,1.19,1.09,14,14,0,0,0,2.5,1.61,10.73,10.73,0,0,0,1.85.72,12.16,12.16,0,0,0,2,.43,14.34,14.34,0,0,0,4.53-.12,12.29,12.29,0,0,0,3.85-1.45,13.4,13.4,0,0,0,2-1.42,15.26,15.26,0,0,0,1.46-1.44,13,13,0,0,0,1.17-1.51,11.84,11.84,0,0,0,1.05-1.91,12.09,12.09,0,0,0,.86-2.8,13.84,13.84,0,0,0,.21-3.15,13.18,13.18,0,0,0-.22-2,12.83,12.83,0,0,0-2.79-5.81,13.77,13.77,0,0,0-1.56-1.59,16.46,16.46,0,0,0-1.56-1.19,12,12,0,0,0-3-1.42,12.74,12.74,0,0,0-4.21-.62A12.39,12.39,0,0,0,188.22,113.23ZM196.66,129c-.12,0-.14.06-.16.14a5.92,5.92,0,0,1-.27.81,3.74,3.74,0,0,1-1.9,2,5.57,5.57,0,0,1-2.46.4,4.93,4.93,0,0,1-2.09-.56,4.87,4.87,0,0,1-1.69-1.56,6.22,6.22,0,0,1-1-2.66,10.2,10.2,0,0,1,0-3.12,5.94,5.94,0,0,1,1.84-3.72,4.67,4.67,0,0,1,1.58-.89,6,6,0,0,1,2.56-.18,3.49,3.49,0,0,1,2.75,1.65,4.23,4.23,0,0,1,.49,1.25c0,.09.06.12.15.12h3.59c.14,0,.17,0,.15-.17-.07-.33-.14-.67-.23-1a6.36,6.36,0,0,0-2.72-3.86,8.4,8.4,0,0,0-2.85-1.14,11.43,11.43,0,0,0-3.55-.11,8.73,8.73,0,0,0-3.83,1.29,8.12,8.12,0,0,0-2.31,2.25,8.9,8.9,0,0,0-1.2,2.53,11.05,11.05,0,0,0-.45,2.67,13.22,13.22,0,0,0,0,2,10.91,10.91,0,0,0,1.1,4.08,8.8,8.8,0,0,0,1.3,1.87A8.11,8.11,0,0,0,188,135a9.28,9.28,0,0,0,3.45.86,10,10,0,0,0,1.81,0,9.36,9.36,0,0,0,2-.39,6.85,6.85,0,0,0,3.11-2.05,8.2,8.2,0,0,0,1.05-1.56,12.39,12.39,0,0,0,1-2.83Z" transform="translate(-1 -1)"/></svg>