<svg id="Layer_1" data-name="Layer 1" xmlns="http://www.w3.org/2000/svg" viewBox="0 0 251 251"><defs><style>.cls-1{fill:#f2f2f2;stroke:#b3b3b3;stroke-miterlimit:10;}.cls-2{fill:#333;}.cls-3{fill:#e0bb05;}</style></defs><title>donate</title><rect class="cls-1" x="0.5" y="0.5" width="250" height="250" rx="13.7" ry="13.7"/><path class="cls-2" d="M192,157.67H62a27.08,27.08,0,0,1-27-27v-7.34a27.08,27.08,0,0,1,27-27H192a27.08,27.08,0,0,1,27,27v7.34A27.08,27.08,0,0,1,192,157.67Zm-4.31-58.78A28.11,28.11,0,1,0,215.81,127,28.11,28.11,0,0,0,187.69,98.89Z" transform="translate(-1 -1)"/><path class="cls-3" d="M70.72,119.91h5.06a10.11,10.11,0,0,1,2.61.26,4.61,4.61,0,0,1,2.07,1.26,6,6,0,0,1,1.31,2.23,10,10,0,0,1,.45,3.24,9,9,0,0,1-.42,2.92,6,6,0,0,1-1.47,2.42,4.82,4.82,0,0,1-2,1.1,8.45,8.45,0,0,1-2.45.29H70.72Zm2.77,2.32v9.09h2.07a7.21,7.21,0,0,0,1.67-.14,2.54,2.54,0,0,0,1.12-.57,2.86,2.86,0,0,0,.73-1.32,9.19,9.19,0,0,0,.28-2.51,8.52,8.52,0,0,0-.28-2.45,3.1,3.1,0,0,0-.79-1.32,2.6,2.6,0,0,0-1.28-.65,12.44,12.44,0,0,0-2.28-.13Z" transform="translate(-1 -1)"/><path class="cls-3" d="M83.94,128.52a5.39,5.39,0,0,1,.65-2.54,4.4,4.4,0,0,1,1.83-1.87,5.43,5.43,0,0,1,2.64-.65,5,5,0,0,1,3.7,1.47,5.07,5.07,0,0,1,1.44,3.7,5.13,5.13,0,0,1-1.45,3.74,4.94,4.94,0,0,1-3.67,1.48,5.7,5.7,0,0,1-2.61-.62,4.22,4.22,0,0,1-1.88-1.81A6,6,0,0,1,83.94,128.52Zm2.7.14a3.27,3.27,0,0,0,.7,2.26,2.29,2.29,0,0,0,3.46,0,4,4,0,0,0,0-4.53,2.31,2.31,0,0,0-3.46,0A3.3,3.3,0,0,0,86.64,128.66Z" transform="translate(-1 -1)"/><path class="cls-3" d="M105.3,133.63h-2.63v-5.07a8,8,0,0,0-.17-2.09,1.4,1.4,0,0,0-.55-.73,1.5,1.5,0,0,0-.91-.26,2.09,2.09,0,0,0-1.22.37,1.89,1.89,0,0,0-.75,1,8.83,8.83,0,0,0-.2,2.29v4.5H96.24v-9.94h2.44v1.46a4,4,0,0,1,3.28-1.69,3.93,3.93,0,0,1,1.59.32,2.65,2.65,0,0,1,1.09.8,2.71,2.71,0,0,1,.51,1.1,7.94,7.94,0,0,1,.15,1.77Z" transform="translate(-1 -1)"/><path class="cls-3" d="M109.93,126.72l-2.38-.43a3.68,3.68,0,0,1,1.38-2.13,5,5,0,0,1,2.92-.7,6.24,6.24,0,0,1,2.62.42,2.61,2.61,0,0,1,1.21,1.06,5.33,5.33,0,0,1,.35,2.35l0,3.07a11.16,11.16,0,0,0,.12,1.93,6,6,0,0,0,.47,1.34H114c-.07-.18-.15-.44-.25-.78a2.83,2.83,0,0,0-.09-.31,4.55,4.55,0,0,1-1.44,1,4.14,4.14,0,0,1-1.64.33,3.4,3.4,0,0,1-2.42-.83,2.95,2.95,0,0,1-.48-3.61,2.56,2.56,0,0,1,1.12-1,8.85,8.85,0,0,1,2.1-.61,13.93,13.93,0,0,0,2.55-.65v-.26a1.34,1.34,0,0,0-.37-1.08,2.22,2.22,0,0,0-1.42-.32,1.91,1.91,0,0,0-1.09.27A2,2,0,0,0,109.93,126.72Zm3.52,2.13a15.19,15.19,0,0,1-1.6.41,4.57,4.57,0,0,0-1.43.46,1.1,1.1,0,0,0-.52.92,1.29,1.29,0,0,0,.42,1,1.45,1.45,0,0,0,1,.4,2.29,2.29,0,0,0,1.36-.47,1.67,1.67,0,0,0,.63-.87,5.12,5.12,0,0,0,.1-1.28Z" transform="translate(-1 -1)"/><path class="cls-3" d="M123.18,123.69v2.09h-1.79v4a9.29,9.29,0,0,0,0,1.42.58.58,0,0,0,.23.33.73.73,0,0,0,.45.13,3.31,3.31,0,0,0,1-.25l.23,2a5.25,5.25,0,0,1-2.08.39,3.28,3.28,0,0,1-1.28-.24,1.91,1.91,0,0,1-.84-.61,2.49,2.49,0,0,1-.37-1,13.87,13.87,0,0,1-.08-1.85v-4.34h-1.21v-2.09h1.21v-2l2.64-1.53v3.51Z" transform="translate(-1 -1)"/><path class="cls-3" d="M130.76,130.46l2.63.44a4.31,4.31,0,0,1-1.6,2.2,4.72,4.72,0,0,1-2.73.75,4.45,4.45,0,0,1-3.84-1.69,5.75,5.75,0,0,1-1-3.43,5.52,5.52,0,0,1,1.29-3.87,4.26,4.26,0,0,1,3.27-1.4,4.41,4.41,0,0,1,3.5,1.47,6.55,6.55,0,0,1,1.23,4.49h-6.59a2.7,2.7,0,0,0,.63,1.82,2,2,0,0,0,1.52.65,1.64,1.64,0,0,0,1-.34A2.05,2.05,0,0,0,130.76,130.46Zm.15-2.65a2.48,2.48,0,0,0-.59-1.74,1.77,1.77,0,0,0-1.36-.59,1.83,1.83,0,0,0-1.42.62,2.45,2.45,0,0,0-.56,1.71Z" transform="translate(-1 -1)"/><path class="cls-2" d="M197.8,112.24a17.89,17.89,0,1,0,.11,29.45l-4.41-4.26a11.5,11.5,0,1,1-.33-20.39Z" transform="translate(-1 -1)"/><path class="cls-2" d="M202.17,116.49a17.92,17.92,0,0,1,.08,20.92L198,133a11.53,11.53,0,0,0-.26-11.81Z" transform="translate(-1 -1)"/></svg>