<svg id="Layer_1" data-name="Layer 1" xmlns="http://www.w3.org/2000/svg" viewBox="0 0 419.75 379.79"><defs><style>.cls-1{fill:#f2f2f2;stroke:#ccc;stroke-miterlimit:10;}.cls-2{fill:gray;}.cls-3{fill:#e0e0e0;}.cls-4{fill:#ccc;}</style></defs><title>features</title><rect class="cls-1" x="0.5" y="0.5" width="418.75" height="378.79" rx="28.81" ry="28.81"/><rect class="cls-2" x="46.87" y="55.18" width="81.32" height="81.32" rx="40.66" ry="40.66"/><rect class="cls-3" x="48.48" y="173.22" width="78.08" height="12.19" rx="5.24" ry="5.24"/><rect class="cls-3" x="48.59" y="195.04" width="77.88" height="12.19" rx="6.09" ry="6.09"/><rect class="cls-3" x="48.48" y="216.87" width="78.08" height="12.19" rx="5.24" ry="5.24"/><rect class="cls-3" x="48.59" y="238.7" width="77.88" height="12.19" rx="6.09" ry="6.09"/><rect class="cls-4" x="48.59" y="282.35" width="77.88" height="24.76" rx="12.38" ry="12.38"/><rect class="cls-2" x="169.21" y="55.18" width="81.32" height="81.32" rx="40.66" ry="40.66"/><rect class="cls-3" x="170.83" y="173.22" width="78.08" height="12.19" rx="5.24" ry="5.24"/><rect class="cls-3" x="170.94" y="195.04" width="77.88" height="12.19" rx="6.09" ry="6.09"/><rect class="cls-3" x="170.83" y="216.87" width="78.08" height="12.19" rx="5.24" ry="5.24"/><rect class="cls-3" x="170.94" y="238.7" width="77.88" height="12.19" rx="6.09" ry="6.09"/><rect class="cls-4" x="170.94" y="282.35" width="77.88" height="24.76" rx="12.38" ry="12.38"/><rect class="cls-2" x="295.03" y="57.01" width="81.32" height="81.32" rx="40.66" ry="40.66"/><rect class="cls-3" x="296.65" y="175.05" width="78.08" height="12.19" rx="5.24" ry="5.24"/><rect class="cls-3" x="296.76" y="196.88" width="77.88" height="12.19" rx="6.09" ry="6.09"/><rect class="cls-3" x="296.65" y="218.7" width="78.08" height="12.19" rx="5.24" ry="5.24"/><rect class="cls-3" x="296.76" y="240.53" width="77.88" height="12.19" rx="6.09" ry="6.09"/><rect class="cls-4" x="296.76" y="284.18" width="77.88" height="24.76" rx="12.38" ry="12.38"/></svg>