<svg id="Layer_1" data-name="Layer 1" xmlns="http://www.w3.org/2000/svg" viewBox="0 0 251 251"><defs><style>.cls-1,.cls-4{fill:#f2f2f2;}.cls-1{stroke:#b3b3b3;}.cls-1,.cls-3,.cls-4{stroke-miterlimit:10;}.cls-2{fill:#e0bb05;}.cls-3{fill:none;}.cls-3,.cls-4{stroke:#333;stroke-width:1.5px;}.cls-5{fill:#333;}</style></defs><title>footer</title><rect class="cls-1" x="0.5" y="0.5" width="250" height="250" rx="13.7" ry="13.7"/><rect class="cls-2" x="33.71" y="165.81" width="185.29" height="51.44" rx="4.32" ry="4.32"/><rect class="cls-3" x="33.71" y="34" width="185.29" height="23.94" rx="4.32" ry="4.32"/><rect class="cls-4" x="33.71" y="62.86" width="185.29" height="98.21" rx="4.63" ry="4.63"/><rect class="cls-5" x="55" y="182.41" width="134" height="3.73" rx="1.87" ry="1.87" transform="translate(243 367.56) rotate(180)"/><rect class="cls-5" x="55" y="198.41" width="142" height="3.73" rx="1.87" ry="1.87" transform="translate(251 399.56) rotate(180)"/><rect class="cls-5" x="55" y="190.41" width="121" height="3.73" rx="1.87" ry="1.87" transform="translate(230 383.56) rotate(180)"/><rect class="cls-5" x="189.77" y="40.59" width="17.49" height="1.14" rx="0.53" ry="0.53"/><rect class="cls-5" x="189.77" y="45.16" width="17.49" height="1.14" rx="0.53" ry="0.53"/><rect class="cls-5" x="189.77" y="49.72" width="17.49" height="1.14" rx="0.53" ry="0.53"/></svg>