<svg id="Layer_1" data-name="Layer 1" xmlns="http://www.w3.org/2000/svg" viewBox="0 0 374.91 374.91"><defs><style>.cls-1{fill:#ccc;stroke:gray;stroke-miterlimit:10;}.cls-2{fill:gray;}</style></defs><title>gif</title><circle class="cls-1" cx="187.46" cy="187.46" r="186.96"/><path class="cls-2" d="M194.52,239.42a113,113,0,0,1-37.26,6.66c-18.35,0-33.47-4.68-45.35-16C101.47,220,95,203.79,95,184.89c.18-36.17,25-62.63,65.69-62.63,14,0,25,3.06,30.24,5.58l-3.78,12.78c-6.48-2.88-14.58-5.22-26.82-5.22-29.51,0-48.77,18.36-48.77,48.77,0,30.78,18.54,49,46.79,49,10.26,0,17.28-1.44,20.88-3.24V193.71H154.56v-12.6h40Z" transform="translate(-24.52 -4.54)"/><path class="cls-2" d="M234.12,123.52v121.3H218.46V123.52Z" transform="translate(-24.52 -4.54)"/><path class="cls-2" d="M261.47,123.52h65.34v13.14H277.13V177H323v13h-45.9v54.89H261.47Z" transform="translate(-24.52 -4.54)"/></svg>