<svg id="Layer_1" data-name="Layer 1" xmlns="http://www.w3.org/2000/svg" viewBox="0 0 418.75 101.96"><defs><style>.cls-1{fill:#e0e0e0;}.cls-2{fill:#ccc;}.cls-3{fill:gray;}.cls-4{fill:#fff;}</style></defs><title>github</title><rect class="cls-1" x="0.5" y="0.5" width="417.75" height="100.96" rx="25.71" ry="25.71"/><path class="cls-2" d="M395.15,142.8A25.23,25.23,0,0,1,420.35,168v49.54a25.23,25.23,0,0,1-25.2,25.21H28.81A25.24,25.24,0,0,1,3.6,217.55V168A25.24,25.24,0,0,1,28.81,142.8H395.15m0-1H28.81A26.22,26.22,0,0,0,2.6,168v49.54a26.21,26.21,0,0,0,26.21,26.21H395.15a26.2,26.2,0,0,0,26.2-26.21V168a26.21,26.21,0,0,0-26.2-26.21Z" transform="translate(-2.6 -141.8)"/><rect class="cls-3" x="42.7" y="14.3" width="73.36" height="73.36" rx="11" ry="11"/><path class="cls-4" d="M95.13,219.69c2,0,1.72,2.44,1.72,2.44H70.77s-.29-2.44,1.72-2.44,2.29-.86,2.29-1.71l-.14-7.17c-10.18,2.29-12.33-4-12.33-4-1.72-4.3-4-5.3-4-5.3-3.44-2.3.14-2.3.14-2.3,3.73.29,5.74,3.73,5.74,3.73,3.15,5.59,8.45,4,10.6,3.15a8.24,8.24,0,0,1,2.29-5c-8.17-.86-16.62-4-16.62-18.06a14.45,14.45,0,0,1,3.73-9.88c-.43-.86-1.58-4.59.43-9.61,0,0,3-1,10,3.73a33.24,33.24,0,0,1,18.34,0c7-4.73,10-3.73,10-3.73,2,5,.86,8.75.43,9.61a14.49,14.49,0,0,1,3.72,9.88c0,14-8.59,17.2-16.76,18.06,1.43,1.14,2.58,3.44,2.58,6.87l-.15,10C92.83,218.83,93.26,219.69,95.13,219.69Z" transform="translate(-2.6 -141.8)"/><path class="cls-3" d="M184.52,209.93a40.89,40.89,0,0,1-13.47,2.4c-6.63,0-12.1-1.69-16.39-5.79-3.78-3.64-6.12-9.5-6.12-16.33.07-13.07,9.05-22.64,23.75-22.64a27.1,27.1,0,0,1,10.93,2l-1.37,4.62a22.72,22.72,0,0,0-9.69-1.89c-10.67,0-17.63,6.64-17.63,17.63s6.7,17.7,16.91,17.7c3.71,0,6.25-.52,7.55-1.17V193.4h-8.91v-4.55h14.44Z" transform="translate(-2.6 -141.8)"/><path class="cls-3" d="M199.36,171.54a3.55,3.55,0,0,1-7.1,0,3.49,3.49,0,0,1,3.58-3.58A3.4,3.4,0,0,1,199.36,171.54ZM193,211.88V180.39h5.73v31.49Z" transform="translate(-2.6 -141.8)"/><path class="cls-3" d="M215.1,171.34v9h8.2v4.36h-8.2v17c0,3.9,1.11,6.12,4.29,6.12a12.93,12.93,0,0,0,3.32-.39l.26,4.29a13.87,13.87,0,0,1-5.07.78,7.93,7.93,0,0,1-6.18-2.41c-1.63-1.69-2.22-4.49-2.22-8.2V184.75h-4.87v-4.36h4.87v-7.55Z" transform="translate(-2.6 -141.8)"/><path class="cls-3" d="M229.74,165.68h5.72v19.65h.13a10.73,10.73,0,0,1,4.1-4,11.75,11.75,0,0,1,5.86-1.63c4.23,0,11,2.61,11,13.47v18.74h-5.72V193.79c0-5.07-1.89-9.37-7.29-9.37a8.23,8.23,0,0,0-7.68,5.73,7,7,0,0,0-.39,2.73v19h-5.72Z" transform="translate(-2.6 -141.8)"/><path class="cls-3" d="M292.2,203.29c0,3.25.06,6.12.26,8.59h-5.08l-.32-5.14h-.13a11.86,11.86,0,0,1-10.41,5.86c-4.95,0-10.87-2.74-10.87-13.8V180.39h5.73v17.44c0,6,1.82,10,7,10a8.06,8.06,0,0,0,8.07-8.14V180.39h5.73Z" transform="translate(-2.6 -141.8)"/><path class="cls-3" d="M301.44,211.88c.13-2.15.26-5.34.26-8.13V165.68h5.66v19.78h.13c2-3.51,5.66-5.79,10.73-5.79,7.81,0,13.34,6.51,13.28,16.07,0,11.26-7.1,16.86-14.12,16.86-4.56,0-8.2-1.76-10.54-5.93h-.2l-.26,5.21Zm5.92-12.62a10.76,10.76,0,0,0,.26,2.08,8.82,8.82,0,0,0,8.59,6.7c6,0,9.56-4.88,9.56-12.1,0-6.31-3.25-11.71-9.37-11.71a9.14,9.14,0,0,0-8.72,7,11.41,11.41,0,0,0-.32,2.35Z" transform="translate(-2.6 -141.8)"/></svg>