<svg id="Layer_1" data-name="Layer 1" xmlns="http://www.w3.org/2000/svg" viewBox="0 0 251 251"><defs><style>.cls-1{fill:#f2f2f2;stroke:#b3b3b3;stroke-miterlimit:10;}.cls-2{fill:#e0bb05;}.cls-3{fill:#333;}.cls-4{fill:#fff;}</style></defs><title>githubbutton</title><rect class="cls-1" x="0.5" y="0.5" width="250" height="250" rx="13.7" ry="13.7"/><rect class="cls-2" x="35" y="32.4" width="127.58" height="45.62" rx="5" ry="5"/><path class="cls-3" d="M79.89,48.68a15.92,15.92,0,0,0-5.82-5.82,16.07,16.07,0,0,0-16.06,0,15.92,15.92,0,0,0-5.82,5.82A16,16,0,0,0,61,71.89a1,1,0,0,0,.83-.14.83.83,0,0,0,.27-.63s0-.41,0-1.12,0-1.33,0-1.86l-.48.09a6.3,6.3,0,0,1-1.15.07A8.21,8.21,0,0,1,59,68.15a3.2,3.2,0,0,1-1.4-.62,2.63,2.63,0,0,1-.91-1.28l-.21-.48a5.24,5.24,0,0,0-.66-1.06,2.4,2.4,0,0,0-.91-.79l-.14-.11a1.27,1.27,0,0,1-.27-.25.85.85,0,0,1-.19-.29.17.17,0,0,1,.1-.24,1.47,1.47,0,0,1,.61-.09l.42.06a3,3,0,0,1,1,.5,3.48,3.48,0,0,1,1,1.08,3.59,3.59,0,0,0,1.15,1.3,2.46,2.46,0,0,0,1.37.45,5.84,5.84,0,0,0,1.18-.1,4.51,4.51,0,0,0,.94-.31,3.41,3.41,0,0,1,1-2.15A13.36,13.36,0,0,1,61,63.39a8,8,0,0,1-2-.81,5.73,5.73,0,0,1-1.68-1.39A6.79,6.79,0,0,1,56.26,59a10.23,10.23,0,0,1-.43-3.12,6.07,6.07,0,0,1,1.65-4.3,5.58,5.58,0,0,1,.14-4.25,3,3,0,0,1,1.8.29,11.93,11.93,0,0,1,1.73.8c.37.22.67.41.89.56a15.08,15.08,0,0,1,8,0l.79-.5a11.48,11.48,0,0,1,1.92-.92,2.8,2.8,0,0,1,1.68-.23,5.54,5.54,0,0,1,.17,4.25,6.07,6.07,0,0,1,1.65,4.3A10.67,10.67,0,0,1,75.82,59a6.59,6.59,0,0,1-1.1,2.19A5.88,5.88,0,0,1,73,62.58a8.16,8.16,0,0,1-2,.81,13.36,13.36,0,0,1-2.13.38,3.72,3.72,0,0,1,1.08,3v4.39a.82.82,0,0,0,.26.63.92.92,0,0,0,.82.14,16,16,0,0,0,8.79-23.21Zm0,0" transform="translate(-1 -1)"/><path class="cls-3" d="M94.09,62.88V48.74h9.54v1.67H96v4.37h6.63v1.67H96v6.43Z" transform="translate(-1 -1)"/><path class="cls-3" d="M105.19,57.75a5.29,5.29,0,0,1,1.58-4.21A4.77,4.77,0,0,1,110,52.4a4.56,4.56,0,0,1,3.45,1.39,5.22,5.22,0,0,1,1.35,3.82,6.72,6.72,0,0,1-.6,3.11,4.17,4.17,0,0,1-1.72,1.76,5,5,0,0,1-2.48.63,4.59,4.59,0,0,1-3.47-1.38A5.5,5.5,0,0,1,105.19,57.75Zm1.78,0a4.37,4.37,0,0,0,.86,3,2.86,2.86,0,0,0,4.31,0,4.49,4.49,0,0,0,.86-3,4.25,4.25,0,0,0-.86-2.88,2.87,2.87,0,0,0-4.31,0A4.35,4.35,0,0,0,107,57.75Z" transform="translate(-1 -1)"/><path class="cls-3" d="M116.78,62.88V48.74h1.74V62.88Z" transform="translate(-1 -1)"/><path class="cls-3" d="M121.17,62.88V48.74h1.74V62.88Z" transform="translate(-1 -1)"/><path class="cls-3" d="M125,57.75a5.29,5.29,0,0,1,1.58-4.21,4.77,4.77,0,0,1,3.22-1.14,4.6,4.6,0,0,1,3.46,1.39,5.26,5.26,0,0,1,1.34,3.82,6.72,6.72,0,0,1-.6,3.11,4.17,4.17,0,0,1-1.72,1.76,5,5,0,0,1-2.48.63,4.59,4.59,0,0,1-3.47-1.38A5.5,5.5,0,0,1,125,57.75Zm1.78,0a4.37,4.37,0,0,0,.86,3,2.78,2.78,0,0,0,2.16,1,2.73,2.73,0,0,0,2.15-1,4.44,4.44,0,0,0,.86-3,4.2,4.2,0,0,0-.86-2.88,2.87,2.87,0,0,0-4.31,0A4.35,4.35,0,0,0,126.73,57.75Z" transform="translate(-1 -1)"/><path class="cls-3" d="M138.47,62.88l-3.13-10.25h1.79l1.63,5.92.61,2.19c0-.1.2-.81.53-2.11l1.63-6h1.78l1.54,5.94.51,2,.59-2,1.75-5.93h1.69l-3.2,10.25h-1.81l-1.63-6.14L142.36,55l-2.07,7.88Z" transform="translate(-1 -1)"/><path class="cls-2" d="M216.51,79.57,183.43,79a5.49,5.49,0,0,1-5.49-5.49V64.87l-8.45-8.66,8.45-8.66V38.89a5.49,5.49,0,0,1,5.49-5.49l33.08.55A5.49,5.49,0,0,1,222,39.44V74.09A5.48,5.48,0,0,1,216.51,79.57Z" transform="translate(-1 -1)"/><path class="cls-3" d="M191,59.17l1.82-.15a3.3,3.3,0,0,0,.94,2,2.56,2.56,0,0,0,1.78.67,2.79,2.79,0,0,0,2.13-.95,3.58,3.58,0,0,0,.86-2.5,3.23,3.23,0,0,0-.83-2.35,2.94,2.94,0,0,0-2.19-.86,3,3,0,0,0-1.51.39,3,3,0,0,0-1.06,1l-1.63-.21,1.37-7.26h7v1.66H194l-.76,3.8a4.6,4.6,0,0,1,2.67-.89,4.25,4.25,0,0,1,3.12,1.28,4.5,4.5,0,0,1,1.28,3.3,5.18,5.18,0,0,1-1.12,3.32,4.51,4.51,0,0,1-3.72,1.72A4.6,4.6,0,0,1,192.34,62,4.26,4.26,0,0,1,191,59.17Z" transform="translate(-1 -1)"/><path class="cls-3" d="M201.94,55.9a13,13,0,0,1,.51-4A5,5,0,0,1,204,49.51a3.92,3.92,0,0,1,2.56-.83,4.09,4.09,0,0,1,2,.46A3.66,3.66,0,0,1,210,50.46a7,7,0,0,1,.88,2.1,14.08,14.08,0,0,1,.32,3.34,13,13,0,0,1-.51,4,5,5,0,0,1-1.53,2.36,4.3,4.3,0,0,1-5.79-.63C202.4,60.47,201.94,58.56,201.94,55.9Zm1.78,0c0,2.32.27,3.87.82,4.64a2.39,2.39,0,0,0,2,1.15,2.42,2.42,0,0,0,2-1.16c.54-.77.81-2.31.81-4.63s-.27-3.87-.81-4.64a2.43,2.43,0,0,0-2-1.14,2.2,2.2,0,0,0-1.91,1Q203.72,52.42,203.72,55.9Z" transform="translate(-1 -1)"/><path class="cls-3" d="M216.51,147.41l-33.08-.54a5.49,5.49,0,0,1-5.49-5.49v-8.67l-8.45-8.66,8.45-8.66v-8.66a5.49,5.49,0,0,1,5.49-5.49l33.08.55a5.49,5.49,0,0,1,5.49,5.49v34.65A5.48,5.48,0,0,1,216.51,147.41Z" transform="translate(-1 -1)"/><path class="cls-4" d="M200,120l-1.73.13a3.25,3.25,0,0,0-.65-1.48,2.28,2.28,0,0,0-1.74-.74,2.4,2.4,0,0,0-1.46.46,4,4,0,0,0-1.29,1.75,9.12,9.12,0,0,0-.49,3.26,4.06,4.06,0,0,1,3.43-1.88,3.94,3.94,0,0,1,3,1.28,4.61,4.61,0,0,1,1.22,3.31,5.47,5.47,0,0,1-.57,2.47,4.27,4.27,0,0,1-1.58,1.75,4.37,4.37,0,0,1-2.28.61,4.45,4.45,0,0,1-3.54-1.6c-.91-1.06-1.37-2.82-1.37-5.26q0-4.09,1.52-6a4.36,4.36,0,0,1,3.56-1.62,3.8,3.8,0,0,1,4,3.52Zm-7.09,6.1a4.06,4.06,0,0,0,.38,1.71,2.87,2.87,0,0,0,1.07,1.25,2.6,2.6,0,0,0,1.43.43,2.44,2.44,0,0,0,1.89-.89,3.47,3.47,0,0,0,.8-2.41,3.27,3.27,0,0,0-.79-2.31,2.56,2.56,0,0,0-2-.84,2.69,2.69,0,0,0-2,.84A3,3,0,0,0,192.87,126.14Z" transform="translate(-1 -1)"/><path class="cls-4" d="M201.94,127l1.82-.15a3.25,3.25,0,0,0,.94,2,2.53,2.53,0,0,0,1.78.67,2.78,2.78,0,0,0,2.12-.95,3.54,3.54,0,0,0,.87-2.5,3.23,3.23,0,0,0-.84-2.35,2.89,2.89,0,0,0-2.18-.85,3,3,0,0,0-1.51.38,2.87,2.87,0,0,0-1.06,1l-1.63-.21,1.36-7.26h7v1.66H205l-.76,3.8a4.62,4.62,0,0,1,2.67-.89,4.25,4.25,0,0,1,3.13,1.28,4.49,4.49,0,0,1,1.27,3.3,5.13,5.13,0,0,1-1.12,3.32,4.45,4.45,0,0,1-3.71,1.72,4.56,4.56,0,0,1-3.15-1.08A4.21,4.21,0,0,1,201.94,127Z" transform="translate(-1 -1)"/><path class="cls-3" d="M216.51,216.35l-33.08-.55a5.48,5.48,0,0,1-5.49-5.48v-8.67L169.49,193l8.45-8.66v-8.66a5.49,5.49,0,0,1,5.49-5.49l33.08.55a5.48,5.48,0,0,1,5.49,5.48v34.66A5.48,5.48,0,0,1,216.51,216.35Z" transform="translate(-1 -1)"/><path class="cls-4" d="M200.08,198v1.66h-9.35a3.06,3.06,0,0,1,.2-1.2,6.49,6.49,0,0,1,1.14-1.88,18.29,18.29,0,0,1,2.28-2.14,19.25,19.25,0,0,0,3.11-3,3.57,3.57,0,0,0,.81-2.09,2.31,2.31,0,0,0-.74-1.74,2.65,2.65,0,0,0-1.92-.7,2.72,2.72,0,0,0-2,.75,2.85,2.85,0,0,0-.76,2.08l-1.78-.18a4.4,4.4,0,0,1,1.38-3.05,4.71,4.71,0,0,1,3.21-1,4.46,4.46,0,0,1,3.22,1.13,3.7,3.7,0,0,1,1.19,2.79,4.24,4.24,0,0,1-.35,1.67,6.64,6.64,0,0,1-1.15,1.73,29.64,29.64,0,0,1-2.68,2.49c-1,.87-1.71,1.46-2,1.78a5.56,5.56,0,0,0-.73.94Z" transform="translate(-1 -1)"/><path class="cls-4" d="M210.94,189l-1.72.13a3.24,3.24,0,0,0-.66-1.48,2.28,2.28,0,0,0-1.73-.74,2.38,2.38,0,0,0-1.46.46,3.91,3.91,0,0,0-1.29,1.74,9,9,0,0,0-.49,3.27,3.88,3.88,0,0,1,1.53-1.41,4.11,4.11,0,0,1,1.9-.47,4,4,0,0,1,3,1.28,4.59,4.59,0,0,1,1.22,3.3,5.49,5.49,0,0,1-.58,2.48,4.2,4.2,0,0,1-1.58,1.75,4.31,4.31,0,0,1-2.27.61,4.46,4.46,0,0,1-3.54-1.6c-.91-1.06-1.37-2.82-1.37-5.26q0-4.09,1.51-6a4.36,4.36,0,0,1,3.56-1.62,3.76,3.76,0,0,1,4,3.52Zm-7.08,6.09a4,4,0,0,0,.38,1.72A2.85,2.85,0,0,0,205.3,198a2.66,2.66,0,0,0,1.44.43,2.46,2.46,0,0,0,1.89-.89,3.47,3.47,0,0,0,.79-2.41,3.26,3.26,0,0,0-.78-2.31,2.58,2.58,0,0,0-2-.84,2.67,2.67,0,0,0-2,.84A3,3,0,0,0,203.86,195.07Z" transform="translate(-1 -1)"/><rect class="cls-3" x="35" y="100.24" width="127.58" height="45.62" rx="5" ry="5"/><path class="cls-4" d="M94.62,130.91V116.77h1.87v14.14Z" transform="translate(-1 -1)"/><path class="cls-4" d="M98.87,127.85l1.72-.27a2.35,2.35,0,0,0,.8,1.58,2.8,2.8,0,0,0,1.85.55,2.65,2.65,0,0,0,1.77-.49,1.43,1.43,0,0,0,.58-1.14,1,1,0,0,0-.51-.92,7.4,7.4,0,0,0-1.77-.59,15.19,15.19,0,0,1-2.65-.84,2.55,2.55,0,0,1-1.12-1,2.71,2.71,0,0,1-.07-2.64,2.77,2.77,0,0,1,.86-1,3.64,3.64,0,0,1,1.1-.51,5.23,5.23,0,0,1,1.5-.21,6,6,0,0,1,2.12.35,2.88,2.88,0,0,1,1.34.94,3.73,3.73,0,0,1,.6,1.59l-1.7.23a1.84,1.84,0,0,0-.67-1.24,2.47,2.47,0,0,0-1.56-.44,2.79,2.79,0,0,0-1.71.4,1.14,1.14,0,0,0-.51.92,1,1,0,0,0,.21.61,1.45,1.45,0,0,0,.67.46q.25.1,1.53.45a20.15,20.15,0,0,1,2.57.8,2.46,2.46,0,0,1,1.56,2.4,2.88,2.88,0,0,1-.51,1.63,3.28,3.28,0,0,1-1.46,1.19,5.34,5.34,0,0,1-2.16.42,4.81,4.81,0,0,1-3-.83A3.82,3.82,0,0,1,98.87,127.85Z" transform="translate(-1 -1)"/><path class="cls-4" d="M108.75,127.85l1.71-.27a2.4,2.4,0,0,0,.81,1.58,2.78,2.78,0,0,0,1.85.55,2.69,2.69,0,0,0,1.77-.49,1.43,1.43,0,0,0,.58-1.14,1,1,0,0,0-.51-.92,7.36,7.36,0,0,0-1.78-.59,15.31,15.31,0,0,1-2.64-.84,2.49,2.49,0,0,1-1.12-1,2.54,2.54,0,0,1-.38-1.38,2.61,2.61,0,0,1,.31-1.26,2.74,2.74,0,0,1,.85-1,3.6,3.6,0,0,1,1.11-.51,5.13,5.13,0,0,1,1.5-.21,5.9,5.9,0,0,1,2.11.35,2.91,2.91,0,0,1,1.35.94,3.73,3.73,0,0,1,.6,1.59l-1.7.23a1.88,1.88,0,0,0-.67-1.24,2.49,2.49,0,0,0-1.57-.44,2.78,2.78,0,0,0-1.7.4,1.13,1.13,0,0,0-.52.92,1,1,0,0,0,.22.61,1.47,1.47,0,0,0,.66.46c.18.07.69.22,1.54.45a20.7,20.7,0,0,1,2.57.8,2.65,2.65,0,0,1,1.14.91,2.54,2.54,0,0,1,.41,1.49,3,3,0,0,1-.5,1.63,3.34,3.34,0,0,1-1.46,1.19,5.34,5.34,0,0,1-2.16.42,4.84,4.84,0,0,1-3-.83A3.81,3.81,0,0,1,108.75,127.85Z" transform="translate(-1 -1)"/><path class="cls-4" d="M126,130.91V129.4a3.75,3.75,0,0,1-3.25,1.74,4.16,4.16,0,0,1-1.69-.35,2.72,2.72,0,0,1-1.17-.87,3.28,3.28,0,0,1-.53-1.29,8,8,0,0,1-.11-1.62v-6.34H121v5.68a10.44,10.44,0,0,0,.1,1.83,1.8,1.8,0,0,0,.7,1.07,2.14,2.14,0,0,0,1.31.39,2.79,2.79,0,0,0,1.46-.4,2.18,2.18,0,0,0,1-1.09,5.42,5.42,0,0,0,.29-2v-5.48h1.73v10.24Z" transform="translate(-1 -1)"/><path class="cls-4" d="M137.31,127.61l1.8.22a4.38,4.38,0,0,1-1.57,2.44,4.75,4.75,0,0,1-2.94.87,4.7,4.7,0,0,1-3.56-1.38,5.42,5.42,0,0,1-1.32-3.89,5.69,5.69,0,0,1,1.33-4,4.52,4.52,0,0,1,3.46-1.43,4.36,4.36,0,0,1,3.35,1.4,5.56,5.56,0,0,1,1.31,3.94c0,.1,0,.25,0,.46h-7.64a3.88,3.88,0,0,0,.95,2.58,2.84,2.84,0,0,0,2.14.9,2.68,2.68,0,0,0,1.63-.5A3.29,3.29,0,0,0,137.31,127.61Zm-5.7-2.81h5.72a3.42,3.42,0,0,0-.65-1.94,2.69,2.69,0,0,0-2.15-1,2.76,2.76,0,0,0-2,.8A3.17,3.17,0,0,0,131.61,124.8Z" transform="translate(-1 -1)"/><path class="cls-4" d="M140.59,127.85l1.72-.27a2.35,2.35,0,0,0,.81,1.58,2.77,2.77,0,0,0,1.84.55,2.7,2.7,0,0,0,1.78-.49,1.46,1.46,0,0,0,.58-1.14,1,1,0,0,0-.52-.92,7.06,7.06,0,0,0-1.77-.59,15.5,15.5,0,0,1-2.65-.84,2.61,2.61,0,0,1-1.18-3.61,2.74,2.74,0,0,1,.85-1,3.64,3.64,0,0,1,1.1-.51,5.23,5.23,0,0,1,1.5-.21,6,6,0,0,1,2.12.35,2.91,2.91,0,0,1,1.35.94,3.72,3.72,0,0,1,.59,1.59l-1.69.23a1.88,1.88,0,0,0-.67-1.24,2.51,2.51,0,0,0-1.57-.44,2.79,2.79,0,0,0-1.71.4,1.14,1.14,0,0,0-.51.92,1,1,0,0,0,.21.61,1.5,1.5,0,0,0,.67.46q.26.1,1.53.45a19.62,19.62,0,0,1,2.57.8,2.42,2.42,0,0,1,1.56,2.4,2.88,2.88,0,0,1-.51,1.63,3.23,3.23,0,0,1-1.46,1.19,5.27,5.27,0,0,1-2.16.42,4.83,4.83,0,0,1-3-.83A3.87,3.87,0,0,1,140.59,127.85Z" transform="translate(-1 -1)"/><path class="cls-4" d="M80.44,123.91a14.27,14.27,0,1,1-14.26-14.26A14.26,14.26,0,0,1,80.44,123.91ZM67.59,129.8l1.14-11.7v-5.42H63.94v5.42l1.15,11.7Zm1,5.95v-4.42H64.13v4.42Z" transform="translate(-1 -1)"/><rect class="cls-3" x="35" y="169.18" width="127.58" height="45.62" rx="5" ry="5"/><path class="cls-4" d="M93.66,195.3l1.77-.15a3.89,3.89,0,0,0,.58,1.74,3.25,3.25,0,0,0,1.42,1.1,5.42,5.42,0,0,0,2.17.42,5.19,5.19,0,0,0,1.89-.32,2.55,2.55,0,0,0,1.22-.87,2,2,0,0,0,.4-1.21,1.85,1.85,0,0,0-.38-1.17,2.92,2.92,0,0,0-1.27-.83,23.86,23.86,0,0,0-2.52-.69,12.55,12.55,0,0,1-2.73-.88,3.8,3.8,0,0,1-1.51-1.32,3.23,3.23,0,0,1-.5-1.76,3.64,3.64,0,0,1,.61-2A3.8,3.8,0,0,1,96.58,186a6.8,6.8,0,0,1,2.6-.48,7,7,0,0,1,2.77.5,4.06,4.06,0,0,1,1.85,1.49,4.28,4.28,0,0,1,.69,2.23l-1.79.13a2.9,2.9,0,0,0-1-2,3.8,3.8,0,0,0-2.46-.69,4,4,0,0,0-2.48.63,1.87,1.87,0,0,0-.77,1.5,1.6,1.6,0,0,0,.55,1.25,7.51,7.51,0,0,0,2.82,1,18.2,18.2,0,0,1,3.13.9,4.3,4.3,0,0,1,1.82,1.44,3.52,3.52,0,0,1,.59,2,3.88,3.88,0,0,1-.65,2.13,4.24,4.24,0,0,1-1.85,1.55,6.5,6.5,0,0,1-2.73.56,8.22,8.22,0,0,1-3.22-.56,4.56,4.56,0,0,1-2-1.69A4.79,4.79,0,0,1,93.66,195.3Z" transform="translate(-1 -1)"/><path class="cls-4" d="M111,198.29l.25,1.54A6.58,6.58,0,0,1,110,200a2.92,2.92,0,0,1-1.46-.3,1.68,1.68,0,0,1-.74-.78,6.31,6.31,0,0,1-.21-2.05V191H106.3V189.6h1.27v-2.53l1.73-1v3.58H111V191H109.3v6a3.09,3.09,0,0,0,.09,1,.68.68,0,0,0,.3.33,1.08,1.08,0,0,0,.59.13A4.94,4.94,0,0,0,111,198.29Z" transform="translate(-1 -1)"/><path class="cls-4" d="M119.42,198.58a6.51,6.51,0,0,1-1.85,1.16,5.54,5.54,0,0,1-1.92.34,3.71,3.71,0,0,1-2.59-.83,2.7,2.7,0,0,1-.91-2.1,2.84,2.84,0,0,1,1.24-2.38,4.32,4.32,0,0,1,1.25-.57,13.58,13.58,0,0,1,1.54-.26,15.61,15.61,0,0,0,3.1-.59c0-.24,0-.39,0-.46a1.93,1.93,0,0,0-.49-1.49,2.89,2.89,0,0,0-2-.59,3,3,0,0,0-1.81.43,2.55,2.55,0,0,0-.86,1.52l-1.7-.23a4.14,4.14,0,0,1,.76-1.76,3.37,3.37,0,0,1,1.54-1,6.81,6.81,0,0,1,2.32-.36,6.07,6.07,0,0,1,2.13.31,2.44,2.44,0,0,1,1.75,2,11,11,0,0,1,.08,1.6v2.31a22.83,22.83,0,0,0,.12,3.07,4.1,4.1,0,0,0,.43,1.23h-1.81A3.7,3.7,0,0,1,119.42,198.58Zm-.14-3.87a13.27,13.27,0,0,1-2.84.65,6.24,6.24,0,0,0-1.51.35,1.46,1.46,0,0,0-.93,1.39,1.46,1.46,0,0,0,.53,1.15,2.25,2.25,0,0,0,1.54.47,3.59,3.59,0,0,0,1.78-.44,2.72,2.72,0,0,0,1.15-1.2,4.13,4.13,0,0,0,.28-1.74Z" transform="translate(-1 -1)"/><path class="cls-4" d="M123.71,199.85V189.6h1.56v1.56a4.19,4.19,0,0,1,1.1-1.44,2,2,0,0,1,1.12-.35,3.4,3.4,0,0,1,1.78.56l-.6,1.61a2.47,2.47,0,0,0-1.27-.37,1.63,1.63,0,0,0-1,.34,1.81,1.81,0,0,0-.65,1,6.85,6.85,0,0,0-.29,2v5.37Z" transform="translate(-1 -1)"/><path class="cls-4" d="M129.61,196.79l1.71-.27a2.42,2.42,0,0,0,.81,1.58,2.8,2.8,0,0,0,1.85.55,2.67,2.67,0,0,0,1.77-.49,1.43,1.43,0,0,0,.58-1.14,1.07,1.07,0,0,0-.51-.93,7.51,7.51,0,0,0-1.78-.58,16.27,16.27,0,0,1-2.64-.84,2.51,2.51,0,0,1-1.5-2.35,2.65,2.65,0,0,1,.31-1.27,2.8,2.8,0,0,1,.85-1,3.6,3.6,0,0,1,1.11-.51,5.13,5.13,0,0,1,1.5-.21,6,6,0,0,1,2.12.35,2.86,2.86,0,0,1,1.34.94,3.63,3.63,0,0,1,.6,1.59l-1.7.23a1.88,1.88,0,0,0-.67-1.24,2.49,2.49,0,0,0-1.57-.44,2.86,2.86,0,0,0-1.7.39,1.17,1.17,0,0,0-.51.93,1,1,0,0,0,.21.61,1.55,1.55,0,0,0,.66.46c.18.07.69.21,1.54.44a22.12,22.12,0,0,1,2.57.81,2.65,2.65,0,0,1,1.14.91,2.54,2.54,0,0,1,.41,1.49,2.87,2.87,0,0,1-.5,1.63,3.34,3.34,0,0,1-1.46,1.19,5.34,5.34,0,0,1-2.16.42,4.86,4.86,0,0,1-3.05-.83A3.88,3.88,0,0,1,129.61,196.79Z" transform="translate(-1 -1)"/><polygon class="cls-4" points="64.08 175.39 67.52 186.29 78.66 186.29 69.65 193.03 73.09 203.92 64.08 197.19 55.07 203.92 58.51 193.03 49.5 186.29 60.64 186.29 64.08 175.39"/></svg>