<svg id="Layer_1" data-name="Layer 1" xmlns="http://www.w3.org/2000/svg" viewBox="0 0 251 251"><defs><style>.cls-1{fill:#f2f2f2;stroke:#b3b3b3;stroke-miterlimit:10;}.cls-2{fill:#e0bb05;}.cls-3{fill:#333;}</style></defs><title>label</title><rect class="cls-1" x="0.5" y="0.5" width="250" height="250" rx="13.7" ry="13.7"/><path class="cls-2" d="M106.88,56.39h6.83v7.73h7.46V56.39H128V78.48h-6.86V69.54h-7.46v8.94h-6.83Z" transform="translate(-1 -1)"/><path class="cls-2" d="M145.48,56V78.48h-6.21V63.75a18.55,18.55,0,0,1-2.92,1.86A22.67,22.67,0,0,1,132.82,67v-5a14.82,14.82,0,0,0,4.87-2.43A9.83,9.83,0,0,0,140.4,56Z" transform="translate(-1 -1)"/><path class="cls-3" d="M110.36,92.39h5.69v6.44h6.22V92.39H128V110.8h-5.71v-7.45h-6.22v7.45h-5.69Z" transform="translate(-1 -1)"/><path class="cls-3" d="M145.9,110.8H130.55a9.59,9.59,0,0,1,1.61-4.28,21.51,21.51,0,0,1,5-4.73,15.18,15.18,0,0,0,2.88-2.53,2.85,2.85,0,0,0,.63-1.65,1.92,1.92,0,0,0-.63-1.44,2.13,2.13,0,0,0-1.56-.59,2.17,2.17,0,0,0-1.6.61,3.8,3.8,0,0,0-.84,2.17L130.93,98A8.08,8.08,0,0,1,132,94.58a5.09,5.09,0,0,1,2.26-1.86,10.3,10.3,0,0,1,4-.65,11.41,11.41,0,0,1,4.2.62,5.09,5.09,0,0,1,2.36,1.89,4.93,4.93,0,0,1,.86,2.85,5.81,5.81,0,0,1-1,3.22A13.46,13.46,0,0,1,141.2,104c-1,.72-1.72,1.21-2.06,1.5s-.76.66-1.23,1.12h8Z" transform="translate(-1 -1)"/><path class="cls-3" d="M113.84,125h4.55v5.15h5V125h4.57v14.73h-4.57v-6h-5v6h-4.55Z" transform="translate(-1 -1)"/><path class="cls-3" d="M134.26,129.22l-3.87-.69a4.84,4.84,0,0,1,1.86-2.84,6.62,6.62,0,0,1,3.88-1,6.54,6.54,0,0,1,4.17,1.07,3.38,3.38,0,0,1,1.28,2.71,3,3,0,0,1-.52,1.72,4.44,4.44,0,0,1-1.57,1.36,4.6,4.6,0,0,1,1.3.49,3.17,3.17,0,0,1,1.14,1.19,3.62,3.62,0,0,1,.41,1.77,5,5,0,0,1-.67,2.46,4.55,4.55,0,0,1-1.94,1.82,7.4,7.4,0,0,1-3.33.64,8.72,8.72,0,0,1-3.17-.47,4.8,4.8,0,0,1-1.91-1.39,6.27,6.27,0,0,1-1.15-2.28l4.09-.54A3.17,3.17,0,0,0,135,137a1.81,1.81,0,0,0,1.29.48,1.74,1.74,0,0,0,1.37-.61,2.25,2.25,0,0,0,.55-1.6,2.23,2.23,0,0,0-.53-1.59,1.85,1.85,0,0,0-1.43-.56,5.28,5.28,0,0,0-1.33.24l.22-2.93a3,3,0,0,0,.53,0,1.88,1.88,0,0,0,1.34-.51,1.6,1.6,0,0,0,.54-1.21,1.4,1.4,0,0,0-1.51-1.48,1.66,1.66,0,0,0-1.18.44A2.67,2.67,0,0,0,134.26,129.22Z" transform="translate(-1 -1)"/><path class="cls-3" d="M117.31,151.65h3.42v3.87h3.73v-3.87h3.42v11h-3.42v-4.47h-3.73v4.47h-3.42Z" transform="translate(-1 -1)"/><path class="cls-3" d="M134.93,160.63h-5.59v-2.52l5.59-6.64h2.67v6.78H139v2.38H137.6v2.07h-2.67Zm0-2.38v-3.47l-3,3.47Z" transform="translate(-1 -1)"/><path class="cls-3" d="M119.63,172.9h2.66v3h2.9v-3h2.66v8.6h-2.66V178h-2.9v3.48h-2.66Z" transform="translate(-1 -1)"/><path class="cls-3" d="M130.2,172.9h5.66v1.91H132l-.2,1.29a3.56,3.56,0,0,1,.79-.28,3,3,0,0,1,.77-.1,2.86,2.86,0,0,1,2.09.78,2.62,2.62,0,0,1,.8,2,3.31,3.31,0,0,1-.41,1.6,2.87,2.87,0,0,1-1.17,1.17,4.11,4.11,0,0,1-1.94.4,5.61,5.61,0,0,1-1.46-.16,3,3,0,0,1-1-.48,2.76,2.76,0,0,1-.69-.72,3.79,3.79,0,0,1-.44-1l2.41-.27a1.51,1.51,0,0,0,.41.89,1.11,1.11,0,0,0,.77.3,1.07,1.07,0,0,0,.83-.38,1.73,1.73,0,0,0,.32-1.13,1.61,1.61,0,0,0-.33-1.12,1.12,1.12,0,0,0-.87-.36,1.48,1.48,0,0,0-.67.17,2.11,2.11,0,0,0-.53.44l-2-.29Z" transform="translate(-1 -1)"/><path class="cls-3" d="M120.79,190.43h2.27V193h2.49v-2.57h2.29v7.36h-2.29v-3h-2.49v3h-2.27Z" transform="translate(-1 -1)"/><path class="cls-3" d="M134.94,192.08l-2,.26a1.12,1.12,0,0,0-.26-.61.7.7,0,0,0-.47-.17.85.85,0,0,0-.77.5,4.53,4.53,0,0,0-.3,1.55,2.76,2.76,0,0,1,.75-.55,2.13,2.13,0,0,1,.9-.18,2.2,2.2,0,0,1,1.66.7,2.44,2.44,0,0,1,.68,1.78,2.67,2.67,0,0,1-.34,1.34,2.31,2.31,0,0,1-.95.91,3.47,3.47,0,0,1-1.53.31,3.65,3.65,0,0,1-1.78-.38,2.62,2.62,0,0,1-1.06-1.2,5,5,0,0,1-.4-2.19,4.26,4.26,0,0,1,.84-2.92,3,3,0,0,1,2.32-.93,4,4,0,0,1,1.39.2,2.26,2.26,0,0,1,.85.6A2.76,2.76,0,0,1,134.94,192.08Zm-3.77,3.28a1.36,1.36,0,0,0,.3.94.94.94,0,0,0,.74.34.84.84,0,0,0,.67-.31,1.27,1.27,0,0,0,.28-.91,1.4,1.4,0,0,0-.29-.95.87.87,0,0,0-.69-.33.93.93,0,0,0-.72.32A1.3,1.3,0,0,0,131.17,195.36Z" transform="translate(-1 -1)"/></svg>