<svg id="Layer_1" data-name="Layer 1" xmlns="http://www.w3.org/2000/svg" viewBox="0 0 251 251"><defs><style>.cls-1{fill:#f2f2f2;stroke:#b3b3b3;}.cls-1,.cls-5{stroke-miterlimit:10;}.cls-2{fill:#e0bb05;}.cls-2,.cls-3,.cls-4{fill-rule:evenodd;}.cls-3{fill:#fff;}.cls-4{fill:#333;}.cls-5{fill:none;stroke:#333;stroke-width:1.5px;}</style></defs><title>icon</title><rect class="cls-1" x="0.5" y="0.5" width="250" height="250" rx="13.7" ry="13.7"/><path class="cls-2" d="M91,112.8a23,23,0,1,0-23-23A23.06,23.06,0,0,0,91,112.8Z" transform="translate(-1 -1)"/><path class="cls-3" d="M88.28,81.6a.9.9,0,0,0,.89.89h3.64a.89.89,0,0,0,.89-.89V78a.89.89,0,0,0-.89-.88H89.17a.89.89,0,0,0-.89.88V81.6Zm0,20a.9.9,0,0,0,.89.89h3.64a.89.89,0,0,0,.89-.89V86.09a.9.9,0,0,0-.89-.9H89.17a.9.9,0,0,0-.89.9Z" transform="translate(-1 -1)"/><path class="cls-4" d="M90.94,185a22.66,22.66,0,1,0-22.65-22.66A22.7,22.7,0,0,0,90.94,185Z" transform="translate(-1 -1)"/><path class="cls-3" d="M100.65,152.22a.91.91,0,0,1,1.23,0l2.54,2.54a.9.9,0,0,1,0,1.25c-12,12-4.43,4.41-16.47,16.45a.87.87,0,0,1-1.23,0l-9.25-9.25a.86.86,0,0,1,0-1.23L80,159.44a.89.89,0,0,1,1.24,0l6.09,6.1Z" transform="translate(-1 -1)"/><path class="cls-4" d="M161.65,186a23.08,23.08,0,1,0-23.09-23.08A23.13,23.13,0,0,0,161.65,186Z" transform="translate(-1 -1)"/><path class="cls-3" d="M159.27,174.79a.9.9,0,0,0,.88.89h3.65a.9.9,0,0,0,.89-.89v-3.65a.89.89,0,0,0-.89-.9h-3.65a.89.89,0,0,0-.88.9v3.65Zm-5.42-17.35a8.16,8.16,0,0,1,2.35-4.87h0a8.12,8.12,0,0,1,11.53,0h0a8.21,8.21,0,0,1,2.39,5.77c0,4-1.55,5.19-3.58,6.71a10.34,10.34,0,0,0-1.41,1.17,1.42,1.42,0,0,0-.36.54h0a1.71,1.71,0,0,0-.11.62v.35a.82.82,0,0,1-.82.81H160a.81.81,0,0,1-.81-.81v-.35a7.12,7.12,0,0,1,.54-2.71h0a6.91,6.91,0,0,1,1.53-2.3,17.66,17.66,0,0,1,2-1.68,2.56,2.56,0,0,0,1.39-2.35,2.77,2.77,0,0,0-.79-1.92h0a2.73,2.73,0,0,0-1.92-.78,2.66,2.66,0,0,0-1.92.78h0a2.66,2.66,0,0,0-.7,1.3.83.83,0,0,1-.8.62h-3.87a.79.79,0,0,1-.61-.26A.76.76,0,0,1,153.85,157.44Z" transform="translate(-1 -1)"/><path class="cls-4" d="M162,112.63a23,23,0,1,0-23-23A23,23,0,0,0,162,112.63Z" transform="translate(-1 -1)"/><path class="cls-3" d="M150.18,86.93h9.11V77.81a.89.89,0,0,1,.89-.88h3.64a.89.89,0,0,1,.88.88v9.12h9.12a.89.89,0,0,1,.89.89v3.64a.89.89,0,0,1-.89.88H164.7v9.12a.89.89,0,0,1-.88.88h-3.64a.89.89,0,0,1-.89-.88V92.34h-9.11a.9.9,0,0,1-.9-.88V87.82A.9.9,0,0,1,150.18,86.93Z" transform="translate(-1 -1)"/><rect class="cls-5" x="33.5" y="33.5" width="185" height="182" rx="13.73" ry="13.73"/></svg>