<svg width="500" height="400" xmlns="http://www.w3.org/2000/svg">

 <g>
  <title>background</title>
  <rect fill="none" id="canvas_background" height="402" width="502" y="-1" x="-1"/>
 </g>
 <g>
  <title>Layer 1</title>
  <g stroke="null" id="svg_24">
   <g stroke="null" transform="matrix(0.6810981278755726,0,0,0.5881278692732899,-1982.8769113470685,-1250.4928135095165) " id="svg_18">
    <path stroke="null" id="svg_19" fill="#7c7c7c" class="active-path" d="m3519.940327,2679.622154l-443.730469,0c-4.710937,0 -8.535156,-3.816407 -8.535156,-8.535157l0,-358.398437c0,-4.71875 3.824219,-8.535156 8.535156,-8.535156l443.730469,0c4.710937,0 8.535156,3.816406 8.535156,8.535156l0,358.398437c0,4.71875 -3.824219,8.535157 -8.535156,8.535157zm-435.199219,-17.066407l426.667969,0l0,-341.335937l-426.667969,0l0,341.335937zm0,0"/>
    <path stroke="null" id="svg_20" fill="#7c7c7c" class="active-path" d="m3076.209858,2628.419029l-51.199219,0c-4.710937,0 -8.535156,-3.8125 -8.535156,-8.53125l0,-358.398438c0,-4.722656 3.824219,-8.535156 8.535156,-8.535156l443.730469,0c4.710937,0 8.535156,3.8125 8.535156,8.535156l0,51.199219c0,4.71875 -3.824219,8.53125 -8.535156,8.53125l-384,0l0,298.667969c0,4.71875 -3.820313,8.53125 -8.53125,8.53125zm-42.667969,-17.066406l34.132813,0l0,-298.664063c0,-4.71875 3.824219,-8.535156 8.535156,-8.535156l384,0l0,-34.132813l-426.667969,0l0,341.332032zm0,0"/>
    <path stroke="null" id="svg_21" fill="#7c7c7c" class="active-path" d="m3519.940327,2679.622154l-228.503906,0c-3.363282,0 -6.410157,-1.972657 -7.78125,-5.042969c-1.375,-3.054688 -0.828126,-6.648438 1.40625,-9.15625l134.640624,-151.46875c3.234376,-3.652344 9.515626,-3.652344 12.757813,0l93.863281,105.601562c1.394532,1.5625 2.152344,3.574219 2.152344,5.664063l0,45.867187c0,4.71875 -3.824219,8.535157 -8.535156,8.535157zm-209.5,-17.066407l200.96875,0l0,-34.09375l-85.332032,-96l-115.636718,130.09375zm0,0"/>
    <path stroke="null" id="svg_22" fill="#7c7c7c" class="active-path" d="m3291.436421,2679.622154l-215.226563,0c-4.710937,0 -8.535156,-3.816407 -8.535156,-8.535157l0,-141.867187c0,-2.089844 0.769531,-4.101563 2.160156,-5.664063l110.933594,-124.800781c3.234375,-3.652343 9.515625,-3.652343 12.757812,0l170.664063,192c2.878906,3.234375 2.878906,8.097657 0,11.332031l-66.371094,74.667969c-1.621094,1.824219 -3.941406,2.867188 -6.382812,2.867188zm-206.695313,-17.066407l202.863281,0l58.785156,-66.136718l-159.246093,-179.15625l-102.402344,115.199218l0,130.09375zm0,0"/>
    <path stroke="null" id="svg_23" fill="#7c7c7c" class="active-path" d="m3366.342671,2466.286216c-23.527344,0 -42.667969,-19.140625 -42.667969,-42.664062c0,-23.527344 19.140625,-42.667969 42.667969,-42.667969c23.527343,0 42.667968,19.140625 42.667968,42.667969c0,23.523437 -19.140625,42.664062 -42.667968,42.664062zm0,-68.265625c-14.113282,0 -25.601563,11.484375 -25.601563,25.601563c0,14.113281 11.488281,25.597656 25.601563,25.597656c14.113281,0 25.597656,-11.484375 25.597656,-25.597656c0,-14.117188 -11.484375,-25.601563 -25.597656,-25.601563zm0,0"/>
   </g>
  </g>
 </g>
</svg>