<svg id="Layer_1" data-name="Layer 1" xmlns="http://www.w3.org/2000/svg" viewBox="0 0 251 251"><defs><style>.cls-1{fill:#f2f2f2;stroke:#b3b3b3;}.cls-1,.cls-2,.cls-3,.cls-5{stroke-miterlimit:10;}.cls-2{fill:none;}.cls-2,.cls-3{stroke:#333;}.cls-2,.cls-6,.cls-9{fill-rule:evenodd;}.cls-3,.cls-5,.cls-6,.cls-7{fill:#e0bb05;}.cls-4{fill:#595859;}.cls-5{stroke:#595859;}.cls-8{fill:#f9e8a0;}.cls-9{fill:#333;}</style></defs><title>image</title><rect class="cls-1" x="0.5" y="0.5" width="250" height="250" rx="13.7" ry="13.7"/><path class="cls-2" d="M35,203.05v-153A11.77,11.77,0,0,1,46.71,38.38H207.32A11.79,11.79,0,0,1,219,50.06v153a11.74,11.74,0,0,1-11.68,11.68H46.71A11.72,11.72,0,0,1,35,203.05Z" transform="translate(-1 -1)"/><rect class="cls-3" x="47.96" y="51.33" width="156.1" height="122.28" rx="2.32" ry="2.32"/><ellipse class="cls-4" cx="115.44" cy="124.87" rx="18.57" ry="19.12"/><rect class="cls-5" x="47.96" y="157.34" width="156.1" height="25.73" rx="2.32" ry="2.32"/><polygon class="cls-6" points="48.54 157.34 83.9 157.3 149.69 157.3 203.48 157.38 203.48 168.51 168.48 176.4 116.81 164.73 82.96 172.38 48.54 164.83 48.54 157.34"/><circle class="cls-7" cx="115.22" cy="129.86" r="10.2"/><circle class="cls-8" cx="109.5" cy="120.24" r="26.65"/><polygon class="cls-9" points="48.23 157.3 149.36 157.3 82.08 118.7 48.23 138.12 48.23 157.3"/><polygon class="cls-9" points="168.35 108.38 203.5 128.57 203.48 157.38 82.85 157.3 168.35 108.38"/></svg>