<svg id="Layer_1" data-name="Layer 1" xmlns="http://www.w3.org/2000/svg" viewBox="0 0 419.75 379.79"><defs><style>.cls-1{fill:#f2f2f2;stroke:#ccc;stroke-miterlimit:10;}.cls-2{fill:#7c7c7c;}</style></defs><title>image</title><rect class="cls-1" x="0.5" y="0.5" width="418.75" height="378.79" rx="28.81" ry="28.81"/><g id="svg_24" data-name="svg 24"><g id="svg_18" data-name="svg 18"><path id="svg_19" data-name="svg 19" class="cls-2" d="M380.53,334H78.31a5.74,5.74,0,0,1-5.81-5.68V89.77a5.75,5.75,0,0,1,5.81-5.69H380.53a5.76,5.76,0,0,1,5.82,5.69V328.32A5.75,5.75,0,0,1,380.53,334ZM84.12,322.64h290.6V95.44H84.12Z" transform="translate(-2.11 -2.11)"/><path id="svg_20" data-name="svg 20" class="cls-2" d="M78.31,299.92H43.44a5.75,5.75,0,0,1-5.82-5.68V55.69A5.75,5.75,0,0,1,43.44,50H345.66a5.74,5.74,0,0,1,5.81,5.68V89.77a5.74,5.74,0,0,1-5.81,5.67H84.12v198.8A5.74,5.74,0,0,1,78.31,299.92ZM49.25,288.56H72.5V89.77a5.75,5.75,0,0,1,5.81-5.69H339.85V61.37H49.25Z" transform="translate(-2.11 -2.11)"/><path id="svg_21" data-name="svg 21" class="cls-2" d="M380.53,334H224.9a5.81,5.81,0,0,1-5.3-3.35,5.58,5.58,0,0,1,1-6.1l91.7-100.82a6.09,6.09,0,0,1,8.69,0L384.88,294a5.58,5.58,0,0,1,1.47,3.77v30.53A5.75,5.75,0,0,1,380.53,334ZM237.84,322.64H374.72V300l-58.12-63.9Z" transform="translate(-2.11 -2.11)"/><path id="svg_22" data-name="svg 22" class="cls-2" d="M224.9,334H78.31a5.74,5.74,0,0,1-5.81-5.68V233.89A5.58,5.58,0,0,1,74,230.12l75.55-83.07a6.09,6.09,0,0,1,8.69,0l116.24,127.8a5.58,5.58,0,0,1,0,7.55l-45.2,49.7A5.9,5.9,0,0,1,224.9,334ZM84.12,322.64H222.29l40-44L153.87,159.37,84.12,236.05Z" transform="translate(-2.11 -2.11)"/><path id="svg_23" data-name="svg 23" class="cls-2" d="M275.92,192c-16,0-29.06-12.74-29.06-28.39s13-28.4,29.06-28.4S305,148,305,163.61,291.94,192,275.92,192Zm0-45.44a17,17,0,1,0,17.43,17.05A17.27,17.27,0,0,0,275.92,146.56Z" transform="translate(-2.11 -2.11)"/></g></g></svg>