<svg id="Layer_1" data-name="Layer 1" xmlns="http://www.w3.org/2000/svg" viewBox="0 0 251 251"><defs><style>.cls-1,.cls-2{fill:#f2f2f2;stroke-miterlimit:10;}.cls-1{stroke:#b3b3b3;}.cls-2{stroke:#333;stroke-width:1.5px;}.cls-3{fill:#e0bb05;}.cls-4{fill:#333;}</style></defs><title>input</title><rect class="cls-1" x="0.5" y="0.5" width="250" height="250" rx="13.7" ry="13.7"/><rect class="cls-2" x="49.63" y="80.38" width="168.37" height="47.65" rx="5.77" ry="5.77"/><rect class="cls-3" x="35" y="91.27" width="174.71" height="47.65" rx="5.87" ry="5.87"/><rect class="cls-4" x="80.02" y="116.99" width="25.29" height="1.23" rx="0.55" ry="0.55" transform="translate(209.27 23.94) rotate(90)"/><path class="cls-4" d="M53.84,119.9l-1.64,4.95H50.1l5.35-15.74H57.9l5.37,15.74H61.1l-1.68-4.95ZM59,118.31l-1.54-4.53c-.35-1-.59-2-.82-2.87h0c-.23.93-.49,1.89-.79,2.85l-1.54,4.55Z" transform="translate(-1 -1)"/><path class="cls-4" d="M65.34,124.85c0-.77.1-1.92.1-2.92V108.27h2v7.1h0a4.21,4.21,0,0,1,3.85-2.08c2.8,0,4.78,2.33,4.76,5.77,0,4-2.54,6-5.07,6A4,4,0,0,1,67.28,123h-.07l-.09,1.87Zm2.13-4.53a4.4,4.4,0,0,0,.09.74,3.17,3.17,0,0,0,3.08,2.41c2.15,0,3.44-1.75,3.44-4.34,0-2.27-1.17-4.21-3.37-4.21a3.27,3.27,0,0,0-3.12,2.53,3.76,3.76,0,0,0-.12.84Z" transform="translate(-1 -1)"/><path class="cls-4" d="M86.77,124.43a7.59,7.59,0,0,1-3.24.65c-3.41,0-5.63-2.31-5.63-5.77a5.74,5.74,0,0,1,6.07-6,6.88,6.88,0,0,1,2.85.59l-.47,1.58A4.77,4.77,0,0,0,84,115c-2.59,0-4,1.91-4,4.27a3.88,3.88,0,0,0,3.92,4.23,5.91,5.91,0,0,0,2.52-.56Z" transform="translate(-1 -1)"/><rect class="cls-4" x="63.09" y="149.44" width="120.15" height="2.88" rx="1.33" ry="1.33" transform="translate(245.32 300.75) rotate(180)"/><rect class="cls-4" x="63.09" y="161.29" width="94.91" height="2.88" rx="1.33" ry="1.33" transform="translate(220.09 324.45) rotate(180)"/><rect class="cls-4" x="63.09" y="173.14" width="71.91" height="2.88" rx="1.33" ry="1.33" transform="translate(197.09 348.16) rotate(180)"/></svg>