<svg id="Layer_1" data-name="Layer 1" xmlns="http://www.w3.org/2000/svg" viewBox="0 0 251 251"><defs><style>.cls-1{fill:#f2f2f2;stroke:#b3b3b3;stroke-miterlimit:10;}.cls-2{fill:#333;}.cls-3{fill:#e0bb05;}.cls-4{fill:#fff;}</style></defs><title>laguageswitcher</title><rect class="cls-1" x="0.5" y="0.5" width="250" height="250" rx="13.7" ry="13.7"/><rect class="cls-2" x="70" y="103.07" width="113" height="46.1" rx="7.96" ry="7.96"/><path class="cls-3" d="M88.72,132.66V121.28h8.43v1.93H91v2.52h5.71v1.92H91v3.09h6.35v1.92Z" transform="translate(-1 -1)"/><path class="cls-3" d="M106.8,132.66h-2.18v-4.21a6.57,6.57,0,0,0-.14-1.72,1.19,1.19,0,0,0-.46-.61,1.23,1.23,0,0,0-.75-.22,1.73,1.73,0,0,0-1,.31,1.56,1.56,0,0,0-.61.82,6.77,6.77,0,0,0-.17,1.9v3.73H99.29v-8.24h2v1.21a3.38,3.38,0,0,1,4-1.14,2.22,2.22,0,0,1,.9.67,2.25,2.25,0,0,1,.43.91,6.83,6.83,0,0,1,.12,1.47Z" transform="translate(-1 -1)"/><path class="cls-3" d="M108.81,133.2l2.49.3a.86.86,0,0,0,.29.6,1.58,1.58,0,0,0,1,.23,2.54,2.54,0,0,0,1.28-.25,1.12,1.12,0,0,0,.44-.55,3.6,3.6,0,0,0,.1-1v-1.21a3,3,0,0,1-2.47,1.34,3,3,0,0,1-2.63-1.41,4.75,4.75,0,0,1-.76-2.76,4.51,4.51,0,0,1,1-3.16,3.21,3.21,0,0,1,2.48-1.1,3,3,0,0,1,2.52,1.34v-1.15h2v7.39a7.39,7.39,0,0,1-.24,2.18,2.77,2.77,0,0,1-.68,1.14,3.05,3.05,0,0,1-1.16.64,6.23,6.23,0,0,1-1.83.23,4.72,4.72,0,0,1-3-.72,2.22,2.22,0,0,1-.88-1.81A2.62,2.62,0,0,1,108.81,133.2Zm2-4.83a3,3,0,0,0,.5,1.92,1.6,1.6,0,0,0,1.26.61,1.73,1.73,0,0,0,1.35-.63,2.74,2.74,0,0,0,.55-1.85,2.91,2.91,0,0,0-.53-1.9,1.69,1.69,0,0,0-1.33-.62,1.61,1.61,0,0,0-1.3.61A2.87,2.87,0,0,0,110.76,128.37Z" transform="translate(-1 -1)"/><path class="cls-3" d="M118.72,132.66V121.28h2.18v11.38Z" transform="translate(-1 -1)"/><path class="cls-3" d="M123.13,123.3v-2h2.18v2Zm0,9.36v-8.24h2.18v8.24Z" transform="translate(-1 -1)"/><path class="cls-3" d="M126.78,130.31,129,130a1.66,1.66,0,0,0,.57,1,1.92,1.92,0,0,0,1.2.33A2.15,2.15,0,0,0,132,131a.71.71,0,0,0,.29-.58.57.57,0,0,0-.16-.41,1.67,1.67,0,0,0-.73-.29,11.82,11.82,0,0,1-3.34-1.06,2.15,2.15,0,0,1-1-1.86,2.3,2.3,0,0,1,.84-1.8,4,4,0,0,1,2.63-.73,4.65,4.65,0,0,1,2.51.55,2.78,2.78,0,0,1,1.13,1.63l-2.05.38a1.29,1.29,0,0,0-.5-.73,1.77,1.77,0,0,0-1-.26,2.39,2.39,0,0,0-1.24.24.52.52,0,0,0-.25.44.5.5,0,0,0,.22.4,8.41,8.41,0,0,0,2,.61,6,6,0,0,1,2.43,1,2,2,0,0,1,.68,1.62,2.48,2.48,0,0,1-.94,1.95,4.21,4.21,0,0,1-2.8.81,4.55,4.55,0,0,1-2.67-.68A3.13,3.13,0,0,1,126.78,130.31Z" transform="translate(-1 -1)"/><path class="cls-3" d="M138.55,121.28v4.19a3.22,3.22,0,0,1,2.53-1.24,3.26,3.26,0,0,1,1.35.28,2.28,2.28,0,0,1,.92.72,2.56,2.56,0,0,1,.41,1,8,8,0,0,1,.12,1.63v4.84H141.7v-4.35a6.48,6.48,0,0,0-.13-1.65,1,1,0,0,0-.44-.55,1.38,1.38,0,0,0-.78-.21,1.83,1.83,0,0,0-1,.26,1.54,1.54,0,0,0-.63.8,4.78,4.78,0,0,0-.2,1.57v4.13h-2.18V121.28Z" transform="translate(-1 -1)"/><path class="cls-4" d="M165.61,125c0-.28.13.53,0,.73l-3.78,5.85a.26.26,0,0,1-.47,0l-3.78-5.85a.73.73,0,0,1,0-.73Z" transform="translate(-1 -1)"/></svg>