<svg id="Layer_1" data-name="Layer 1" xmlns="http://www.w3.org/2000/svg" viewBox="0 0 251 251"><defs><style>.cls-1,.cls-2{fill:#f2f2f2;stroke-miterlimit:10;}.cls-1{stroke:#b3b3b3;}.cls-2{stroke:#333;stroke-width:1.5px;}.cls-3{fill:#e0bb05;}.cls-4,.cls-5{fill:#333;}.cls-5{fill-rule:evenodd;}</style></defs><title>link</title><rect class="cls-1" x="0.5" y="0.5" width="250" height="250" rx="13.7" ry="13.7"/><rect class="cls-2" x="49.55" y="92.55" width="167.45" height="47.39" rx="5.77" ry="5.77"/><rect class="cls-3" x="35" y="103.39" width="173.76" height="47.39" rx="5.87" ry="5.87"/><rect class="cls-4" x="49.45" y="139.86" width="37.55" height="1.08" rx="0.22" ry="0.22" transform="translate(135.45 279.81) rotate(-180)"/><path class="cls-4" d="M53.74,131.87l-1.63,4.92H50l5.31-15.65h2.44l5.34,15.65H61l-1.67-4.92Zm5.13-1.58-1.53-4.5c-.35-1-.58-2-.82-2.86h0c-.23.93-.49,1.88-.79,2.83l-1.53,4.53Z" transform="translate(-1 -1)"/><path class="cls-4" d="M65.18,136.79c0-.77.1-1.91.1-2.9V120.31h2v7h0a4.19,4.19,0,0,1,3.83-2.06c2.79,0,4.76,2.32,4.74,5.73,0,4-2.53,6-5,6a4,4,0,0,1-3.76-2.11H67L67,136.79Zm2.11-4.51a3.66,3.66,0,0,0,.1.75,3.15,3.15,0,0,0,3.06,2.39c2.14,0,3.41-1.74,3.41-4.32,0-2.25-1.16-4.18-3.34-4.18a3.26,3.26,0,0,0-3.11,2.51,3.76,3.76,0,0,0-.12.84Z" transform="translate(-1 -1)"/><path class="cls-4" d="M86.49,136.37a7.54,7.54,0,0,1-3.23.65c-3.39,0-5.59-2.3-5.59-5.73a5.71,5.71,0,0,1,6-6,6.85,6.85,0,0,1,2.84.58l-.47,1.58A4.73,4.73,0,0,0,83.7,127c-2.57,0-4,1.9-4,4.24a3.86,3.86,0,0,0,3.9,4.2,5.91,5.91,0,0,0,2.51-.55Z" transform="translate(-1 -1)"/><path class="cls-5" d="M190.24,127.35a4.79,4.79,0,1,0-6.77-6.77L180.1,124a1.2,1.2,0,1,0,1.69,1.7l3.37-3.38a2.39,2.39,0,1,1,3.38,3.38L185.17,129a1.19,1.19,0,0,0,0,1.69,1.21,1.21,0,0,0,1.69,0l3.38-3.38Zm-9.3,4.22,4.23-4.22a1.21,1.21,0,0,0,0-1.69,1.19,1.19,0,0,0-1.69,0l-4.23,4.22a1.2,1.2,0,0,0,1.69,1.69ZM179.25,135a2.39,2.39,0,0,1-3.38-3.38l3.38-3.38a1.19,1.19,0,0,0,0-1.69,1.21,1.21,0,0,0-1.69,0l-3.38,3.38a4.78,4.78,0,0,0,6.76,6.76l3.38-3.38a1.19,1.19,0,0,0,0-1.69,1.21,1.21,0,0,0-1.69,0L179.25,135Z" transform="translate(-1 -1)"/></svg>