<svg id="Layer_1" data-name="Layer 1" xmlns="http://www.w3.org/2000/svg" viewBox="0 0 251 251"><defs><style>.cls-1{fill:#f2f2f2;stroke:#b3b3b3;}.cls-1,.cls-3{stroke-miterlimit:10;}.cls-2{fill:#e0bb05;}.cls-3{fill:none;stroke:#333;stroke-width:1.5px;}.cls-4{fill:#333;}</style></defs><title>paragraphs</title><rect class="cls-1" x="0.5" y="0.5" width="250" height="250" rx="13.7" ry="13.7"/><path class="cls-2" d="M53.07,54.19h8.82a6.05,6.05,0,0,1,4.32,1.37,5.16,5.16,0,0,1,1.44,3.91,5.26,5.26,0,0,1-1.57,4.06A6.74,6.74,0,0,1,61.31,65H58.4v6.37H53.07Zm5.33,7.33h1.3A3.33,3.33,0,0,0,61.86,61a1.72,1.72,0,0,0,.62-1.36,1.89,1.89,0,0,0-.54-1.37,2.77,2.77,0,0,0-2-.56H58.4Z" transform="translate(-1 -1)"/><path class="cls-2" d="M74.05,63l-4.56-.48a5.08,5.08,0,0,1,.74-1.88,4.06,4.06,0,0,1,1.4-1.19,5.87,5.87,0,0,1,1.81-.56,13.77,13.77,0,0,1,2.48-.2,19.84,19.84,0,0,1,3.45.24,4.37,4.37,0,0,1,2.16,1,3.55,3.55,0,0,1,1,1.49,5.53,5.53,0,0,1,.35,1.85v5.49A6.26,6.26,0,0,0,83,70.1a5.79,5.79,0,0,0,.48,1.27H79a4.05,4.05,0,0,1-.35-.73,5.29,5.29,0,0,1-.17-.79,6.14,6.14,0,0,1-1.86,1.29,7.84,7.84,0,0,1-2.94.51,4.9,4.9,0,0,1-3.38-1,3.26,3.26,0,0,1-1.16-2.54,3.34,3.34,0,0,1,.83-2.33A5.67,5.67,0,0,1,73,64.39c1.79-.36,2.95-.61,3.49-.76a13.9,13.9,0,0,0,1.68-.57,1.71,1.71,0,0,0-.36-1.23,1.85,1.85,0,0,0-1.28-.35,3.31,3.31,0,0,0-1.76.38A2,2,0,0,0,74.05,63Zm4.13,2.51c-.65.23-1.34.44-2.05.62a4.79,4.79,0,0,0-1.84.76,1.22,1.22,0,0,0-.4.88,1.18,1.18,0,0,0,.4.92,1.63,1.63,0,0,0,1.15.36,2.92,2.92,0,0,0,1.48-.39,2.41,2.41,0,0,0,1-.94,3.23,3.23,0,0,0,.28-1.45Z" transform="translate(-1 -1)"/><path class="cls-2" d="M85.75,58.93h4.47v2a4.88,4.88,0,0,1,1.33-1.83,2.79,2.79,0,0,1,1.69-.49,5.14,5.14,0,0,1,2.31.65l-1.48,3.4a3.79,3.79,0,0,0-1.33-.35,1.67,1.67,0,0,0-1.46.77,7.92,7.92,0,0,0-.73,4.08v4.17h-4.8Z" transform="translate(-1 -1)"/><path class="cls-2" d="M101.12,63l-4.56-.48a5.08,5.08,0,0,1,.74-1.88,4.06,4.06,0,0,1,1.4-1.19,5.87,5.87,0,0,1,1.81-.56,13.77,13.77,0,0,1,2.48-.2,19.84,19.84,0,0,1,3.45.24,4.37,4.37,0,0,1,2.16,1,3.55,3.55,0,0,1,1,1.49,5.53,5.53,0,0,1,.35,1.85v5.49A6.26,6.26,0,0,0,110,70.1a5.79,5.79,0,0,0,.48,1.27H106a4.05,4.05,0,0,1-.35-.73,5.29,5.29,0,0,1-.17-.79,6.14,6.14,0,0,1-1.86,1.29,7.84,7.84,0,0,1-2.94.51,4.9,4.9,0,0,1-3.38-1,3.26,3.26,0,0,1-1.16-2.54A3.34,3.34,0,0,1,97,65.75a5.67,5.67,0,0,1,3.07-1.36c1.79-.36,3-.61,3.49-.76a13.9,13.9,0,0,0,1.68-.57,1.71,1.71,0,0,0-.36-1.23,1.85,1.85,0,0,0-1.28-.35,3.33,3.33,0,0,0-1.76.38A2,2,0,0,0,101.12,63Zm4.13,2.51c-.65.23-1.34.44-2,.62a4.79,4.79,0,0,0-1.84.76,1.22,1.22,0,0,0-.4.88,1.18,1.18,0,0,0,.4.92,1.63,1.63,0,0,0,1.15.36,2.92,2.92,0,0,0,1.48-.39,2.41,2.41,0,0,0,1-.94,3.23,3.23,0,0,0,.28-1.45Z" transform="translate(-1 -1)"/><path class="cls-2" d="M121.82,58.93h4.47v12.3a5.19,5.19,0,0,1-.5,2.23,4.68,4.68,0,0,1-1.32,1.72,5.09,5.09,0,0,1-2.1.95,12.8,12.8,0,0,1-2.91.29q-3.75,0-5.15-1.12a3.65,3.65,0,0,1-1.4-3c0-.16,0-.37,0-.64l4.63.53a1.51,1.51,0,0,0,.54.89,2.28,2.28,0,0,0,1.32.37,2,2,0,0,0,1.54-.56,2.8,2.8,0,0,0,.51-1.92V69.08a4.66,4.66,0,0,1-3.78,1.79,4.71,4.71,0,0,1-4-2.18,7,7,0,0,1-1.09-4.09,6.35,6.35,0,0,1,1.4-4.43,4.77,4.77,0,0,1,3.68-1.52,4.5,4.5,0,0,1,4.16,2.12Zm-4.49,6a3,3,0,0,0,.58,2,2,2,0,0,0,3,0,3,3,0,0,0,.6-2,3.08,3.08,0,0,0-.63-2.08,2,2,0,0,0-1.55-.72,1.77,1.77,0,0,0-1.46.67A3.48,3.48,0,0,0,117.33,65Z" transform="translate(-1 -1)"/><path class="cls-2" d="M129.65,58.93h4.47v2a4.88,4.88,0,0,1,1.33-1.83,2.79,2.79,0,0,1,1.69-.49,5.14,5.14,0,0,1,2.31.65L138,62.7a3.84,3.84,0,0,0-1.33-.35,1.67,1.67,0,0,0-1.46.77,7.9,7.9,0,0,0-.74,4.08v4.17h-4.79Z" transform="translate(-1 -1)"/><path class="cls-2" d="M145,63l-4.55-.48a5.08,5.08,0,0,1,.74-1.88,4,4,0,0,1,1.4-1.19,5.87,5.87,0,0,1,1.81-.56,13.77,13.77,0,0,1,2.48-.2,19.64,19.64,0,0,1,3.44.24,4.41,4.41,0,0,1,2.17,1,3.44,3.44,0,0,1,1,1.49,5.32,5.32,0,0,1,.36,1.85v5.49a6.26,6.26,0,0,0,.11,1.38,5.79,5.79,0,0,0,.48,1.27h-4.47a5.2,5.2,0,0,1-.36-.73,7.53,7.53,0,0,1-.16-.79,6.26,6.26,0,0,1-1.86,1.29,7.87,7.87,0,0,1-2.94.51,4.88,4.88,0,0,1-3.38-1,3.26,3.26,0,0,1-1.16-2.54,3.34,3.34,0,0,1,.83-2.33A5.67,5.67,0,0,1,144,64.39c1.79-.36,3-.61,3.48-.76a13.46,13.46,0,0,0,1.69-.57,1.71,1.71,0,0,0-.36-1.23,1.85,1.85,0,0,0-1.28-.35,3.31,3.31,0,0,0-1.76.38A2.07,2.07,0,0,0,145,63Zm4.14,2.51c-.65.23-1.34.44-2.05.62a4.79,4.79,0,0,0-1.84.76,1.22,1.22,0,0,0-.4.88,1.2,1.2,0,0,0,.39.92,1.68,1.68,0,0,0,1.16.36,3,3,0,0,0,1.48-.39,2.32,2.32,0,0,0,1-.94,3.09,3.09,0,0,0,.29-1.45Z" transform="translate(-1 -1)"/><path class="cls-2" d="M156.93,76.11V58.93h4.47v1.84a5.65,5.65,0,0,1,1.7-1.57,4.81,4.81,0,0,1,2.31-.55,4.45,4.45,0,0,1,3.86,1.91,7.89,7.89,0,0,1,1.36,4.72A6.77,6.77,0,0,1,169.14,70a4.85,4.85,0,0,1-3.76,1.63,5.25,5.25,0,0,1-2-.37,4.89,4.89,0,0,1-1.62-1.11v5.94Zm4.78-10.92a3.31,3.31,0,0,0,.62,2.19,2,2,0,0,0,1.58.71,1.76,1.76,0,0,0,1.39-.68,3.77,3.77,0,0,0,.56-2.33,3.45,3.45,0,0,0-.58-2.22,1.8,1.8,0,0,0-1.43-.71,1.93,1.93,0,0,0-1.53.72A3.58,3.58,0,0,0,161.71,65.19Z" transform="translate(-1 -1)"/><path class="cls-2" d="M172.92,54.19h4.77v6.33a6.37,6.37,0,0,1,1.93-1.44,5.47,5.47,0,0,1,2.27-.43A4,4,0,0,1,185,59.83a5.15,5.15,0,0,1,1.12,3.63v7.91h-4.8V64.53a2.51,2.51,0,0,0-.43-1.66,1.56,1.56,0,0,0-1.22-.49,1.7,1.7,0,0,0-1.4.66,3.82,3.82,0,0,0-.54,2.36v6h-4.77Z" transform="translate(-1 -1)"/><path class="cls-2" d="M188.08,67.92l4.74-.45a2.27,2.27,0,0,0,.82,1.21A2.44,2.44,0,0,0,195,69a2.4,2.4,0,0,0,1.49-.41.91.91,0,0,0,.41-.76.86.86,0,0,0-.54-.79,9.48,9.48,0,0,0-2.05-.5,20.89,20.89,0,0,1-3.45-.8,3.59,3.59,0,0,1-1.63-1.24,3.28,3.28,0,0,1-.66-2,3.33,3.33,0,0,1,.71-2.12,4.3,4.3,0,0,1,2-1.32,10.3,10.3,0,0,1,3.37-.44,11.44,11.44,0,0,1,3.28.34,4.14,4.14,0,0,1,1.77,1A5.56,5.56,0,0,1,200.89,62l-4.52.45a1.59,1.59,0,0,0-.59-.88,2.39,2.39,0,0,0-1.36-.37,2,2,0,0,0-1.18.28.88.88,0,0,0-.37.7.75.75,0,0,0,.47.69,7.3,7.3,0,0,0,2,.42,13.92,13.92,0,0,1,3.54.75,4,4,0,0,1,1.78,1.37,3.34,3.34,0,0,1,.61,2,3.89,3.89,0,0,1-.65,2.1,4.38,4.38,0,0,1-2,1.62,9.86,9.86,0,0,1-3.81.6c-2.28,0-3.9-.32-4.86-1A4.35,4.35,0,0,1,188.08,67.92Z" transform="translate(-1 -1)"/><rect class="cls-3" x="33.5" y="33.5" width="185" height="185" rx="13.73" ry="13.73"/><rect class="cls-4" x="77.49" y="122.95" width="102.51" height="2.67" rx="1.33" ry="1.33" transform="translate(256.49 247.56) rotate(180)"/><rect class="cls-4" x="77.49" y="135.95" width="102.51" height="2.67" rx="1.33" ry="1.33" transform="translate(256.49 273.56) rotate(180)"/><rect class="cls-4" x="77.49" y="147.95" width="102.51" height="2.67" rx="1.33" ry="1.33" transform="translate(256.49 297.56) rotate(180)"/><rect class="cls-4" x="77.49" y="159.95" width="102.51" height="2.67" rx="1.33" ry="1.33" transform="translate(256.49 321.56) rotate(180)"/><rect class="cls-4" x="77.49" y="172.95" width="102.51" height="2.67" rx="1.33" ry="1.33" transform="translate(256.49 347.56) rotate(180)"/><rect class="cls-4" x="77.49" y="184.95" width="102.51" height="2.67" rx="1.33" ry="1.33" transform="translate(256.49 371.56) rotate(180)"/><rect class="cls-4" x="87.49" y="196.95" width="82.51" height="2.67" rx="1.33" ry="1.33" transform="translate(256.49 395.56) rotate(180)"/><rect class="cls-4" x="77.49" y="98.95" width="102.51" height="2.67" rx="1.33" ry="1.33" transform="translate(256.49 199.56) rotate(180)"/><rect class="cls-4" x="77.49" y="110.95" width="102.51" height="2.67" rx="1.33" ry="1.33" transform="translate(256.49 223.56) rotate(180)"/></svg>