<svg id="Layer_1" data-name="Layer 1" xmlns="http://www.w3.org/2000/svg" viewBox="0 0 251 251"><defs><style>.cls-1{fill:#f2f2f2;stroke:#b3b3b3;}.cls-1,.cls-3{stroke-miterlimit:10;}.cls-2{fill:#e0bb05;}.cls-3{fill:none;stroke:#333;stroke-width:1.5px;}.cls-4{fill:#333;}</style></defs><title>section</title><rect class="cls-1" x="0.5" y="0.5" width="250" height="250" rx="13.7" ry="13.7"/><path class="cls-2" d="M97.3,53.19h16.14v4.25H108V70.37h-5.3V57.44H97.3Z" transform="translate(-1 -1)"/><path class="cls-2" d="M115.7,53.19h4.77v3.25H115.7Zm0,4.74h4.77V70.37H115.7Z" transform="translate(-1 -1)"/><path class="cls-2" d="M129.27,53.19v4.74h2.63v3.49h-2.63v4.41a2.39,2.39,0,0,0,.15,1,.87.87,0,0,0,.82.4,5.31,5.31,0,0,0,1.48-.3l.35,3.29a15.34,15.34,0,0,1-3.3.38,5.83,5.83,0,0,1-2.63-.45,2.83,2.83,0,0,1-1.25-1.39,8.13,8.13,0,0,1-.4-3V61.42h-1.76V57.93h1.76V55.64Z" transform="translate(-1 -1)"/><path class="cls-2" d="M134.33,53.19h4.78V70.37h-4.78Z" transform="translate(-1 -1)"/><path class="cls-2" d="M156,65.33h-9.56A3,3,0,0,0,147,67a2.25,2.25,0,0,0,1.8.81,2.68,2.68,0,0,0,1.34-.35,3.4,3.4,0,0,0,.83-.78l4.7.43a6.75,6.75,0,0,1-2.6,2.69,9.53,9.53,0,0,1-4.37.81,9.08,9.08,0,0,1-3.9-.69,5.78,5.78,0,0,1-2.34-2.22,6.6,6.6,0,0,1-.94-3.57,6.29,6.29,0,0,1,1.87-4.72,7.14,7.14,0,0,1,5.16-1.8,9.15,9.15,0,0,1,4.22.81,5.44,5.44,0,0,1,2.36,2.34,8.52,8.52,0,0,1,.81,4Zm-4.85-2.28a3.25,3.25,0,0,0-.75-2,2.33,2.33,0,0,0-3.4.3,3.26,3.26,0,0,0-.55,1.68Z" transform="translate(-1 -1)"/><rect class="cls-3" x="33.5" y="32.5" width="185" height="185" rx="13.73" ry="13.73"/><rect class="cls-4" x="77.49" y="121.95" width="102.51" height="2.67" rx="1.33" ry="1.33" transform="translate(256.49 245.56) rotate(180)"/><rect class="cls-4" x="98.49" y="79.94" width="56.51" height="5.51" rx="2.76" ry="2.76" transform="translate(252.49 164.38) rotate(180)"/><rect class="cls-4" x="77.49" y="134.95" width="102.51" height="2.67" rx="1.33" ry="1.33" transform="translate(256.49 271.56) rotate(180)"/><rect class="cls-4" x="77.49" y="146.95" width="102.51" height="2.67" rx="1.33" ry="1.33" transform="translate(256.49 295.56) rotate(180)"/><rect class="cls-4" x="77.49" y="158.95" width="102.51" height="2.67" rx="1.33" ry="1.33" transform="translate(256.49 319.56) rotate(180)"/><rect class="cls-4" x="77.49" y="171.95" width="102.51" height="2.67" rx="1.33" ry="1.33" transform="translate(256.49 345.56) rotate(180)"/><rect class="cls-4" x="77.49" y="183.95" width="102.51" height="2.67" rx="1.33" ry="1.33" transform="translate(256.49 369.56) rotate(180)"/><rect class="cls-4" x="87.49" y="195.95" width="82.51" height="2.67" rx="1.33" ry="1.33" transform="translate(256.49 393.56) rotate(180)"/></svg>