<svg id="Layer_1" data-name="Layer 1" xmlns="http://www.w3.org/2000/svg" viewBox="0 0 419.75 379.79"><defs><style>.cls-1{fill:#f2f2f2;stroke:#ccc;stroke-miterlimit:10;}.cls-2{fill:gray;}.cls-3{fill:#ccc;}</style></defs><title>section</title><rect class="cls-1" x="0.5" y="0.5" width="418.75" height="378.79" rx="28.81" ry="28.81"/><rect class="cls-2" x="146.37" y="32.39" width="127" height="19" rx="9.5" ry="9.5"/><rect class="cls-3" x="50.2" y="91.99" width="119.85" height="13.83" rx="6.91" ry="6.91"/><rect class="cls-3" x="178.81" y="91.99" width="119.85" height="13.83" rx="6.91" ry="6.91"/><rect class="cls-3" x="251.69" y="116.75" width="119.85" height="13.83" rx="6.91" ry="6.91"/><rect class="cls-3" x="308.53" y="91.99" width="63.01" height="13.83" rx="6.91" ry="6.91"/><rect class="cls-3" x="146.46" y="116.75" width="63.01" height="13.83" rx="6.91" ry="6.91"/><rect class="cls-3" x="50.2" y="116.75" width="88.34" height="13.83" rx="6.91" ry="6.91"/><rect class="cls-3" x="212.81" y="116.75" width="34.26" height="13.83" rx="6.91" ry="6.91"/><rect class="cls-3" x="49.29" y="141.51" width="119.85" height="13.83" rx="6.91" ry="6.91"/><rect class="cls-3" x="177.9" y="141.51" width="119.85" height="13.83" rx="6.91" ry="6.91"/><rect class="cls-3" x="250.78" y="166.27" width="119.85" height="13.83" rx="6.91" ry="6.91"/><rect class="cls-3" x="307.63" y="141.51" width="63.01" height="13.83" rx="6.91" ry="6.91"/><rect class="cls-3" x="145.56" y="166.27" width="63.01" height="13.83" rx="6.91" ry="6.91"/><rect class="cls-3" x="49.29" y="166.27" width="88.34" height="13.83" rx="6.91" ry="6.91"/><rect class="cls-3" x="211.91" y="166.27" width="34.26" height="13.83" rx="6.91" ry="6.91"/><rect class="cls-3" x="49.29" y="191.03" width="119.85" height="13.83" rx="6.91" ry="6.91"/><rect class="cls-3" x="177.9" y="191.03" width="119.85" height="13.83" rx="6.91" ry="6.91"/><rect class="cls-3" x="250.78" y="215.79" width="119.85" height="13.83" rx="6.91" ry="6.91"/><rect class="cls-3" x="307.63" y="191.03" width="63.01" height="13.83" rx="6.91" ry="6.91"/><rect class="cls-3" x="145.56" y="215.79" width="63.01" height="13.83" rx="6.91" ry="6.91"/><rect class="cls-3" x="49.29" y="215.79" width="88.34" height="13.83" rx="6.91" ry="6.91"/><rect class="cls-3" x="211.91" y="215.79" width="34.26" height="13.83" rx="6.91" ry="6.91"/><rect class="cls-3" x="47.89" y="240.55" width="119.85" height="13.83" rx="6.91" ry="6.91"/><rect class="cls-3" x="176.51" y="240.55" width="119.85" height="13.83" rx="6.91" ry="6.91"/><rect class="cls-3" x="249.38" y="265.31" width="119.85" height="13.83" rx="6.91" ry="6.91"/><rect class="cls-3" x="306.23" y="240.55" width="63.01" height="13.83" rx="6.91" ry="6.91"/><rect class="cls-3" x="144.16" y="265.31" width="63.01" height="13.83" rx="6.91" ry="6.91"/><rect class="cls-3" x="47.89" y="265.31" width="88.34" height="13.83" rx="6.91" ry="6.91"/><rect class="cls-3" x="210.51" y="265.31" width="34.26" height="13.83" rx="6.91" ry="6.91"/><rect class="cls-3" x="46.49" y="290.07" width="119.85" height="13.83" rx="6.91" ry="6.91"/><rect class="cls-3" x="175.11" y="290.07" width="119.85" height="13.83" rx="6.91" ry="6.91"/><rect class="cls-3" x="247.98" y="314.83" width="119.85" height="13.83" rx="6.91" ry="6.91"/><rect class="cls-3" x="304.83" y="290.07" width="63.01" height="13.83" rx="6.91" ry="6.91"/><rect class="cls-3" x="142.76" y="314.83" width="63.01" height="13.83" rx="6.91" ry="6.91"/><rect class="cls-3" x="46.49" y="314.83" width="88.34" height="13.83" rx="6.91" ry="6.91"/><rect class="cls-3" x="209.11" y="314.83" width="34.26" height="13.83" rx="6.91" ry="6.91"/></svg>