<svg width="500" height="400" xmlns="http://www.w3.org/2000/svg">

 <g>
  <title>background</title>
  <rect fill="none" id="canvas_background" height="402" width="502" y="-1" x="-1"/>
 </g>
 <g>
  <title>Layer 1</title>
  <g stroke="null" id="svg_1">
   <g stroke="null" id="svg_2">
    <g stroke="null" id="svg_3">
     <path stroke="null" id="svg_4" fill="#7c7c7c" class="active-path" d="m326.000005,195.000011c0,-34.241022 -27.53532,-62.000004 -61.500003,-62.000004c-33.964884,0 -61.500003,27.758982 -61.500003,62.000004c0,34.240819 27.535119,62.000004 61.500003,62.000004c33.964683,0 61.500003,-27.759185 61.500003,-62.000004zm-117.409132,0c0,-31.129675 25.030501,-56.363677 55.90913,-56.363677s55.90913,25.234002 55.90913,56.363677s-25.030501,56.363677 -55.90913,56.363677s-55.90913,-25.234002 -55.90913,-56.363677z"/>
     <path stroke="null" id="svg_5" fill="#7c7c7c" class="active-path" d="m266.859312,230.785157l0,-35.785146l11.712937,0l1.850628,-11.858818l-13.563564,0l0,-5.946327c0,-3.094327 1.006309,-6.047837 5.412,-6.047837l8.805554,0l0,-11.836328l-12.501182,0c-10.510873,0 -13.379064,6.977634 -13.379064,16.649838l0,7.175184l-7.212182,0l0,11.864288l7.212182,0l0,35.785146l11.662692,0l0,0z"/>
    </g>
   </g>
  </g>
 </g>
</svg>