<svg id="Layer_1" data-name="Layer 1" xmlns="http://www.w3.org/2000/svg" viewBox="0 0 419.75 379.79"><defs><style>.cls-1{fill:#f2f2f2;stroke:#ccc;}.cls-1,.cls-5{stroke-miterlimit:10;}.cls-2{fill:gray;}.cls-3{fill:#e0e0e0;}.cls-4{fill:#ccc;}.cls-5{fill:none;stroke:#999;stroke-width:2px;}</style></defs><title>team</title><rect class="cls-1" x="0.5" y="0.5" width="418.75" height="378.79" rx="28.81" ry="28.81"/><circle class="cls-2" cx="94.04" cy="131.89" r="29"/><path class="cls-3" d="M67.23,196.68h57.85a2.46,2.46,0,0,1,2.47,2.47h0a2.46,2.46,0,0,1-2.47,2.48H67.23a2.47,2.47,0,0,1-2.48-2.48h0A2.46,2.46,0,0,1,67.23,196.68Z" transform="translate(-2.11 -2.11)"/><path class="cls-3" d="M67.23,206.3h57.85a2.46,2.46,0,0,1,2.47,2.48h0a2.46,2.46,0,0,1-2.47,2.47H67.23a2.46,2.46,0,0,1-2.48-2.47h0A2.47,2.47,0,0,1,67.23,206.3Z" transform="translate(-2.11 -2.11)"/><path class="cls-3" d="M67.23,215.93h57.85a2.46,2.46,0,0,1,2.47,2.47h0a2.46,2.46,0,0,1-2.47,2.48H67.23a2.47,2.47,0,0,1-2.48-2.48h0A2.49,2.49,0,0,1,67.23,215.93Z" transform="translate(-2.11 -2.11)"/><path class="cls-3" d="M67.23,225.55h57.85a2.46,2.46,0,0,1,2.47,2.48h0a2.46,2.46,0,0,1-2.47,2.47H67.23A2.46,2.46,0,0,1,64.75,228h0A2.47,2.47,0,0,1,67.23,225.55Z" transform="translate(-2.11 -2.11)"/><path class="cls-3" d="M67.23,235.18h57.85a2.46,2.46,0,0,1,2.47,2.48h0a2.46,2.46,0,0,1-2.47,2.47H67.23a2.46,2.46,0,0,1-2.48-2.47h0A2.47,2.47,0,0,1,67.23,235.18Z" transform="translate(-2.11 -2.11)"/><path class="cls-3" d="M67.23,244.81h57.85a2.46,2.46,0,0,1,2.47,2.47h0a2.46,2.46,0,0,1-2.47,2.48H67.23a2.47,2.47,0,0,1-2.48-2.48h0A2.49,2.49,0,0,1,67.23,244.81Z" transform="translate(-2.11 -2.11)"/><rect class="cls-4" x="67.94" y="281" width="9.94" height="9.94" rx="4.97" ry="4.97"/><rect class="cls-4" x="82.19" y="281" width="9.94" height="9.94" rx="4.97" ry="4.97"/><rect class="cls-4" x="96" y="281" width="9.94" height="9.94" rx="4.97" ry="4.97"/><rect class="cls-4" x="110.2" y="281" width="9.94" height="9.94" rx="4.97" ry="4.97"/><rect class="cls-5" x="45.23" y="72.31" width="98.67" height="250.5" rx="9.6" ry="9.6"/><circle class="cls-2" cx="209.38" cy="131.89" r="29"/><path class="cls-3" d="M182.57,196.68h57.85a2.46,2.46,0,0,1,2.47,2.47h0a2.46,2.46,0,0,1-2.47,2.48H182.57a2.47,2.47,0,0,1-2.48-2.48h0A2.46,2.46,0,0,1,182.57,196.68Z" transform="translate(-2.11 -2.11)"/><path class="cls-3" d="M182.57,206.3h57.85a2.46,2.46,0,0,1,2.47,2.48h0a2.46,2.46,0,0,1-2.47,2.47H182.57a2.46,2.46,0,0,1-2.48-2.47h0A2.47,2.47,0,0,1,182.57,206.3Z" transform="translate(-2.11 -2.11)"/><path class="cls-3" d="M182.57,215.93h57.85a2.46,2.46,0,0,1,2.47,2.47h0a2.46,2.46,0,0,1-2.47,2.48H182.57a2.47,2.47,0,0,1-2.48-2.48h0A2.49,2.49,0,0,1,182.57,215.93Z" transform="translate(-2.11 -2.11)"/><path class="cls-3" d="M182.57,225.55h57.85a2.46,2.46,0,0,1,2.47,2.48h0a2.46,2.46,0,0,1-2.47,2.47H182.57a2.46,2.46,0,0,1-2.48-2.47h0A2.47,2.47,0,0,1,182.57,225.55Z" transform="translate(-2.11 -2.11)"/><path class="cls-3" d="M182.57,235.18h57.85a2.46,2.46,0,0,1,2.47,2.48h0a2.46,2.46,0,0,1-2.47,2.47H182.57a2.46,2.46,0,0,1-2.48-2.47h0A2.47,2.47,0,0,1,182.57,235.18Z" transform="translate(-2.11 -2.11)"/><path class="cls-3" d="M182.57,244.81h57.85a2.46,2.46,0,0,1,2.47,2.47h0a2.46,2.46,0,0,1-2.47,2.48H182.57a2.47,2.47,0,0,1-2.48-2.48h0A2.49,2.49,0,0,1,182.57,244.81Z" transform="translate(-2.11 -2.11)"/><rect class="cls-4" x="183.29" y="281" width="9.94" height="9.94" rx="4.97" ry="4.97"/><rect class="cls-4" x="197.53" y="281" width="9.94" height="9.94" rx="4.97" ry="4.97"/><rect class="cls-4" x="211.34" y="281" width="9.94" height="9.94" rx="4.97" ry="4.97"/><rect class="cls-4" x="225.54" y="281" width="9.94" height="9.94" rx="4.97" ry="4.97"/><rect class="cls-5" x="160.57" y="72.31" width="98.67" height="250.5" rx="9.6" ry="9.6"/><circle class="cls-2" cx="324.65" cy="130.86" r="29"/><path class="cls-3" d="M297.84,195.65h57.85a2.46,2.46,0,0,1,2.47,2.47h0a2.46,2.46,0,0,1-2.47,2.48H297.84a2.47,2.47,0,0,1-2.48-2.48h0A2.46,2.46,0,0,1,297.84,195.65Z" transform="translate(-2.11 -2.11)"/><path class="cls-3" d="M297.84,205.27h57.85a2.46,2.46,0,0,1,2.47,2.48h0a2.46,2.46,0,0,1-2.47,2.47H297.84a2.46,2.46,0,0,1-2.48-2.47h0A2.47,2.47,0,0,1,297.84,205.27Z" transform="translate(-2.11 -2.11)"/><path class="cls-3" d="M297.84,214.9h57.85a2.46,2.46,0,0,1,2.47,2.47h0a2.46,2.46,0,0,1-2.47,2.48H297.84a2.47,2.47,0,0,1-2.48-2.48h0A2.49,2.49,0,0,1,297.84,214.9Z" transform="translate(-2.11 -2.11)"/><path class="cls-3" d="M297.84,224.52h57.85a2.46,2.46,0,0,1,2.47,2.48h0a2.46,2.46,0,0,1-2.47,2.47H297.84a2.46,2.46,0,0,1-2.48-2.47h0A2.47,2.47,0,0,1,297.84,224.52Z" transform="translate(-2.11 -2.11)"/><path class="cls-3" d="M297.84,234.15h57.85a2.46,2.46,0,0,1,2.47,2.48h0a2.46,2.46,0,0,1-2.47,2.47H297.84a2.46,2.46,0,0,1-2.48-2.47h0A2.47,2.47,0,0,1,297.84,234.15Z" transform="translate(-2.11 -2.11)"/><path class="cls-3" d="M297.84,243.78h57.85a2.46,2.46,0,0,1,2.47,2.47h0a2.46,2.46,0,0,1-2.47,2.48H297.84a2.47,2.47,0,0,1-2.48-2.48h0A2.49,2.49,0,0,1,297.84,243.78Z" transform="translate(-2.11 -2.11)"/><rect class="cls-4" x="298.55" y="279.97" width="9.94" height="9.94" rx="4.97" ry="4.97"/><rect class="cls-4" x="312.8" y="279.97" width="9.94" height="9.94" rx="4.97" ry="4.97"/><rect class="cls-4" x="326.61" y="279.97" width="9.94" height="9.94" rx="4.97" ry="4.97"/><rect class="cls-4" x="340.81" y="279.97" width="9.94" height="9.94" rx="4.97" ry="4.97"/><rect class="cls-5" x="275.84" y="71.28" width="98.67" height="250.5" rx="9.6" ry="9.6"/></svg>