<svg width="500" height="400" xmlns="http://www.w3.org/2000/svg">

 <g>
  <title>background</title>
  <rect fill="none" id="canvas_background" height="402" width="502" y="-1" x="-1"/>
 </g>
 <g>
  <title>Layer 1</title>
  <g stroke="null" id="svg_33">
   <g stroke="null" transform="matrix(5.922644900431766,0,0,5.284713788460294,-11.6781275775611,0) " id="svg_29">
    <g stroke="null" id="svg_30">
     <path stroke="null" id="svg_31" fill="#7c7c7c" class="active-path" d="m51.804069,37.379451l-11,-7c-0.308,-0.195 -0.698,-0.208 -1.019,-0.033c-0.319,0.176 -0.518,0.512 -0.518,0.877l0,14c0,0.365 0.199,0.701 0.519,0.877c0.15,0.082 0.315,0.123 0.481,0.123c0.187,0 0.374,-0.053 0.537,-0.156l11,-7c0.288,-0.184 0.463,-0.502 0.463,-0.844s-0.175,-0.66 -0.463,-0.844zm-10.537,6.023l0,-10.358l8.137,5.179l-8.137,5.179z"/>
     <path stroke="null" id="svg_32" fill="#7c7c7c" class="active-path" d="m72.267069,15.223451l-10,0l-36,0l-10,0c-0.552,0 -1,0.447 -1,1l0,11l0,11l0,11l0,11c0,0.553 0.448,1 1,1l10,0l36,0l10,0c0.552,0 1,-0.447 1,-1l0,-11l0,-11l0,-11l0,-11c0,-0.553 -0.448,-1 -1,-1zm-47,22l-8,0l0,-9l8,0l0,9zm-8,2l8,0l0,9l-8,0l0,-9zm10,10l0,-11l0,-11l0,-10l34,0l0,10l0,11l0,11l0,10l-34,0l0,-10zm44,-12l-8,0l0,-9l8,0l0,9zm-8,2l8,0l0,9l-8,0l0,-9zm8,-22l0,9l-8,0l0,-9l8,0zm-54,0l8,0l0,9l-8,0l0,-9zm0,42l0,-9l8,0l0,9l-8,0zm54,0l-8,0l0,-9l8,0l0,9z"/>
    </g>
   </g>
  </g>
 </g>
</svg>