<svg id="Layer_1" data-name="Layer 1" xmlns="http://www.w3.org/2000/svg" viewBox="0 0 251 251"><defs><style>.cls-1,.cls-4{fill:#f2f2f2;}.cls-1{stroke:#b3b3b3;}.cls-1,.cls-2,.cls-5{stroke-miterlimit:10;}.cls-2{fill:none;}.cls-2,.cls-5{stroke:#333;stroke-width:1.5px;}.cls-3{fill:#333;}.cls-5{fill:#e0bb05;}</style></defs><title>wizard</title><rect class="cls-1" x="0.5" y="0.5" width="250" height="250" rx="13.7" ry="13.7"/><rect class="cls-2" x="34" y="34" width="185" height="183" rx="13.73" ry="13.73"/><path class="cls-3" d="M100.38,58.18l2.53-.25a3.08,3.08,0,0,0,.93,1.88,2.79,2.79,0,0,0,1.88.59,2.89,2.89,0,0,0,1.9-.53,1.59,1.59,0,0,0,.64-1.24,1.16,1.16,0,0,0-.27-.78,2.19,2.19,0,0,0-.94-.56c-.3-.1-1-.29-2.08-.56A7.22,7.22,0,0,1,102,55.46a3.36,3.36,0,0,1-1.18-2.6A3.33,3.33,0,0,1,101.4,51a3.55,3.55,0,0,1,1.61-1.3,6.45,6.45,0,0,1,2.54-.45,5.43,5.43,0,0,1,3.65,1.06,3.75,3.75,0,0,1,1.29,2.84l-2.6.12a2.17,2.17,0,0,0-.72-1.43,2.64,2.64,0,0,0-1.65-.44,3,3,0,0,0-1.77.47.93.93,0,0,0-.42.8,1,1,0,0,0,.39.78,6.83,6.83,0,0,0,2.39.86,12.63,12.63,0,0,1,2.81.93,3.53,3.53,0,0,1,1.42,1.31,4,4,0,0,1-.1,4.12,3.64,3.64,0,0,1-1.74,1.44,7.34,7.34,0,0,1-2.8.47A5.53,5.53,0,0,1,102,61.47,4.88,4.88,0,0,1,100.38,58.18Z" transform="translate(-1 -1)"/><path class="cls-3" d="M117.31,53v2h-1.69v3.76a9.53,9.53,0,0,0,0,1.33.49.49,0,0,0,.22.31.64.64,0,0,0,.42.13,3.12,3.12,0,0,0,1-.24l.21,1.91a4.81,4.81,0,0,1-2,.37,3,3,0,0,1-1.2-.22,1.76,1.76,0,0,1-.79-.58,2.35,2.35,0,0,1-.35-1,12.41,12.41,0,0,1-.08-1.74V55H112V53h1.13V51.18l2.48-1.44V53Z" transform="translate(-1 -1)"/><path class="cls-3" d="M124.43,59.4l2.46.42a4.12,4.12,0,0,1-1.5,2.06,4.41,4.41,0,0,1-2.56.7A4.19,4.19,0,0,1,119.22,61a5.37,5.37,0,0,1-.92-3.21,5.21,5.21,0,0,1,1.21-3.64,4,4,0,0,1,3.07-1.31,4.16,4.16,0,0,1,3.29,1.37A6.1,6.1,0,0,1,127,58.42h-6.19a2.53,2.53,0,0,0,.6,1.71,1.9,1.9,0,0,0,1.42.61,1.52,1.52,0,0,0,1-.32A2,2,0,0,0,124.43,59.4Zm.14-2.49a2.34,2.34,0,0,0-.56-1.63,1.66,1.66,0,0,0-1.28-.56,1.68,1.68,0,0,0-1.33.59,2.21,2.21,0,0,0-.52,1.6Z" transform="translate(-1 -1)"/><path class="cls-3" d="M129,53h2.31v1.37a3.32,3.32,0,0,1,1.21-1.14,3.26,3.26,0,0,1,1.69-.44,3.54,3.54,0,0,1,2.76,1.27,5.15,5.15,0,0,1,1.14,3.55,5.35,5.35,0,0,1-1.14,3.64,3.59,3.59,0,0,1-2.77,1.29,3.16,3.16,0,0,1-1.4-.3,4.92,4.92,0,0,1-1.33-1.06v4.7H129Zm2.45,4.51a3.55,3.55,0,0,0,.62,2.32,1.91,1.91,0,0,0,1.52.75,1.77,1.77,0,0,0,1.43-.69,3.55,3.55,0,0,0,.57-2.26,3.4,3.4,0,0,0-.58-2.18,1.85,1.85,0,0,0-1.46-.71,1.89,1.89,0,0,0-1.51.7A3.14,3.14,0,0,0,131.41,57.55Z" transform="translate(-1 -1)"/><path class="cls-3" d="M150.82,62.37h-2.47v-9.3a8.57,8.57,0,0,1-3.19,1.87V52.7a7,7,0,0,0,2.1-1.2,4.56,4.56,0,0,0,1.56-2.06h2Z" transform="translate(-1 -1)"/><line class="cls-2" x1="45" y1="73" x2="208" y2="73"/><rect class="cls-3" x="150" y="179" width="58.26" height="26.25" rx="5" ry="5"/><path class="cls-4" d="M166.41,198.37v-10h1.36l5.27,7.87v-7.87h1.27v10H173l-5.27-7.87v7.87Z" transform="translate(-1 -1)"/><path class="cls-4" d="M181.35,196l1.27.15a3.08,3.08,0,0,1-1.11,1.73,3.38,3.38,0,0,1-2.08.62,3.34,3.34,0,0,1-2.53-1,3.87,3.87,0,0,1-.93-2.76,4,4,0,0,1,.94-2.84,3.22,3.22,0,0,1,2.45-1,3.12,3.12,0,0,1,2.38,1,4,4,0,0,1,.92,2.79c0,.07,0,.18,0,.33h-5.41a2.79,2.79,0,0,0,.68,1.83,2,2,0,0,0,1.52.64,1.86,1.86,0,0,0,1.15-.36A2.42,2.42,0,0,0,181.35,196Zm-4-2h4.05a2.5,2.5,0,0,0-.46-1.38,1.9,1.9,0,0,0-1.53-.71,1.94,1.94,0,0,0-1.42.57A2.22,2.22,0,0,0,177.31,194.05Z" transform="translate(-1 -1)"/><path class="cls-4" d="M183.35,198.37,186,194.6l-2.46-3.49h1.54l1.12,1.71c.21.32.37.59.5.81.2-.3.39-.57.56-.8l1.22-1.72H190l-2.51,3.42,2.7,3.84h-1.51l-1.49-2.25-.4-.61-1.9,2.86Z" transform="translate(-1 -1)"/><path class="cls-4" d="M193.85,197.27l.18,1.09a4.85,4.85,0,0,1-.93.11,2.13,2.13,0,0,1-1-.21,1.17,1.17,0,0,1-.52-.56,4.39,4.39,0,0,1-.15-1.45v-4.18h-.9v-1h.9v-1.79l1.22-.74v2.53h1.24v1h-1.24v4.25a2.14,2.14,0,0,0,.07.67.49.49,0,0,0,.21.24.82.82,0,0,0,.42.09A4.31,4.31,0,0,0,193.85,197.27Z" transform="translate(-1 -1)"/><rect class="cls-5" x="45" y="85" width="163" height="82" rx="5" ry="5"/><rect class="cls-3" x="72" y="104.41" width="104.75" height="3.73" rx="1.87" ry="1.87" transform="translate(247.75 211.56) rotate(180)"/><rect class="cls-3" x="72" y="120.41" width="93" height="3.73" rx="1.87" ry="1.87" transform="translate(236 243.56) rotate(180)"/><rect class="cls-3" x="72" y="112.41" width="94.58" height="3.73" rx="1.87" ry="1.87" transform="translate(237.58 227.56) rotate(180)"/><rect class="cls-3" x="72" y="128.41" width="74" height="3.73" rx="1.87" ry="1.87" transform="translate(217 259.56) rotate(180)"/></svg>