<?xml version="1.0" encoding="iso-8859-1"?>
<!-- Generator: Adobe Illustrator 19.0.0, SVG Export Plug-In . SVG Version: 6.00 Build 0)  -->
<svg version="1.1" id="Layer_1" xmlns="http://www.w3.org/2000/svg" xmlns:xlink="http://www.w3.org/1999/xlink" x="0px" y="0px"
	 viewBox="0 0 473.931 473.931" style="enable-background:new 0 0 473.931 473.931;" xml:space="preserve">
<circle style="fill:#FFC10E;" cx="236.966" cy="236.966" r="236.966"/>
<g>
	<path style="fill:#333333;" d="M201.853,462.968c0,3.233,0,5.994,0,8.359c11.454,1.699,23.165,2.604,35.094,2.604
		c11.637,0,23.064-0.876,34.252-2.496c0-2.387,0-5.19,0-8.468C271.199,418.25,201.853,418.25,201.853,462.968z"/>
	<circle style="fill:#333333;" cx="164.937" cy="155.231" r="37.216"/>
	<circle style="fill:#333333;" cx="305.664" cy="155.231" r="37.216"/>
	<path style="fill:#333333;" d="M343.25,316.86c-59.277,60.332-154.666,59.857-213.449-0.898c-8.4-8.685-21.616,4.557-13.227,13.227
		c65.761,67.973,173.648,68.336,239.903,0.898C364.938,321.477,351.718,308.242,343.25,316.86L343.25,316.86z"/>
</g>
<g>
</g>
<g>
</g>
<g>
</g>
<g>
</g>
<g>
</g>
<g>
</g>
<g>
</g>
<g>
</g>
<g>
</g>
<g>
</g>
<g>
</g>
<g>
</g>
<g>
</g>
<g>
</g>
<g>
</g>
</svg>
