<?xml version="1.0" encoding="iso-8859-1"?>
<!-- Generator: Adobe Illustrator 22.1.0, SVG Export Plug-In . SVG Version: 6.00 Build 0)  -->
<svg xmlns="http://www.w3.org/2000/svg" xmlns:xlink="http://www.w3.org/1999/xlink" version="1.1" id="Layer_1_1_" x="0px" y="0px" viewBox="0 0 64 64" style="enable-background:new 0 0 64 64;" xml:space="preserve" width="512" height="512">
<g>
	<g>
		<path style="fill:#F0BC5E;" d="M58,31.721V20.279l-4.181-1.394c-0.294-0.854-0.653-1.714-1.074-2.564l1.978-3.954l-8.09-8.09    l-3.954,1.978c-0.851-0.421-1.71-0.78-2.564-1.074L38.721,1H27.279l-1.394,4.181c-0.854,0.294-1.714,0.653-2.564,1.074    l-3.954-1.978l-8.09,8.09l1.978,3.954c-0.421,0.851-0.78,1.71-1.074,2.564L8,20.279v11.441l4.181,1.394    c0.292,0.848,0.647,1.699,1.062,2.543L11.408,39H12v2h11l0.985-0.985L23.354,40C18.911,36.933,16,31.807,16,26    c0-9.389,7.611-17,17-17s17,7.611,17,17c0,6.084-3.196,11.421-8,14.425l-0.584-0.013C41.054,40.775,40.553,41,40,41h4.001    c1.105,0,2,0.895,2,2c0,1.105-0.895,2-2,2c1.105,0,2,0.895,2,2c0,0.252-0.052,0.49-0.137,0.712l0.845-0.008l8.012-8.075    l-1.976-3.95c0.42-0.851,0.779-1.71,1.073-2.564L58,31.721z"/>
	</g>
	<g>
		<path d="M60,57c-1.654,0-3,1.346-3,3s1.346,3,3,3s3-1.346,3-3S61.654,57,60,57z M60,61c-0.551,0-1-0.448-1-1s0.449-1,1-1    s1,0.448,1,1S60.551,61,60,61z"/>
		<path d="M7,3c0-1.654-1.346-3-3-3S1,1.346,1,3s1.346,3,3,3S7,4.654,7,3z M3,3c0-0.551,0.449-1,1-1s1,0.449,1,1S4.551,4,4,4    S3,3.551,3,3z"/>
		<path d="M51,26c0-9.925-8.075-18-18-18s-18,8.075-18,18c0,5.459,2.482,10.594,6.695,14H13v-2H6v20h7v-3h7.586l3,3H29v1    c0,2.206,1.794,4,4,4s4-1.794,4-4v-1h7.001c1.654,0,3-1.346,3-3c0-0.771-0.301-1.468-0.78-2c0.48-0.532,0.78-1.229,0.78-2    s-0.301-1.468-0.78-2c0.48-0.532,0.78-1.229,0.78-2s-0.301-1.468-0.78-2c0.48-0.532,0.78-1.229,0.78-2    c0-1.56-1.201-2.83-2.724-2.972C48.519,36.628,51,31.526,51,26z M11,56H8V40h3V56z M24.414,56l-3-3H13V42h10.414l4-4H40    c0.551,0,1,0.448,1,1s-0.449,1-1,1h-4h-6.414l-4.293,4.293l1.414,1.414L29,43.414V56H24.414z M39.586,36H37v-4.586l4-4V22    c0-2.206-1.794-4-4-4h-2v5.586L34.586,24h-3.172L31,23.586V18h-2c-2.206,0-4,1.794-4,4v5.414l4,4V36h-2.414l-0.063,0.063    C23.109,33.86,21,30.083,21,26c0-6.617,5.383-12,12-12s12,5.383,12,12C45,30.053,42.975,33.765,39.586,36z M30.586,26h4.828    L37,24.414V20c1.103,0,2,0.897,2,2v4.586L35.586,30h-5.172L27,26.586V22c0-1.103,0.897-2,2-2v4.414L30.586,26z M31,32h4v4h-4V32z     M45.001,47c0,0.552-0.449,1-1,1H36c-0.551,0-1-0.448-1-1s0.449-1,1-1h8.001C44.552,46,45.001,46.448,45.001,47z M45.001,51    c0,0.552-0.449,1-1,1H36c-0.551,0-1-0.448-1-1s0.449-1,1-1h8.001C44.552,50,45.001,50.448,45.001,51z M33,61c-1.103,0-2-0.897-2-2    V42h2.184C33.072,42.314,33,42.648,33,43c0,0.771,0.301,1.468,0.78,2c-0.48,0.532-0.78,1.229-0.78,2s0.301,1.468,0.78,2    c-0.48,0.532-0.78,1.229-0.78,2s0.301,1.468,0.78,2c-0.48,0.532-0.78,1.229-0.78,2c0,1.302,0.839,2.402,2,2.816V59    C35,60.103,34.103,61,33,61z M44.001,56H36c-0.551,0-1-0.448-1-1s0.449-1,1-1h8.001c0.551,0,1,0.448,1,1S44.552,56,44.001,56z     M45.001,43c0,0.552-0.449,1-1,1H36c-0.551,0-1-0.448-1-1s0.449-1,1-1h4h4.001C44.552,42,45.001,42.448,45.001,43z M42.952,38.525    c-0.114-0.709-0.476-1.329-0.996-1.78C45.143,34.099,47,30.203,47,26c0-7.72-6.28-14-14-14s-14,6.28-14,14    c0,4.619,2.298,8.92,6.067,11.519l-1.44,1.44C19.474,35.951,17,31.137,17,26c0-8.822,7.178-16,16-16s16,7.178,16,16    C49,30.942,46.766,35.502,42.952,38.525z"/>
		<rect x="3" y="9" width="2" height="2"/>
		<rect x="3" y="14" width="2" height="2"/>
		<rect x="3" y="19" width="2" height="2"/>
		<rect x="59" y="42" width="2" height="2"/>
		<rect x="59" y="47" width="2" height="2"/>
		<rect x="59" y="52" width="2" height="2"/>
	</g>
</g>
</svg>
