<svg version="1" xmlns="http://www.w3.org/2000/svg" width="400" height="400" viewBox="0 0 300.000000 300.000000"><path d="M0 150v150h300V0H0v150zM214.3 46.5L273 80.4v140.2l-59.7 34.5c-32.8 18.9-60.6 34.9-61.7 35.6-1.9 1-9-2.9-63.1-34.1l-61-35.1v-142l61-35.2 61-35.2 3 1.8c1.7.9 29.4 17 61.8 35.6z"/><path d="M91.5 51l-57 32.9v133.2l57 32.9c31.4 18.1 57.7 32.9 58.5 32.9.8 0 26.9-14.8 58-32.7l56.5-32.7v-134L208 50.8c-31.1-17.9-57.2-32.7-58-32.7-.8 0-27.1 14.8-58.5 32.9zm114.3 9.5L256 89.4v122.1l-52.7 30.4c-29 16.8-53.2 30.4-53.8 30.4-.6 0-24.8-13.6-53.8-30.4L43 211.5v-122l53.2-30.7 53.3-30.7 3 1.7c1.6 1 25.6 14.8 53.3 30.7z"/><path d="M126.5 51.4l-23 13.3-.3 26.5-.2 26.4 12.2 7.1c6.8 3.9 17.1 9.9 23 13.3l10.6 6.2 23.1-13.3 23.1-13.3-.2-26.9-.3-26.9-22.3-12.9C159.9 43.8 149.8 38 149.7 38c-.1 0-10.5 6-23.2 13.4zM205 93.8v24l17.8 10.2c9.7 5.6 19.2 11.1 21 12.2l3.2 2-.2-24.2-.3-24.2-15.5-9c-8.5-4.9-17.9-10.3-20.7-11.9l-5.3-3v23.9zM72.3 82.6L52 94.3v23.4c0 12.9.4 23.3.8 23.1.4-.2 9.7-5.4 20.5-11.7L93 117.7V94.4c0-12.9-.1-23.4-.2-23.4-.2 0-9.4 5.2-20.5 11.6zM74.5 140l-22 12.8-.3 26.9-.2 26.9 22 12.7c12.1 7 22.5 12.7 23.1 12.7 1.4 0 42.4-23.5 45.2-25.8 1.6-1.4 1.7-3.7 1.5-27.5l-.3-26-22.5-12.8c-12.4-7.1-22.9-12.9-23.5-12.8-.5 0-10.9 5.8-23 12.9zM176.8 140.3L154 153.5v52l23.1 13.5c12.7 7.4 23.5 13.6 23.9 13.8.4.1 10.8-5.5 23.1-12.7l22.4-12.9v-53.5l-23-13.3c-12.6-7.4-23.2-13.4-23.5-13.3-.3 0-10.7 6-23.2 13.2zM128.2 226.6c-11.2 6.4-20 12-19.5 12.4.4.5 9.9 6 20.9 12.4l20.2 11.6 20.5-11.8c11.4-6.4 20.6-11.9 20.6-12.2 0-.6-39.8-23.4-41.4-23.7-.5-.2-10.2 5-21.3 11.3z"/></svg>