<?xml version="1.0" encoding="iso-8859-1"?>
<!-- Generator: Adobe Illustrator 19.0.0, SVG Export Plug-In . SVG Version: 6.00 Build 0)  -->
<svg version="1.1" id="Layer_1" xmlns="http://www.w3.org/2000/svg" xmlns:xlink="http://www.w3.org/1999/xlink" x="0px" y="0px"
	 viewBox="0 0 504.32 504.32" style="enable-background:new 0 0 504.32 504.32;" xml:space="preserve">
<g transform="translate(1 1)">
	<path style="fill:#ECF4F7;" d="M498.2,498.627H250.733V481.56c61.44,0,117.76-20.48,162.133-55.467l0,0
		c24.747,0,34.133,4.267,34.133,4.267S498.2,455.96,498.2,498.627z M250.733,481.56v17.067H3.267c0-42.667,51.2-68.267,51.2-68.267
		s15.36-4.267,34.133-4.267C132.973,461.08,189.293,481.56,250.733,481.56z M361.667,157.293c0-17.067,0-102.4-110.933-102.4
		c-119.467,0-128,85.333-128,102.4c0,0,0,17.067,17.067,34.133c-9.387,0-17.067,7.68-17.067,17.067v34.133
		c0,9.387,7.68,17.067,17.067,17.067c0,0,0.853,49.493,27.307,86.187v0.853c-41.813-15.36-69.12-35.84-69.12-35.84
		s-29.013-22.187-57.173-58.88c-1.707-11.093-2.56-23.04-2.56-34.987c0-117.76,95.573-213.333,213.333-213.333
		S464.92,99.267,464.92,217.027c0,11.947-0.853,23.893-2.56,34.987h-0.853c-22.187,36.693-56.32,58.88-56.32,58.88
		s-31.573,23.893-78.507,38.4c21.333-19.627,28.16-46.933,28.16-46.933h-0.853c8.533-17.067,8.533-42.667,8.533-42.667
		c9.387,0,17.067-7.68,17.067-17.067v-34.133c0-9.387-7.68-17.067-17.067-17.067v-34.133H361.667z"/>
	<path style="fill:#AE938D;" d="M156.867,140.227c0,17.067,8.533,51.2,0,68.267c-17.067,0-17.067-17.067-17.067-17.067
		c-17.067-17.067-17.067-34.133-17.067-34.133c0-17.067,8.533-102.4,128-102.4c110.933,0,110.933,85.333,110.933,102.4v34.133
		l-34.133,8.533v-59.733C293.4,157.293,191,157.293,156.867,140.227"/>
	<path style="fill:#FFD0A1;" d="M353.987,302.36c0,0-6.827,28.16-28.16,46.933c-22.187,6.827-47.787,12.8-75.093,12.8
		c-30.72,0-59.733-6.827-83.627-15.36v-0.853c-26.453-36.693-27.307-86.187-27.307-86.187c-9.387,0-17.067-7.68-17.067-17.067
		v-34.133c0-9.387,7.68-17.067,17.067-17.067c0,0,0,17.067,17.067,17.067c8.533-17.067,0-51.2,0-68.267
		c34.133,17.067,136.533,17.067,170.667,0v59.733l34.133-8.533c9.387,0,17.067,7.68,17.067,17.067v34.133
		c0,9.387-7.68,17.067-17.067,17.067C361.667,259.693,361.667,285.293,353.987,302.36L353.987,302.36z M267.8,310.893
		c0-9.387-7.68-17.067-17.067-17.067c-9.387,0-17.067,7.68-17.067,17.067s7.68,17.067,17.067,17.067
		C260.12,327.96,267.8,320.28,267.8,310.893L267.8,310.893z"/>
	<path style="fill:#AAB1BA;" d="M412.867,355.267c-39.253,46.08-97.28,75.093-162.133,75.093S127.853,401.347,88.6,355.267
		c-24.747-29.013-41.813-64.853-48.64-104.107c28.16,37.547,57.173,58.88,57.173,58.88s27.307,20.48,69.12,35.84
		c23.893,8.533,52.907,15.36,84.48,15.36c27.307,0,52.907-5.12,75.093-11.947c46.933-15.36,78.507-39.253,78.507-39.253
		s34.133-22.187,56.32-58.88h0.853C454.68,291.267,437.613,327.107,412.867,355.267"/>
	<path style="fill:#80D6FA;" d="M54.467,20.76c0,9.387-7.68,17.067-17.067,17.067s-17.067-7.68-17.067-17.067
		S28.013,3.693,37.4,3.693S54.467,11.373,54.467,20.76"/>
	<path style="fill:#FFE079;" d="M250.733,293.827c9.387,0,17.067,7.68,17.067,17.067s-7.68,17.067-17.067,17.067
		c-9.387,0-17.067-7.68-17.067-17.067S241.347,293.827,250.733,293.827"/>
	<path style="fill:#AAB1BA;" d="M412.867,355.267v70.827C367.64,461.08,312.173,481.56,250.733,481.56S132.973,461.08,88.6,426.093
		V356.12c39.253,46.08,97.28,75.093,162.133,75.093S373.613,401.347,412.867,355.267"/>
</g>
<path style="fill:#51565F;" d="M499.2,503.893c-2.56,0-4.267-1.707-4.267-4.267c0-39.253-48.64-64-48.64-64.853
	c-1.707-0.853-2.56-3.413-1.707-5.973c0.853-1.707,3.413-2.56,5.973-1.707c2.56,0.853,53.76,27.307,53.76,71.68
	C503.467,502.187,501.76,503.893,499.2,503.893z M4.267,503.893c-2.56,0-4.267-1.707-4.267-4.267c0-44.373,51.2-70.827,53.76-71.68
	c1.707-0.853,4.267,0,5.973,1.707c0.853,1.707,0,4.267-1.707,5.973c-0.853,0-48.64,24.747-48.64,64.853
	C8.533,502.187,6.827,503.893,4.267,503.893z M251.733,486.827c-60.587,0-116.907-19.627-164.693-56.32
	c-0.853-0.853-1.707-1.707-1.707-3.413v-69.12c-31.573-37.547-51.2-87.04-51.2-139.947V42.24C24.747,40.533,17.067,32,17.067,21.76
	c0-11.947,9.387-21.333,21.333-21.333S59.733,9.813,59.733,21.76c0,10.24-7.68,18.773-17.067,20.48v115.2
	C69.12,66.987,152.747,0.427,251.733,0.427c120.32,0,217.6,97.28,217.6,217.6c0,52.907-19.627,102.4-51.2,139.947v69.12
	c0,1.707-0.853,2.56-1.707,3.413C368.64,467.2,312.32,486.827,251.733,486.827z M93.867,424.533
	c46.08,34.987,99.84,53.76,157.867,53.76S363.52,459.52,409.6,424.533V367.36c-40.107,41.813-95.573,68.267-157.867,68.267
	s-117.76-26.453-157.867-68.267V424.533z M251.733,8.96c-115.2,0-209.067,93.867-209.067,209.067s93.867,209.067,209.067,209.067
	c63.147,0,119.467-28.16,157.867-72.533c0-0.853,0.853-2.56,2.56-2.56c30.72-36.693,48.64-82.773,48.64-133.973
	C460.8,102.827,366.933,8.96,251.733,8.96z M38.4,8.96c-6.827,0-12.8,5.973-12.8,12.8s5.973,12.8,12.8,12.8s12.8-5.973,12.8-12.8
	S45.227,8.96,38.4,8.96z M251.733,367.36c-86.187,0-153.6-50.347-156.16-52.053c-1.707-1.707-2.56-4.267-0.853-5.973
	c1.707-1.707,4.267-2.56,5.973-0.853c0.853,0.853,68.267,50.347,151.04,50.347s150.187-49.493,151.04-50.347
	c1.707-1.707,4.267-0.853,5.973,0.853c1.707,1.707,0.853,4.267-0.853,5.973C405.333,317.013,337.92,367.36,251.733,367.36z
	 M251.733,333.227c-11.947,0-21.333-9.387-21.333-21.333s9.387-21.333,21.333-21.333c10.24,0,18.773,7.68,20.48,17.067
	c46.933,0,71.68-5.973,78.507-7.68c6.827-16.213,7.68-39.253,7.68-39.253c0-2.56,1.707-4.267,4.267-4.267
	c6.827,0,12.8-5.973,12.8-12.8v-34.133c0-6.827-5.973-12.8-12.8-12.8c-2.56,0-4.267-1.707-4.267-4.267v-34.133
	c0-63.147-37.547-98.133-106.667-98.133C131.413,60.16,128,148.053,128,158.293v8.533c0,2.56-1.707,4.267-4.267,4.267
	c-2.56,0-4.267-1.707-4.267-4.267v-8.533c0-11.093,3.413-106.667,132.267-106.667c74.24,0,115.2,37.547,115.2,106.667v30.72
	c9.387,1.707,17.067,10.24,17.067,20.48v34.133c0,10.24-7.68,18.773-17.067,21.333c0,7.68-1.707,26.453-8.533,40.96
	c-0.853,0.853-1.707,1.707-2.56,2.56c-0.853,0-25.6,8.533-82.773,8.533C270.507,325.547,261.973,333.227,251.733,333.227z
	 M251.733,299.093c-6.827,0-12.8,5.973-12.8,12.8s5.973,12.8,12.8,12.8c6.827,0,12.8-5.973,12.8-12.8
	S258.56,299.093,251.733,299.093z M149.333,307.627c-1.707,0-3.413-0.853-3.413-2.56c-6.827-13.653-8.533-32.427-8.533-40.96
	c-9.387-1.707-17.067-10.24-17.067-21.333V208.64c0-11.947,9.387-21.333,21.333-21.333c2.56,0,4.267,1.707,4.267,4.267
	c0,1.707,0.853,11.093,10.24,12.8c4.267-11.093,1.707-29.013,0-44.373c-0.853-7.68-1.707-14.507-1.707-19.627
	c0-1.707,0.853-2.56,1.707-3.413c0.853-0.853,2.56-0.853,4.267,0c32.427,16.213,133.973,16.213,167.253,0
	c1.707-0.853,2.56-0.853,4.267,0c0.853,0.853,1.707,2.56,1.707,3.413v51.2c0,2.56-1.707,4.267-4.267,4.267s-4.267-1.707-4.267-4.267
	V147.2c-37.547,13.653-123.733,13.653-162.133,0c0,3.413,0.853,7.68,1.707,11.947c1.707,17.92,4.267,38.4-1.707,51.2
	c-0.853,1.707-2.56,2.56-3.413,2.56c-13.653,0-18.773-9.387-20.48-16.213c-5.12,1.707-9.387,6.827-9.387,11.947v34.133
	c0,6.827,5.973,12.8,12.8,12.8c2.56,0,4.267,1.707,4.267,4.267c0,0,0,24.747,7.68,40.96c0.853,1.707,0,4.267-1.707,5.973
	C151.04,307.627,150.187,307.627,149.333,307.627z M294.4,239.36c-2.56,0-4.267-1.707-4.267-4.267v-4.267h-12.8
	c-2.56,0-4.267-1.707-4.267-4.267c0-2.56,1.707-4.267,4.267-4.267h34.133c2.56,0,4.267,1.707,4.267,4.267
	c0,2.56-1.707,4.267-4.267,4.267h-12.8v4.267C298.667,237.653,296.96,239.36,294.4,239.36z M209.067,239.36
	c-2.56,0-4.267-1.707-4.267-4.267v-4.267H192c-2.56,0-4.267-1.707-4.267-4.267c0-2.56,1.707-4.267,4.267-4.267h34.133
	c2.56,0,4.267,1.707,4.267,4.267c0,2.56-1.707,4.267-4.267,4.267h-12.8v4.267C213.333,237.653,211.627,239.36,209.067,239.36z"/>
<g>
</g>
<g>
</g>
<g>
</g>
<g>
</g>
<g>
</g>
<g>
</g>
<g>
</g>
<g>
</g>
<g>
</g>
<g>
</g>
<g>
</g>
<g>
</g>
<g>
</g>
<g>
</g>
<g>
</g>
</svg>
