<svg height="512pt" viewBox="-62 0 512 512.00002" width="512pt" xmlns="http://www.w3.org/2000/svg"><path d="m27.808594 512c0-91.820312 74.433594-166.253906 166.253906-166.253906 91.816406 0 166.25 74.433594 166.25 166.253906zm0 0" fill="#ff8250"/><path d="m194.0625 345.746094c-33 0-63.757812 9.617187-89.617188 26.199218 26.953126 13.632813 57.402344 21.328126 89.617188 21.328126s62.664062-7.695313 89.617188-21.328126c-25.863282-16.582031-56.617188-26.199218-89.617188-26.199218zm0 0" fill="#dbd9dc"/><path d="m219.816406 347.734375c-8.394531-1.304687-16.992187-1.988281-25.753906-1.988281-91.820312 0-166.253906 74.4375-166.253906 166.253906h51.511718c0-83.058594 60.910157-151.886719 140.496094-164.265625zm0 0" fill="#dc7346"/><path d="m0 425.417969c0 9.394531 7.617188 17.015625 17.015625 17.015625h49.101563c9.398437 0 17.015624 7.617187 17.015624 17.011718 0 9.398438 7.617188 17.015626 17.011719 17.015626h187.835938c9.398437 0 17.015625-7.617188 17.015625-17.015626 0-9.394531 7.617187-17.011718 17.011718-17.011718h49.105469c9.394531 0 17.015625-7.617188 17.015625-17.015625 0-44-35.671875-79.671875-79.671875-79.671875h-228.785156c-44 0-79.671875 35.671875-79.671875 79.671875zm0 0" fill="#edebed"/><path d="m41.207031 425.417969c0-44 35.671875-79.671875 79.671875-79.671875h-41.207031c-44 0-79.671875 35.671875-79.671875 79.671875 0 9.394531 7.617188 17.015625 17.015625 17.015625h41.207031c-9.398437-.003906-17.015625-7.621094-17.015625-17.015625zm0 0" fill="#dbd9dc"/><path d="m372.671875 194.0625c0 98.640625-79.96875 178.609375-178.609375 178.609375-98.644531 0-178.609375-79.96875-178.609375-178.609375 0-98.644531 79.964844-178.609375 178.609375-178.609375 98.640625 0 178.609375 79.964844 178.609375 178.609375zm0 0" fill="#cd916e"/><path d="m372.671875 194.0625c0-98.644531-79.96875-178.609375-178.609375-178.609375-98.644531 0-178.609375 79.964844-178.609375 178.609375 0 60.4375 30.023437 113.855469 75.960937 146.175781v-138.125c24.242188-3.859375 58.410157-7.367187 102.648438-7.367187s78.40625 3.507812 102.648438 7.367187v138.125c45.9375-32.320312 75.960937-85.738281 75.960937-146.175781zm0 0" fill="#b67f5f"/><path d="m193.964844 0c-106.683594.0546875-193.964844 89.054688-193.964844 195.738281v83.671875c0 33.59375 27.234375 60.828125 60.828125 60.828125 5.515625 0 9.984375-4.472656 9.984375-9.984375v-183.597656h246.5v183.597656c0 5.515625 4.46875 9.984375 9.984375 9.984375 33.59375 0 60.828125-27.234375 60.828125-60.828125v-85.347656c0-107.039062-87.109375-194.1171875-194.160156-194.0625zm0 0" fill="#ff8250"/><path d="m70.785156 195.738281c0-.71875.019532-1.433593.027344-2.148437v-46.933594h6.277344c18.925781-72.421875 78.5625-129.425781 152.574218-143.371094-11.574218-2.15625-23.507812-3.2929685-35.699218-3.285156-106.683594.0546875-193.964844 89.054688-193.964844 195.738281v83.671875c0 33.59375 27.234375 60.828125 60.828125 60.828125 5.328125 0 9.671875-4.179687 9.957031-9.441406zm0 0" fill="#dc7346"/><path d="m194.0625 120.140625c-64.132812 0-155.382812 24.722656-155.382812 42.75v20.210937c0 4.90625 4.679687 8.445313 9.40625 7.125 19.054687-5.332031 67.226562-16.082031 145.976562-16.082031s126.921875 10.75 145.976562 16.082031c4.722657 1.320313 9.40625-2.21875 9.40625-7.125v-20.210937c0-18.027344-91.25-42.75-155.382812-42.75zm0 0" fill="#fff"/><path d="m90.1875 142.289062c0-2.726562 2.101562-5.605468 5.863281-8.53125-32.699219 8.578126-57.371093 19.761719-57.371093 29.132813v20.210937c0 4.90625 4.679687 8.445313 9.40625 7.125 8.371093-2.34375 22.367187-5.730468 42.101562-8.792968zm0 0" fill="#edebed"/><g fill="#5a4650"><path d="m259.542969 403.902344h-130.960938c-35.988281 0-65.269531-29.28125-65.269531-65.269532v-67.417968c0-4.144532 3.355469-7.5 7.5-7.5h246.5c4.144531 0 7.5 3.355468 7.5 7.5v67.417968c0 35.988282-29.277344 65.269532-65.269531 65.269532zm-181.230469-125.1875v59.917968c0 27.71875 22.550781 50.269532 50.269531 50.269532h130.960938c27.71875 0 50.269531-22.550782 50.269531-50.269532v-59.917968zm0 0"/><path d="m235.144531 403.886719c-4.140625 0-7.5-3.359375-7.5-7.5v-125.171875c0-4.144532 3.359375-7.5 7.5-7.5 4.144531 0 7.5 3.355468 7.5 7.5v125.171875c0 4.140625-3.355469 7.5-7.5 7.5zm0 0"/><path d="m152.980469 403.902344c-4.144531 0-7.5-3.355469-7.5-7.5v-125.1875c0-4.144532 3.355469-7.5 7.5-7.5 4.140625 0 7.5 3.355468 7.5 7.5v125.1875c0 4.144531-3.359375 7.5-7.5 7.5zm0 0"/><path d="m317.3125 327.179688h-246.5c-4.144531 0-7.5-3.359376-7.5-7.5 0-4.140626 3.355469-7.5 7.5-7.5h246.5c4.144531 0 7.5 3.359374 7.5 7.5 0 4.140624-3.355469 7.5-7.5 7.5zm0 0"/><path d="m194.0625 259.265625c-9.78125 0-18.886719-5.273437-23.765625-13.761719-2.066406-3.589844-.828125-8.175781 2.761719-10.238281 3.589844-2.066406 8.175781-.828125 10.242187 2.761719 2.210938 3.847656 6.332031 6.234375 10.761719 6.234375 4.425781 0 8.550781-2.386719 10.761719-6.234375 2.066406-3.589844 6.652343-4.824219 10.242187-2.761719 3.589844 2.066406 4.828125 6.648437 2.761719 10.242187-4.878906 8.484376-13.984375 13.757813-23.765625 13.757813zm0 0"/><path d="m259.671875 229.101562c-4.140625 0-7.5-3.355468-7.5-7.5v-11.695312c0-4.144531 3.359375-7.5 7.5-7.5 4.144531 0 7.5 3.355469 7.5 7.5v11.695312c0 4.144532-3.355469 7.5-7.5 7.5zm0 0"/><path d="m128.449219 229.101562c-4.140625 0-7.5-3.355468-7.5-7.5v-11.695312c0-4.144531 3.359375-7.5 7.5-7.5 4.144531 0 7.5 3.355469 7.5 7.5v11.695312c0 4.144532-3.355469 7.5-7.5 7.5zm0 0"/></g><path d="m265.523438 251.214844h-11.699219c-4.140625 0-7.5-3.355469-7.5-7.5 0-4.140625 3.359375-7.5 7.5-7.5h11.699219c4.140624 0 7.5 3.359375 7.5 7.5 0 4.144531-3.359376 7.5-7.5 7.5zm0 0" fill="#e6646e"/><path d="m134.300781 251.214844h-11.699219c-4.140624 0-7.5-3.355469-7.5-7.5 0-4.140625 3.359376-7.5 7.5-7.5h11.699219c4.140625 0 7.5 3.359375 7.5 7.5 0 4.144531-3.359375 7.5-7.5 7.5zm0 0" fill="#e6646e"/></svg>