<svg height="511pt" viewBox="0 -8 511.9999 511" width="511pt" xmlns="http://www.w3.org/2000/svg"><path d="m506.054688 395.851562-.050782-.082031-.082031-.113281-94.402344-137.101562c-14.363281-23.207032-39.71875-37.328126-67.011719-37.328126h-177.050781c-27.292969-.003906-52.644531 14.121094-67.007812 37.328126l-94.414063 137.09375-.085937.121093v.082031c-10.832031 16.21875-6.460938 38.148438 9.761719 48.976563 5.789062 3.867187 12.59375 5.933594 19.554687 5.945313h441.433594c19.503906-.007813 35.308593-15.828126 35.300781-35.332032-.003906-6.972656-2.070312-13.789062-5.945312-19.589844zm0 0" fill="#0f5584"/><path d="m383.488281 112.300781-45.152343-67.714843c-18.355469-27.535157-49.257813-44.074219-82.351563-44.074219s-63.996094 16.539062-82.355469 44.074219l-45.148437 67.714843c-8.96875 13.457031-13.753907 29.269531-13.753907 45.441407-.003906 12.71875 2.957032 25.261718 8.652344 36.636718l53.148438 106.308594h158.914062l53.148438-106.308594c5.695312-11.375 8.65625-23.917968 8.652344-36.636718 0-16.171876-4.789063-31.984376-13.753907-45.441407zm0 0" fill="#3a5565"/><path d="m194.183594 97.625h123.601562v104.550781c0 20.273438-16.4375 36.710938-36.710937 36.710938h-50.179688c-20.277343 0-36.710937-16.4375-36.710937-36.710938zm0 0" fill="#f8c09c"/><path d="m241.859375 168.863281c8.574219-5.710937 19.746094-5.710937 28.320313 0 7.628906 5.097657 17.402343 5.707031 25.605468 1.597657l22-10.980469v-61.855469h-123.601562v61.800781l22.070312 11.046875c8.203125 4.101563 17.976563 3.488282 25.605469-1.609375zm0 0" fill="#77604f"/><path d="m317.785156 115.285156 78.910156 35.074219c-1.167968-13.59375-5.722656-26.675781-13.242187-38.058594l-45.152344-67.714843c-30.320312-45.484376-91.773437-57.773438-137.257812-27.449219-10.871094 7.246093-20.199219 16.574219-27.449219 27.445312l-45.148438 67.71875c-7.523437 11.382813-12.074218 24.464844-13.242187 38.058594l78.980469-35.074219zm0 0" fill="#2276bb"/><path d="m114.726562 300.683594h282.515626v194.230468h-282.515626zm0 0" fill="#d2d7d6"/></svg>