<?xml version="1.0" encoding="iso-8859-1"?>
<!-- Generator: Adobe Illustrator 19.0.0, SVG Export Plug-In . SVG Version: 6.00 Build 0)  -->
<svg version="1.1" id="Capa_1" xmlns="http://www.w3.org/2000/svg" xmlns:xlink="http://www.w3.org/1999/xlink" x="0px" y="0px"
	 viewBox="0 0 423.927 423.927" style="enable-background:new 0 0 423.927 423.927;" xml:space="preserve">
<g>
	<g id="Guides_For_Artboard_48_">
	</g>
	<g id="Artwork_47_">
	</g>
	<g id="Layer_2_47_">
		<g>
			<path style="fill:none;" d="M261.818,263.927l4.354,4.316c0,0,0.229,2.226,0.561,5.619c7.08,2.158,14.628,4.954,22.817,8.581
				c-1.367-3.558-3.159-6.646-5.492-8.864C277.446,267.295,274.722,265.98,261.818,263.927z"/>
			<path style="fill:#F7F1E6;" d="M188.132,310.454c0.216,0.169,0.429,0.343,0.641,0.517l-8.486-19.635
				c-2.799,2.038-5.202,3.775-6.919,4.995C181.953,300.325,187.324,306.689,188.132,310.454z"/>
			<path style="fill:#F7F1E6;" d="M157.314,292.148c0.551-6.725,1.252-14.088,1.719-18.841c-1.112,0.325-2.234,0.665-3.371,1.022
				c0.15,1.761,0.52,3.967,0.799,6.731C156.777,284.184,157.147,287.88,157.314,292.148z"/>
			<path style="fill:#F7F1E6;" d="M313.131,294.255c-5.352-2.966-10.443-5.605-15.322-7.973c2.359,8.463,3.39,17.434,3.241,23.726
				c-0.002,0.085-0.003,0.167-0.005,0.252c11.367,3.372,19.663,13.89,19.663,26.352c0,15.181-12.308,27.489-27.488,27.489
				c-15.182,0-27.489-12.308-27.489-27.489s12.307-27.488,27.489-27.488c0.048,0,0.095,0.003,0.144,0.003
				c0.138-8.399-0.755-18.725-3.813-26.685c-8.189-3.626-15.737-6.422-22.817-8.581c0.502,5.127,1.241,12.925,1.786,19.779
				c0.906,11.388-9.044,7.409-13.788,4.345c-0.675-0.436-2.231-1.535-4.346-3.056l-35.662,76.087l-12.958-29.985
				c-0.312,0.501-0.692,0.951-1.13,1.336c0.078,1.209,0.122,2.43,0.122,3.663c0,9.967-2.527,19.415-7.12,26.596
				c-2.668,4.175-5.948,7.369-9.642,9.484c0.022,0.22,0.036,0.442,0.036,0.668c0,3.403-2.617,6.162-5.843,6.162
				s-8.76-2.758-8.76-6.162c0-3.405,5.535-6.161,8.76-6.161c1.16,0,2.238,0.361,3.146,0.975
				c9.385-5.163,14.369-18.678,14.369-31.563c0-0.813-0.026-1.617-0.063-2.418c-2.263-0.56-4.073-2.537-4.397-5.113
				c-2.028-16.186-14.688-25.385-34.699-25.238c-0.012,0-0.028,0-0.042,0c-0.037,0-0.066-0.005-0.101-0.005
				c-18.427,0.68-30.036,9.757-31.969,25.192c-0.322,2.575-2.132,4.553-4.394,5.113c-0.037,0.8-0.063,1.604-0.063,2.415
				c0,12.886,4.982,26.4,14.364,31.563c0.91-0.615,1.988-0.977,3.148-0.977c3.227,0,8.764,2.759,8.764,6.164
				c0,3.401-5.537,6.162-8.764,6.162c-3.226,0-5.844-2.76-5.844-6.162c0-0.227,0.014-0.45,0.036-0.671
				c-3.693-2.115-6.973-5.307-9.642-9.481c-4.592-7.184-7.119-16.63-7.119-26.599c0-1.232,0.044-2.453,0.122-3.662
				c-1.465-1.29-2.294-3.314-2.026-5.455c1.268-10.114,5.692-18.762,12.798-25.026c-0.042-0.139-0.065-0.289-0.065-0.453
				c0-4.587,9.212-15.151,23.9-17.96c-0.134-4.4-0.508-8.183-0.851-11.589c-0.181-1.792-0.348-3.458-0.456-5.018
				c-11.141,4.031-23.468,9.641-37.542,17.441c-19.255,10.67-45.178,16.651-45.178,45.157c0,15.872,0,40.271,0,58.782
				c0,14.734,15.037,25.736,36.226,25.736c32.97,0,80.825,0,110.117,0s77.147,0,110.117,0c21.189,0,36.226-11.002,36.226-25.736
				c0-18.511,0-42.911,0-58.782C358.308,310.906,332.385,304.925,313.131,294.255z"/>
			<path style="fill:#FFFFFF;" d="M212.879,267.387c-0.016,0-0.032,0.001-0.048,0.001c-0.016,0.012-0.036,0.027-0.058,0.043
				c-1.24,0.918-20.425,15.122-32.486,23.904l8.486,19.635c0.339,0.277,0.679,0.553,1.009,0.842
				c7.154,6.267,11.609,14.944,12.879,25.097c0.188,1.502-0.166,2.947-0.896,4.122l12.958,29.985l35.662-76.087
				c-10.701-7.697-36.015-26.438-37.446-27.498C212.915,267.414,212.894,267.399,212.879,267.387z"/>
			<path style="fill:#DEC8AE;" d="M212.773,267.321l0.083,0.049l0.083-0.049l32.577-19.555l0.101,0.1v-16.29
				c-10.089,5.96-21.166,9.428-32.76,9.428s-22.67-3.468-32.76-9.428v16.29l0.1-0.099L212.773,267.321z"/>
			<path style="fill:#DEC8AE;" d="M212.856,267.37c0,0-0.01,0.007-0.025,0.019c0.016,0,0.032-0.001,0.048-0.001
				C212.866,267.377,212.856,267.37,212.856,267.37z"/>
			<path style="fill:#F3DBBD;" d="M245.616,231.575c23.996-14.176,42.407-42.454,48.939-71.723
				c-1.467-3.202-3.114-8.455-5.035-15.843c-0.341,2.068-0.542,3.873-0.496,5.24c0.332,9.802-7.609,20.528-7.706-0.279
				c-0.081-17.971-30.323-60.127-32.219-61.256c-9.815,7.938-35.355,22.716-54.778,27.16c-3.291,0.753-8.848,0.32-4.907-3.005
				c3.395-2.865,5.096-6.628,6.323-10.43c1.402-4.344-16.948,11.295-30.439,18.374c-3.428,1.798-10.574,4.881-5.24-1.475
				c3.228-3.846,3.512-6.568,3.723-9.579c-19.181,10.49-18.852,24.792-18.823,41.129c0.023,14.266-7.715,18.574-8.624,5.982
				c-1.07,5.008-2.395,8.193-3.786,9.573c7.512,27.231,25.084,52.86,47.548,66.131c10.089,5.96,21.165,9.428,32.76,9.428
				S235.527,237.535,245.616,231.575z"/>
			<path style="fill:#2B3237;" d="M284.057,273.578c2.333,2.218,4.125,5.307,5.492,8.864c3.058,7.959,3.951,18.286,3.813,26.685
				c2.668,0.014,5.245,0.411,7.682,1.133c0.002-0.085,0.003-0.167,0.005-0.252c0.149-6.292-0.881-15.263-3.241-23.726
				c-2.561-9.186-6.687-17.773-12.586-21.684c-11.313-7.499-24.517-7.208-31.029-8.23l7.625,7.559
				C274.722,265.98,277.446,267.295,284.057,273.578z"/>
			<path style="fill:#664B3A;" d="M136.334,155.87c0.909,12.592,8.647,8.284,8.624-5.982c-0.028-16.336-0.357-30.639,18.823-41.129
				c-0.211,3.011-0.496,5.733-3.723,9.579c-5.334,6.356,1.813,3.273,5.24,1.475c13.491-7.079,31.842-22.717,30.439-18.374
				c-1.227,3.802-2.928,7.565-6.323,10.43c-3.941,3.325,1.616,3.758,4.907,3.005c19.423-4.444,44.963-19.222,54.778-27.16
				c1.896,1.129,32.138,43.285,32.219,61.256c0.096,20.807,8.037,10.081,7.706,0.279c-0.046-1.367,0.155-3.172,0.496-5.24
				c1.921,7.388,3.567,12.641,5.035,15.843c3.613,7.885,6.135,3.267,8.954-13.014c1.69-9.76,1.391-34.624-7.786-57.143
				c-4.94-12.122-12.155-23.875-21.677-33.621c-0.243,0.818-0.473,1.587-0.68,2.283c-2.902,9.741-10.965,17.248-24.493,17.248
				h-34.137h-34.139c-13.528,0-21.591-7.507-24.493-17.248c-0.554-1.858-1.25-4.202-2.014-6.774
				c-8.913,7.409-15.919,16.538-20.866,26.862c-10.436,21.779-10.229,51.652-9.397,63.419c1.355,19.163,5.245,27.029,8.722,23.58
				C133.939,164.064,135.264,160.879,136.334,155.87z"/>
			<path style="fill:#F7F1E6;" d="M180.597,75.605h34.139h34.138c13.528,0,21.591-7.507,24.493-17.248
				c0.207-0.696,0.437-1.465,0.68-2.283c3.163-10.633,9.037-30.462,9.037-30.462C286.982,14.007,280.512,0,266.986,0h-52.25h-52.251
				c-13.527,0-19.997,14.007-16.097,25.612c0,0,4.461,15.062,7.702,25.971c0.764,2.572,1.46,4.916,2.014,6.774
				C159.006,68.097,167.07,75.605,180.597,75.605z M200.547,31.322h7.709v-7.708c0-2.683,2.175-4.856,4.856-4.856h0.442h2.805
				c2.683,0,4.856,2.173,4.856,4.856v7.708h7.709c2.683,0,4.856,2.174,4.856,4.855v3.248c0,2.682-2.173,4.855-4.856,4.855h-7.709
				v7.708c0,2.683-2.173,4.857-4.856,4.857h-2.805h-0.442c-2.682,0-4.856-2.175-4.856-4.857V44.28h-7.709
				c-2.681,0-4.855-2.174-4.855-4.855v-3.248C195.691,33.496,197.866,31.322,200.547,31.322z"/>
			<path style="fill:#E74424;" d="M195.691,39.426c0,2.682,2.175,4.855,4.855,4.855h7.709v7.708c0,2.683,2.175,4.857,4.856,4.857
				h0.442h2.805c2.683,0,4.856-2.175,4.856-4.857v-7.708h7.709c2.683,0,4.856-2.174,4.856-4.855v-3.248
				c0-2.681-2.173-4.855-4.856-4.855h-7.709v-7.708c0-2.683-2.173-4.856-4.856-4.856h-2.805h-0.442
				c-2.682,0-4.856,2.173-4.856,4.856v7.708h-7.709c-2.681,0-4.855,2.174-4.855,4.855L195.691,39.426L195.691,39.426z"/>
			<path style="fill:#E0DCD3;" d="M293.219,308.873c-15.32,0-27.739,12.419-27.739,27.738s12.419,27.739,27.739,27.739
				c15.319,0,27.738-12.419,27.738-27.739c0-12.575-8.371-23.189-19.841-26.591c-2.459-0.729-5.06-1.129-7.752-1.144
				C293.315,308.877,293.267,308.873,293.219,308.873z M315.949,336.612c0,12.555-10.176,22.733-22.73,22.733
				c-12.557,0-22.733-10.178-22.733-22.733s10.176-22.733,22.733-22.733C305.773,313.879,315.949,324.057,315.949,336.612z"/>
			<path style="fill:#2B3237;" d="M270.524,336.612c0,12.534,10.159,22.695,22.695,22.695c12.533,0,22.692-10.161,22.692-22.695
				s-10.159-22.695-22.692-22.695C280.683,313.917,270.524,324.078,270.524,336.612z M303.969,336.612
				c0,5.937-4.815,10.75-10.75,10.75c-5.938,0-10.751-4.813-10.751-10.75c0-5.938,4.813-10.75,10.751-10.75
				C299.154,325.861,303.969,330.674,303.969,336.612z"/>
			<circle style="fill:#1B2327;" cx="293.218" cy="336.612" r="10.754"/>
			<path style="fill:#2B3237;" d="M117.974,343.676c-1.123-0.156-2.123-0.648-2.932-1.36c-0.078,1.209-0.122,2.429-0.122,3.662
				c0,9.969,2.527,19.415,7.119,26.599c2.668,4.174,5.948,7.366,9.642,9.481c0.195-1.898,1.209-3.535,2.659-4.517
				c-9.382-5.164-14.364-18.678-14.364-31.563c0-0.812,0.026-1.615,0.063-2.415C119.38,343.725,118.685,343.774,117.974,343.676z"/>
			<path style="fill:#2B3237;" d="M195.64,343.612c0.037,0.801,0.063,1.605,0.063,2.418c0,12.885-4.984,26.4-14.369,31.563
				c1.452,0.981,2.466,2.618,2.661,4.518c3.693-2.115,6.974-5.309,9.642-9.484c4.592-7.182,7.12-16.629,7.12-26.596
				c0-1.233-0.044-2.453-0.122-3.663c-0.808,0.711-1.807,1.202-2.927,1.358C196.995,343.824,196.299,343.775,195.64,343.612z"/>
			<path style="fill:#E6A123;" d="M131.681,382.057c-0.022,0.221-0.036,0.444-0.036,0.671c0,3.401,2.618,6.162,5.844,6.162
				c3.227,0,8.764-2.76,8.764-6.162c0-3.405-5.537-6.164-8.764-6.164c-1.16,0-2.239,0.361-3.148,0.977
				C132.89,378.522,131.876,380.158,131.681,382.057z"/>
			<path style="fill:#E6A123;" d="M181.334,377.592c-0.909-0.614-1.987-0.975-3.146-0.975c-3.226,0-8.76,2.756-8.76,6.161
				c0,3.403,5.535,6.162,8.76,6.162c3.226,0,5.843-2.758,5.843-6.162c0-0.226-0.013-0.449-0.036-0.668
				C183.8,380.21,182.785,378.573,181.334,377.592z"/>
			<path style="fill:#E0DCD3;" d="M157.267,292.725c7.02,1.595,5.645,0.72,16.101,3.605c1.717-1.22,4.12-2.957,6.919-4.995
				c12.061-8.783,31.246-22.986,32.486-23.904c0.021-0.016,0.042-0.031,0.058-0.043c0.015-0.011,0.025-0.019,0.025-0.019
				l-0.083-0.049l-32.677-19.657l0,0l-20.556,20.58c0,0-0.204,1.984-0.507,5.064c-0.467,4.753-1.168,12.116-1.719,18.841
				C157.298,292.341,157.282,292.533,157.267,292.725z"/>
			<path style="fill:#E0DCD3;" d="M212.939,267.321l-0.083,0.049c0,0,0.01,0.007,0.023,0.017c0.016,0.012,0.037,0.027,0.06,0.044
				c1.431,1.059,26.745,19.8,37.446,27.498c2.115,1.521,3.671,2.62,4.346,3.056c4.744,3.064,14.694,7.043,13.788-4.345
				c-0.545-6.854-1.284-14.652-1.786-19.779c-0.332-3.393-0.561-5.619-0.561-5.619l-4.354-4.316l-7.625-7.559l-8.578-8.674l0,0
				L212.939,267.321z"/>
		</g>
		<path style="fill:#2B3237;" d="M149.649,293.421c2.319-0.443,4.769-0.7,7.346-0.703c0.091,0,0.18,0.005,0.271,0.006
			c0.016-0.191,0.031-0.384,0.047-0.577c-0.167-4.269-0.537-7.964-0.852-11.087c-0.28-2.764-0.649-4.97-0.799-6.731
			c-0.154-1.805-0.077-3.142,0.569-4.116c0.84-1.266,0.326-1.996,3.309-1.971c5.413-5.365,8.309-8.094,8.309-8.094
			c-1.921,0.551-5.158,0.327-6.895,0.304c-3.298-0.018-7.392-0.068-10.608,4.787c-2.096,3.164-2.325,6.879-2.003,11.574
			c0.107,1.56,0.275,3.227,0.456,5.018C149.141,285.239,149.515,289.021,149.649,293.421z"/>
		<path style="fill:#C3BFB8;" d="M158.643,301.061c0.188,0,0.38,0,0.572,0.002c0.38,0,0.75,0.045,1.112,0.123
			c11.245,0.5,20.572,3.61,27.805,9.267c-0.808-3.765-6.178-10.128-14.764-14.124c-3.894-1.573-10.769-3.636-16.101-3.605
			c-0.091-0.001-0.18-0.006-0.271-0.006c-2.577,0.002-5.027,0.259-7.346,0.703c-14.688,2.809-23.9,13.373-23.9,17.96
			c0,0.164,0.023,0.314,0.065,0.453c0.028-0.024,0.053-0.05,0.081-0.074C134,304.659,145.016,301.061,158.643,301.061z"/>
		<path style="fill:#E0DCD3;" d="M202.66,336.909c-1.27-10.152-5.725-18.83-12.879-25.097c-0.33-0.289-0.67-0.564-1.009-0.842
			c-0.212-0.174-0.425-0.348-0.641-0.517c-7.233-5.657-16.56-8.767-27.805-9.267c-0.361-0.078-0.731-0.123-1.112-0.123
			c-0.192-0.002-0.384-0.002-0.572-0.002c-13.626,0-24.643,3.598-32.748,10.699c-0.028,0.024-0.053,0.05-0.081,0.074
			c-7.106,6.264-11.531,14.912-12.798,25.026c-0.268,2.141,0.562,4.165,2.026,5.455c0.809,0.712,1.81,1.204,2.932,1.36
			c0.71,0.099,1.406,0.05,2.065-0.114c2.262-0.561,4.072-2.539,4.394-5.113c1.933-15.436,13.542-24.513,31.969-25.192
			c0.035,0,0.064,0.005,0.101,0.005c0.014,0,0.029,0,0.042,0c20.011-0.147,32.67,9.052,34.699,25.238
			c0.324,2.576,2.134,4.553,4.397,5.113c0.66,0.163,1.355,0.212,2.067,0.113c1.12-0.156,2.119-0.646,2.927-1.358
			c0.438-0.385,0.819-0.835,1.13-1.336C202.495,339.856,202.849,338.412,202.66,336.909z"/>
	</g>
</g>
<g>
</g>
<g>
</g>
<g>
</g>
<g>
</g>
<g>
</g>
<g>
</g>
<g>
</g>
<g>
</g>
<g>
</g>
<g>
</g>
<g>
</g>
<g>
</g>
<g>
</g>
<g>
</g>
<g>
</g>
</svg>
