<?xml version="1.0" encoding="iso-8859-1"?>
<!-- Generator: Adobe Illustrator 18.0.0, SVG Export Plug-In . SVG Version: 6.00 Build 0)  -->
<!DOCTYPE svg PUBLIC "-//W3C//DTD SVG 1.1//EN" "http://www.w3.org/Graphics/SVG/1.1/DTD/svg11.dtd">
<svg version="1.1" id="Capa_1" xmlns="http://www.w3.org/2000/svg" xmlns:xlink="http://www.w3.org/1999/xlink" x="0px" y="0px"
	 viewBox="0 0 111.062 111.062" style="enable-background:new 0 0 111.062 111.062;" xml:space="preserve">
<g>
	<path style="fill-rule:evenodd;clip-rule:evenodd;fill:#A2400F;" d="M56.267,93.297c-30.868,0.618-34.319-35.798-33.202-53.786
		C25.149,5.979,55.581-7.469,68.006,4.046c13.208,0,19.396,16.403,20.889,35.143C90.881,64.13,81.689,92.788,56.267,93.297z"/>
	<path style="fill-rule:evenodd;clip-rule:evenodd;fill:#FFDECC;" d="M65.201,70.617c-0.198,0.312-19.746,0.623-19.962,0.932
		C39.1,80.307,25.834,84.144,15.288,86.502c-10.497,2.347-10.902,15.68-10.919,24.56h102.325c-0.016-8.88-0.211-22.165-10.919-24.56
		C85.066,84.108,71.024,79.774,65.201,70.617z"/>
	<path style="fill-rule:evenodd;clip-rule:evenodd;fill:#FFDECC;" d="M65.784,51.913V77.03c-5.639,7.411-14.865,7.155-20.504,0
		V51.913C45.28,38.35,65.784,38.35,65.784,51.913z"/>
	<path style="fill-rule:evenodd;clip-rule:evenodd;fill:#F7C5AA;" d="M65.784,51.913v16.816c-3.88,3.035-7.619,4.735-10.252,4.735
		c-2.633,0-6.373-1.7-10.252-4.735V51.913C45.28,38.35,65.784,38.35,65.784,51.913z"/>
	<path style="fill-rule:evenodd;clip-rule:evenodd;fill:#FFDECC;" d="M55.532,69.287c-6.675,0-20.775-10.494-25.135-25.524
		C25.996,28.587,34.285,6.819,55.532,6.819c21.246,0,29.536,21.767,25.135,36.944C76.306,58.793,62.206,69.287,55.532,69.287z"/>
	<path style="fill-rule:evenodd;clip-rule:evenodd;fill:#FF386A;" d="M47.491,54.156c3.402-3.293,6.055-0.823,8.041-0.823
		c1.986,0,4.639-2.47,8.04,0.823C61.745,62.84,49.915,63.107,47.491,54.156z"/>
	<path style="fill-rule:evenodd;clip-rule:evenodd;fill:#FFFFFF;" d="M48.536,54.605c1.859-0.476,11.329-0.572,13.992-0.104
		C60.329,58.55,50.396,58.316,48.536,54.605z"/>
	<path style="fill-rule:evenodd;clip-rule:evenodd;fill:#FF386A;" d="M47.491,54.156c3.401-3.293,6.055-0.823,8.041-0.823
		c1.986,0,4.639-2.47,8.04,0.823C58.371,56.718,50.992,55.521,47.491,54.156z"/>
	
		<ellipse transform="matrix(-0.3946 -0.9189 0.9189 -0.3946 2.595 84.3666)" style="fill-rule:evenodd;clip-rule:evenodd;fill:#FFDECC;" cx="29.091" cy="41.328" rx="7.317" ry="4.231"/>
	
		<ellipse transform="matrix(0.3946 -0.9188 0.9188 0.3946 12.0079 100.8824)" style="fill-rule:evenodd;clip-rule:evenodd;fill:#FFDECC;" cx="82.563" cy="41.328" rx="7.316" ry="4.232"/>
	<path style="fill-rule:evenodd;clip-rule:evenodd;fill:#A2400F;" d="M82.695,43.492C90.763,8.908,66.412,3.026,52.204,3.026
		c-16.001,0-28.063,18.991-25.364,41.108c8.536-5.146,16.057-15.31,34.717-31.891c-2.714,4.866-8.006,13.719-25.99,29.765
		c9.679,1.599,27.708-10.601,37.317-23.367C75.178,27.717,78.479,37.651,82.695,43.492z"/>
	<path style="fill-rule:evenodd;clip-rule:evenodd;fill:#68C497;" d="M33.648,80.635c-5.839,2.8-12.517,4.562-18.36,5.868
		c-10.497,2.347-10.902,15.68-10.919,24.56h102.325c-0.016-8.88-0.211-22.165-10.919-24.56c-5.737-1.282-12.429-3.123-18.303-5.962
		l-0.014,0.022c-8.805,14.645-16.858,22.625-21.927,25.444C50.471,103.192,42.436,95.234,33.648,80.635z"/>
	<g>
		<path style="fill-rule:evenodd;clip-rule:evenodd;fill:#3C8A64;" d="M22.677,111.062c0.063-2.012,0.246-4.434,0.732-7.387
			c-0.906,2.879-1.549,5.289-2.001,7.387H22.677z"/>
		<path style="fill-rule:evenodd;clip-rule:evenodd;fill:#3C8A64;" d="M88.385,111.062c-0.063-2.012-0.246-4.434-0.731-7.387
			c0.906,2.879,1.549,5.289,2.001,7.387H88.385z"/>
	</g>
	
		<path style="fill-rule:evenodd;clip-rule:evenodd;fill:none;stroke:#FFFFFF;stroke-width:1.1999;stroke-miterlimit:22.9256;stroke-dasharray:2.3998,3.5997;" d="
		M31.791,81.4c4.768,9.775,14.619,23.092,23.739,27.47 M79.27,81.4c-4.768,9.775-14.618,23.092-23.739,27.47"/>
</g>
<g>
</g>
<g>
</g>
<g>
</g>
<g>
</g>
<g>
</g>
<g>
</g>
<g>
</g>
<g>
</g>
<g>
</g>
<g>
</g>
<g>
</g>
<g>
</g>
<g>
</g>
<g>
</g>
<g>
</g>
</svg>
