<svg viewBox="-13 0 512 512" xmlns="http://www.w3.org/2000/svg"><path d="m98.296875 327.601562-31.800781 31.796876-59.910156-59.914063c-8.78125-8.78125-8.78125-23.015625 0-31.796875 8.777343-8.78125 23.015624-8.78125 31.796874 0zm0 0" fill="#5c626b"/><path d="m16.667969 261.871094c-3.695313.984375-7.1875 2.917968-10.082031 5.816406-8.78125 8.78125-8.78125 23.015625 0 31.796875l59.914062 59.914063 15.898438-15.898438-59.914063-59.914062c-5.882813-5.882813-7.820313-14.214844-5.816406-21.714844zm0 0" fill="#535860"/><path d="m66.496094 359.398438 31.796875-31.796876 86.613281 86.613282-31.796875 31.796875zm0 0" fill="#dfe0e0"/><path d="m66.496094 359.394531 15.898437-15.898437 86.613281 86.617187-15.898437 15.898438zm0 0" fill="#c9caca"/><path d="m126.050781 327.714844-59.441406 59.4375c-1.824219 1.824218-4.78125 1.824218-6.605469 0l-21.261718-21.257813c-1.824219-1.828125-1.824219-4.785156 0-6.609375l59.4375-59.4375c1.824218-1.828125 4.785156-1.828125 6.609374 0l21.261719 21.257813c1.824219 1.824219 1.824219 4.785156 0 6.609375zm0 0" fill="#fbe067"/><path d="m81.855469 365.300781-21.257813-21.261719c-1.824218-1.824218-1.824218-4.785156 0-6.609374l-21.855468 21.855468c-1.824219 1.824219-1.824219 4.78125 0 6.609375l21.261718 21.257813c1.824219 1.824218 4.78125 1.824218 6.609375 0l21.851563-21.851563c-1.824219 1.824219-4.78125 1.824219-6.609375 0zm0 0" fill="#e7ce5f"/><path d="m387.949219 327.601562 31.796875 31.796876 59.914062-59.914063c8.78125-8.78125 8.78125-23.015625 0-31.796875-8.777344-8.78125-23.015625-8.78125-31.796875 0zm0 0" fill="#5c626b"/><path d="m469.578125 261.871094c3.695313.984375 7.1875 2.917968 10.082031 5.816406 8.78125 8.78125 8.78125 23.015625 0 31.796875l-59.914062 59.914063-15.898438-15.898438 59.914063-59.914062c5.882812-5.882813 7.820312-14.214844 5.816406-21.714844zm0 0" fill="#535860"/><path d="m333.132812 446.019531-31.796874-31.796875 86.613281-86.617187 31.796875 31.796875zm0 0" fill="#dfe0e0"/><path d="m317.226562 430.117188 86.617188-86.617188 15.898438 15.898438-86.617188 86.617187zm0 0" fill="#c9caca"/><path d="m360.195312 327.714844 59.441407 59.4375c1.824219 1.824218 4.78125 1.824218 6.605469 0l21.261718-21.257813c1.824219-1.828125 1.824219-4.785156 0-6.609375l-59.4375-59.4375c-1.824218-1.828125-4.785156-1.828125-6.609375 0l-21.261719 21.257813c-1.824218 1.824219-1.824218 4.785156 0 6.609375zm0 0" fill="#fbe067"/><path d="m404.390625 365.300781 21.257813-21.261719c1.824218-1.824218 1.824218-4.785156 0-6.609374l21.855468 21.851562c1.824219 1.828125 1.824219 4.785156 0 6.609375l-21.261718 21.261719c-1.824219 1.824218-4.785157 1.824218-6.609376 0l-21.851562-21.851563c1.824219 1.824219 4.78125 1.824219 6.609375 0zm0 0" fill="#e7ce5f"/><path d="m71.589844 512c0-94.734375 76.796875-171.535156 171.53125-171.535156 94.738281 0 171.535156 76.800781 171.535156 171.535156zm0 0" fill="#494f57"/><path d="m414.65625 512h-282.160156l163.246094-163.300781c68.992187 22.214843 118.914062 86.921875 118.914062 163.300781zm0 0" fill="#535860"/><path d="m189.527344 511.972656h-57.03125l163.222656-163.273437c13.804688 4.449219 26.847656 10.601562 38.878906 18.203125zm0 0" fill="#cb556a"/><path d="m71.589844 512h282.160156l-163.246094-163.300781c-68.992187 22.214843-118.914062 86.921875-118.914062 163.300781zm0 0" fill="#5c626b"/><path d="m259.230469 341.222656c-5.304688-.492187-10.675781-.757812-16.109375-.757812-94.734375 0-171.53125 76.800781-171.53125 171.535156h32.214844c0-89.304688 68.246093-162.65625 155.425781-170.777344zm0 0" fill="#535860"/><path d="m296.691406 511.972656h57.03125l-163.21875-163.273437c-13.808594 4.449219-26.851562 10.601562-38.882812 18.203125zm0 0" fill="#e15f76"/><path d="m199.78125 357.984375-9.277344-9.285156c-13.808594 4.449219-26.851562 10.601562-38.882812 18.203125l13.59375 13.59375c10.519531-8.820313 22.121094-16.394532 34.566406-22.511719zm0 0" fill="#cb556a"/><path d="m427.40625 184.285156c0 101.777344-82.507812 184.28125-184.285156 184.28125-101.773438 0-184.28125-82.503906-184.28125-184.28125s82.507812-184.285156 184.28125-184.285156c101.777344 0 184.285156 82.507812 184.285156 184.285156zm0 0" fill="#5c626b"/><path d="m89.742188 184.285156c0-96.574218 74.289062-175.785156 168.832031-183.636718-5.09375-.421876-10.246094-.648438-15.453125-.648438-101.773438 0-184.28125 82.507812-184.28125 184.285156s82.507812 184.28125 184.28125 184.28125c5.207031 0 10.359375-.226562 15.453125-.648437-94.542969-7.851563-168.832031-87.0625-168.832031-183.632813zm0 0" fill="#535860"/><path d="m58.839844 184.285156c0 4.511719.167968 8.984375.488281 13.417969.703125.054687 1.410156.089844 2.121094.089844h363.347656c.710937 0 1.417969-.035157 2.121094-.089844.316406-4.433594.488281-8.90625.488281-13.417969 0-14.035156-1.578125-27.699218-4.546875-40.832031h-359.472656c-2.972657 13.132813-4.546875 26.796875-4.546875 40.832031zm0 0" fill="#535860"/><path d="m310.652344 262.648438-22.980469-9.566407c-28.511719-11.871093-60.585937-11.871093-89.101563 0l-22.976562 9.566407c-27.503906 11.453124-57.808594-8.753907-57.808594-38.546876 0-23.066406 18.695313-41.757812 41.757813-41.757812h167.160156c23.0625 0 41.757813 18.695312 41.757813 41.757812 0 29.792969-30.304688 50-57.808594 38.546876zm0 0" fill="#f7c2ad"/><path d="m61.449219 182.34375h363.347656c7.164063 0 12.863281-6.097656 12.28125-13.238281-1.636719-20.109375-6.496094-39.300781-14.070313-57.0625-1.9375-4.539063-6.398437-7.480469-11.332031-7.480469h-337.105469c-4.933593 0-9.394531 2.941406-11.332031 7.480469-7.574219 17.761719-12.433593 36.957031-14.070312 57.0625-.582031 7.140625 5.117187 13.238281 12.28125 13.238281zm0 0" fill="#e15f76"/><path d="m80.074219 169.105469c1.636719-20.109375 6.496093-39.300781 14.070312-57.0625 1.933594-4.539063 6.398438-7.480469 11.332031-7.480469h-30.90625c-4.933593 0-9.394531 2.941406-11.332031 7.480469-7.574219 17.761719-12.433593 36.953125-14.070312 57.0625-.582031 7.136719 5.117187 13.234375 12.28125 13.234375h30.90625c-7.164063.003906-12.863281-6.09375-12.28125-13.234375zm0 0" fill="#cb556a"/><g fill="#494f57"><path d="m26.898438 288-15.898438 15.898438 10.925781 10.925781 15.898438-15.894531c3.019531-3.019532 3.019531-7.910157 0-10.929688-3.015625-3.015625-7.910157-3.015625-10.925781 0zm0 0"/><path d="m45.132812 306.234375-15.898437 15.898437 10.925781 10.925782 15.898438-15.898438c3.015625-3.015625 3.015625-7.910156 0-10.925781-3.019532-3.019531-7.910156-3.019531-10.925782 0zm0 0"/><path d="m459.347656 288c-3.015625-3.015625-7.910156-3.015625-10.925781 0-3.019531 3.019531-3.019531 7.910156 0 10.929688l15.898437 15.894531 10.925782-10.925781zm0 0"/><path d="m441.113281 306.234375c-3.015625-3.019531-7.90625-3.019531-10.925781 0-3.015625 3.015625-3.015625 7.90625 0 10.925781l15.898438 15.898438 10.925781-10.925782zm0 0"/><path d="m308.734375 229.101562c-4.140625 0-7.5-3.355468-7.5-7.5v-11.695312c0-4.144531 3.359375-7.5 7.5-7.5 4.144531 0 7.5 3.355469 7.5 7.5v11.695312c0 4.144532-3.355469 7.5-7.5 7.5zm0 0"/><path d="m177.511719 229.101562c-4.144531 0-7.5-3.355468-7.5-7.5v-11.695312c0-4.144531 3.355469-7.5 7.5-7.5 4.140625 0 7.5 3.355469 7.5 7.5v11.695312c0 4.144532-3.359375 7.5-7.5 7.5zm0 0"/></g></svg>