<?xml version="1.0" encoding="iso-8859-1"?>
<!-- Generator: Adobe Illustrator 19.0.0, SVG Export Plug-In . SVG Version: 6.00 Build 0)  -->
<svg version="1.1" id="Capa_1" xmlns="http://www.w3.org/2000/svg" xmlns:xlink="http://www.w3.org/1999/xlink" x="0px" y="0px"
	 viewBox="0 0 512 512" style="enable-background:new 0 0 512 512;" xml:space="preserve">
<path style="fill:#98D4AD;" d="M186.339,355.314h-14.505c-39.351,0-71.548,32.197-71.548,71.548v74.679
	c0,5.777,4.683,10.459,10.459,10.459h283.313c5.777,0,10.459-4.682,10.459-10.459v-74.679c0-39.351-32.232-69.886-71.548-71.548
	c-1.773-0.075-10.064,0-10.064,0H186.339z"/>
<g>
	<path style="fill:#F9C4B4;" d="M375.862,258.425h17.435c21.931,0,39.876-17.945,39.876-39.876l0,0
		c0-21.931-17.945-39.876-39.876-39.876h-17.435H136.138h-17.435c-21.932,0-39.876,17.945-39.876,39.876l0,0
		c0,21.932,17.945,39.876,39.876,39.876h17.435H375.862L375.862,258.425z"/>
	<path style="fill:#F9C4B4;" d="M308.741,366.041c0,29.887-24.228,54.115-54.115,54.115s-54.115-24.228-54.115-54.115v-41.906
		h108.231v41.906H308.741z"/>
	<path style="fill:#F9C4B4;" d="M373.114,142.84v122.217c0,58.542-47.898,106.44-106.44,106.44h-24.097
		c-58.542,0-106.44-47.898-106.44-106.44V94.345c0-17.547,14.225-31.772,31.772-31.772l0,0L373.114,142.84z"/>
</g>
<path style="opacity:0.1;enable-background:new    ;" d="M350.491,134.018v108.486c0,58.542-47.898,106.44-106.44,106.44h-24.097
	c-23.551,0-45.374-7.755-63.054-20.833c19.431,26.27,50.615,43.385,85.607,43.385h24.097c58.542,0,106.44-47.898,106.44-106.44
	V142.839L350.491,134.018z"/>
<g style="opacity:0.1;">
	<path d="M225.218,218.372c-4.332,0-7.844-3.511-7.844-7.844c0-3.17-2.578-5.749-5.748-5.749c-3.17,0-5.749,2.579-5.749,5.749
		c0,4.333-3.512,7.844-7.844,7.844s-7.844-3.511-7.844-7.844c0-11.821,9.617-21.438,21.438-21.438
		c11.821,0,21.437,9.617,21.437,21.438C233.062,214.86,229.55,218.372,225.218,218.372z"/>
	<path d="M317.234,218.372c-4.333,0-7.844-3.511-7.844-7.844c0-3.17-2.579-5.749-5.749-5.749c-3.169,0-5.748,2.579-5.748,5.749
		c0,4.333-3.511,7.844-7.844,7.844c-4.333,0-7.844-3.511-7.844-7.844c0-11.821,9.616-21.438,21.437-21.438
		c11.821,0,21.438,9.617,21.438,21.438C325.079,214.86,321.568,218.372,317.234,218.372z"/>
</g>
<g style="opacity:0.1;">
	<path d="M262.246,252.844h-17.361c-2.336,0-4.551-1.042-6.041-2.841c-1.49-1.8-2.101-4.169-1.666-6.465l9.474-49.991
		c0.807-4.257,4.92-7.045,9.168-6.247c4.256,0.806,7.053,4.912,6.247,9.168l-7.711,40.686h7.89c4.333,0,7.844,3.511,7.844,7.844
		S266.579,252.844,262.246,252.844z"/>
</g>
<g style="opacity:0.3;">
	<path d="M156.171,512v-60.047c0-4.333,3.512-7.844,7.844-7.844s7.844,3.511,7.844,7.844V512H156.171z"/>
</g>
<g style="opacity:0.3;">
	<path d="M332.669,512v-60.047c0-4.333,3.511-7.844,7.844-7.844c4.333,0,7.844,3.511,7.844,7.844V512H332.669z"/>
</g>
<g>
	<path style="fill:#B57049;" d="M254.724,284.066c0,0-20.158-29.895-47.385-15.349c-16.054,8.577-26.3,3.647-32.007-1.845
		c-1.121-1.079-2.915,0.14-2.293,1.568C181.114,286.967,204.479,322.911,254.724,284.066z"/>
	<path style="fill:#B57049;" d="M254.724,284.066c0,0,20.158-29.895,47.385-15.349c16.054,8.577,26.3,3.647,32.007-1.845
		c1.121-1.079,2.915,0.14,2.293,1.568C328.335,286.967,304.968,322.911,254.724,284.066z"/>
</g>
<g>
	<circle style="fill:#FFDE85;" cx="252.261" cy="468.072" r="19.214"/>
	<path style="fill:#FFDE85;" d="M297.294,455.779c-2.15,0-4.291-0.879-5.84-2.604c-2.895-3.223-2.627-8.183,0.597-11.077
		l27.186-24.404c3.222-2.895,8.182-2.627,11.077,0.597c2.895,3.223,2.627,8.183-0.597,11.077l-27.186,24.404
		C301.033,455.117,299.16,455.779,297.294,455.779z"/>
	<path style="fill:#FFDE85;" d="M205.37,455.078c-2.15,0-4.291-0.879-5.839-2.604l-24.404-27.186
		c-2.894-3.223-2.626-8.183,0.597-11.077c3.225-2.896,8.184-2.627,11.077,0.597l24.404,27.186c2.894,3.223,2.626,8.183-0.597,11.077
		C209.109,454.416,207.236,455.078,205.37,455.078z"/>
</g>
<path style="fill:#B57049;" d="M175.091,157.4l8.153-35.06c0,0,24.48,30.601,73.114,45.543l-6.154-24.904
	c0,0,33.992,37.581,91.044,41.657l-26.427-58.249L167.91,62.572c-17.547,0-31.772,14.225-31.772,31.772v34.765
	C141.937,137.228,154.145,150.591,175.091,157.4z"/>
<path style="fill:#332E2F;" d="M167.91,62.572c0,0,96.283,99.494,209.39,86.886c5.632-0.628,9.77-5.557,9.342-11.208
	c-1.592-21.044-9.196-70.62-45.315-96.569C294.691,8.175,209.114-3.989,167.91,62.572"/>
<path style="opacity:0.1;enable-background:new    ;" d="M384.131,118.832c-1.681,1.949-4.074,3.29-6.831,3.597
	c-89.421,9.967-168.314-50.122-197.44-75.731c-4.291,4.702-8.299,9.973-11.952,15.873c0,0,96.283,99.494,209.39,86.886
	c5.632-0.628,9.77-5.557,9.342-11.208C386.261,133.189,385.522,126.468,384.131,118.832z"/>
<path style="fill:#332E2F;" d="M308.741,24.07c0,0,12.547-20.59,46.732-24.018c5.493-0.551,10.462,3.304,11.339,8.755l0.613,3.813
	c0.961,5.982-3.339,11.576-9.378,12.075c-7.558,0.624-17.935,2.913-28.12,9.787L308.741,24.07z"/>
<rect x="119.463" y="178.671" style="opacity:0.1;enable-background:new    ;" width="16.678" height="79.75"/>
<rect x="373.115" y="178.671" style="opacity:0.1;enable-background:new    ;" width="16.678" height="79.75"/>
<g>
</g>
<g>
</g>
<g>
</g>
<g>
</g>
<g>
</g>
<g>
</g>
<g>
</g>
<g>
</g>
<g>
</g>
<g>
</g>
<g>
</g>
<g>
</g>
<g>
</g>
<g>
</g>
<g>
</g>
</svg>
