<svg id="Layer_1" data-name="Layer 1" xmlns="http://www.w3.org/2000/svg" viewBox="0 0 251 251"><defs><style>.cls-1{fill:#f2f2f2;stroke:#b3b3b3;stroke-miterlimit:10;}.cls-2{fill:#e0bb05;}.cls-3{fill:#333;}</style></defs><title>browser</title><rect class="cls-1" x="0.5" y="0.5" width="250" height="250" rx="13.7" ry="13.7"/><path class="cls-2" d="M47.93,120.42l-8-13.88a28,28,0,0,1,46,3.19H63.05c-.41,0-.83-.06-1.25-.06a14.35,14.35,0,0,0-13.87,10.75Zm23.9-6.65h16A28,28,0,0,1,62.12,152l11.45-19.84a14.3,14.3,0,0,0-1.74-18.39ZM51.63,124A10.17,10.17,0,1,1,61.8,134.17,10.18,10.18,0,0,1,51.63,124Zm14,13.81-8,13.88a28,28,0,0,1-20.23-41.42l11.43,19.8a14.35,14.35,0,0,0,16.82,7.74Zm0,0" transform="translate(-1 -1)"/><path class="cls-3" d="M121,124.48l4.2,1.33A9.37,9.37,0,0,1,122,131a10.12,10.12,0,0,1-12.74-1.21,11.16,11.16,0,0,1-2.75-8c0-3.58.92-6.35,2.76-8.33a9.5,9.5,0,0,1,7.28-3,9,9,0,0,1,6.41,2.33,8.56,8.56,0,0,1,2.19,4l-4.29,1a4.45,4.45,0,0,0-4.53-3.6,4.88,4.88,0,0,0-3.87,1.71c-1,1.14-1.49,3-1.49,5.55q0,4.08,1.47,5.8a4.72,4.72,0,0,0,3.81,1.73,4.3,4.3,0,0,0,3-1.1A6.35,6.35,0,0,0,121,124.48Z" transform="translate(-1 -1)"/><path class="cls-3" d="M133,110.9v7.89a6.17,6.17,0,0,1,7.33-1.8,4.19,4.19,0,0,1,1.72,1.35,4.79,4.79,0,0,1,.79,1.82,16.35,16.35,0,0,1,.21,3.09v9.12h-4.11v-8.21a11.89,11.89,0,0,0-.24-3.11,2,2,0,0,0-.83-1,2.63,2.63,0,0,0-1.48-.39,3.39,3.39,0,0,0-1.83.5,2.85,2.85,0,0,0-1.18,1.5,8.94,8.94,0,0,0-.38,3v7.79h-4.11V110.9Z" transform="translate(-1 -1)"/><path class="cls-3" d="M151.15,132.37H147V116.82h3.83V119a6.57,6.57,0,0,1,1.76-2.07,3.27,3.27,0,0,1,1.78-.5,5.2,5.2,0,0,1,2.71.78l-1.27,3.59a3.62,3.62,0,0,0-1.94-.67,2.26,2.26,0,0,0-1.46.47,3.27,3.27,0,0,0-.95,1.72,24.55,24.55,0,0,0-.34,5.22Z" transform="translate(-1 -1)"/><path class="cls-3" d="M157.93,124.38a8.42,8.42,0,0,1,1-4,6.94,6.94,0,0,1,2.87-2.93,8.4,8.4,0,0,1,4.13-1,7.76,7.76,0,0,1,5.79,2.3,8.6,8.6,0,0,1,0,11.64,7.69,7.69,0,0,1-5.74,2.32,9.12,9.12,0,0,1-4.08-1,6.7,6.7,0,0,1-2.95-2.84A9.46,9.46,0,0,1,157.93,124.38Zm4.22.21a5.17,5.17,0,0,0,1.1,3.55,3.59,3.59,0,0,0,5.41,0,5.2,5.2,0,0,0,1.09-3.57,5.12,5.12,0,0,0-1.09-3.52,3.59,3.59,0,0,0-5.41,0A5.16,5.16,0,0,0,162.15,124.59Z" transform="translate(-1 -1)"/><path class="cls-3" d="M176.9,116.82h3.79v2.12a6.12,6.12,0,0,1,4.85-2.48,5.26,5.26,0,0,1,2.6.62,4.75,4.75,0,0,1,1.8,1.86,7.15,7.15,0,0,1,2.21-1.86,5.44,5.44,0,0,1,2.53-.62,5.66,5.66,0,0,1,2.9.7,4.24,4.24,0,0,1,1.78,2,9,9,0,0,1,.42,3.23v9.94h-4.11v-8.89a6.66,6.66,0,0,0-.43-3,2,2,0,0,0-1.76-.88,2.8,2.8,0,0,0-1.62.53,2.89,2.89,0,0,0-1.1,1.55,10.89,10.89,0,0,0-.34,3.21v7.47H186.3v-8.52a11.61,11.61,0,0,0-.22-2.93,1.8,1.8,0,0,0-.68-1,2.09,2.09,0,0,0-1.25-.33,3,3,0,0,0-1.71.52,2.77,2.77,0,0,0-1.09,1.48,10.92,10.92,0,0,0-.33,3.2v7.56H176.9Z" transform="translate(-1 -1)"/><path class="cls-3" d="M212.89,127.42l4.1.69a6.76,6.76,0,0,1-2.49,3.44,7.4,7.4,0,0,1-4.27,1.17q-4.06,0-6-2.65a8.86,8.86,0,0,1-1.54-5.36,8.63,8.63,0,0,1,2-6.06,6.66,6.66,0,0,1,5.12-2.19,6.88,6.88,0,0,1,5.47,2.3q2,2.3,1.92,7H206.9a4.15,4.15,0,0,0,1,2.85,3.1,3.1,0,0,0,2.37,1,2.55,2.55,0,0,0,1.63-.53A3.29,3.29,0,0,0,212.89,127.42Zm.24-4.16a4,4,0,0,0-.93-2.72,3,3,0,0,0-4.36.06,3.76,3.76,0,0,0-.87,2.66Z" transform="translate(-1 -1)"/></svg>