<svg id="Layer_1" data-name="Layer 1" xmlns="http://www.w3.org/2000/svg" viewBox="0 0 251 251"><defs><style>.cls-1,.cls-3{fill:#f2f2f2;}.cls-1{stroke:#b3b3b3;}.cls-1,.cls-4,.cls-5{stroke-miterlimit:10;}.cls-2{fill:#333;}.cls-4{fill:none;}.cls-4,.cls-5{stroke:#333;stroke-width:1.5px;}.cls-5{fill:#e0bb05;}</style></defs><title>features</title><rect class="cls-1" x="0.5" y="0.5" width="250" height="250" rx="13.7" ry="13.7"/><rect class="cls-2" x="91.43" y="175" width="73.41" height="26.25" rx="5" ry="5"/><path class="cls-3" d="M112.29,189.49a5.45,5.45,0,0,1,1.34-3.9,4.53,4.53,0,0,1,3.46-1.42,4.8,4.8,0,0,1,2.5.67,4.29,4.29,0,0,1,1.7,1.85,6,6,0,0,1,.59,2.69,5.89,5.89,0,0,1-.62,2.72,4.22,4.22,0,0,1-1.74,1.83,5,5,0,0,1-2.44.61,4.73,4.73,0,0,1-2.53-.68,4.41,4.41,0,0,1-1.68-1.87A5.53,5.53,0,0,1,112.29,189.49Zm1.37,0a4,4,0,0,0,1,2.86,3.23,3.23,0,0,0,2.45,1,3.18,3.18,0,0,0,2.46-1,4.25,4.25,0,0,0,1-3,5.24,5.24,0,0,0-.41-2.14,3.16,3.16,0,0,0-1.21-1.41,3.27,3.27,0,0,0-1.79-.5,3.42,3.42,0,0,0-2.43,1A4.35,4.35,0,0,0,113.66,189.51Z" transform="translate(-1 -1)"/><path class="cls-3" d="M123.43,197.16v-10h1.12v.95a2.67,2.67,0,0,1,.89-.83,2.43,2.43,0,0,1,1.21-.28,2.85,2.85,0,0,1,1.64.48,2.91,2.91,0,0,1,1.08,1.35,5,5,0,0,1,.36,1.91,4.76,4.76,0,0,1-.4,2,3,3,0,0,1-2.76,1.85,2.39,2.39,0,0,1-1.11-.26,2.6,2.6,0,0,1-.8-.66v3.54Zm1.11-6.38a3.17,3.17,0,0,0,.57,2.08,1.77,1.77,0,0,0,1.37.67,1.8,1.8,0,0,0,1.41-.7,3.29,3.29,0,0,0,.58-2.15,3.23,3.23,0,0,0-.57-2.08,1.71,1.71,0,0,0-1.36-.69,1.76,1.76,0,0,0-1.39.74A3.24,3.24,0,0,0,124.54,190.78Z" transform="translate(-1 -1)"/><path class="cls-3" d="M136.18,192l1.28.15a3.15,3.15,0,0,1-1.12,1.73,3.76,3.76,0,0,1-4.6-.36,3.83,3.83,0,0,1-.94-2.76,4,4,0,0,1,.95-2.84,3.2,3.2,0,0,1,2.44-1,3.09,3.09,0,0,1,2.38,1,3.92,3.92,0,0,1,.93,2.79c0,.07,0,.18,0,.33h-5.41a2.79,2.79,0,0,0,.67,1.83,2,2,0,0,0,1.52.64,1.84,1.84,0,0,0,1.15-.36A2.35,2.35,0,0,0,136.18,192Zm-4-2h4.06a2.5,2.5,0,0,0-.47-1.38,1.89,1.89,0,0,0-1.52-.71,2,2,0,0,0-1.43.57A2.26,2.26,0,0,0,132.14,190.05Z" transform="translate(-1 -1)"/><path class="cls-3" d="M139,194.37v-7.26h1.11v1a2.6,2.6,0,0,1,2.31-1.2,2.92,2.92,0,0,1,1.2.24,1.86,1.86,0,0,1,.83.61,2.4,2.4,0,0,1,.38.91,6.62,6.62,0,0,1,.07,1.2v4.46h-1.23V190a3.54,3.54,0,0,0-.14-1.13,1.22,1.22,0,0,0-.51-.59,1.62,1.62,0,0,0-.86-.22,2,2,0,0,0-1.36.49,2.49,2.49,0,0,0-.57,1.9v4Z" transform="translate(-1 -1)"/><rect class="cls-4" x="34.5" y="33.5" width="185" height="185" rx="13.73" ry="13.73"/><rect class="cls-5" x="104" y="53" width="47" height="47" rx="3" ry="3"/><rect class="cls-2" x="77.49" y="122.95" width="102.51" height="2.67" rx="1.33" ry="1.33" transform="translate(256.49 247.56) rotate(180)"/><rect class="cls-2" x="77.49" y="135.95" width="102.51" height="2.67" rx="1.33" ry="1.33" transform="translate(256.49 273.56) rotate(180)"/><rect class="cls-2" x="77.49" y="147.95" width="102.51" height="2.67" rx="1.33" ry="1.33" transform="translate(256.49 297.56) rotate(180)"/><rect class="cls-2" x="91.49" y="159.95" width="74.51" height="2.67" rx="1.33" ry="1.33" transform="translate(256.49 321.56) rotate(180)"/></svg>