<svg id="Layer_1" data-name="Layer 1" xmlns="http://www.w3.org/2000/svg" viewBox="0 0 251 251"><defs><style>.cls-1,.cls-4{fill:#f2f2f2;}.cls-1{stroke:#b3b3b3;}.cls-1,.cls-2{stroke-miterlimit:10;}.cls-2{fill:#e0bb05;stroke:#333;stroke-width:1.5px;}.cls-3{fill:#333;}</style></defs><title>hero</title><rect class="cls-1" x="0.5" y="0.5" width="250" height="250" rx="13.7" ry="13.7"/><rect class="cls-2" x="32.5" y="33.5" width="186" height="185" rx="13.73" ry="13.73"/><rect class="cls-3" x="44" y="144" width="76.57" height="24.14" rx="5" ry="5"/><path class="cls-4" d="M54.1,162v-8.59h3.81a5.17,5.17,0,0,1,1.74.23,1.91,1.91,0,0,1,1,.82A2.41,2.41,0,0,1,61,155.7a2.13,2.13,0,0,1-.6,1.54,2.94,2.94,0,0,1-1.82.8,3.22,3.22,0,0,1,.68.43,5.5,5.5,0,0,1,.94,1.14l1.5,2.34H60.24l-1.14-1.79c-.33-.51-.6-.91-.82-1.18a2.41,2.41,0,0,0-.58-.58,1.61,1.61,0,0,0-.51-.22,3.07,3.07,0,0,0-.64-.05H55.23V162Zm1.13-4.8h2.45A3.64,3.64,0,0,0,58.9,157a1.28,1.28,0,0,0,.66-.52,1.32,1.32,0,0,0,.23-.77,1.26,1.26,0,0,0-.44-1,2.07,2.07,0,0,0-1.4-.39H55.23Z" transform="translate(-1 -1)"/><path class="cls-4" d="M66.87,159.94l1.09.14a2.64,2.64,0,0,1-.95,1.48,2.89,2.89,0,0,1-1.78.53,2.84,2.84,0,0,1-2.17-.84,3.31,3.31,0,0,1-.8-2.36,3.44,3.44,0,0,1,.81-2.44,2.73,2.73,0,0,1,2.1-.86,2.66,2.66,0,0,1,2,.85,3.39,3.39,0,0,1,.79,2.39c0,.06,0,.15,0,.28H63.35a2.4,2.4,0,0,0,.58,1.57,1.74,1.74,0,0,0,1.3.54,1.62,1.62,0,0,0,1-.3A2.08,2.08,0,0,0,66.87,159.94Zm-3.46-1.7h3.47a2.06,2.06,0,0,0-.4-1.18,1.62,1.62,0,0,0-1.3-.61,1.64,1.64,0,0,0-1.22.49A1.9,1.9,0,0,0,63.41,158.24Z" transform="translate(-1 -1)"/><path class="cls-4" d="M73.35,161.18a3.83,3.83,0,0,1-1.13.7,3.19,3.19,0,0,1-1.16.21,2.29,2.29,0,0,1-1.58-.5,1.65,1.65,0,0,1-.55-1.28,1.72,1.72,0,0,1,.21-.84,1.65,1.65,0,0,1,.54-.6,2.51,2.51,0,0,1,.76-.35,8.38,8.38,0,0,1,.94-.16,9.59,9.59,0,0,0,1.88-.36v-.28a1.17,1.17,0,0,0-.29-.9,1.77,1.77,0,0,0-1.21-.36,1.86,1.86,0,0,0-1.09.26,1.54,1.54,0,0,0-.53.92l-1-.14a2.57,2.57,0,0,1,.46-1.07,2,2,0,0,1,.93-.62,4.11,4.11,0,0,1,1.42-.22,3.85,3.85,0,0,1,1.29.18,1.81,1.81,0,0,1,.73.47,1.6,1.6,0,0,1,.33.72,5.59,5.59,0,0,1,0,1v1.4a15.8,15.8,0,0,0,.07,1.86,2.6,2.6,0,0,0,.27.75h-1.1A2.23,2.23,0,0,1,73.35,161.18Zm-.09-2.35a8.25,8.25,0,0,1-1.72.39,4.1,4.1,0,0,0-.92.22.9.9,0,0,0-.57.84.91.91,0,0,0,.32.7,1.39,1.39,0,0,0,.94.28,2.27,2.27,0,0,0,1.08-.26,1.64,1.64,0,0,0,.7-.73,2.62,2.62,0,0,0,.17-1.06Z" transform="translate(-1 -1)"/><path class="cls-4" d="M80,162v-.79a2,2,0,0,1-1.74.93,2.45,2.45,0,0,1-1.37-.41,2.68,2.68,0,0,1-1-1.15,3.92,3.92,0,0,1-.34-1.69,4.39,4.39,0,0,1,.31-1.69,2.51,2.51,0,0,1,.93-1.16,2.48,2.48,0,0,1,1.39-.4,2,2,0,0,1,1,.23,2.28,2.28,0,0,1,.72.62v-3.08h1V162Zm-3.34-3.11a2.67,2.67,0,0,0,.51,1.79,1.52,1.52,0,0,0,1.19.59,1.5,1.5,0,0,0,1.17-.56,2.65,2.65,0,0,0,.48-1.73,2.89,2.89,0,0,0-.49-1.87,1.51,1.51,0,0,0-1.21-.6,1.48,1.48,0,0,0-1.18.57A2.88,2.88,0,0,0,76.66,158.84Z" transform="translate(-1 -1)"/><path class="cls-4" d="M86.07,162v-8.59h1.71l2,6.08c.19.57.33,1,.41,1.27.1-.31.25-.77.46-1.37l2-6h1.53V162H93.17v-7.19L90.67,162h-1l-2.49-7.31V162Z" transform="translate(-1 -1)"/><path class="cls-4" d="M95.57,158.84a3.2,3.2,0,0,1,1-2.56,2.91,2.91,0,0,1,2-.69,2.82,2.82,0,0,1,2.1.84,3.2,3.2,0,0,1,.81,2.32,4.13,4.13,0,0,1-.36,1.89,2.58,2.58,0,0,1-1.05,1.07,3.1,3.1,0,0,1-1.5.38,2.78,2.78,0,0,1-2.11-.84A3.33,3.33,0,0,1,95.57,158.84Zm1.08,0a2.66,2.66,0,0,0,.53,1.79,1.74,1.74,0,0,0,2.62,0,2.73,2.73,0,0,0,.52-1.82,2.58,2.58,0,0,0-.53-1.75,1.74,1.74,0,0,0-2.61,0A2.62,2.62,0,0,0,96.65,158.84Z" transform="translate(-1 -1)"/><path class="cls-4" d="M102.63,162v-6.22h.94v.94a2.6,2.6,0,0,1,.68-.87,1.16,1.16,0,0,1,.67-.21,2,2,0,0,1,1.09.34l-.37,1a1.48,1.48,0,0,0-.77-.22,1,1,0,0,0-.62.2,1,1,0,0,0-.39.58,4.06,4.06,0,0,0-.18,1.23V162Z" transform="translate(-1 -1)"/><path class="cls-4" d="M110.89,159.94l1.09.14a2.64,2.64,0,0,1-1,1.48,2.89,2.89,0,0,1-1.78.53,2.85,2.85,0,0,1-2.17-.84,3.31,3.31,0,0,1-.8-2.36,3.44,3.44,0,0,1,.81-2.44,2.73,2.73,0,0,1,2.1-.86,2.66,2.66,0,0,1,2,.85,3.39,3.39,0,0,1,.79,2.39c0,.06,0,.15,0,.28h-4.64a2.4,2.4,0,0,0,.58,1.57,1.74,1.74,0,0,0,1.3.54,1.62,1.62,0,0,0,1-.3A2,2,0,0,0,110.89,159.94Zm-3.46-1.7h3.47a2.06,2.06,0,0,0-.39-1.18,1.74,1.74,0,0,0-2.53-.12A1.94,1.94,0,0,0,107.43,158.24Z" transform="translate(-1 -1)"/><rect class="cls-3" x="45.49" y="86.95" width="72.51" height="2.67" rx="1.33" ry="1.33" transform="translate(162.49 175.56) rotate(180)"/><rect class="cls-3" x="45.49" y="99.38" width="162.51" height="6.62" rx="2.76" ry="2.76" transform="translate(252.49 204.38) rotate(180)"/><rect class="cls-3" x="45.49" y="112.38" width="162.51" height="6.62" rx="2.76" ry="2.76" transform="translate(252.49 230.38) rotate(180)"/><rect class="cls-3" x="45.49" y="125.38" width="141.51" height="6.62" rx="2.76" ry="2.76" transform="translate(231.49 256.38) rotate(180)"/></svg>