<svg id="Layer_1" data-name="Layer 1" xmlns="http://www.w3.org/2000/svg" viewBox="0 0 251 251"><defs><style>.cls-1{fill:#f2f2f2;stroke:#b3b3b3;}.cls-1,.cls-2,.cls-5{stroke-miterlimit:10;}.cls-2{fill:none;stroke-width:1.5px;}.cls-2,.cls-5{stroke:#333;}.cls-3,.cls-5{fill:#e0bb05;}.cls-4{fill:#333;}</style></defs><title>imagelist</title><rect class="cls-1" x="0.5" y="0.5" width="250" height="250" rx="13.7" ry="13.7"/><rect class="cls-2" x="35" y="34" width="185" height="183" rx="13.73" ry="13.73"/><rect class="cls-3" x="96" y="69.41" width="64" height="3.73" rx="1.87" ry="1.87" transform="translate(255 141.56) rotate(-180)"/><rect class="cls-3" x="96" y="75.41" width="54.61" height="3.73" rx="1.87" ry="1.87" transform="translate(245.61 153.56) rotate(-180)"/><rect class="cls-4" x="96" y="112.41" width="54.61" height="3.73" rx="1.87" ry="1.87" transform="translate(245.61 227.56) rotate(-180)"/><rect class="cls-4" x="96" y="149.41" width="54.61" height="3.73" rx="1.87" ry="1.87" transform="translate(245.61 301.56) rotate(-180)"/><rect class="cls-4" x="96" y="186.41" width="54.61" height="3.73" rx="1.87" ry="1.87" transform="translate(245.61 375.56) rotate(-180)"/><rect class="cls-5" x="58" y="59" width="23" height="23" rx="3" ry="3"/><rect class="cls-4" x="58" y="96" width="23" height="23" rx="3" ry="3"/><rect class="cls-4" x="58" y="133" width="23" height="23" rx="3" ry="3"/><rect class="cls-4" x="58" y="170" width="23" height="23" rx="3" ry="3"/><path class="cls-3" d="M172.86,71.26H175v2h-2.12Z" transform="translate(-1 -1)"/><path class="cls-3" d="M176.3,66.09H180a2.53,2.53,0,0,1,1.8.57,2.15,2.15,0,0,1,.6,1.63,2.21,2.21,0,0,1-.65,1.69,2.82,2.82,0,0,1-2,.61h-1.22v2.66H176.3Zm2.22,3h.55a1.36,1.36,0,0,0,.89-.22.7.7,0,0,0,.26-.57.8.8,0,0,0-.22-.57,1.2,1.2,0,0,0-.85-.23h-.63Z" transform="translate(-1 -1)"/><path class="cls-3" d="M183.55,66.09h2.06l2.7,4v-4h2.08v7.16h-2.08l-2.68-3.93v3.93h-2.08Z" transform="translate(-1 -1)"/><path class="cls-3" d="M195.46,70.66V69.17h3.42v3a6.78,6.78,0,0,1-1.73.91,6,6,0,0,1-1.79.24,4.34,4.34,0,0,1-2.08-.43,3,3,0,0,1-1.25-1.3,4.3,4.3,0,0,1-.44-2,4.16,4.16,0,0,1,.48-2,3.17,3.17,0,0,1,1.42-1.31,4.65,4.65,0,0,1,2-.35,5.58,5.58,0,0,1,1.77.21,2.35,2.35,0,0,1,1,.67,2.9,2.9,0,0,1,.58,1.15l-2.13.38a1.16,1.16,0,0,0-.45-.62,1.33,1.33,0,0,0-.8-.22,1.44,1.44,0,0,0-1.16.51,2.41,2.41,0,0,0-.43,1.6,2.54,2.54,0,0,0,.43,1.66,1.55,1.55,0,0,0,1.22.49,2.34,2.34,0,0,0,.71-.1,3.78,3.78,0,0,0,.77-.37v-.67Z" transform="translate(-1 -1)"/><rect class="cls-4" x="96" y="106.41" width="64" height="3.73" rx="1.87" ry="1.87" transform="translate(255 215.56) rotate(-180)"/><path class="cls-4" d="M172.86,108.26H175v2h-2.12Z" transform="translate(-1 -1)"/><path class="cls-4" d="M176.3,103.09H180a2.53,2.53,0,0,1,1.8.57,2.15,2.15,0,0,1,.6,1.63,2.21,2.21,0,0,1-.65,1.69,2.82,2.82,0,0,1-2,.61h-1.22v2.66H176.3Zm2.22,3h.55a1.36,1.36,0,0,0,.89-.22.7.7,0,0,0,.26-.57.8.8,0,0,0-.22-.57,1.2,1.2,0,0,0-.85-.23h-.63Z" transform="translate(-1 -1)"/><path class="cls-4" d="M183.55,103.09h2.06l2.7,4v-4h2.08v7.16h-2.08l-2.68-3.93v3.93h-2.08Z" transform="translate(-1 -1)"/><path class="cls-4" d="M195.46,107.66v-1.49h3.42v3a6.78,6.78,0,0,1-1.73.91,6,6,0,0,1-1.79.24,4.34,4.34,0,0,1-2.08-.43,3,3,0,0,1-1.25-1.3,4.3,4.3,0,0,1-.44-2,4.16,4.16,0,0,1,.48-2,3.17,3.17,0,0,1,1.42-1.31,4.65,4.65,0,0,1,2-.35,5.58,5.58,0,0,1,1.77.21,2.35,2.35,0,0,1,1,.67,2.9,2.9,0,0,1,.58,1.15l-2.13.38a1.16,1.16,0,0,0-.45-.62,1.33,1.33,0,0,0-.8-.22,1.44,1.44,0,0,0-1.16.51,2.41,2.41,0,0,0-.43,1.6,2.54,2.54,0,0,0,.43,1.66,1.55,1.55,0,0,0,1.22.49,2.34,2.34,0,0,0,.71-.1,3.78,3.78,0,0,0,.77-.37v-.67Z" transform="translate(-1 -1)"/><rect class="cls-4" x="96" y="143.41" width="64" height="3.73" rx="1.87" ry="1.87" transform="translate(255 289.56) rotate(-180)"/><path class="cls-4" d="M172.86,145.26H175v2h-2.12Z" transform="translate(-1 -1)"/><path class="cls-4" d="M176.3,140.09H180a2.53,2.53,0,0,1,1.8.57,2.15,2.15,0,0,1,.6,1.63,2.21,2.21,0,0,1-.65,1.69,2.82,2.82,0,0,1-2,.61h-1.22v2.66H176.3Zm2.22,3h.55a1.36,1.36,0,0,0,.89-.22.7.7,0,0,0,.26-.57.8.8,0,0,0-.22-.57,1.2,1.2,0,0,0-.85-.23h-.63Z" transform="translate(-1 -1)"/><path class="cls-4" d="M183.55,140.09h2.06l2.7,4v-4h2.08v7.16h-2.08l-2.68-3.93v3.93h-2.08Z" transform="translate(-1 -1)"/><path class="cls-4" d="M195.46,144.66v-1.49h3.42v3.05a6.78,6.78,0,0,1-1.73.91,6,6,0,0,1-1.79.24,4.34,4.34,0,0,1-2.08-.43,3,3,0,0,1-1.25-1.3,4.3,4.3,0,0,1-.44-2,4.16,4.16,0,0,1,.48-2,3.17,3.17,0,0,1,1.42-1.31,4.65,4.65,0,0,1,2-.35,5.58,5.58,0,0,1,1.77.21,2.35,2.35,0,0,1,1,.67,2.9,2.9,0,0,1,.58,1.15l-2.13.38a1.16,1.16,0,0,0-.45-.62,1.33,1.33,0,0,0-.8-.22,1.44,1.44,0,0,0-1.16.51,2.41,2.41,0,0,0-.43,1.6,2.54,2.54,0,0,0,.43,1.66,1.55,1.55,0,0,0,1.22.49,2.34,2.34,0,0,0,.71-.1,3.78,3.78,0,0,0,.77-.37v-.67Z" transform="translate(-1 -1)"/><rect class="cls-4" x="96" y="180.41" width="64" height="3.73" rx="1.87" ry="1.87" transform="translate(255 363.56) rotate(-180)"/><path class="cls-4" d="M172.86,182.26H175v2h-2.12Z" transform="translate(-1 -1)"/><path class="cls-4" d="M176.3,177.09H180a2.53,2.53,0,0,1,1.8.57,2.15,2.15,0,0,1,.6,1.63,2.21,2.21,0,0,1-.65,1.69,2.82,2.82,0,0,1-2,.61h-1.22v2.66H176.3Zm2.22,3h.55a1.36,1.36,0,0,0,.89-.22.7.7,0,0,0,.26-.57.8.8,0,0,0-.22-.57,1.2,1.2,0,0,0-.85-.23h-.63Z" transform="translate(-1 -1)"/><path class="cls-4" d="M183.55,177.09h2.06l2.7,4v-4h2.08v7.16h-2.08l-2.68-3.93v3.93h-2.08Z" transform="translate(-1 -1)"/><path class="cls-4" d="M195.46,181.66v-1.49h3.42v3.05a6.78,6.78,0,0,1-1.73.91,6,6,0,0,1-1.79.24,4.34,4.34,0,0,1-2.08-.43,3,3,0,0,1-1.25-1.3,4.3,4.3,0,0,1-.44-2,4.16,4.16,0,0,1,.48-2,3.17,3.17,0,0,1,1.42-1.31,4.65,4.65,0,0,1,2-.35,5.58,5.58,0,0,1,1.77.21,2.35,2.35,0,0,1,1,.67,2.9,2.9,0,0,1,.58,1.15l-2.13.38a1.16,1.16,0,0,0-.45-.62,1.33,1.33,0,0,0-.8-.22,1.44,1.44,0,0,0-1.16.51,2.41,2.41,0,0,0-.43,1.6,2.54,2.54,0,0,0,.43,1.66,1.55,1.55,0,0,0,1.22.49,2.34,2.34,0,0,0,.71-.1,3.78,3.78,0,0,0,.77-.37v-.67Z" transform="translate(-1 -1)"/></svg>