<svg id="Layer_1" data-name="Layer 1" xmlns="http://www.w3.org/2000/svg" viewBox="0 0 251 251"><defs><style>.cls-1,.cls-5{fill:#f2f2f2;}.cls-1{stroke:#b3b3b3;stroke-miterlimit:10;}.cls-2{fill:#333;}.cls-3{fill:#fff;}.cls-4{fill:#e0bb05;}.cls-5{fill-rule:evenodd;}</style></defs><title>navbar</title><rect class="cls-1" x="0.5" y="0.5" width="250" height="250" rx="13.7" ry="13.7"/><rect class="cls-2" x="35" y="102.11" width="185" height="44.21" rx="5" ry="5"/><path class="cls-3" d="M78.62,129.37v-8.59h1.73v3.38h3.4v-3.38h1.74v8.59H83.75v-3.75h-3.4v3.75Z" transform="translate(-1 -1)"/><path class="cls-3" d="M86.89,126.17a3.34,3.34,0,0,1,.4-1.58,2.73,2.73,0,0,1,1.15-1.18,3.36,3.36,0,0,1,1.65-.4,3.11,3.11,0,0,1,3.22,3.23,3.2,3.2,0,0,1-.91,2.34,3.1,3.1,0,0,1-2.3.93,3.71,3.71,0,0,1-1.63-.38A2.66,2.66,0,0,1,87.29,128,3.74,3.74,0,0,1,86.89,126.17Zm1.68.09a2.08,2.08,0,0,0,.44,1.42,1.41,1.41,0,0,0,1.09.49,1.38,1.38,0,0,0,1.08-.49,2.09,2.09,0,0,0,.43-1.43,2.07,2.07,0,0,0-.43-1.41,1.41,1.41,0,0,0-1.08-.49,1.44,1.44,0,0,0-1.09.49A2.08,2.08,0,0,0,88.57,126.26Z" transform="translate(-1 -1)"/><path class="cls-3" d="M94.47,123.15H96V124a2.44,2.44,0,0,1,1.94-1,2.05,2.05,0,0,1,1,.25,1.9,1.9,0,0,1,.72.74,2.85,2.85,0,0,1,.88-.74,2.14,2.14,0,0,1,1-.25,2.24,2.24,0,0,1,1.16.28,1.74,1.74,0,0,1,.71.82,3.55,3.55,0,0,1,.17,1.28v4H102v-3.55a2.71,2.71,0,0,0-.17-1.2.79.79,0,0,0-.7-.35,1.12,1.12,0,0,0-.65.21,1.14,1.14,0,0,0-.44.62,4.38,4.38,0,0,0-.14,1.28v3H98.24V126a4.66,4.66,0,0,0-.09-1.17.76.76,0,0,0-.27-.39.88.88,0,0,0-.51-.13,1.23,1.23,0,0,0-.68.2,1.18,1.18,0,0,0-.44.6,4.27,4.27,0,0,0-.13,1.28v3H94.47Z" transform="translate(-1 -1)"/><path class="cls-3" d="M108.87,127.39l1.64.28a2.64,2.64,0,0,1-1,1.37,2.88,2.88,0,0,1-1.71.47,2.77,2.77,0,0,1-2.4-1.06,3.54,3.54,0,0,1-.61-2.14,3.46,3.46,0,0,1,.8-2.42,2.66,2.66,0,0,1,2-.88,2.75,2.75,0,0,1,2.19.92,4,4,0,0,1,.77,2.81h-4.13a1.76,1.76,0,0,0,.4,1.14,1.25,1.25,0,0,0,.95.4,1,1,0,0,0,.65-.21A1.25,1.25,0,0,0,108.87,127.39Zm.09-1.66a1.56,1.56,0,0,0-.37-1.09,1.1,1.1,0,0,0-.85-.37,1.14,1.14,0,0,0-.89.39,1.52,1.52,0,0,0-.35,1.07Z" transform="translate(-1 -1)"/><rect class="cls-4" x="191.77" y="118.59" width="17.49" height="1.14" rx="0.53" ry="0.53"/><rect class="cls-4" x="191.77" y="123.16" width="17.49" height="1.14" rx="0.53" ry="0.53"/><rect class="cls-4" x="191.77" y="127.72" width="17.49" height="1.14" rx="0.53" ry="0.53"/><path class="cls-5" d="M173.26,130.86,170,127.6l-.06,0a6.15,6.15,0,1,0-1.76,1.76l0,.05,3.25,3.26a1.26,1.26,0,1,0,1.78-1.77Zm-8.47-2.66a4,4,0,1,1,4-4,4,4,0,0,1-4,4Zm0,0" transform="translate(-1 -1)"/><path class="cls-4" d="M57.61,113.32a2.81,2.81,0,0,0,.55.34l9.72,5.6a.38.38,0,0,1,.22.39v11.67a.36.36,0,0,1-.2.36l-10.13,5.83c-.05,0-.13,0-.16.12h-.12a14.7,14.7,0,0,1-1.4-.78l-5.51-3.17-3.38-2a.7.7,0,0,1-.2-.15V119.36a9.09,9.09,0,0,1,1.08-.65l4.55-2.63,4.62-2.66a2.44,2.44,0,0,1,.24-.1Zm9.91,6.6a.28.28,0,0,0-.16-.28q-4.81-2.76-9.61-5.54a.29.29,0,0,0-.33,0l-9.61,5.55a.33.33,0,0,0-.19.33q0,5.48,0,11a.42.42,0,0,0,.25.42l9.52,5.49a.32.32,0,0,0,.38,0l9.59-5.54a.27.27,0,0,0,.16-.28c0-1.85,0-3.69,0-5.54S67.51,121.78,67.52,119.92Z" transform="translate(-1 -1)"/><path class="cls-4" d="M66.68,125.47c0,1.69,0,3.38,0,5.07a.31.31,0,0,1-.19.31l-8.71,5a.42.42,0,0,1-.48,0l-8.71-5a.31.31,0,0,1-.19-.31q0-5.07,0-10.14a.3.3,0,0,1,.18-.3L57.36,115a.33.33,0,0,1,.38,0q4.38,2.53,8.77,5.06a.32.32,0,0,1,.18.31C66.68,122.1,66.68,123.78,66.68,125.47ZM58,130a.28.28,0,0,0,.16.28l3.75,2.19a.29.29,0,0,0,.32,0c1.21-.71,2.43-1.42,3.65-2.11a.27.27,0,0,0,.16-.27c0-1.39,0-2.79,0-4.18a.26.26,0,0,0-.16-.26l-3.74-2.18a.29.29,0,0,0-.32,0l-3.68,2.11a.25.25,0,0,0-.14.25V128C58,128.64,58,129.34,58,130Zm3.51-11.84a.24.24,0,0,0-.16-.27l-3.56-2.06a.3.3,0,0,0-.34,0Q55.56,117,53.71,118a.28.28,0,0,0-.16.29c0,1.39,0,2.78,0,4.18a.28.28,0,0,0,.16.28c1.21.69,2.41,1.39,3.61,2.09a.27.27,0,0,0,.32,0l3.68-2.11a.24.24,0,0,0,.14-.25V118.2Zm-12.31,12a.24.24,0,0,0,.15.25l3.6,2.08a.24.24,0,0,0,.28,0l3.72-2.16a.22.22,0,0,0,.14-.23l0-4.24a.24.24,0,0,0-.14-.25q-1.83-1-3.66-2.1a.28.28,0,0,0-.34,0l-3.64,2.09a.24.24,0,0,0-.14.24c0,.72,0,1.44,0,2.16S49.16,129.44,49.15,130.15Zm13.15-7.6c0,.12.08.14.15.18l3.35,1.94c.06,0,.1.09.18.07,0-1.15,0-2.29,0-3.44a.94.94,0,0,0-.59-1c-1-.55-2-1.16-3.1-1.77C62.31,119.88,62.31,121.22,62.3,122.55ZM54,133.12l3.43,2a.22.22,0,0,0,.28,0c1-.58,2-1.16,3-1.75a1.28,1.28,0,0,0,.38-.24l-3.52-2a.21.21,0,0,0-.23,0l-1.41.81-2.06,1.17Zm-4.76-8.49c1.12-.64,2.23-1.29,3.35-1.92a.24.24,0,0,0,.12-.24v-3.7s0-.11,0-.17l-.2.1c-.93.55-1.86,1.11-2.81,1.62a.86.86,0,0,0-.54.92c0,1.13,0,2.28,0,3.44Z" transform="translate(-1 -1)"/></svg>