<svg id="Layer_1" data-name="Layer 1" xmlns="http://www.w3.org/2000/svg" viewBox="0 0 251 251"><defs><style>.cls-1,.cls-5{fill:#f2f2f2;}.cls-1{stroke:#b3b3b3;}.cls-1,.cls-6{stroke-miterlimit:10;}.cls-2{fill:#e0bb05;}.cls-3{fill:#333;}.cls-4{fill:#fff;}.cls-6{fill:none;stroke:#333;stroke-width:1.5px;}</style></defs><title>team</title><rect class="cls-1" x="0.5" y="0.5" width="250" height="250" rx="13.7" ry="13.7"/><path class="cls-2" d="M49.79,111.78h2.66v6.48h4.14v2.11h-6.8Z" transform="translate(-1 -1)"/><path class="cls-2" d="M64.55,117.85H59.76a1.55,1.55,0,0,0,.32.86,1.12,1.12,0,0,0,.9.4,1.48,1.48,0,0,0,.67-.17,1.87,1.87,0,0,0,.41-.4l2.35.22a3.39,3.39,0,0,1-1.3,1.35,4.78,4.78,0,0,1-2.19.4,4.5,4.5,0,0,1-1.94-.34,3,3,0,0,1-1.18-1.11,3.36,3.36,0,0,1-.46-1.79,3.14,3.14,0,0,1,.93-2.36,3.59,3.59,0,0,1,2.58-.9,4.55,4.55,0,0,1,2.11.4,2.69,2.69,0,0,1,1.18,1.18,4.23,4.23,0,0,1,.41,2Zm-2.43-1.14a1.62,1.62,0,0,0-.37-1,1.09,1.09,0,0,0-.8-.3,1.07,1.07,0,0,0-.9.45,1.63,1.63,0,0,0-.28.84Z" transform="translate(-1 -1)"/><path class="cls-2" d="M65.35,117.28a3.13,3.13,0,0,1,1-2.35,3.62,3.62,0,0,1,2.6-.92,3.58,3.58,0,0,1,2.82,1.08,3.17,3.17,0,0,1,.77,2.15,3.12,3.12,0,0,1-1,2.36,4.24,4.24,0,0,1-5.05.15A3.05,3.05,0,0,1,65.35,117.28Zm2.39,0a1.83,1.83,0,0,0,.34,1.23,1,1,0,0,0,.84.4,1.06,1.06,0,0,0,.85-.39,1.94,1.94,0,0,0,.33-1.26,1.83,1.83,0,0,0-.33-1.2,1,1,0,0,0-.83-.4,1.07,1.07,0,0,0-.86.4A1.85,1.85,0,0,0,67.74,117.27Z" transform="translate(-1 -1)"/><path class="cls-2" d="M73.65,114.15h2.22v1a3.18,3.18,0,0,1,1-.88,2.65,2.65,0,0,1,1.25-.27,2.06,2.06,0,0,1,1.55.59,2.57,2.57,0,0,1,.56,1.82v4h-2.4V117a1.21,1.21,0,0,0-.22-.83.78.78,0,0,0-.61-.24.86.86,0,0,0-.7.33,1.9,1.9,0,0,0-.27,1.17v3H73.65Z" transform="translate(-1 -1)"/><path class="cls-2" d="M83.82,116.17l-2.28-.24a2.42,2.42,0,0,1,.38-.94,2,2,0,0,1,.7-.6,3,3,0,0,1,.9-.28,6.92,6.92,0,0,1,1.24-.1,9.78,9.78,0,0,1,1.72.12,2.25,2.25,0,0,1,1.09.5,1.87,1.87,0,0,1,.48.75,2.61,2.61,0,0,1,.17.92v2.75a3.14,3.14,0,0,0,.06.69,3.5,3.5,0,0,0,.24.63H86.28a2.54,2.54,0,0,1-.17-.36,2,2,0,0,1-.08-.4,3.26,3.26,0,0,1-.94.65,3.9,3.9,0,0,1-1.47.25,2.49,2.49,0,0,1-1.69-.51,1.66,1.66,0,0,1-.57-1.27,1.7,1.7,0,0,1,.41-1.17,2.87,2.87,0,0,1,1.54-.68c.89-.18,1.47-.3,1.74-.38a7.5,7.5,0,0,0,.84-.28.87.87,0,0,0-.18-.62.94.94,0,0,0-.64-.17,1.62,1.62,0,0,0-.88.19A1,1,0,0,0,83.82,116.17Zm2.07,1.25c-.33.12-.67.22-1,.31a2.44,2.44,0,0,0-.92.38.58.58,0,0,0-.2.44.59.59,0,0,0,.19.46.84.84,0,0,0,.58.18,1.46,1.46,0,0,0,.74-.19,1.19,1.19,0,0,0,.49-.48,1.62,1.62,0,0,0,.14-.72Z" transform="translate(-1 -1)"/><path class="cls-2" d="M89.68,114.15h2.23v1a2.42,2.42,0,0,1,.66-.91,1.38,1.38,0,0,1,.85-.25,2.54,2.54,0,0,1,1.16.33l-.74,1.7a1.86,1.86,0,0,0-.67-.18.83.83,0,0,0-.73.39,4,4,0,0,0-.37,2v2.08H89.68Z" transform="translate(-1 -1)"/><path class="cls-2" d="M101.83,111.78v8.59H99.6v-.92a3,3,0,0,1-.86.79,2.44,2.44,0,0,1-1.15.27,2.23,2.23,0,0,1-1.94-1A4,4,0,0,1,95,117.2a3.45,3.45,0,0,1,.74-2.37A2.41,2.41,0,0,1,97.6,114a2.58,2.58,0,0,1,1,.19,2.19,2.19,0,0,1,.8.56v-3Zm-2.39,5.46a1.69,1.69,0,0,0-.31-1.09,1,1,0,0,0-.79-.36.86.86,0,0,0-.69.35,1.82,1.82,0,0,0-.29,1.16,1.76,1.76,0,0,0,.29,1.11.91.91,0,0,0,.72.36.94.94,0,0,0,.76-.36A1.76,1.76,0,0,0,99.44,117.24Z" transform="translate(-1 -1)"/><path class="cls-2" d="M103,117.28a3.13,3.13,0,0,1,1-2.35,3.62,3.62,0,0,1,2.6-.92,3.58,3.58,0,0,1,2.82,1.08,3.4,3.4,0,0,1-.18,4.51,4.26,4.26,0,0,1-5.06.15A3.05,3.05,0,0,1,103,117.28Zm2.39,0a1.83,1.83,0,0,0,.34,1.23,1,1,0,0,0,.84.4,1.06,1.06,0,0,0,.85-.39,1.94,1.94,0,0,0,.33-1.26,1.83,1.83,0,0,0-.33-1.2,1,1,0,0,0-.83-.4,1.07,1.07,0,0,0-.86.4A1.85,1.85,0,0,0,105.38,117.27Z" transform="translate(-1 -1)"/><path class="cls-3" d="M98,102.83s-15.41,4.89-38,0l21-.75Z" transform="translate(-1 -1)"/><path class="cls-3" d="M60.87,57.76a.5.5,0,0,1,.24-.09c3-.34,4.24-2.91,6-4.87C70.54,49,74.72,46.58,80,46.62c.48,0,1,.16,1.45-.18h.75c2.74.94,5.56,1.62,8.05,3.25A22.83,22.83,0,0,1,97.64,58a2,2,0,0,1-2,.85c-10.79,0-21.58.14-32.37-.08C62.48,58.49,61.24,59.17,60.87,57.76Z" transform="translate(-1 -1)"/><path class="cls-3" d="M84.87,102.83H63.82a1.74,1.74,0,0,1-.54-1.53c.6-4.84,2.29-9.17,6-12.51a2.4,2.4,0,0,1,1-.53,1.56,1.56,0,0,1,.57,0,3.09,3.09,0,0,1,1.38.92Q78.14,95,84,100.94C84.49,101.44,85.19,101.92,84.87,102.83Z" transform="translate(-1 -1)"/><path class="cls-3" d="M93.9,90.83c2.69,3.55,4.43,7.42,4.13,12A38,38,0,0,1,92.39,104c-1.67-.7-3.9-3.21-5.09-4.47-1.66-1.75-3.66-3.2-4.94-5.3a2.11,2.11,0,0,1,.84-2c1.89-1.91,3.72-3.87,5.7-5.68a2,2,0,0,1,1.79.48c.65.57,1.34,1.1,2,1.62S94.22,89.72,93.9,90.83Z" transform="translate(-1 -1)"/><path class="cls-2" d="M82.65,94.17c3,2.79,7,6.74,9.74,9.79a43.24,43.24,0,0,1-6,.75C83.76,101.54,79.13,97,76.3,94c-1.77-1.84-3.56-3.65-5.34-5.47-.44-1.87,1.37-1.81,2.21-2.59a3.59,3.59,0,0,1,2.77.61A28.24,28.24,0,0,1,79.3,90C80.29,91.52,82,92.45,82.65,94.17Z" transform="translate(-1 -1)"/><path class="cls-3" d="M70.62,88.53c-4.64,3.64-6.45,8.62-6.8,14.3H60.06c.63-1.16.24-2.46.52-3.67a19.53,19.53,0,0,1,4-8.34c-.31-1.11.65-1.55,1.17-2.22.75-.61,1.47-1.28,2.25-1.85a1.91,1.91,0,0,1,1.13-.13C70,86.93,70.7,87.43,70.62,88.53Z" transform="translate(-1 -1)"/><path class="cls-3" d="M81.49,46.44c-1,.78-2.17.21-3.25.5-5,1.33-9.34,3.79-12.16,8.26-1.25,2-2.63,3-5,2.47A19.64,19.64,0,0,1,73.58,47.18a6.07,6.07,0,0,0,2.27-.74Z" transform="translate(-1 -1)"/><path class="cls-3" d="M99.2,69.47c-.12,3.19-1.49,5.94-3.1,8.6-.29.46-.76.83-.8,1.43-.43,1.53-1.68,2.39-2.75,3.4-1.6,1.22-3.36,2.17-5,3.26A44.81,44.81,0,0,1,83,87.25a5.29,5.29,0,0,0-1.94.17,2.91,2.91,0,0,1-.59,0A20.4,20.4,0,0,1,62.26,71.35c-.28-1.09-.9-2.49.28-3.31a3.58,3.58,0,0,1,3.91,0c.46.74,0,1.44-.11,2.16a3.82,3.82,0,0,0,4.77,4.6,19.67,19.67,0,0,0,2.46-.92,14.46,14.46,0,0,1,11.29,0c.69.29,1.38.57,2.09.82a3.65,3.65,0,0,0,4-.68A3.94,3.94,0,0,0,92.16,70c-.2-.72-.75-1.55.27-2.16a15.09,15.09,0,0,1,5.48-.21C99,67.66,99.65,68.23,99.2,69.47Z" transform="translate(-1 -1)"/><path class="cls-2" d="M63.07,58.08l32.32,0c.75,0,1.5,0,2.25-.06,2.41.59,2.09,2.84,2.5,4.48.3,1.23,1.43,2.89-.53,3.94a3.93,3.93,0,0,1-2.7.51q-13.64,0-27.29,0c-2.47-.06-5,.13-7.42-.1a1.75,1.75,0,0,1-1.36-1.59C60.84,62.64,60.94,60,63.07,58.08Z" transform="translate(-1 -1)"/><path class="cls-2" d="M92.27,82.55a17.79,17.79,0,0,1,3-3l1.27,1.26a5.4,5.4,0,0,1,2.56,1.85,2.24,2.24,0,0,1,.69,1.49A4.1,4.1,0,0,1,96.64,87a2.55,2.55,0,0,1-1.46-.73c-.65-.68-1.33-1.33-2-2C92.74,83.8,92.13,83.37,92.27,82.55Z" transform="translate(-1 -1)"/><path class="cls-3" d="M98.78,82.9l-2.21-2.13c1.89-1.06,3.12-2.84,4.66-4.29a3.06,3.06,0,0,1,3.18-1c.79,1.22,0,2-.78,2.75a3.29,3.29,0,0,0-1.6,1.48,2.27,2.27,0,0,1-1,.72,1.56,1.56,0,0,0-1,1C99.78,82,99.52,82.65,98.78,82.9Z" transform="translate(-1 -1)"/><path class="cls-2" d="M96.46,86.7c1.48-.44,2.26-1.66,3.14-2.79.58,0,.78.39,1,.81.4.65,1.6,1,1.19,1.9a5.07,5.07,0,0,1-2.57,2.55c-.94.37-1.26-1.21-2.19-1.43A.75.75,0,0,1,96.46,86.7Z" transform="translate(-1 -1)"/><path class="cls-3" d="M99.2,69.47c0-1-.52-1.26-1.42-1.24-1.9,0-3.81,0-5.71,0-.92-.13-1.8-.29-1.46-1.58a59.55,59.55,0,0,1,8.86,0A4.92,4.92,0,0,1,99.2,69.47Z" transform="translate(-1 -1)"/><path class="cls-3" d="M96.46,86.7c.18.35.36.7.55,1L93.9,90.83,92.36,89a3.3,3.3,0,0,1,3-3.08Z" transform="translate(-1 -1)"/><path class="cls-2" d="M99.47,66.71c-2.41,0-4.82,0-7.23,0-.6,0-1.25-.17-1.75.36a2.75,2.75,0,0,1-2,.44c-5.51,0-11,0-16.53,0A3.91,3.91,0,0,1,69.64,67a.48.48,0,0,1-.18-.64l30.15,0A.83.83,0,0,1,99.47,66.71Z" transform="translate(-1 -1)"/><path class="cls-3" d="M103.29,78c.49-.81,1.21-1.52,1.12-2.58,1.87,1.09,2.11,2.34.78,4.09C103.85,79.92,103.28,79.34,103.29,78Z" transform="translate(-1 -1)"/><path class="cls-4" d="M103.29,78a2.74,2.74,0,0,0,1.9,1.51,7.08,7.08,0,0,1-1.89,1.89,2.59,2.59,0,0,1-1.51-1.9C101.64,78.37,102.15,77.87,103.29,78Z" transform="translate(-1 -1)"/><path class="cls-4" d="M99.54,81a1.09,1.09,0,0,1,1.12-1.12c1,.29,2.09.57,2.28,1.89a4.73,4.73,0,0,1-1.52,1.5C100.08,83.13,99.84,82.05,99.54,81Z" transform="translate(-1 -1)"/><path class="cls-3" d="M99.54,81l1.88,2.27c-.26.49-.82.8-.84,1.43l-1-.81-.82-1C99,82.27,99.29,81.65,99.54,81Z" transform="translate(-1 -1)"/><path class="cls-3" d="M102.94,81.79l-2.28-1.89,1.13-.38a2.72,2.72,0,0,1,1.51,1.9Z" transform="translate(-1 -1)"/><path class="cls-3" d="M66.41,68.23c-4.44,0-4.44,0-3.21,4.35A19.85,19.85,0,0,0,79.9,86.69a3.16,3.16,0,0,1,.84.34c-1.64,1.34-3.3.8-4.95,0a5.71,5.71,0,0,0-2.57-.75c-.85.32-1.58-.12-2.35-.36A47.24,47.24,0,0,1,66,83.2c-1-1.22-2.47-2-2.88-3.67-1.81-3-3.53-6.1-4-9.7A15.72,15.72,0,0,1,59,66.69c.92-.91,1.92-.63,2.93-.19,2,.22,4-.2,6,.23C68.1,67.92,67.53,68.36,66.41,68.23Z" transform="translate(-1 -1)"/><path class="cls-2" d="M61.94,66.64l-2.95,0a2.09,2.09,0,0,1-1.13-2.47c.37-1.55.74-3.1,1.17-4.64a2.29,2.29,0,0,1,1.84-1.82c.68.51,1.48.14,2.2.32a30.79,30.79,0,0,0-1.66,6.07,2.65,2.65,0,0,0,.54,2.2c.15.07.19.14.14.2A.2.2,0,0,1,61.94,66.64Z" transform="translate(-1 -1)"/><path class="cls-2" d="M63.14,79.53c1.1,1,2.35,1.84,3,3.26a2.21,2.21,0,0,1-.82,1.54c-.67.65-1.34,1.3-2,2a2.54,2.54,0,0,1-1.44.74,4.09,4.09,0,0,1-3.2-2.9,2.24,2.24,0,0,1,.67-1.52c.78-.73,1.43-1.64,2.58-1.84Z" transform="translate(-1 -1)"/><path class="cls-3" d="M61.9,80.78l-2.21,2.13c-.75-.26-1-.91-1.27-1.56a1.61,1.61,0,0,0-1-.95,2.35,2.35,0,0,1-1-.72A3.2,3.2,0,0,0,55,78.28c-1-.8-1.52-1.7-.59-2.88a2.81,2.81,0,0,1,2.77,1C58.77,77.88,60,79.69,61.9,80.78Z" transform="translate(-1 -1)"/><path class="cls-2" d="M58.88,83.93c.88,1.12,1.66,2.34,3.14,2.78a.76.76,0,0,1-.55,1l-.33.16c-.68.38-1.07,1.67-1.85,1.27a6.86,6.86,0,0,1-2.5-2.38c-.64-1,.71-1.37,1.11-2.06C58.09,84.3,58.29,83.88,58.88,83.93Z" transform="translate(-1 -1)"/><path class="cls-3" d="M61.47,87.74l.55-1,1.07-.79a3.31,3.31,0,0,1,3,3.07l-1.53,1.83Z" transform="translate(-1 -1)"/><path class="cls-3" d="M54.42,75.4c-.06,1.06,0,2.08,1.13,2.62.06,1.32-.59,1.93-1.89,1.88C51.79,77.94,52.07,76.29,54.42,75.4Z" transform="translate(-1 -1)"/><path class="cls-4" d="M57.81,79.9A1.09,1.09,0,0,1,58.93,81c-.31,1-.53,2.1-1.87,2.25a4.34,4.34,0,0,1-1.52-1.49C55.71,80.44,56.78,80.2,57.81,79.9Z" transform="translate(-1 -1)"/><path class="cls-4" d="M53.66,79.9A6,6,0,0,0,55.55,78c1.15-.08,1.16.69,1.13,1.5a2.73,2.73,0,0,1-1.51,1.89A4.37,4.37,0,0,1,53.66,79.9Z" transform="translate(-1 -1)"/><path class="cls-3" d="M57.06,83.27,58.93,81l.76,1.89-.81,1-1,.8C57.89,84.09,57.32,83.77,57.06,83.27Z" transform="translate(-1 -1)"/><path class="cls-3" d="M55.17,81.41a2.7,2.7,0,0,1,1.51-1.89l1.13.38-2.27,1.88Z" transform="translate(-1 -1)"/><path class="cls-2" d="M71.06,85.58a3.77,3.77,0,0,1,2.16.73c-.51,1-2,1-2.26,2.24l-.34,0L69.08,87C69.12,85.65,70,85.55,71.06,85.58Z" transform="translate(-1 -1)"/><path class="cls-2" d="M83.07,86.69c1.51-.06,2.79-1.32,4.4-.86.88-.35,1.36,0,1.58.86-1.31,2.29-3.54,3.74-5.23,5.69-.46.54-1.24.89-1.17,1.79a18,18,0,0,1-3.77-3.78A12,12,0,0,1,82.36,87C82.59,86.88,82.84,86.81,83.07,86.69Z" transform="translate(-1 -1)"/><path class="cls-3" d="M90.43,87.37q1.57-1.64,3.14-3.29a6.38,6.38,0,0,1,1.82,1.84,13.62,13.62,0,0,0-3,3.08A6.31,6.31,0,0,1,90.43,87.37Z" transform="translate(-1 -1)"/><path class="cls-3" d="M82.69,87.05c-1.21,1.19-2,2.79-3.81,3.34l-3.09-3.33,4.95,0h.37A1.59,1.59,0,0,1,82.69,87.05Z" transform="translate(-1 -1)"/><path class="cls-3" d="M64.9,84.09l3,3c-.1,1.12-1.17,1.31-1.81,1.91a14.13,14.13,0,0,0-3-3.07A6.19,6.19,0,0,1,64.9,84.09Z" transform="translate(-1 -1)"/><path class="cls-5" d="M66.41,68.23,68,67.07a1.1,1.1,0,0,1,1.5-.39l18.28,0a7.33,7.33,0,0,1,2.75.34l1.58,1.18c1.32,2.47,1.28,4.26-.12,5.88s-3.34,2.16-5.93.94a15.13,15.13,0,0,0-13.52,0c-2.57,1.2-4.33.83-5.82-.78S65.11,70.81,66.41,68.23Z" transform="translate(-1 -1)"/><path class="cls-3" d="M82.69,87.05l-1.58,0c.57-.56,1.29-.32,2-.34Z" transform="translate(-1 -1)"/><path class="cls-2" d="M69.46,66.68l-1.5.39c-2-.85-4-.09-6-.43a2.81,2.81,0,0,1,0-.29l7.51,0Z" transform="translate(-1 -1)"/><path class="cls-3" d="M85.61,70.44c0-.8-.06-1.57.78-1.64s1,.65,1,1.31,0,1.39-.81,1.46S85.64,70.91,85.61,70.44Z" transform="translate(-1 -1)"/><path class="cls-3" d="M72.85,70.16c0,.61.08,1.37-.8,1.41s-.91-.72-.91-1.33,0-1.39.85-1.43S72.85,69.52,72.85,70.16Z" transform="translate(-1 -1)"/><rect class="cls-6" x="33.5" y="33.5" width="89" height="184" rx="13.73" ry="13.73"/><path class="cls-3" d="M61.9,182.71a11.89,11.89,0,0,0-2,23.62v-9.24H57v-3.32h2.87v-2.46a4,4,0,0,1,4.28-4.39,23.91,23.91,0,0,1,2.57.13v3H65c-1.37,0-1.64.66-1.64,1.62v2.12h3.29l-.43,3.33H63.35v9.32a11.89,11.89,0,0,0-1.45-23.7Zm0,0" transform="translate(-1 -1)"/><path class="cls-3" d="M99.33,192.8a1.9,1.9,0,0,0-1.72.95v-.81h-1.9c0,.54,0,5.73,0,5.73h1.9v-3.2a1.28,1.28,0,0,1,.06-.46,1,1,0,0,1,1-.7c.69,0,1,.52,1,1.29v3.07h1.9v-3.29c0-1.76-.94-2.58-2.19-2.58Zm-1.72,1h0s0,0,0,0Zm0,0" transform="translate(-1 -1)"/><rect class="cls-3" x="91.74" y="191.94" width="1.91" height="5.74"/><path class="cls-3" d="M97.17,182.66A11.83,11.83,0,1,0,109,194.48a11.83,11.83,0,0,0-11.83-11.82Zm6.28,17.17a.93.93,0,0,1-.94.91H91.76a.93.93,0,0,1-.94-.91V189a.93.93,0,0,1,.94-.91h10.75a.93.93,0,0,1,.94.91Zm0,0" transform="translate(-1 -1)"/><path class="cls-3" d="M93.71,190.17a1,1,0,1,0,0,2h0a1,1,0,1,0,0-2Zm0,0" transform="translate(-1 -1)"/><path class="cls-2" d="M145.36,111.78h2.77l1.93,6.18,1.91-6.18h2.7l-3.19,8.59H148.6Z" transform="translate(-1 -1)"/><path class="cls-2" d="M157,116.17l-2.28-.24a2.42,2.42,0,0,1,.38-.94,2,2,0,0,1,.7-.6,3.09,3.09,0,0,1,.9-.28A6.92,6.92,0,0,1,158,114a9.78,9.78,0,0,1,1.72.12,2.25,2.25,0,0,1,1.09.5,1.87,1.87,0,0,1,.48.75,2.61,2.61,0,0,1,.17.92v2.75a3.14,3.14,0,0,0,.06.69,3.5,3.5,0,0,0,.24.63H159.5a2.92,2.92,0,0,1-.18-.36,2,2,0,0,1-.08-.4,3.36,3.36,0,0,1-.93.65,4,4,0,0,1-1.48.25,2.49,2.49,0,0,1-1.69-.51,1.66,1.66,0,0,1-.57-1.27,1.7,1.7,0,0,1,.41-1.17,2.87,2.87,0,0,1,1.54-.68c.89-.18,1.47-.3,1.74-.38a6.88,6.88,0,0,0,.84-.28.87.87,0,0,0-.18-.62.94.94,0,0,0-.64-.17,1.62,1.62,0,0,0-.88.19A1,1,0,0,0,157,116.17Zm2.07,1.25c-.33.12-.67.22-1,.31a2.44,2.44,0,0,0-.92.38.58.58,0,0,0-.2.44.59.59,0,0,0,.19.46.86.86,0,0,0,.58.18,1.46,1.46,0,0,0,.74-.19,1.19,1.19,0,0,0,.49-.48,1.62,1.62,0,0,0,.14-.72Z" transform="translate(-1 -1)"/><path class="cls-2" d="M162.86,114.15h2.22v1a3.31,3.31,0,0,1,1-.88,2.64,2.64,0,0,1,1.24-.27,2,2,0,0,1,1.55.59,2.53,2.53,0,0,1,.56,1.82v4h-2.39V117a1.21,1.21,0,0,0-.22-.83.78.78,0,0,0-.61-.24.86.86,0,0,0-.7.33,1.9,1.9,0,0,0-.27,1.17v3h-2.39Z" transform="translate(-1 -1)"/><path class="cls-2" d="M179.35,117.26v-1.79h4.1v3.67a8.58,8.58,0,0,1-2.08,1.09,7.22,7.22,0,0,1-2.15.29,5.24,5.24,0,0,1-2.5-.52,3.6,3.6,0,0,1-1.49-1.55,5.17,5.17,0,0,1-.53-2.37,4.93,4.93,0,0,1,.58-2.45,3.78,3.78,0,0,1,1.7-1.58,5.63,5.63,0,0,1,2.35-.41,6.69,6.69,0,0,1,2.13.25,2.85,2.85,0,0,1,1.17.8,3.66,3.66,0,0,1,.7,1.38l-2.56.46a1.32,1.32,0,0,0-.54-.75,1.67,1.67,0,0,0-1-.26,1.75,1.75,0,0,0-1.39.61,2.88,2.88,0,0,0-.52,1.92,3.06,3.06,0,0,0,.52,2,1.85,1.85,0,0,0,1.47.6,2.7,2.7,0,0,0,.85-.13,4.68,4.68,0,0,0,.92-.44v-.81Z" transform="translate(-1 -1)"/><path class="cls-2" d="M184.57,117.28a3.13,3.13,0,0,1,1-2.35,3.62,3.62,0,0,1,2.6-.92,3.55,3.55,0,0,1,2.82,1.08,3.4,3.4,0,0,1-.18,4.51,3.64,3.64,0,0,1-2.63.91,3.7,3.7,0,0,1-2.43-.76A3.05,3.05,0,0,1,184.57,117.28Zm2.39,0a1.88,1.88,0,0,0,.34,1.23,1.06,1.06,0,0,0,.85.4,1.05,1.05,0,0,0,.84-.39,1.94,1.94,0,0,0,.34-1.26,1.83,1.83,0,0,0-.34-1.2,1,1,0,0,0-.82-.4,1.09,1.09,0,0,0-.87.4A1.91,1.91,0,0,0,187,117.27Z" transform="translate(-1 -1)"/><path class="cls-2" d="M197.2,114.15h2.23v6.15a2.55,2.55,0,0,1-.25,1.12,2.5,2.5,0,0,1-.66.86,2.67,2.67,0,0,1-1.05.47,6.43,6.43,0,0,1-1.46.15,4.29,4.29,0,0,1-2.57-.56,1.84,1.84,0,0,1-.7-1.51c0-.08,0-.18,0-.32l2.31.27a.76.76,0,0,0,.27.44,1.16,1.16,0,0,0,.66.18,1,1,0,0,0,.78-.27,1.4,1.4,0,0,0,.25-1v-1a2.55,2.55,0,0,1-.7.61,2.58,2.58,0,0,1-1.19.29,2.36,2.36,0,0,1-2-1.09,3.49,3.49,0,0,1-.54-2,3.16,3.16,0,0,1,.7-2.22,2.38,2.38,0,0,1,1.84-.76,2.28,2.28,0,0,1,2.08,1.06Zm-2.24,3a1.49,1.49,0,0,0,.28,1,1,1,0,0,0,1.51,0,1.51,1.51,0,0,0,.3-1,1.54,1.54,0,0,0-.32-1,1,1,0,0,0-.77-.36.89.89,0,0,0-.73.33A1.76,1.76,0,0,0,195,117.17Z" transform="translate(-1 -1)"/><path class="cls-2" d="M200.87,111.78h2.39V115a3,3,0,0,1,1-.72,2.62,2.62,0,0,1,1.13-.22,2,2,0,0,1,1.53.59,2.54,2.54,0,0,1,.56,1.82v4h-2.39V117a1.21,1.21,0,0,0-.22-.83.78.78,0,0,0-.61-.24.86.86,0,0,0-.7.33,1.9,1.9,0,0,0-.27,1.17v3h-2.39Z" transform="translate(-1 -1)"/><rect class="cls-6" x="129.5" y="33.5" width="90" height="184" rx="13.73" ry="13.73"/><path class="cls-3" d="M194,196.9a2.39,2.39,0,0,0,2.41-2.39,2.4,2.4,0,0,0-4.34-1.42A2.4,2.4,0,0,0,194,196.9Zm0,0" transform="translate(-1 -1)"/><path class="cls-3" d="M199.26,191.58v-2.31H197v2.31Zm0,0" transform="translate(-1 -1)"/><path class="cls-3" d="M194.05,182.5A12,12,0,1,0,206,194.55a12,12,0,0,0-11.95-12.05Zm6.78,10.63,0,5.59a2.64,2.64,0,0,1-2.65,2.62l-8.38,0a2.64,2.64,0,0,1-2.62-2.65l0-8.37a2.64,2.64,0,0,1,2.65-2.63l8.38,0a2.63,2.63,0,0,1,2.62,2.65Zm0,0" transform="translate(-1 -1)"/><path class="cls-3" d="M197.73,194.52a3.73,3.73,0,0,1-7.46,0,3.61,3.61,0,0,1,.28-1.4h-2l0,5.59a1.3,1.3,0,0,0,1.3,1.31l8.37,0a1.3,1.3,0,0,0,1.32-1.3l0-5.59h-2a3.43,3.43,0,0,1,.27,1.4Zm0,0" transform="translate(-1 -1)"/><path class="cls-3" d="M159,182.5a12,12,0,1,0,12,12,12,12,0,0,0-12-12Zm5.35,9.25c0,.12,0,.24,0,.36a7.85,7.85,0,0,1-12.09,6.62c.21,0,.43,0,.66,0a5.56,5.56,0,0,0,3.43-1.18,2.78,2.78,0,0,1-2.58-1.92,3,3,0,0,0,.52.05,2.84,2.84,0,0,0,.72-.1,2.76,2.76,0,0,1-2.21-2.71v0a2.65,2.65,0,0,0,1.25.34,2.76,2.76,0,0,1-1.23-2.3,2.79,2.79,0,0,1,.37-1.38,7.84,7.84,0,0,0,5.7,2.88,2.59,2.59,0,0,1-.07-.63,2.76,2.76,0,0,1,4.77-1.89,5.35,5.35,0,0,0,1.76-.67,2.78,2.78,0,0,1-1.22,1.53,5.58,5.58,0,0,0,1.59-.43,5.64,5.64,0,0,1-1.38,1.42Zm0,0" transform="translate(-1 -1)"/><path class="cls-3" d="M185.16,86.34c.46.38,1,.24,1.54.31a8.32,8.32,0,0,1,7.6,7.92c.2,2.92.07,5.86.1,8.79a2.86,2.86,0,0,1-.6,1.64h-6c-1.06-1-.73-2.33-.8-3.55a12.07,12.07,0,0,0-.22-2.8,22.7,22.7,0,0,0-.18,3.79,3.23,3.23,0,0,1-.8,2.56H167c-1.43-1.59-.48-3.53-.81-5.07-.29,1.54.62,3.48-.79,5.07h-6c-.15-.22-.42-.43-.43-.65-.25-4.29-1.07-8.68.56-12.79,1.53-3.85,5-5.09,8.92-5,1.15-.46,1.81.22,2.44,1a9.37,9.37,0,0,1,.58,1.69,5.81,5.81,0,0,0,5.7,4.18c2.45-.11,4.25-1.67,5-4.39a11.46,11.46,0,0,1,.34-1.14C183.16,86.93,183.83,86.07,185.16,86.34Z" transform="translate(-1 -1)"/><path class="cls-3" d="M189.4,45c1,2.16.95,2.36-1.29,3l-.39.12c-.56.18-1.35.23-1.5.81s.66.9,1.08,1.24a12.65,12.65,0,0,1,4.51,8.37c0,1.48-1.12,1.47-2.08,1.56a21.43,21.43,0,0,1-8.26-1.09,36,36,0,0,1-11.88-6.39c-.78-.61-1.62-1.29-1-2.51a10.53,10.53,0,0,1,10.56-3.1A8.26,8.26,0,0,0,187,45Z" transform="translate(-1 -1)"/><path class="cls-2" d="M185.8,105c0-2.06,0-4.12.06-6.17,0-.72,0-1.66,1-1.67s.92,1,.93,1.67c0,2,0,4.11,0,6.17Z" transform="translate(-1 -1)"/><path class="cls-2" d="M165.4,105c0-2.18,0-4.36,0-6.55,0-.61.09-1.3.91-1.23.66.06.71.7.71,1.23,0,2.19,0,4.37,0,6.55Z" transform="translate(-1 -1)"/><path class="cls-2" d="M163,65.75l.05-5.18c1.09-.33,1.68.58,2.45,1s1.46.62,1.95-.58c.72-1.78,1.38-1.92,3-.79a21,21,0,0,0,4,2.62c.45.18,1.11.7,1.41.08.86-1.77,1.82-.73,2.71-.18a17,17,0,0,0,6.9,2.92c.34-1.22-1.45-2.35,0-3.51a2.89,2.89,0,0,1,3,.25,2,2,0,0,1,.62,1.43c0,4.24.52,8.5-.49,12.69a13.15,13.15,0,0,1-12.72,10.11c-3.43.07-6.81.12-9.56-2.41A11.45,11.45,0,0,1,163,75.45a2.57,2.57,0,0,1-.76-1.57c-.09-2.19-.09-4.37,0-6.56A2.54,2.54,0,0,1,163,65.75Z" transform="translate(-1 -1)"/><path class="cls-2" d="M166.16,84.22A21,21,0,0,0,175,85.86c7.28.08,12.89-5.11,13.13-13,.11-3.38,0-6.77,0-10.16,1.77-1,2.52-.7,2.61,1.19,0,.64-.18,1.31.21,1.9,1.05.34,2.22-.24,3.21.44a10.69,10.69,0,0,0,0,8.82c-3-.21-3.65,1.43-4,4.1a10,10,0,0,1-5.06,7.22l-2.09,1.48c-3,2.25-9.92,2.24-12.5,0l-2.13-1.26C167.75,85.7,166.65,85.26,166.16,84.22Z" transform="translate(-1 -1)"/><path class="cls-3" d="M185,62.61a15.65,15.65,0,0,1,1.78,4c-4-.17-7.17-2-10.41-4.51l.53,2.41a15.88,15.88,0,0,1-7.13-3.88c-.9-.79-1.4-1.05-1.75.5-.56,2.51-.87,2.57-3,1.08-.7-.48-1.35-1.06-2-1.6,0-1.37-.11-2.75-.09-4.13.06-2.66.94-3.65,3.66-4.24A4.14,4.14,0,0,1,169,53.42a37.1,37.1,0,0,0,14.17,7.78C183.93,61.43,185,61.42,185,62.61Z" transform="translate(-1 -1)"/><path class="cls-3" d="M185,62.61a61.07,61.07,0,0,1-9.36-3.69,40.12,40.12,0,0,1-9.07-6.72l2-2A2.74,2.74,0,0,0,169.94,52c4.83,3.52,9.94,6.48,16,7.17,1.95.22,4.07,1,5.87-.62.5,1.38.8,2.68-.39,4-.83.89-.25,2.14-.41,3.21-.52-.18-.43-.65-.36-1,.37-2.13-.76-2.43-2.46-2.1Z" transform="translate(-1 -1)"/><path class="cls-2" d="M159.77,75a4.52,4.52,0,0,1,0-8.82c1.36-.5,1.88.33,2,1.43a33,33,0,0,1,0,6C161.65,74.68,161.13,75.51,159.77,75Z" transform="translate(-1 -1)"/><path class="cls-2" d="M159.77,75c.91,0,1.26-.5,1.24-1.41q-.06-3,0-6c0-.91-.33-1.38-1.24-1.41,1-.67,2.16-.11,3.2-.44v9.7C161.93,75.12,160.76,75.68,159.77,75Z" transform="translate(-1 -1)"/><path class="cls-2" d="M194.22,75c-1.12,0-1.7-.37-1.64-1.63.08-1.85.08-3.71,0-5.57-.06-1.25.52-1.66,1.64-1.62a4.52,4.52,0,0,1,0,8.82Z" transform="translate(-1 -1)"/><path class="cls-2" d="M170.58,87.8c4.17,1.3,8.33.79,12.5,0-.31,4-2.66,6.42-6.23,6.38A6.36,6.36,0,0,1,170.58,87.8Z" transform="translate(-1 -1)"/><path class="cls-2" d="M178.76,99.93a2.26,2.26,0,0,1-2.15,2.16,2.17,2.17,0,1,1,0-4.33C178,97.74,178.58,98.58,178.76,99.93Z" transform="translate(-1 -1)"/><path class="cls-2" d="M182,98.32a.89.89,0,0,1-.84-.4.83.83,0,0,1,.16-1.09c.95-.92,1.9-1.84,2.88-2.73a1,1,0,0,1,1.27-.1.8.8,0,0,1,.27.89A14.06,14.06,0,0,1,182,98.32Z" transform="translate(-1 -1)"/><path class="cls-2" d="M168.27,93.4c.17.07.49.1.64.27.94,1,1.86,2.07,2.74,3.15a.84.84,0,0,1-.05,1.1.69.69,0,0,1-1.06,0,38.94,38.94,0,0,1-3-3.2C167.17,94.21,167.36,93.58,168.27,93.4Z" transform="translate(-1 -1)"/><path class="cls-3" d="M186.32,76.41c-2.2,4.92-5.94,4.34-8.73,2.45-.73-.5-.49-1,0-1.43a4,4,0,0,1,4.2-1.14C183.18,76.78,184.49,77.36,186.32,76.41Z" transform="translate(-1 -1)"/><path class="cls-3" d="M167.55,76.6a4.29,4.29,0,0,0,3.84-.13,3.92,3.92,0,0,1,4.58.88c.31.31.88.72.42,1.15a6.18,6.18,0,0,1-4.1,1.78C169.82,80.35,168.44,78.86,167.55,76.6Z" transform="translate(-1 -1)"/><path class="cls-3" d="M176.56,74.6c-1.26.08-1.91-.35-1.62-1.75.34-1.56.59-3.13.88-4.7.12-.66.43-1.2,1.19-1s.77.78.6,1.44-.35,1.55-.5,2.33c-.12.6-.22,1.19.33,1.66s1.39.56.92,1.47C178,74.76,177.21,74.55,176.56,74.6Z" transform="translate(-1 -1)"/><path class="cls-3" d="M174.16,69.27a1,1,0,0,1-.46,1c-.44.25-.78,0-1-.36-.67-1.13-1.27-.95-1.87.06a.69.69,0,0,1-.84.36.88.88,0,0,1-.56-.95,2.11,2.11,0,0,1,2.18-2.14A2.24,2.24,0,0,1,174.16,69.27Z" transform="translate(-1 -1)"/><path class="cls-3" d="M182.52,67.4a2.15,2.15,0,0,1,2.26,1.24c.26.57.36,1.2-.2,1.62s-.93-.09-1.23-.53c-.42-.61-.88-.8-1.41-.14-.39.5-.74,1.35-1.47.5-.56-.65-.21-1.4.27-2A2.14,2.14,0,0,1,182.52,67.4Z" transform="translate(-1 -1)"/><rect class="cls-3" x="142.49" y="143.95" width="66.51" height="2.67" rx="1.33" ry="1.33" transform="translate(350.49 289.56) rotate(180)"/><rect class="cls-3" x="142.49" y="156.95" width="66.51" height="2.67" rx="1.33" ry="1.33" transform="translate(350.49 315.56) rotate(180)"/><rect class="cls-3" x="142.49" y="168.95" width="66.51" height="2.67" rx="1.33" ry="1.33" transform="translate(350.49 339.56) rotate(180)"/><rect class="cls-3" x="46.49" y="143.95" width="66.51" height="2.67" rx="1.33" ry="1.33" transform="translate(158.49 289.56) rotate(180)"/><rect class="cls-3" x="46.49" y="156.95" width="66.51" height="2.67" rx="1.33" ry="1.33" transform="translate(158.49 315.56) rotate(180)"/><rect class="cls-3" x="46.49" y="168.95" width="66.51" height="2.67" rx="1.33" ry="1.33" transform="translate(158.49 339.56) rotate(180)"/><rect class="cls-3" x="158" y="126.94" width="37.49" height="5.51" rx="2.76" ry="2.76" transform="matrix(-1, 0, 0, -1, 352.49, 258.38)"/><rect class="cls-3" x="60" y="126.94" width="37.49" height="5.51" rx="2.76" ry="2.76" transform="matrix(-1, 0, 0, -1, 156.49, 258.38)"/></svg>